<svg preserveAspectRatio="none" width="100%" height="100%" overflow="visible" style="display: block;" viewBox="0 0 100.834 38.7084" fill="none" xmlns="http://www.w3.org/2000/svg">
<g id="Group">
<path id="Vector" d="M100.781 27.6322C100.649 27.2274 100.392 27.0251 100.019 27.0251C99.8324 27.0251 99.6131 27.0743 99.3719 27.1837C99.1581 27.2603 98.9114 27.4243 98.6427 27.665C98.1274 28.1463 97.4257 28.8136 96.5266 29.6669C95.633 30.4928 94.5914 31.346 93.3962 32.2266C92.234 33.1072 90.9621 33.8511 89.5861 34.4582C88.21 35.0653 86.7792 35.3661 85.299 35.3552C84.1696 35.3497 83.0403 34.9668 81.9109 34.2066C80.7871 33.419 79.6852 32.4344 78.6161 31.2421C77.5471 30.0278 76.5438 28.7425 75.6118 27.3915C74.6799 26.0132 73.863 24.7333 73.1722 23.5464C75.4145 22.5947 77.4813 21.7743 79.3672 21.0906C81.286 20.3796 83.1225 19.7177 84.8768 19.1106C86.6312 18.4761 88.4019 17.8581 90.1836 17.251C90.7209 17.0377 91.0772 16.8025 91.2362 16.5345C91.4281 16.2391 91.5213 15.9437 91.5268 15.6484C91.5268 15.271 91.3843 14.9373 91.0882 14.6365C90.8196 14.3138 90.4303 14.1497 89.9205 14.1443C88.9501 14.1388 87.7221 14.3302 86.2419 14.724C84.7562 15.1178 83.1773 15.6429 81.5053 16.3047C79.8332 16.9392 78.2104 17.6557 76.6425 18.4488C75.0746 19.2419 73.7095 20.0404 72.5473 20.839C72.931 19.499 73.3861 18.0386 73.9124 16.4524C74.4332 14.8717 74.9814 13.2746 75.5625 11.6666C76.1656 10.0585 76.7576 8.51609 77.3278 7.04478C77.9308 5.57347 78.4791 4.24437 78.9725 3.06295C79.1369 2.66367 79.2849 2.29721 79.422 1.97998C79.5865 1.65728 79.6687 1.36192 79.6687 1.09391C79.6687 0.36646 79.2849 0.00546955 78.5065 0C78.024 0 77.6019 0.1258 77.251 0.393808C76.9276 0.661816 76.5329 1.24706 76.0669 2.16047C75.1404 4.00918 74.2084 6.06027 73.2764 8.30825C72.3718 10.5344 71.4947 12.8261 70.6449 15.1835C69.7952 17.5135 69.0386 19.7834 68.3753 21.9821C67.8654 23.7214 67.4378 25.3404 67.087 26.8446C66.7361 27.1782 66.3688 27.5118 65.9905 27.851C64.8776 28.8136 63.7318 29.7051 62.5367 30.531C61.3471 31.3569 60.1848 32.0188 59.05 32.522C57.9426 33.0252 56.9174 33.2713 55.9745 33.2658C55.196 33.2658 54.4668 33.0525 53.798 32.6478C53.1566 32.243 52.5919 31.6195 52.115 30.7826C53.7158 29.2621 55.0205 27.5665 56.0293 25.6905C57.038 23.8144 57.5479 21.9001 57.5643 19.9365C57.5753 18.1917 57.1915 16.8954 56.4185 16.0586C55.6674 15.1944 54.6916 14.7569 53.48 14.7514C52.5371 14.7459 51.6051 15.1288 50.6841 15.9C49.7905 16.6712 49.0559 17.8089 48.4802 19.313C47.9046 20.8116 47.6086 22.6385 47.5976 24.788C47.5921 25.7835 47.6524 26.7242 47.7785 27.6103C47.9046 28.4964 48.091 29.3168 48.3267 30.0716C47.0274 31.0288 45.6075 31.789 44.067 32.3415C42.5539 32.8939 40.9915 33.1674 39.3742 33.1564C37.3019 33.14 35.8217 32.7298 34.9391 31.9203C34.0564 31.1108 33.5685 29.7325 33.4699 27.8017C36.063 26.8774 38.1572 25.8327 39.7525 24.6567C41.3752 23.4589 42.5539 22.2173 43.294 20.932C44.0286 19.6193 44.4014 18.3339 44.4124 17.0705C44.4234 15.807 44.078 14.7459 43.3817 13.8817C42.6855 13.0175 41.6274 12.58 40.1966 12.569C39.0946 12.5636 37.9598 12.93 36.7976 13.6739C35.6353 14.4177 34.5663 15.4734 33.585 16.8353C32.6037 18.1699 31.8033 19.7506 31.1673 21.5774C30.5643 23.3714 30.2518 25.3459 30.2408 27.4954C30.2244 30.263 30.9096 32.4563 32.2967 34.0808C33.6837 35.6998 35.8601 36.5202 38.826 36.5421C40.6297 36.553 42.4662 36.2303 44.3247 35.5685C46.1887 34.9067 47.932 34.0097 49.5547 32.8611C50.2729 34.0753 51.1446 35.0106 52.1643 35.6615C53.2114 36.3124 54.3243 36.6405 55.5085 36.6515C56.6378 36.6569 57.8658 36.3452 59.1925 35.7107C60.5412 35.0762 61.8953 34.2503 63.2494 33.2385C64.3349 32.4454 65.3655 31.6031 66.3523 30.7279C66.2866 31.2804 66.2482 31.7781 66.2482 32.2102C66.2427 33.233 66.5058 34.0644 67.0376 34.7152C67.5694 35.3661 68.1341 35.6888 68.7261 35.6943C68.94 35.6943 69.1154 35.574 69.2524 35.3333C69.3895 35.0926 69.5266 34.6223 69.6636 33.9276C69.8281 33.233 70.0364 32.2102 70.2886 30.8702C70.5682 29.5301 70.941 27.7689 71.4124 25.5975C72.0484 26.943 72.8049 28.387 73.6876 29.9239C74.5921 31.4335 75.6228 32.8501 76.7686 34.1792C77.9473 35.5029 79.2575 36.5858 80.7049 37.4281C82.1796 38.2705 83.7914 38.6971 85.5457 38.708C86.8943 38.719 88.2155 38.4455 89.5093 37.8876C90.8306 37.357 92.0641 36.6679 93.1989 35.8146C94.3611 34.9614 95.4192 34.0808 96.3676 33.1783C97.3435 32.243 98.1713 31.3898 98.8511 30.6131C99.5309 29.8364 100.03 29.2621 100.359 28.8902C100.792 28.4362 100.929 28.0205 100.77 27.6431L100.781 27.6322ZM34.6047 21.6704C35.0981 20.5436 35.6682 19.5263 36.3206 18.6184C36.973 17.6831 37.6528 16.9337 38.3545 16.3758C39.0563 15.7906 39.7361 15.5007 40.383 15.5007C40.8161 15.5007 41.1121 15.6156 41.2711 15.8289C41.4301 16.0203 41.5123 16.2993 41.5068 16.6767C41.5013 17.5354 41.1176 18.4871 40.3555 19.5318C39.6209 20.5765 38.6451 21.5883 37.428 22.5728C36.2384 23.53 34.9665 24.345 33.6124 25.0068C33.8097 23.9074 34.1387 22.7916 34.6047 21.6704ZM53.6993 23.6503C53.0415 25.0724 52.1588 26.3961 51.0459 27.6212C50.865 26.5437 50.7773 25.3514 50.7883 24.0332C50.7992 22.1517 51.0953 20.6202 51.6654 19.4443C52.2685 18.241 52.9811 17.6393 53.8199 17.6448C54.412 17.6448 54.7026 18.241 54.6971 19.4224C54.6861 20.8171 54.3572 22.2283 53.6993 23.6503Z" fill="var(--fill-0, #F8F4EB)"/>
<path id="Vector_2" d="M30.8658 18.58C30.8658 17.8799 30.7013 17.3275 30.3505 16.9227C30.0325 16.518 29.6817 16.3156 29.3034 16.3101C29.0347 16.3101 28.7661 16.4688 28.492 16.786C28.2453 17.0813 27.9328 17.6556 27.5491 18.5144C26.7322 20.1498 25.8715 21.8617 24.9669 23.6557C24.0952 25.4224 23.2071 27.0687 22.308 28.5947C21.4364 30.0934 20.5647 31.3241 19.6985 32.2867C18.8597 33.222 18.0593 33.6869 17.3028 33.6814C17.0341 33.6814 16.9025 32.9813 16.9135 31.5811C16.9135 31.2037 16.9738 30.5747 17.0889 29.6887C17.2041 28.7752 17.3466 27.7415 17.5111 26.5874C17.681 25.406 17.851 24.2246 18.0209 23.0432C18.1909 21.8617 18.3334 20.817 18.4485 19.9036C18.5637 18.9629 18.6185 18.3065 18.624 17.9291C18.6349 16.6657 18.317 15.6975 17.6755 15.0193C17.0615 14.3137 16.3872 13.9637 15.6636 13.9582C15.0441 13.9582 14.4081 14.3137 13.7557 15.0357C13.1034 15.7304 12.451 16.6657 11.7986 17.8416C11.1462 18.9902 10.5048 20.2646 9.87431 21.6594C9.24385 23.0541 8.62984 24.4598 8.0268 25.8818C7.42375 27.2766 6.84811 28.5619 6.30537 29.7379C5.75715 30.892 5.24182 31.8273 4.7539 32.5492C4.29339 33.2439 3.86029 33.5939 3.45461 33.5884C3.34496 33.5884 3.26821 33.4681 3.21339 33.222C3.18598 32.954 3.17501 32.6039 3.1805 32.1718C3.18598 31.149 3.27369 29.902 3.44912 28.4252C3.61907 26.9211 3.82192 25.3787 4.04669 23.7925C4.29887 22.179 4.51268 20.6803 4.68263 19.2801C4.85258 17.8854 4.9403 16.7696 4.94578 15.9382C4.95126 15.1342 4.78131 14.4888 4.43593 14.002C4.09055 13.4878 3.68486 13.2308 3.22983 13.2308C2.58293 13.2308 2.05663 13.734 1.64547 14.7513C1.2343 15.7686 0.899882 17.136 0.647699 18.8535C0.422927 20.5709 0.258461 22.5181 0.165263 24.695C0.0720651 26.8445 0.017241 29.0597 0.000794314 31.3459C-0.0156524 33.5228 0.274906 35.0433 0.861506 35.9075C1.47552 36.7444 2.254 37.1655 3.19694 37.171C4.03024 37.171 4.85806 36.7663 5.66943 35.9404C6.48081 35.1145 7.25928 34.0588 7.9939 32.7735C8.75593 31.4881 9.46314 30.1372 10.121 28.7151C10.8063 27.2711 11.4039 25.942 11.9247 24.7387C12.3907 23.6393 12.8292 22.5837 13.2404 21.5609C13.679 20.5162 14.0463 19.6575 14.3478 18.9902C14.6768 18.2956 14.896 17.9455 15.0002 17.9455C15.1099 17.9455 15.1482 18.137 15.1153 18.5089C15.0879 18.8043 15.0002 19.3567 14.8632 20.1607C14.748 20.9647 14.611 21.9055 14.441 22.9775C14.2711 24.0496 14.1011 25.1653 13.9312 26.3194C13.7886 27.4735 13.6625 28.5455 13.5474 29.541C13.4597 30.5364 13.4158 31.3405 13.4104 31.9585C13.3994 33.4353 13.8106 34.6222 14.6384 35.5137C15.4936 36.3779 16.6887 36.8155 18.2238 36.8264C19.1119 36.8319 20.0822 36.4217 21.1403 35.5958C22.1984 34.7425 23.2674 33.5666 24.3529 32.0679C25.4658 30.5419 26.5568 28.7643 27.6203 26.7296C28.6839 24.6676 29.6817 22.4306 30.6136 20.0185C30.7233 19.7505 30.7945 19.5098 30.822 19.2965C30.8494 19.0558 30.8658 18.8152 30.8658 18.5691V18.58Z" fill="var(--fill-0, #F8F4EB)"/>
</g>
</svg>
