<svg preserveAspectRatio="none" width="100%" height="100%" overflow="visible" style="display: block;" viewBox="0 0 100.496 28.8103" fill="none" xmlns="http://www.w3.org/2000/svg">
<g id="Group">
<path id="Vector" d="M100.386 23.4059L98.1218 23.3895C97.261 23.384 96.669 23.1652 96.351 22.7331C96.033 22.2736 95.874 21.5626 95.8795 20.5944L95.9343 12.4934L100.457 12.5207L100.496 7.07813L95.9727 7.05078L96.0166 0.601715L90.0354 0.563425L88.2537 7.00155L84.9424 6.97967L84.9041 12.4223L87.8919 12.4442L87.8206 23.0832C87.8042 25.1508 88.4292 26.6223 89.6901 27.4865C90.9784 28.3562 92.804 28.7993 95.1778 28.8102C95.9343 28.8102 96.8225 28.7555 97.8476 28.6243C98.8728 28.4984 99.7061 28.3289 100.359 28.1155L100.391 23.4005L100.386 23.4059Z" fill="var(--fill-0, #4535CD)"/>
<path id="Vector_2" d="M83.9682 23.2967C83.5351 23.2967 83.2171 23.1436 83.0033 22.8482C82.7895 22.5528 82.6853 22.1754 82.6853 21.7159L82.7401 13.4125C82.7566 10.9675 81.7479 9.20067 79.703 8.11215C77.6636 6.99628 75.0157 6.4274 71.7537 6.40552C68.1738 6.38364 65.4053 6.95252 63.4591 8.12309C61.5403 9.29365 60.57 10.8854 60.559 12.8984C60.559 13.139 60.57 13.3305 60.5974 13.4618L68.5137 13.5165V13.3578C68.5192 12.7124 68.8207 12.242 69.4128 11.952C70.0323 11.6621 70.7614 11.5199 71.5947 11.5254C72.5103 11.5309 73.2504 11.7497 73.8151 12.1873C74.4071 12.6194 74.6977 13.2539 74.6922 14.0853V15.1356C71.2932 15.1137 68.5411 15.2942 66.4414 15.6826C64.3363 16.0709 62.719 16.8148 61.5787 17.9088C60.4658 18.9755 59.9066 20.5453 59.8902 22.613C59.8627 26.5896 62.3572 28.5971 67.3625 28.6299C69.0565 28.6409 70.5422 28.4111 71.8085 27.9352C73.0749 27.4594 74.2262 26.8248 75.2569 26.0208C75.6297 26.8577 76.3095 27.5195 77.3018 28.0118C78.3215 28.4768 79.6153 28.712 81.1777 28.7229C81.9836 28.7229 82.7018 28.6682 83.3213 28.5369C83.9407 28.433 84.4122 28.3291 84.7357 28.2251C85.0865 28.0939 85.3003 28.0009 85.3826 27.9462L85.4155 23.3131L83.9627 23.3022L83.9682 23.2967ZM73.4258 22.8208C72.6418 23.3788 71.7208 23.6577 70.6737 23.6468C68.8427 23.6359 67.9326 22.9576 67.9381 21.612C67.9381 20.7805 68.4863 20.1242 69.5663 19.6483C70.6737 19.145 72.3732 18.8989 74.6593 18.9153L74.6484 20.7313C74.6429 21.5627 74.2317 22.2629 73.4203 22.8208H73.4258Z" fill="var(--fill-0, #4535CD)"/>
<path id="Vector_3" d="M50.6573 20.2935C50.6518 21.2343 50.3228 21.9837 49.6705 22.5416C49.0455 23.0996 48.0642 23.3785 46.7155 23.3676C45.2353 23.3567 44.1444 22.9628 43.4536 22.1751C42.7848 21.3929 42.4558 20.2333 42.4668 18.7017L58.464 18.8111L58.4749 17.4382C58.5024 13.6748 57.4827 10.8742 55.4213 9.03086C53.3874 7.18748 50.416 6.25759 46.5127 6.23024C42.7683 6.20289 39.8298 7.12731 37.6863 8.99257C35.5482 10.8578 34.4627 13.6201 34.4408 17.2741C34.4134 21.01 35.4879 23.8107 37.6589 25.6814C39.8298 27.5248 42.8944 28.4601 46.8526 28.482C50.6244 28.5093 53.4971 27.7983 55.4707 26.3651C57.4443 24.9265 58.442 22.9191 58.4585 20.3372L50.6627 20.2825L50.6573 20.2935ZM46.7978 11.3556C47.9271 11.3611 48.8043 11.6893 49.4183 12.3402C50.0597 12.9911 50.3777 13.8663 50.3722 14.9658L42.5326 14.9111C42.8451 12.5207 44.265 11.3337 46.7978 11.3501V11.3556Z" fill="var(--fill-0, #4535CD)"/>
<path id="Vector_4" d="M32.7357 6.34534C32.2533 6.18124 31.6996 6.0992 31.0801 6.09373C29.7589 6.08279 28.5747 6.40004 27.5166 7.04003C26.464 7.65266 25.691 8.57161 25.1976 9.80782L24.6933 6.58055L18.1091 6.53679L17.9666 27.8204L26.0035 27.8751L26.0693 18.4011C26.0803 16.7054 26.4531 15.4364 27.1877 14.5776C27.9497 13.7243 29.1613 13.3031 30.8334 13.3141L33.421 13.3305L33.4649 6.59696C33.4649 6.59696 33.2237 6.48756 32.7412 6.35081L32.7357 6.34534Z" fill="var(--fill-0, #4535CD)"/>
<path id="Vector_5" d="M13.2178 22.8206C12.3571 22.8152 11.765 22.5964 11.447 22.1642C11.1291 21.7048 10.9701 20.9937 10.9756 20.0255L11.0304 11.9245L15.5532 11.9573L15.5916 6.51471L11.0688 6.48736L11.1126 0.0382896L5.13148 0L3.34976 6.43813L0.0384825 6.41625L0.000106812 11.8588L2.98793 11.8807L2.91666 22.5198C2.90021 24.5874 3.52519 26.0588 4.7861 26.9231C6.07443 27.7928 7.90002 28.2359 10.2738 28.2468C11.0304 28.2468 11.9185 28.1921 12.9437 28.0608C13.9689 27.935 14.8022 27.7655 15.4545 27.5521L15.4874 22.837L13.2233 22.8206H13.2178Z" fill="var(--fill-0, #4535CD)"/>
</g>
</svg>
