<svg preserveAspectRatio="none" width="100%" height="100%" overflow="visible" style="display: block;" viewBox="0 0 100.834 38.7112" fill="none" xmlns="http://www.w3.org/2000/svg">
<g id="Group">
<path id="Vector" d="M100.781 27.6343C100.649 27.2295 100.392 27.0271 100.019 27.0271C99.8324 27.0271 99.6131 27.0763 99.3719 27.1857C99.1581 27.2623 98.9114 27.4264 98.6427 27.6671C98.1274 28.1485 97.4257 28.8158 96.5266 29.6691C95.633 30.4951 94.5914 31.3484 93.3962 32.229C92.234 33.1097 90.9621 33.8536 89.5861 34.4608C88.21 35.0679 86.7792 35.3688 85.299 35.3578C84.1696 35.3524 83.0403 34.9695 81.9109 34.2092C80.7871 33.4215 79.6852 32.4369 78.6161 31.2444C77.5471 30.0301 76.5438 28.7447 75.6118 27.3936C74.6799 26.0152 73.863 24.7352 73.1722 23.5482C75.4145 22.5965 77.4813 21.776 79.3672 21.0922C81.286 20.3811 83.1225 19.7193 84.8768 19.1121C86.6312 18.4776 88.4019 17.8595 90.1836 17.2523C90.7209 17.039 91.0772 16.8038 91.2362 16.5358C91.4281 16.2404 91.5213 15.945 91.5268 15.6496C91.5268 15.2722 91.3843 14.9385 91.0882 14.6377C90.8196 14.315 90.4303 14.1509 89.9205 14.1454C88.9501 14.1399 87.7221 14.3314 86.2419 14.7252C84.7562 15.119 83.1773 15.6441 81.5053 16.306C79.8332 16.9405 78.2104 17.6571 76.6425 18.4502C75.0746 19.2434 73.7095 20.042 72.5473 20.8406C72.931 19.5005 73.3861 18.04 73.9124 16.4537C74.4332 14.8729 74.9814 13.2757 75.5625 11.6675C76.1656 10.0593 76.7576 8.51681 77.3278 7.04539C77.9308 5.57397 78.4791 4.24478 78.9725 3.06327C79.1369 2.66396 79.2849 2.29748 79.422 1.98022C79.5865 1.65749 79.6687 1.36211 79.6687 1.09408C79.6687 0.366582 79.2849 0.00556515 78.5065 9.5197e-05C78.024 9.5197e-05 77.6019 0.125905 77.251 0.393932C76.9276 0.66196 76.5329 1.24724 76.0669 2.16073C75.1404 4.00957 74.2084 6.0608 73.2764 8.30895C72.3718 10.5352 71.4947 12.8271 70.6449 15.1847C69.7952 17.5149 69.0386 19.7849 68.3753 21.9838C67.8654 23.7233 67.4378 25.3424 67.087 26.8466C66.7361 27.1803 66.3688 27.5139 65.9905 27.8531C64.8776 28.8158 63.7318 29.7074 62.5367 30.5333C61.3471 31.3593 60.1848 32.0212 59.05 32.5244C57.9426 33.0276 56.9174 33.2738 55.9745 33.2683C55.196 33.2683 54.4668 33.055 53.798 32.6502C53.1566 32.2454 52.5919 31.6219 52.115 30.785C53.7158 29.2643 55.0205 27.5686 56.0293 25.6924C57.038 23.8163 57.5479 21.9018 57.5643 19.9381C57.5753 18.1931 57.1915 16.8968 56.4185 16.0599C55.6674 15.1956 54.6916 14.758 53.48 14.7525C52.5371 14.7471 51.6051 15.13 50.6841 15.9012C49.7905 16.6725 49.0559 17.8102 48.4802 19.3145C47.9046 20.8132 47.6086 22.6402 47.5976 24.7899C47.5921 25.7854 47.6524 26.7263 47.7785 27.6124C47.9046 28.4985 48.091 29.319 48.3267 30.0739C47.0274 31.0311 45.6075 31.7914 44.067 32.3439C42.5539 32.8964 40.9915 33.1699 39.3742 33.1589C37.3019 33.1425 35.8217 32.7323 34.9391 31.9227C34.0564 31.1132 33.5685 29.7347 33.4699 27.8038C36.063 26.8794 38.1572 25.8347 39.7525 24.6586C41.3752 23.4607 42.5539 22.219 43.294 20.9336C44.0286 19.6208 44.4014 18.3354 44.4124 17.0718C44.4234 15.8082 44.078 14.7471 43.3817 13.8828C42.6855 13.0186 41.6274 12.581 40.1966 12.57C39.0946 12.5646 37.9598 12.9311 36.7976 13.675C35.6353 14.4189 34.5663 15.4746 33.585 16.8366C32.6037 18.1713 31.8033 19.7521 31.1673 21.579C30.5643 23.3732 30.2518 25.3478 30.2408 27.4975C30.2244 30.2653 30.9096 32.4588 32.2967 34.0833C33.6837 35.7024 35.8601 36.5229 38.826 36.5448C40.6297 36.5558 42.4662 36.233 44.3247 35.5712C46.1887 34.9093 47.932 34.0122 49.5547 32.8635C50.2729 34.0779 51.1446 35.0132 52.1643 35.6642C53.2114 36.3151 54.3243 36.6433 55.5085 36.6542C56.6378 36.6597 57.8658 36.3479 59.1925 35.7134C60.5412 35.0789 61.8953 34.2529 63.2494 33.241C64.3349 32.4478 65.3655 31.6055 66.3523 30.7303C66.2866 31.2827 66.2482 31.7805 66.2482 32.2126C66.2427 33.2355 66.5058 34.0669 67.0376 34.7179C67.5694 35.3688 68.1341 35.6915 68.7261 35.697C68.94 35.697 69.1154 35.5766 69.2524 35.336C69.3895 35.0953 69.5266 34.6249 69.6636 33.9302C69.8281 33.2355 70.0364 32.2126 70.2886 30.8725C70.5682 29.5323 70.941 27.771 71.4124 25.5995C72.0484 26.9451 72.8049 28.3891 73.6876 29.9262C74.5921 31.4359 75.6228 32.8526 76.7686 34.1818C77.9473 35.5055 79.2575 36.5886 80.7049 37.431C82.1796 38.2733 83.7914 38.7 85.5457 38.7109C86.8943 38.7219 88.2155 38.4484 89.5093 37.8904C90.8306 37.3598 92.0641 36.6706 93.1989 35.8173C94.3611 34.964 95.4192 34.0833 96.3676 33.1808C97.3435 32.2454 98.1713 31.3921 98.8511 30.6154C99.5309 29.8387 100.03 29.2643 100.359 28.8924C100.792 28.4384 100.929 28.0226 100.77 27.6452L100.781 27.6343ZM34.6047 21.672C35.0981 20.5452 35.6682 19.5278 36.3206 18.6198C36.973 17.6844 37.6528 16.9351 38.3545 16.3771C39.0563 15.7918 39.7361 15.5019 40.383 15.5019C40.8161 15.5019 41.1121 15.6168 41.2711 15.8301C41.4301 16.0216 41.5123 16.3005 41.5068 16.678C41.5013 17.5367 41.1176 18.4885 40.3555 19.5333C39.6209 20.578 38.6451 21.59 37.428 22.5746C36.2384 23.5318 34.9665 24.3468 33.6124 25.0087C33.8097 23.9092 34.1387 22.7934 34.6047 21.672ZM53.6993 23.6522C53.0415 25.0743 52.1588 26.3981 51.0459 27.6233C50.865 26.5458 50.7773 25.3533 50.7883 24.0351C50.7992 22.1534 51.0953 20.6218 51.6654 19.4458C52.2685 18.2424 52.9811 17.6407 53.8199 17.6462C54.412 17.6462 54.7026 18.2424 54.6971 19.4239C54.6861 20.8187 54.3572 22.23 53.6993 23.6522Z" fill="var(--fill-0, #4535CD)"/>
<path id="Vector_2" d="M30.8658 18.5819C30.8658 17.8817 30.7013 17.3293 30.3505 16.9245C30.0325 16.5197 29.6817 16.3173 29.3034 16.3119C29.0347 16.3119 28.7661 16.4705 28.492 16.7878C28.2453 17.0831 27.9328 17.6575 27.5491 18.5163C26.7322 20.1518 25.8715 21.8639 24.9669 23.658C24.0952 25.4248 23.2071 27.0713 22.308 28.5974C21.4364 30.0961 20.5647 31.3269 19.6985 32.2896C18.8597 33.225 18.0593 33.6899 17.3028 33.6844C17.0341 33.6844 16.9025 32.9843 16.9135 31.584C16.9135 31.2065 16.9738 30.5775 17.0889 29.6914C17.2041 28.7779 17.3466 27.7441 17.5111 26.5899C17.681 25.4084 17.851 24.2269 18.0209 23.0454C18.1909 21.8639 18.3334 20.8191 18.4485 19.9056C18.5637 18.9648 18.6185 18.3084 18.624 17.931C18.6349 16.6674 18.317 15.6992 17.6755 15.021C17.0615 14.3153 16.3872 13.9653 15.6636 13.9598C15.0441 13.9598 14.4081 14.3153 13.7557 15.0374C13.1034 15.7321 12.451 16.6674 11.7986 17.8435C11.1462 18.9921 10.5048 20.2666 9.87431 21.6615C9.24385 23.0563 8.62984 24.4621 8.0268 25.8843C7.42375 27.2791 6.84811 28.5646 6.30537 29.7406C5.75715 30.8948 5.24182 31.8301 4.7539 32.5521C4.29339 33.2468 3.86029 33.5969 3.45461 33.5914C3.34496 33.5914 3.26821 33.4711 3.21339 33.225C3.18598 32.9569 3.17501 32.6068 3.1805 32.1747C3.18598 31.1518 3.27369 29.9047 3.44912 28.4278C3.61907 26.9236 3.82192 25.381 4.04669 23.7948C4.29887 22.1811 4.51268 20.6824 4.68263 19.2821C4.85258 17.8872 4.9403 16.7713 4.94578 15.9399C4.95126 15.1358 4.78131 14.4904 4.43593 14.0035C4.09055 13.4894 3.68486 13.2323 3.22983 13.2323C2.58293 13.2323 2.05663 13.7355 1.64547 14.7529C1.2343 15.7703 0.899882 17.1378 0.647699 18.8554C0.422927 20.573 0.258461 22.5203 0.165263 24.6973C0.0720651 26.847 0.017241 29.0623 0.000794314 31.3488C-0.0156524 33.5258 0.274906 35.0464 0.861506 35.9107C1.47552 36.7476 2.254 37.1688 3.19694 37.1743C4.03024 37.1743 4.85806 36.7695 5.66943 35.9435C6.48081 35.1176 7.25928 34.0619 7.9939 32.7764C8.75593 31.491 9.46314 30.1399 10.121 28.7177C10.8063 27.2736 11.4039 25.9445 11.9247 24.7411C12.3907 23.6416 12.8292 22.5859 13.2404 21.563C13.679 20.5183 14.0463 19.6595 14.3478 18.9921C14.6768 18.2975 14.896 17.9474 15.0002 17.9474C15.1099 17.9474 15.1482 18.1388 15.1153 18.5108C15.0879 18.8062 15.0002 19.3586 14.8632 20.1627C14.748 20.9668 14.611 21.9076 14.441 22.9797C14.2711 24.0518 14.1011 25.1677 13.9312 26.3219C13.7886 27.476 13.6625 28.5481 13.5474 29.5437C13.4597 30.5392 13.4158 31.3433 13.4104 31.9614C13.3994 33.4383 13.8106 34.6253 14.6384 35.5169C15.4936 36.3811 16.6887 36.8187 18.2238 36.8297C19.1119 36.8351 20.0822 36.4249 21.1403 35.5989C22.1984 34.7456 23.2674 33.5696 24.3529 32.0708C25.4658 30.5447 26.5568 28.7669 27.6203 26.7321C28.6839 24.67 29.6817 22.4327 30.6136 20.0205C30.7233 19.7525 30.7945 19.5118 30.822 19.2985C30.8494 19.0578 30.8658 18.8171 30.8658 18.571V18.5819Z" fill="var(--fill-0, #4535CD)"/>
</g>
</svg>
