<svg preserveAspectRatio="none" width="100%" height="100%" overflow="visible" style="display: block;" viewBox="0 0 100.496 28.8082" fill="none" xmlns="http://www.w3.org/2000/svg">
<g id="Group">
<path id="Vector" d="M100.386 23.4043L98.1218 23.3879C97.261 23.3824 96.669 23.1636 96.351 22.7316C96.033 22.2721 95.874 21.5611 95.8795 20.593L95.9343 12.4926L100.457 12.5199L100.496 7.0777L95.9727 7.05035L96.0166 0.601747L90.0354 0.56346L88.2537 7.00112L84.9424 6.97924L84.9041 12.4214L87.8919 12.4433L87.8206 23.0816C87.8042 25.1491 88.4292 26.6204 89.6901 27.4846C90.9784 28.3543 92.804 28.7973 95.1778 28.8082C95.9343 28.8082 96.8225 28.7535 97.8476 28.6223C98.8728 28.4965 99.7061 28.3269 100.359 28.1136L100.391 23.3988L100.386 23.4043Z" fill="var(--fill-0, #F8F4EB)"/>
<path id="Vector_2" d="M83.9682 23.2947C83.5351 23.2947 83.2171 23.1416 83.0033 22.8462C82.7895 22.5509 82.6853 22.1735 82.6853 21.714L82.7401 13.4112C82.7566 10.9664 81.7479 9.19969 79.703 8.11125C77.6636 6.99546 75.0157 6.42662 71.7537 6.40475C68.1738 6.38287 65.4053 6.9517 63.4591 8.12219C61.5403 9.29267 60.57 10.8843 60.559 12.8971C60.559 13.1378 60.57 13.3292 60.5974 13.4605L68.5137 13.5152V13.3565C68.5192 12.7111 68.8207 12.2408 69.4128 11.9509C70.0323 11.661 70.7614 11.5188 71.5947 11.5242C72.5103 11.5297 73.2504 11.7485 73.8151 12.1861C74.4071 12.6182 74.6977 13.2526 74.6922 14.084V15.1342C71.2932 15.1123 68.5411 15.2928 66.4414 15.6811C64.3363 16.0694 62.719 16.8133 61.5787 17.9072C60.4658 18.9738 59.9066 20.5435 59.8902 22.611C59.8627 26.5874 62.3572 28.5947 67.3625 28.6275C69.0565 28.6385 70.5422 28.4088 71.8085 27.9329C73.0749 27.4571 74.2262 26.8226 75.2569 26.0186C75.6297 26.8554 76.3095 27.5172 77.3018 28.0095C78.3215 28.4744 79.6153 28.7096 81.1777 28.7205C81.9836 28.7205 82.7018 28.6658 83.3213 28.5346C83.9407 28.4306 84.4122 28.3267 84.7357 28.2228C85.0865 28.0915 85.3003 27.9985 85.3826 27.9438L85.4155 23.3111L83.9627 23.3002L83.9682 23.2947ZM73.4258 22.8189C72.6418 23.3768 71.7208 23.6557 70.6737 23.6448C68.8427 23.6338 67.9326 22.9556 67.9381 21.6101C67.9381 20.7787 68.4863 20.1224 69.5663 19.6465C70.6737 19.1433 72.3732 18.8972 74.6593 18.9136L74.6484 20.7295C74.6429 21.5609 74.2317 22.261 73.4203 22.8189H73.4258Z" fill="var(--fill-0, #F8F4EB)"/>
<path id="Vector_3" d="M50.6573 20.2921C50.6518 21.2329 50.3228 21.9822 49.6705 22.5401C49.0455 23.098 48.0642 23.3769 46.7155 23.366C45.2353 23.355 44.1444 22.9612 43.4536 22.1736C42.7848 21.3915 42.4558 20.2319 42.4668 18.7005L58.464 18.8098L58.4749 17.437C58.5024 13.6739 57.4827 10.8735 55.4213 9.03028C53.3874 7.18704 50.416 6.25722 46.5127 6.22987C42.7683 6.20252 39.8298 7.12688 37.6863 8.992C35.5482 10.8571 34.4627 13.6192 34.4408 17.2729C34.4134 21.0086 35.4879 23.809 37.6589 25.6796C39.8298 27.5228 42.8944 28.4581 46.8526 28.48C50.6244 28.5074 53.4971 27.7963 55.4707 26.3633C57.4443 24.9248 58.442 22.9175 58.4585 20.3358L50.6627 20.2812L50.6573 20.2921ZM46.7978 11.3548C47.9271 11.3603 48.8043 11.6885 49.4183 12.3394C50.0597 12.9902 50.3777 13.8654 50.3722 14.9647L42.5326 14.9101C42.8451 12.5199 44.265 11.333 46.7978 11.3494V11.3548Z" fill="var(--fill-0, #F8F4EB)"/>
<path id="Vector_4" d="M32.7357 6.34495C32.2533 6.18087 31.6996 6.09882 31.0801 6.09335C29.7589 6.08242 28.5747 6.39965 27.5166 7.03959C26.464 7.65218 25.691 8.57106 25.1976 9.80718L24.6933 6.58014L18.1091 6.53639L17.9666 27.8184L26.0035 27.8731L26.0693 18.3998C26.0803 16.7043 26.4531 15.4353 27.1877 14.5766C27.9497 13.7234 29.1613 13.3022 30.8334 13.3132L33.421 13.3296L33.4649 6.59655C33.4649 6.59655 33.2237 6.48716 32.7412 6.35042L32.7357 6.34495Z" fill="var(--fill-0, #F8F4EB)"/>
<path id="Vector_5" d="M13.2178 22.819C12.3571 22.8135 11.765 22.5948 11.447 22.1627C11.1291 21.7032 10.9701 20.9922 10.9756 20.0241L11.0304 11.9237L15.5532 11.9565L15.5916 6.51427L11.0688 6.48692L11.1126 0.0383213L5.13148 3.44788e-05L3.34976 6.4377L0.0384825 6.41582L0.000106812 11.858L2.98793 11.8799L2.91666 22.5182C2.90021 24.5857 3.52519 26.057 4.7861 26.9212C6.07443 27.7908 7.90002 28.2339 10.2738 28.2448C11.0304 28.2448 11.9185 28.1901 12.9437 28.0588C13.9689 27.933 14.8022 27.7635 15.4545 27.5502L15.4874 22.8354L13.2233 22.819H13.2178Z" fill="var(--fill-0, #F8F4EB)"/>
</g>
</svg>
