<svg preserveAspectRatio="none" width="100%" height="100%" overflow="visible" style="display: block;" viewBox="0 0 139.985 67.7132" fill="none" xmlns="http://www.w3.org/2000/svg">
<g id="Group">
<path id="Vector" d="M97.8531 12.5943L97.818 17.5968L93.687 17.5716L93.6369 25.0176C93.6319 25.9075 93.7721 26.5611 94.0675 26.9834C94.358 27.3806 94.8988 27.5817 95.6849 27.5867L97.7529 27.6018L97.7229 31.9356C97.132 32.1267 96.3659 32.2825 95.4295 32.4032C94.4932 32.5188 93.682 32.5792 92.991 32.5741C90.8278 32.5591 89.1553 32.1518 87.9786 31.3574C86.8269 30.5581 86.2611 29.2106 86.2711 27.3102L86.3362 17.5314L83.6072 17.5113L83.6423 12.5088L86.6667 12.5289L88.2941 6.61136L93.7571 6.64656L93.717 12.5742L97.8481 12.5993L97.8531 12.5943Z" fill="var(--fill-0, #2D335A)"/>
<path id="Vector_2" d="M71.6099 11.9759C74.5842 11.996 77.0078 12.5188 78.8705 13.5445C80.7332 14.545 81.6596 16.1689 81.6446 18.4163L81.5945 26.0482C81.5945 26.4706 81.6896 26.8125 81.8849 27.089C82.0802 27.3605 82.3756 27.5012 82.7662 27.5012L84.0931 27.5113L84.0631 31.7697C83.988 31.82 83.7927 31.9055 83.4722 32.0261C83.1768 32.1216 82.7462 32.2172 82.1803 32.3127C81.6145 32.4334 80.9636 32.4887 80.2225 32.4836C78.7954 32.4736 77.6187 32.2574 76.6823 31.83C75.776 31.3776 75.15 30.7692 74.8146 30C73.8732 30.734 72.8266 31.3222 71.6649 31.7597C70.5032 32.1971 69.1513 32.4082 67.604 32.3982C63.0273 32.368 60.754 30.5229 60.779 26.8678C60.794 24.9673 61.3048 23.5244 62.3213 22.544C63.3628 21.5384 64.8399 20.8547 66.7628 20.4977C68.6856 20.1408 71.1942 19.9698 74.2938 19.995V19.0296C74.3038 18.2654 74.0384 17.6822 73.4976 17.2851C72.9819 16.8879 72.3059 16.6817 71.4696 16.6767C70.7085 16.6717 70.0426 16.8024 69.4767 17.0689C68.9359 17.3353 68.6605 17.7677 68.6555 18.361V18.5068L61.4249 18.4565C61.3999 18.3308 61.3899 18.1599 61.3899 17.9387C61.3999 16.0885 62.2862 14.6204 64.0388 13.5495C65.8164 12.4736 68.3401 11.9457 71.6149 11.9708L71.6099 11.9759ZM74.2637 23.4791C72.1707 23.464 70.6234 23.6903 69.6119 24.1528C68.6255 24.5902 68.1298 25.1935 68.1248 25.9577C68.1147 27.1946 68.951 27.818 70.6234 27.828C71.5848 27.8331 72.421 27.5817 73.1371 27.0689C73.8782 26.556 74.2537 25.9175 74.2587 25.1483L74.2688 23.4791H74.2637Z" fill="var(--fill-0, #2D335A)"/>
<path id="Vector_3" d="M48.5479 11.82C52.1131 11.8451 54.8271 12.6998 56.6848 14.3942C58.5676 16.0885 59.4989 18.6626 59.4739 22.1217L59.4639 23.3836L44.8525 23.283C44.8425 24.6908 45.1429 25.7567 45.7538 26.4756C46.3898 27.1946 47.3812 27.5616 48.7332 27.5716C49.965 27.5817 50.8613 27.3253 51.4321 26.8125C52.028 26.2996 52.3234 25.6108 52.3335 24.7461L59.4539 24.7964C59.4389 27.1694 58.5275 29.0146 56.7249 30.3368C54.9222 31.6591 52.2984 32.3077 48.8534 32.2825C45.2381 32.2574 42.439 31.3977 40.4561 29.7084C38.4732 27.9889 37.4967 25.4148 37.5168 21.9809C37.5368 18.6224 38.5282 16.0835 40.4811 14.369C42.434 12.6546 45.1229 11.8049 48.5429 11.8301L48.5479 11.82ZM48.8133 16.5259C46.4999 16.5108 45.203 17.6018 44.9176 19.7989L52.0781 19.8492C52.0831 18.8386 51.7927 18.0342 51.2068 17.4359C50.646 16.8376 49.8498 16.5359 48.8133 16.5309V16.5259Z" fill="var(--fill-0, #2D335A)"/>
<path id="Vector_4" d="M34.4565 11.6893C35.0223 11.6893 35.5281 11.7697 35.9687 11.9206C36.4094 12.0463 36.6297 12.1217 36.6297 12.1468L36.5896 18.3359L34.2262 18.3208C32.6989 18.3107 31.5923 18.6978 30.8963 19.4822C30.2253 20.2665 29.8848 21.4379 29.8748 22.9965L29.8147 31.7044L22.474 31.6541L22.6042 12.0915L28.618 12.1317L29.0786 15.0981C29.5293 13.9668 30.2353 13.1172 31.1967 12.5541C32.1581 11.9658 33.2447 11.6793 34.4515 11.6843L34.4565 11.6893Z" fill="var(--fill-0, #2D335A)"/>
<path id="Vector_5" d="M20.306 12.0763L20.271 17.0789L16.1399 17.0487L16.0899 24.4946C16.0848 25.3845 16.2251 26.0381 16.5205 26.4604C16.8109 26.8576 17.3517 27.0587 18.1379 27.0638L20.2059 27.0788L20.1758 31.4127C19.585 31.6037 18.8188 31.7596 17.8825 31.8802C16.9461 32.0009 16.1349 32.0562 15.4439 32.0512C13.2807 32.0361 11.6083 31.6289 10.4316 30.8345C9.27988 30.0351 8.70904 28.6877 8.72407 26.7872L8.78916 17.0085L6.06017 16.9884L6.09522 11.9858L9.11964 12.006L10.747 6.08841L16.21 6.12361L16.17 12.0512L20.301 12.0814L20.306 12.0763Z" fill="var(--fill-0, #2D335A)"/>
<path id="Vector_6" d="M119.975 61.6188C118.378 61.6088 116.901 61.2166 115.554 60.4424C114.232 59.6681 113.03 58.6726 111.959 57.456C110.907 56.2393 109.971 54.9371 109.144 53.5444C108.343 52.1317 107.652 50.8044 107.066 49.5676C106.636 51.5635 106.29 53.1825 106.04 54.4142C105.81 55.646 105.619 56.5862 105.469 57.2247C105.344 57.8682 105.214 58.2956 105.094 58.5168C104.973 58.738 104.808 58.8486 104.613 58.8486C104.072 58.8486 103.556 58.547 103.071 57.9487C102.585 57.3504 102.339 56.5862 102.349 55.646C102.355 54.6556 102.535 53.3484 102.89 51.7244C103.246 50.0703 103.711 48.2453 104.292 46.2493C104.898 44.2282 105.584 42.1468 106.365 40C107.142 37.833 107.943 35.7265 108.769 33.6802C109.62 31.6088 110.466 29.7285 111.318 28.0291C111.743 27.1945 112.104 26.6516 112.399 26.4052C112.72 26.1588 113.1 26.0382 113.546 26.0432C114.257 26.0432 114.612 26.3851 114.607 27.0487C114.607 27.2951 114.532 27.5666 114.382 27.8632C114.257 28.1598 114.122 28.4917 113.972 28.8587C113.521 29.9447 113.02 31.1614 112.469 32.5188C111.944 33.8763 111.408 35.2891 110.857 36.7672C110.331 38.2453 109.83 39.7134 109.35 41.1664C108.874 42.6194 108.458 43.9617 108.108 45.1985C109.169 44.4645 110.416 43.7305 111.848 43.0015C113.281 42.2725 114.763 41.6138 116.29 41.0306C117.817 40.4223 119.259 39.9396 120.616 39.5776C121.973 39.2156 123.09 39.0397 123.976 39.0447C124.442 39.0447 124.797 39.2006 125.043 39.4972C125.313 39.7687 125.443 40.0804 125.443 40.4273C125.443 40.6988 125.353 40.9703 125.178 41.2418C125.028 41.4881 124.707 41.7094 124.217 41.9004C122.589 42.4585 120.972 43.0266 119.369 43.6098C117.767 44.1679 116.09 44.7712 114.337 45.4298C112.61 46.0583 110.722 46.8124 108.679 47.6872C109.31 48.7782 110.056 49.9547 110.907 51.2217C111.758 52.4635 112.675 53.64 113.651 54.7611C114.627 55.8521 115.629 56.7621 116.66 57.4861C117.687 58.185 118.718 58.5369 119.755 58.5419C121.107 58.552 122.414 58.2755 123.671 57.7174C124.928 57.1593 126.089 56.4756 127.151 55.6661C128.237 54.8567 129.189 54.0723 130.01 53.3132C130.826 52.5289 131.472 51.9155 131.943 51.4731C132.188 51.2518 132.414 51.106 132.609 51.0306C132.829 50.9351 133.029 50.8848 133.2 50.8848C133.545 50.8848 133.776 51.0759 133.896 51.4429C134.041 51.7898 133.916 52.1719 133.52 52.5892C133.225 52.9311 132.764 53.459 132.143 54.1729C131.522 54.8868 130.766 55.6711 129.875 56.5309C129.009 57.3655 128.042 58.1749 126.981 58.9542C125.944 59.7385 124.817 60.372 123.611 60.8597C122.429 61.3725 121.217 61.6239 119.99 61.6138L119.975 61.6188Z" fill="var(--fill-0, #2D335A)"/>
<path id="Vector_7" d="M82.3962 41.7294C82.3862 42.8908 82.0507 44.0723 81.3747 45.2789C80.7038 46.4604 79.6272 47.6017 78.14 48.7027C76.6829 49.7787 74.7701 50.744 72.4016 51.5936C72.4867 53.3734 72.9374 54.6354 73.7436 55.3795C74.5498 56.1235 75.9017 56.5056 77.7945 56.5157C79.2717 56.5258 80.6988 56.2744 82.0808 55.7666C83.4878 55.2588 84.7847 54.5599 85.9715 53.6801C85.7562 52.9863 85.5859 52.2321 85.4707 51.4177C85.3556 50.6032 85.2955 49.7384 85.3055 48.8234C85.3205 46.8475 85.5859 45.1683 86.1117 43.7907C86.6375 42.4131 87.3084 41.3674 88.1246 40.6535C88.9659 39.9446 89.8171 39.5926 90.6784 39.5977C91.785 39.6077 92.6813 40.0049 93.3623 40.7993C94.0683 41.5685 94.4188 42.7601 94.4088 44.3639C94.3988 46.1688 93.9281 47.9285 93.0068 49.653C92.0854 51.3774 90.8937 52.936 89.4315 54.3337C89.8672 55.1029 90.3829 55.6761 90.9688 56.0481C91.5797 56.4202 92.2457 56.6112 92.9567 56.6163C93.818 56.6213 94.7543 56.395 95.7658 55.9325C96.8023 55.4699 97.8639 54.8616 98.9505 54.1024C100.037 53.3433 101.089 52.5237 102.105 51.6389C103.122 50.7339 104.023 49.849 104.814 48.9893C105.014 48.743 105.21 48.5821 105.41 48.5117C105.605 48.4162 105.79 48.3659 105.966 48.3659C106.482 48.3659 106.737 48.6575 106.737 49.2256C106.737 49.6479 106.522 50.1155 106.101 50.6283C105.285 51.5635 104.303 52.5539 103.167 53.6097C102.055 54.6655 100.863 55.656 99.6064 56.5861C98.3696 57.5162 97.1378 58.2754 95.901 58.8586C94.6942 59.4418 93.5726 59.7334 92.5361 59.7233C91.4545 59.7183 90.433 59.4116 89.4816 58.8133C88.5502 58.215 87.7591 57.3553 87.0981 56.2392C85.616 57.29 84.0236 58.1195 82.3211 58.7279C80.6186 59.3362 78.9462 59.6328 77.2988 59.6228C74.5948 59.6027 72.6069 58.8485 71.335 57.3603C70.0682 55.8722 69.4373 53.851 69.4573 51.3071C69.4723 49.3312 69.7527 47.5162 70.3035 45.8671C70.8794 44.1929 71.6155 42.7399 72.5118 41.5082C73.4081 40.2563 74.3845 39.286 75.4461 38.6022C76.5076 37.9184 77.5441 37.5766 78.5506 37.5866C79.8525 37.5967 80.8239 37.9989 81.4599 38.7932C82.0958 39.5876 82.4063 40.568 82.4012 41.7244L82.3962 41.7294ZM72.5318 49.0346C73.7636 48.4262 74.9253 47.6821 76.0169 46.7973C77.1285 45.8923 78.0198 44.9571 78.6908 44.0019C79.3868 43.0416 79.7373 42.1668 79.7424 41.3775C79.7424 41.0305 79.6723 40.7741 79.527 40.5982C79.3818 40.4021 79.1114 40.2965 78.7158 40.2965C78.125 40.2965 77.5091 40.5579 76.8631 41.1009C76.2222 41.6138 75.6013 42.3025 75.0054 43.1623C74.4095 43.9969 73.8888 44.932 73.4381 45.9677C73.0125 47.0034 72.7121 48.024 72.5318 49.0346ZM88.4551 51.4378C89.4716 50.3066 90.2778 49.0899 90.8787 47.7877C91.4795 46.4805 91.78 45.1884 91.79 43.9013C91.795 42.8154 91.5296 42.2673 90.9888 42.2673C90.2277 42.2623 89.5717 42.8154 89.0209 43.9214C88.4952 45.0024 88.2298 46.4101 88.2198 48.1396C88.2097 49.3513 88.2899 50.4473 88.4551 51.4378Z" fill="var(--fill-0, #2D335A)"/>
<path id="Vector_8" d="M139.414 48.9594C138.598 47.0287 136.996 45.5858 135.003 45.0378C134.417 44.8769 133.811 44.7864 133.2 44.7914C131.928 44.7914 130.937 45.1283 130.296 45.3948C129.735 45.626 129.184 45.9227 128.659 46.2947C129.269 45.8121 129.785 45.254 130.206 44.6255C130.256 44.5602 130.311 44.4797 130.356 44.4144C131.112 43.1524 131.498 41.805 131.488 40.3973L131.498 40.352C131.478 38.4817 130.757 36.6969 129.455 35.3344C128.538 34.3138 127.362 33.5999 126.025 33.2329C125.384 33.0569 124.698 32.9614 124.027 32.9513C122.585 32.9312 121.012 33.1625 119.08 33.6703C119.044 33.6753 119.014 33.6854 118.979 33.6904C118.809 33.7356 118.639 33.7859 118.469 33.8362C118.624 33.4541 118.779 33.0871 118.929 32.7301C119.14 32.2223 119.33 31.7397 119.52 31.2671C119.68 30.9202 119.816 30.6034 119.931 30.3018C120.396 29.2962 120.637 28.2555 120.667 27.1896C120.667 27.1293 120.672 27.0489 120.677 26.9885C120.642 23.7256 118.634 21.071 115.559 20.2213C114.943 20.0504 114.278 19.9599 113.607 19.9498C113.556 19.9498 113.511 19.9549 113.466 19.9448C111.714 19.9649 110.066 20.523 108.709 21.5687C108.654 21.5989 108.614 21.6391 108.569 21.6894C107.317 22.6999 106.521 24.0474 105.915 25.2389C105.89 25.2641 105.885 25.2942 105.875 25.3244C105.189 26.702 104.498 28.1952 103.807 29.794L103.817 27.6321C103.837 26.0081 103.191 24.4596 102.06 23.3083C101.809 23.0569 101.539 22.8256 101.253 22.6245C102.826 21.5335 103.867 19.7135 103.882 17.6371L103.912 12.6396C103.932 9.95486 102.215 7.67231 99.8214 6.84275V6.67683C99.8364 5.06799 99.2105 3.50941 98.0788 2.35808C97.3277 1.59388 96.3913 1.05592 95.3798 0.774373C94.8641 0.633599 94.3283 0.558185 93.7875 0.558185L88.3195 0.533046C85.5705 0.517963 83.167 2.34803 82.4359 5.00765L81.9852 6.64164C81.3543 6.81761 80.7584 7.09916 80.2176 7.4712C79.5216 7.1796 78.8006 6.92319 78.0395 6.71203C76.1517 6.18915 74.0086 5.91263 71.6401 5.89252C67.1936 5.86738 63.6884 6.66678 60.8943 8.35607C60.8793 8.35607 60.8743 8.36612 60.8593 8.3611C60.4837 8.59237 60.1332 8.83872 59.7927 9.0901C58.2505 7.92872 56.4528 7.04888 54.4399 6.49081C52.6723 6.00313 50.7094 5.74672 48.5913 5.72661C45.4868 5.7065 42.7177 6.23943 40.3242 7.32037C39.3979 6.6165 38.4315 6.31484 37.7505 6.09865L37.3999 6.00313C36.4335 5.73666 35.4321 5.60092 34.4306 5.59086C32.9835 5.59589 31.5964 5.82716 30.2945 6.28468C30.2695 6.27965 30.2445 6.26959 30.2244 6.26457C29.7187 6.12379 29.1879 6.04838 28.6471 6.04838L22.6333 6.01318C22.5131 6.01318 22.393 6.02324 22.2728 6.02827C22.2528 4.46467 21.6369 2.95637 20.5352 1.83521C19.7841 1.071 18.8478 0.533046 17.8363 0.251498C17.3205 0.110724 16.7848 0.035309 16.244 0.035309L10.776 0.000115501C8.02693 -0.0149674 5.62341 1.8151 4.89234 4.47472L4.44168 6.10871C3.47026 6.38523 2.56894 6.90308 1.83787 7.62706C0.701203 8.76331 0.0352281 10.3169 0.0302207 11.9458L0.000176732 16.9433C-0.00983793 19.0599 1.05672 20.9403 2.69412 22.0413L2.65907 26.7573C2.63904 31.7598 5.0025 34.4496 6.98541 35.8322C6.99542 35.8523 7.02546 35.8573 7.03548 35.8774C8.09703 36.5964 9.32884 37.1595 10.6858 37.5315C12.1029 37.9237 13.6552 38.1147 15.4278 38.1298C16.4543 38.1298 17.5359 38.0544 18.6325 37.9237C19.4687 37.8181 20.2248 37.6874 20.9158 37.5215C21.4015 37.6522 21.9073 37.7226 22.433 37.7276L29.7638 37.7779C31.3811 37.798 32.9184 37.1645 34.0651 36.0282C34.7861 35.3093 35.3169 34.4295 35.6073 33.4692C35.9078 33.7809 36.2132 34.0675 36.5086 34.3188C37.1195 34.8467 37.7855 35.3244 38.4865 35.7517C38.2011 36.2092 37.9407 36.717 37.7054 37.2952C37.6954 37.3254 37.6753 37.3505 37.6653 37.3807C37.1346 38.7331 36.729 40.3922 36.4185 42.4536C36.4035 42.5139 36.4035 42.5592 36.3885 42.6195C36.1431 44.5401 35.9929 46.536 35.9078 48.5069C35.8176 50.7241 35.7676 52.8105 35.7676 54.8166C35.7425 58.1248 36.3083 60.5431 37.5401 62.4133C37.5952 62.4938 37.6403 62.5692 37.6954 62.6446C38.9021 64.3188 40.5546 65.4702 42.4423 65.993C43.1634 66.1941 43.9245 66.2947 44.6856 66.3047C46.3781 66.3249 48.8968 65.8221 51.3003 63.3736C52.442 64.4093 53.794 65.1434 55.3362 65.5707C56.3026 65.8372 57.3492 65.983 58.4307 65.983C60.659 65.9981 62.8222 65.1735 64.8852 63.5647C64.8852 63.5496 64.9102 63.5395 64.9102 63.5245C65.6062 62.9714 66.2923 62.3279 66.9682 61.5888C68.5105 63.2882 70.4784 64.4797 72.8418 65.1333C74.1888 65.5054 75.661 65.6914 77.2333 65.6964C79.6017 65.7215 81.9952 65.3042 84.3136 64.4797C84.8845 64.2786 85.4453 64.0524 85.9961 63.8161C86.0862 63.8764 86.1764 63.9367 86.2715 63.9971C87.278 64.6255 88.3495 65.0931 89.4562 65.3998C90.4526 65.6763 91.4791 65.8171 92.5207 65.8171V65.807C94.4485 65.8271 96.4514 65.3445 98.5044 64.359C99.0552 64.0926 99.601 63.801 100.152 63.4893C101.058 64.1278 101.924 64.4747 102.605 64.6607C103.171 64.8166 103.757 64.9121 104.338 64.9322H104.523C106.226 64.9573 107.838 64.3138 109.065 63.1625C110.136 64.1378 111.283 64.9825 112.495 65.7014C113.597 66.3349 114.763 66.8327 115.995 67.1745C117.252 67.5214 118.574 67.6974 119.941 67.7125C121.964 67.7326 123.982 67.3153 125.96 66.4707C127.567 65.8221 129.104 64.9523 130.536 63.8764C131.833 62.9413 133.02 61.9307 134.072 60.9101C135.038 59.9749 135.924 59.0549 136.675 58.1851L137.567 57.1695L137.907 56.7723C140.396 54.1127 140.311 51.0006 139.399 48.9594H139.414Z" fill="var(--fill-0, #F8F4EB)"/>
<g id="Group_2">
<path id="Vector_9" d="M98.5754 27.0938L96.5074 27.0787C95.7212 27.0736 95.1804 26.8725 94.89 26.4754C94.5996 26.053 94.4544 25.3994 94.4594 24.5095L94.5094 17.0636L98.6405 17.0887L98.6755 12.0862L94.5445 12.0611L94.5845 6.13349L89.1215 6.0983L87.4942 12.0158L84.4697 11.9957L84.4347 16.9982L87.1637 17.0183L87.0986 26.7971C87.0836 28.6976 87.6544 30.05 88.8061 30.8444C89.9828 31.6438 91.6502 32.051 93.8184 32.0611C94.5094 32.0611 95.3206 32.0108 96.257 31.8901C97.1934 31.7745 97.9545 31.6186 98.5503 31.4226L98.5804 27.0887L98.5754 27.0938Z" fill="var(--fill-0, #4535CD)"/>
<path id="Vector_10" d="M83.5776 26.9934C83.182 26.9934 82.8916 26.8526 82.6963 26.5811C82.501 26.3096 82.4059 25.9627 82.4059 25.5404L82.456 17.9084C82.471 15.6611 81.5496 14.0371 79.6819 13.0366C77.8192 12.011 75.4006 11.4881 72.4213 11.468C69.1515 11.4479 66.6228 11.9708 64.8452 13.0467C63.0926 14.1226 62.2063 15.5856 62.1963 17.4358C62.1963 17.657 62.2063 17.833 62.2314 17.9537L69.4619 18.0039V17.8581C69.4669 17.2649 69.7424 16.8325 70.2831 16.566C70.849 16.2996 71.5149 16.1688 72.2761 16.1739C73.1123 16.1789 73.7883 16.38 74.304 16.7822C74.8448 17.1794 75.1102 17.7626 75.1052 18.5268V19.4921C72.0007 19.472 69.487 19.6379 67.5692 19.9949C65.6464 20.3518 64.1692 21.0356 63.1277 22.0411C62.1112 23.0215 61.6004 24.4645 61.5854 26.3649C61.5604 30.02 63.8387 31.8652 68.4104 31.8953C69.9577 31.9054 71.3147 31.6942 72.4713 31.2568C73.628 30.8194 74.6796 30.2362 75.621 29.4971C75.9615 30.2664 76.5824 30.8747 77.4887 31.3272C78.4201 31.7546 79.6018 31.9707 81.0289 31.9808C81.765 31.9808 82.4209 31.9305 82.9867 31.8099C83.5526 31.7143 83.9832 31.6188 84.2786 31.5233C84.5991 31.4026 84.7944 31.3171 84.8695 31.2669L84.8995 27.0085L83.5726 26.9984L83.5776 26.9934ZM73.9485 26.556C73.2325 27.0688 72.3912 27.3252 71.4348 27.3151C69.7624 27.3051 68.9312 26.6817 68.9362 25.4449C68.9362 24.6807 69.4369 24.0773 70.4233 23.6399C71.4348 23.1774 72.9871 22.9511 75.0752 22.9662L75.0651 24.6354C75.0601 25.3996 74.6846 26.0431 73.9435 26.556H73.9485Z" fill="var(--fill-0, #4535CD)"/>
<path id="Vector_11" d="M53.1528 24.2334C53.1478 25.0981 52.8474 25.7869 52.2515 26.2997C51.6807 26.8126 50.7844 27.069 49.5526 27.0589C48.2006 27.0489 47.2041 26.6869 46.5732 25.9629C45.9623 25.2439 45.6619 24.1781 45.6719 22.7703L60.2833 22.8709L60.2933 21.6089C60.3183 18.1499 59.387 15.5758 57.5042 13.8814C55.6465 12.1871 52.9325 11.3324 49.3673 11.3073C45.9473 11.2821 43.2633 12.1318 41.3055 13.8462C39.3526 15.5607 38.3612 18.0996 38.3411 21.4581C38.3161 24.892 39.2975 27.4661 41.2804 29.1856C43.2634 30.8799 46.0624 31.7396 49.6777 31.7598C53.1228 31.7849 55.7466 31.1313 57.5493 29.8141C59.3519 28.4918 60.2632 26.6466 60.2783 24.2736L53.1578 24.2233L53.1528 24.2334ZM49.6277 16.0232C50.6592 16.0282 51.4604 16.3299 52.0212 16.9282C52.607 17.5265 52.8975 18.3309 52.8924 19.3415L45.732 19.2912C46.0174 17.0941 47.3143 16.0031 49.6277 16.0182V16.0232Z" fill="var(--fill-0, #4535CD)"/>
<path id="Vector_12" d="M36.7847 11.4128C36.3441 11.262 35.8383 11.1865 35.2725 11.1815C34.0657 11.1715 32.9841 11.4631 32.0177 12.0513C31.0563 12.6144 30.3503 13.459 29.8996 14.5953L29.439 11.629L23.4251 11.5888L23.295 31.1513L30.6357 31.2016L30.6958 22.4937C30.7058 20.9352 31.0463 19.7687 31.7173 18.9794C32.4133 18.1951 33.5199 17.808 35.0472 17.818L37.4106 17.8331L37.4507 11.6441C37.4507 11.6441 37.2304 11.5435 36.7897 11.4178L36.7847 11.4128Z" fill="var(--fill-0, #4535CD)"/>
<path id="Vector_13" d="M18.9586 26.5613C18.1724 26.5562 17.6316 26.3551 17.3412 25.9579C17.0508 25.5356 16.9055 24.882 16.9106 23.9921L16.9606 16.5462L21.0917 16.5763L21.1267 11.5738L16.9957 11.5487L17.0357 5.6211L11.5727 5.58591L9.94535 11.5034L6.92093 11.4833L6.88587 16.4858L9.61487 16.506L9.54978 26.2847C9.53475 28.1852 10.1056 29.5376 11.2573 30.332C12.434 31.1314 14.1014 31.5386 16.2696 31.5487C16.9606 31.5487 17.7718 31.4984 18.7082 31.3777C19.6446 31.2621 20.4057 31.1062 21.0015 30.9102L21.0316 26.5763L18.9636 26.5613H18.9586Z" fill="var(--fill-0, #4535CD)"/>
</g>
<g id="Group_3">
<path id="Vector_14" d="M134.697 50.9399C134.577 50.5678 134.341 50.3818 134.001 50.3818C133.831 50.3818 133.63 50.4271 133.41 50.5276C133.215 50.598 132.989 50.7488 132.744 50.97C132.273 51.4125 131.632 52.0259 130.811 52.8102C129.995 53.5693 129.044 54.3537 127.952 55.1631C126.891 55.9726 125.729 56.6563 124.472 57.2144C123.215 57.7725 121.908 58.049 120.556 58.0389C119.525 58.0339 118.493 57.682 117.462 56.9831C116.435 56.2591 115.429 55.3542 114.452 54.2581C113.476 53.142 112.56 51.9605 111.708 50.7187C110.857 49.4517 110.111 48.2752 109.48 47.1842C111.528 46.3094 113.416 45.5553 115.138 44.9268C116.891 44.2732 118.568 43.6649 120.171 43.1068C121.773 42.5236 123.39 41.9555 125.018 41.3974C125.509 41.2013 125.834 40.9851 125.979 40.7388C126.154 40.4673 126.24 40.1958 126.245 39.9243C126.245 39.5774 126.114 39.2707 125.844 38.9942C125.599 38.6976 125.243 38.5467 124.777 38.5417C123.891 38.5367 122.769 38.7126 121.418 39.0746C120.061 39.4366 118.618 39.9193 117.091 40.5276C115.564 41.1108 114.082 41.7695 112.65 42.4985C111.218 43.2275 109.971 43.9615 108.909 44.6955C109.26 43.4638 109.675 42.1214 110.156 40.6634C110.632 39.2104 111.132 37.7423 111.663 36.2642C112.214 34.786 112.755 33.3683 113.276 32.0158C113.826 30.6634 114.327 29.4417 114.778 28.3557C114.928 27.9887 115.063 27.6518 115.188 27.3602C115.339 27.0636 115.414 26.7921 115.414 26.5457C115.414 25.8771 115.063 25.5452 114.352 25.5402C113.912 25.5402 113.526 25.6558 113.205 25.9022C112.91 26.1486 112.55 26.6865 112.124 27.5261C111.278 29.2255 110.426 31.1108 109.575 33.1772C108.749 35.2235 107.948 37.33 107.172 39.497C106.396 41.6387 105.705 43.7252 105.099 45.7463C104.633 47.3451 104.242 48.8333 103.922 50.2159C103.601 50.5226 103.266 50.8293 102.92 51.141C101.904 52.0259 100.857 52.8454 99.7658 53.6045C98.6792 54.3637 97.6177 54.9721 96.5812 55.4346C95.5697 55.8971 94.6333 56.1234 93.772 56.1184C93.061 56.1184 92.395 55.9223 91.7841 55.5502C91.1983 55.1782 90.6825 54.605 90.2469 53.8358C91.709 52.4381 92.9008 50.8795 93.8221 49.1551C94.7435 47.4306 95.2091 45.6709 95.2242 43.866C95.2342 42.2622 94.8837 41.0706 94.1776 40.3014C93.4916 39.507 92.6003 39.1048 91.4937 39.0998C90.6324 39.0947 89.7812 39.4467 88.94 40.1556C88.1238 40.8645 87.4528 41.9102 86.927 43.2928C86.4012 44.6704 86.1309 46.3496 86.1208 48.3255C86.1158 49.2405 86.1709 50.1053 86.2861 50.9198C86.4012 51.7342 86.5715 52.4884 86.7868 53.1822C85.6001 54.062 84.3032 54.7609 82.8961 55.2687C81.5141 55.7765 80.087 56.0279 78.6098 56.0178C76.7171 56.0027 75.3651 55.6257 74.5589 54.8816C73.7527 54.1375 73.3071 52.8705 73.2169 51.0957C75.5854 50.2461 77.4982 49.2858 78.9553 48.2048C80.4375 47.1038 81.5141 45.9625 82.1901 44.781C82.8611 43.5744 83.2016 42.3929 83.2116 41.2315C83.2216 40.0701 82.9061 39.0947 82.2702 38.3004C81.6343 37.506 80.6679 37.1038 79.3609 37.0937C78.3545 37.0887 77.3179 37.4256 76.2564 38.1093C75.1948 38.7931 74.2184 39.7634 73.3221 41.0153C72.4258 42.2421 71.6947 43.695 71.1139 45.3743C70.5631 47.0233 70.2776 48.8383 70.2676 50.8142C70.2526 53.3582 70.8785 55.3743 72.1454 56.8675C73.4122 58.3557 75.4001 59.1098 78.1091 59.1299C79.7565 59.14 81.434 58.8433 83.1315 58.235C84.834 57.6267 86.4263 56.8021 87.9085 55.7463C88.5644 56.8624 89.3606 57.7222 90.2919 58.3205C91.2483 58.9188 92.2648 59.2204 93.3464 59.2305C94.3779 59.2355 95.4996 58.9489 96.7113 58.3657C97.9431 57.7825 99.18 57.0233 100.417 56.0932C101.408 55.3642 102.35 54.59 103.251 53.7855C103.191 54.2933 103.156 54.7508 103.156 55.148C103.151 56.0882 103.391 56.8524 103.877 57.4507C104.363 58.049 104.878 58.3456 105.419 58.3506C105.614 58.3506 105.775 58.24 105.9 58.0188C106.025 57.7976 106.15 57.3652 106.275 56.7267C106.426 56.0882 106.616 55.148 106.846 53.9162C107.102 52.6845 107.442 51.0656 107.873 49.0696C108.454 50.3064 109.145 51.6337 109.951 53.0465C110.777 54.4341 111.718 55.7363 112.765 56.958C113.841 58.1747 115.038 59.1701 116.36 59.9444C117.707 60.7187 119.179 61.1108 120.782 61.1209C122.013 61.1309 123.22 60.8795 124.402 60.3667C125.609 59.879 126.735 59.2456 127.772 58.4612C128.833 57.6769 129.8 56.8675 130.666 56.0379C131.557 55.1782 132.313 54.3939 132.934 53.6799C133.555 52.966 134.011 52.4381 134.311 52.0962C134.707 51.6789 134.832 51.2968 134.687 50.9499L134.697 50.9399ZM74.2535 45.4597C74.7041 44.424 75.2249 43.4889 75.8208 42.6543C76.4166 41.7946 77.0375 41.1058 77.6785 40.593C78.3194 40.055 78.9403 39.7886 79.5312 39.7886C79.9268 39.7886 80.1972 39.8941 80.3424 40.0902C80.4876 40.2662 80.5627 40.5226 80.5577 40.8695C80.5527 41.6588 80.2022 42.5337 79.5061 43.4939C78.8352 44.4542 77.9439 45.3843 76.8322 46.2893C75.7456 47.1691 74.5839 47.9183 73.3471 48.5266C73.5274 47.5161 73.8278 46.4904 74.2535 45.4597ZM91.694 47.2798C91.0931 48.5869 90.2869 49.8036 89.2704 50.9298C89.1052 49.9394 89.0251 48.8434 89.0351 47.6317C89.0451 45.9022 89.3155 44.4944 89.8363 43.4135C90.3871 42.3074 91.038 41.7544 91.8042 41.7594C92.3449 41.7594 92.6103 42.3074 92.6053 43.3934C92.5953 44.6754 92.2949 45.9726 91.694 47.2798Z" fill="var(--fill-0, #4535CD)"/>
<path id="Vector_15" d="M70.8401 42.6241C70.8401 41.9806 70.6899 41.4728 70.3694 41.1007C70.079 40.7287 69.7585 40.5427 69.413 40.5376C69.1676 40.5376 68.9223 40.6834 68.6719 40.975C68.4466 41.2465 68.1612 41.7744 67.8106 42.5638C67.0646 44.0671 66.2784 45.6407 65.4522 47.2898C64.656 48.9137 63.8448 50.427 63.0236 51.8297C62.2275 53.2073 61.4313 54.3385 60.6401 55.2234C59.874 56.0831 59.143 56.5105 58.4519 56.5054C58.2066 56.5054 58.0864 55.8619 58.0964 54.5748C58.0964 54.2279 58.1515 53.6497 58.2567 52.8353C58.3618 51.9956 58.492 51.0454 58.6422 49.9846C58.7974 48.8986 58.9527 47.8126 59.1079 46.7267C59.2631 45.6407 59.3933 44.6804 59.4985 43.8408C59.6036 42.976 59.6537 42.3727 59.6587 42.0258C59.6687 40.8644 59.3783 39.9745 58.7924 39.3511C58.2316 38.7025 57.6157 38.3808 56.9547 38.3758C56.3889 38.3758 55.8081 38.7025 55.2122 39.3662C54.6163 40.0047 54.0205 40.8644 53.4246 41.9454C52.8287 43.0012 52.2428 44.1726 51.667 45.4547C51.0912 46.7367 50.5303 48.0288 49.9795 49.336C49.4287 50.6181 48.903 51.7996 48.4072 52.8805C47.9065 53.9413 47.4358 54.8011 46.9902 55.4647C46.5695 56.1032 46.174 56.425 45.8034 56.42C45.7033 56.42 45.6332 56.3094 45.5831 56.0831C45.5581 55.8368 45.548 55.515 45.5531 55.1178C45.5581 54.1776 45.6382 53.0313 45.7984 51.6739C45.9536 50.2913 46.1389 48.8735 46.3442 47.4155C46.5745 45.9323 46.7698 44.5547 46.9251 43.2677C47.0803 41.9856 47.1604 40.96 47.1654 40.1958C47.1704 39.4567 47.0152 38.8634 46.6997 38.416C46.3843 37.9434 46.0137 37.7071 45.5981 37.7071C45.0073 37.7071 44.5265 38.1696 44.151 39.1048C43.7754 40.0399 43.47 41.2968 43.2397 42.8755C43.0344 44.4542 42.8841 46.244 42.799 48.245C42.7139 50.2209 42.6638 52.2571 42.6488 54.3586C42.6338 56.3596 42.8992 57.7573 43.4349 58.5517C43.9958 59.3209 44.7068 59.7081 45.5681 59.7131C46.3292 59.7131 47.0853 59.341 47.8264 58.5819C48.5675 57.8227 49.2785 56.8524 49.9495 55.6709C50.6455 54.4894 51.2915 53.2475 51.8923 51.9403C52.5182 50.613 53.064 49.3913 53.5397 48.2852C53.9654 47.2747 54.366 46.3044 54.7415 45.3642C55.1421 44.4039 55.4776 43.6146 55.753 43.0012C56.0534 42.3627 56.2537 42.0409 56.3489 42.0409C56.449 42.0409 56.4841 42.2169 56.454 42.5588C56.429 42.8302 56.3489 43.338 56.2237 44.0771C56.1185 44.8162 55.9933 45.6809 55.8381 46.6663C55.6829 47.6518 55.5277 48.6774 55.3724 49.7382C55.2422 50.7991 55.1271 51.7845 55.0219 52.6995C54.9418 53.6146 54.9017 54.3536 54.8967 54.9217C54.8867 56.2792 55.2623 57.3702 56.0184 58.1897C56.7995 58.9841 57.8911 59.3863 59.2932 59.3963C60.1044 59.4014 60.9907 59.0243 61.9571 58.2651C62.9235 57.4808 63.8999 56.3999 64.8914 55.0223C65.9079 53.6196 66.9043 51.9856 67.8757 50.1153C68.8472 48.2199 69.7585 46.1636 70.6097 43.9464C70.7099 43.7 70.775 43.4788 70.8 43.2827C70.8251 43.0615 70.8401 42.8403 70.8401 42.6141V42.6241Z" fill="var(--fill-0, #4535CD)"/>
</g>
</g>
</svg>
