<svg preserveAspectRatio="none" width="100%" height="100%" overflow="visible" style="display: block;" viewBox="0 0 139.985 67.7132" fill="none" xmlns="http://www.w3.org/2000/svg">
<g id="Group">
<path id="Vector" d="M97.8531 12.5292L97.818 17.5317L93.687 17.5065L93.6369 24.9525C93.6319 25.8424 93.7721 26.496 94.0675 26.9183C94.358 27.3155 94.8988 27.5166 95.6849 27.5216L97.7529 27.5367L97.7229 31.8705C97.132 32.0616 96.3659 32.2174 95.4295 32.3381C94.4932 32.4537 93.682 32.5141 92.991 32.509C90.8278 32.4939 89.1553 32.0867 87.9786 31.2923C86.8269 30.4929 86.2611 29.1455 86.2711 27.2451L86.3362 17.4663L83.6072 17.4462L83.6423 12.4437L86.6667 12.4638L88.2941 6.54626L93.7571 6.58145L93.717 12.509L97.8481 12.5342L97.8531 12.5292Z" fill="var(--fill-0, #2D335A)"/>
<path id="Vector_2" d="M71.6099 11.9108C74.5842 11.9309 77.0078 12.4537 78.8705 13.4794C80.7332 14.4799 81.6596 16.1038 81.6446 18.3512L81.5945 25.9831C81.5945 26.4055 81.6896 26.7473 81.8849 27.0239C82.0802 27.2954 82.3756 27.4361 82.7662 27.4361L84.0931 27.4462L84.0631 31.7046C83.988 31.7549 83.7927 31.8403 83.4722 31.961C83.1768 32.0565 82.7462 32.1521 82.1803 32.2476C81.6145 32.3682 80.9636 32.4236 80.2225 32.4185C78.7954 32.4085 77.6187 32.1923 76.6823 31.7649C75.776 31.3124 75.15 30.7041 74.8146 29.9349C73.8732 30.6689 72.8266 31.2571 71.6649 31.6945C70.5032 32.1319 69.1513 32.3431 67.604 32.3331C63.0273 32.3029 60.754 30.4577 60.779 26.8026C60.794 24.9022 61.3048 23.4593 62.3213 22.4789C63.3628 21.4733 64.8399 20.7896 66.7628 20.4326C68.6856 20.0757 71.1942 19.9047 74.2938 19.9298V18.9645C74.3038 18.2003 74.0384 17.6171 73.4976 17.2199C72.9819 16.8228 72.3059 16.6166 71.4696 16.6116C70.7085 16.6066 70.0426 16.7373 69.4767 17.0038C68.9359 17.2702 68.6605 17.7026 68.6555 18.2959V18.4417L61.4249 18.3914C61.3999 18.2657 61.3899 18.0948 61.3899 17.8735C61.3999 16.0234 62.2862 14.5553 64.0388 13.4844C65.8164 12.4085 68.3401 11.8806 71.6149 11.9057L71.6099 11.9108ZM74.2637 23.414C72.1707 23.3989 70.6234 23.6252 69.6119 24.0877C68.6255 24.5251 68.1298 25.1284 68.1248 25.8926C68.1147 27.1294 68.951 27.7529 70.6234 27.7629C71.5848 27.768 72.421 27.5166 73.1371 27.0037C73.8782 26.4909 74.2537 25.8524 74.2587 25.0832L74.2688 23.414H74.2637Z" fill="var(--fill-0, #2D335A)"/>
<path id="Vector_3" d="M48.5479 11.7549C52.1131 11.78 54.8271 12.6347 56.6848 14.3291C58.5676 16.0234 59.4989 18.5975 59.4739 22.0566L59.4639 23.3185L44.8525 23.2179C44.8425 24.6257 45.1429 25.6915 45.7538 26.4105C46.3897 27.1294 47.3812 27.4965 48.7332 27.5065C49.965 27.5166 50.8613 27.2602 51.4321 26.7473C52.028 26.2345 52.3234 25.5457 52.3335 24.681L59.4539 24.7313C59.4389 27.1043 58.5275 28.9495 56.7249 30.2717C54.9222 31.594 52.2984 32.2426 48.8534 32.2174C45.2381 32.1923 42.439 31.3326 40.4561 29.6433C38.4732 27.9238 37.4967 25.3497 37.5168 21.9158C37.5368 18.5573 38.5282 16.0183 40.4811 14.3039C42.434 12.5895 45.1229 11.7398 48.5429 11.765L48.5479 11.7549ZM48.8133 16.4608C46.4999 16.4457 45.203 17.5367 44.9176 19.7338L52.0781 19.7841C52.0831 18.7735 51.7927 17.9691 51.2068 17.3708C50.646 16.7725 49.8498 16.4708 48.8133 16.4658V16.4608Z" fill="var(--fill-0, #2D335A)"/>
<path id="Vector_4" d="M34.4565 11.6242C35.0223 11.6242 35.5281 11.7046 35.9687 11.8555C36.4094 11.9812 36.6297 12.0566 36.6297 12.0817L36.5896 18.2708L34.2262 18.2557C32.6989 18.2456 31.5923 18.6327 30.8963 19.4171C30.2253 20.2014 29.8848 21.3728 29.8748 22.9314L29.8147 31.6393L22.474 31.589L22.6042 12.0264L28.618 12.0666L29.0786 15.0329C29.5293 13.9017 30.2353 13.0521 31.1967 12.489C32.1581 11.9007 33.2447 11.6141 34.4515 11.6192L34.4565 11.6242Z" fill="var(--fill-0, #2D335A)"/>
<path id="Vector_5" d="M20.306 12.0112L20.271 17.0137L16.1399 16.9836L16.0899 24.4295C16.0848 25.3194 16.225 25.973 16.5205 26.3953C16.8109 26.7925 17.3517 26.9936 18.1379 26.9987L20.2059 27.0137L20.1758 31.3476C19.585 31.5386 18.8188 31.6945 17.8825 31.8151C16.9461 31.9358 16.1349 31.9911 15.4439 31.9861C13.2807 31.971 11.6083 31.5638 10.4316 30.7694C9.27988 29.97 8.70904 28.6226 8.72407 26.7221L8.78916 16.9434L6.06017 16.9232L6.09522 11.9207L9.11964 11.9408L10.747 6.02331L16.21 6.0585L16.17 11.9861L20.301 12.0163L20.306 12.0112Z" fill="var(--fill-0, #2D335A)"/>
<path id="Vector_6" d="M119.975 61.5537C118.378 61.5437 116.901 61.1515 115.554 60.3773C114.232 59.603 113.03 58.6075 111.959 57.3908C110.907 56.1742 109.971 54.872 109.144 53.4793C108.343 52.0666 107.652 50.7393 107.066 49.5025C106.636 51.4984 106.29 53.1173 106.04 54.3491C105.81 55.5809 105.619 56.5211 105.469 57.1596C105.344 57.8031 105.214 58.2305 105.094 58.4517C104.973 58.6729 104.808 58.7835 104.613 58.7835C104.072 58.7835 103.556 58.4818 103.071 57.8836C102.585 57.2853 102.339 56.5211 102.349 55.5809C102.355 54.5904 102.535 53.2833 102.89 51.6593C103.246 50.0052 103.711 48.1802 104.292 46.1842C104.898 44.1631 105.584 42.0817 106.365 39.9348C107.142 37.7679 107.943 35.6613 108.769 33.6151C109.62 31.5437 110.466 29.6634 111.318 27.964C111.743 27.1294 112.104 26.5864 112.399 26.3401C112.72 26.0937 113.1 25.9731 113.546 25.9781C114.257 25.9781 114.612 26.32 114.607 26.9836C114.607 27.23 114.532 27.5015 114.382 27.7981C114.257 28.0947 114.122 28.4266 113.972 28.7936C113.521 29.8796 113.02 31.0962 112.469 32.4537C111.944 33.8112 111.408 35.2239 110.857 36.7021C110.331 38.1802 109.83 39.6483 109.35 41.1013C108.869 42.5543 108.458 43.8966 108.108 45.1334C109.169 44.3994 110.416 43.6654 111.848 42.9364C113.281 42.2073 114.763 41.5487 116.29 40.9655C117.817 40.3572 119.259 39.8745 120.616 39.5125C121.973 39.1505 123.09 38.9746 123.976 38.9796C124.442 38.9796 124.797 39.1355 125.043 39.4321C125.313 39.7036 125.443 40.0153 125.443 40.3622C125.443 40.6337 125.353 40.9052 125.178 41.1767C125.028 41.423 124.707 41.6442 124.217 41.8353C122.589 42.3934 120.972 42.9615 119.369 43.5447C117.767 44.1028 116.09 44.7061 114.337 45.3647C112.61 45.9932 110.722 46.7473 108.679 47.6221C109.31 48.7131 110.056 49.8896 110.907 51.1566C111.758 52.3984 112.675 53.5749 113.651 54.696C114.627 55.787 115.629 56.697 116.66 57.421C117.687 58.1198 118.718 58.4718 119.755 58.4768C121.107 58.4869 122.414 58.2103 123.671 57.6523C124.928 57.0942 126.089 56.4105 127.151 55.601C128.237 54.7915 129.189 54.0072 130.01 53.2481C130.826 52.4637 131.472 51.8504 131.943 51.4079C132.188 51.1867 132.414 51.0409 132.609 50.9655C132.829 50.87 133.029 50.8197 133.2 50.8197C133.545 50.8197 133.776 51.0108 133.896 51.3778C134.041 51.7247 133.916 52.1068 133.52 52.5241C133.225 52.866 132.764 53.3939 132.143 54.1078C131.522 54.8217 130.766 55.606 129.875 56.4658C129.009 57.3003 128.042 58.1098 126.981 58.8891C125.944 59.6734 124.817 60.3069 123.611 60.7946C122.429 61.3074 121.217 61.5588 119.99 61.5487L119.975 61.5537Z" fill="var(--fill-0, #2D335A)"/>
<path id="Vector_7" d="M82.3962 41.6643C82.3862 42.8257 82.0507 44.0072 81.3747 45.2138C80.7038 46.3953 79.6272 47.5366 78.14 48.6376C76.6829 49.7135 74.7701 50.6789 72.4016 51.5285C72.4867 53.3083 72.9374 54.5703 73.7436 55.3143C74.5498 56.0584 75.9017 56.4405 77.7945 56.4506C79.2717 56.4606 80.6988 56.2093 82.0808 55.7015C83.4878 55.1937 84.7847 54.4948 85.9715 53.615C85.7562 52.9212 85.5859 52.167 85.4707 51.3526C85.3556 50.5381 85.2955 49.6733 85.3055 48.7583C85.3205 46.7824 85.5859 45.1032 86.1117 43.7256C86.6375 42.348 87.3084 41.3023 88.1246 40.5884C88.9659 39.8795 89.8171 39.5275 90.6784 39.5326C91.785 39.5426 92.6813 39.9398 93.3623 40.7342C94.0683 41.5034 94.4188 42.6949 94.4088 44.2988C94.3988 46.1037 93.9281 47.8634 93.0068 49.5879C92.0854 51.3123 90.8937 52.8709 89.4315 54.2686C89.8672 55.0378 90.3829 55.611 90.9688 55.983C91.5797 56.3551 92.2457 56.5461 92.9567 56.5511C93.818 56.5562 94.7543 56.3299 95.7658 55.8674C96.8023 55.4048 97.8639 54.7965 98.9505 54.0373C100.037 53.2781 101.089 52.4586 102.105 51.5738C103.122 50.6688 104.023 49.7839 104.814 48.9242C105.014 48.6778 105.21 48.517 105.41 48.4466C105.605 48.3511 105.79 48.3008 105.966 48.3008C106.482 48.3008 106.737 48.5924 106.737 49.1605C106.737 49.5828 106.522 50.0504 106.101 50.5632C105.285 51.4984 104.303 52.4888 103.167 53.5446C102.055 54.6004 100.863 55.5909 99.6064 56.521C98.3696 57.4511 97.1378 58.2103 95.901 58.7935C94.6942 59.3767 93.5726 59.6683 92.5361 59.6582C91.4545 59.6532 90.433 59.3465 89.4816 58.7482C88.5502 58.1499 87.7591 57.2902 87.0981 56.1741C85.616 57.2248 84.0236 58.0544 82.3211 58.6628C80.6186 59.2711 78.9462 59.5677 77.2988 59.5577C74.5948 59.5376 72.6069 58.7834 71.335 57.2952C70.0682 55.8071 69.4373 53.7859 69.4573 51.242C69.4723 49.2661 69.7527 47.4511 70.3035 45.802C70.8794 44.1278 71.6155 42.6748 72.5118 41.4431C73.4081 40.1912 74.3845 39.2208 75.4461 38.5371C76.5076 37.8533 77.5441 37.5114 78.5506 37.5215C79.8525 37.5316 80.8239 37.9338 81.4599 38.7281C82.0958 39.5225 82.4063 40.5029 82.4012 41.6592L82.3962 41.6643ZM72.5318 48.9695C73.7636 48.3611 74.9253 47.617 76.0169 46.7321C77.1285 45.8272 78.0198 44.892 78.6908 43.9368C79.3868 42.9765 79.7373 42.1017 79.7424 41.3123C79.7424 40.9654 79.6723 40.709 79.527 40.5331C79.3818 40.337 79.1114 40.2314 78.7158 40.2314C78.125 40.2314 77.5091 40.4928 76.8631 41.0358C76.2222 41.5486 75.6013 42.2374 75.0054 43.0972C74.4095 43.9317 73.8888 44.8669 73.4381 45.9026C73.0125 46.9383 72.7121 47.9589 72.5318 48.9695ZM88.4551 51.3727C89.4716 50.2414 90.2778 49.0248 90.8787 47.7226C91.4795 46.4154 91.78 45.1233 91.79 43.8362C91.795 42.7503 91.5296 42.2022 90.9888 42.2022C90.2277 42.1972 89.5717 42.7503 89.0209 43.8563C88.4952 44.9373 88.2298 46.345 88.2198 48.0745C88.2097 49.2862 88.2899 50.3822 88.4551 51.3727Z" fill="var(--fill-0, #2D335A)"/>
<path id="Vector_8" d="M139.414 48.9594C138.598 47.0288 136.996 45.5859 135.003 45.0379C134.417 44.877 133.811 44.7865 133.2 44.7915C131.928 44.7915 130.937 45.1283 130.296 45.3948C129.735 45.6261 129.184 45.9227 128.659 46.2948C129.269 45.8121 129.785 45.254 130.206 44.6256C130.256 44.5602 130.311 44.4798 130.356 44.4144C131.112 43.1525 131.498 41.8051 131.488 40.3973L131.498 40.3521C131.478 38.4818 130.757 36.697 129.455 35.3345C128.538 34.3139 127.362 33.5999 126.025 33.2329C125.384 33.057 124.698 32.9614 124.027 32.9514C122.585 32.9313 121.012 33.1625 119.08 33.6703C119.044 33.6754 119.014 33.6854 118.979 33.6904C118.809 33.7357 118.639 33.786 118.469 33.8363C118.624 33.4541 118.779 33.0871 118.929 32.7302C119.14 32.2224 119.33 31.7397 119.52 31.2671C119.68 30.9202 119.816 30.6035 119.931 30.3018C120.396 29.2963 120.637 28.2556 120.667 27.1897C120.667 27.1294 120.672 27.0489 120.677 26.9886C120.642 23.7256 118.634 21.071 115.559 20.2214C114.943 20.0504 114.278 19.9599 113.607 19.9499C113.556 19.9499 113.511 19.9549 113.466 19.9449C111.714 19.965 110.066 20.523 108.709 21.5688C108.654 21.599 108.614 21.6392 108.569 21.6894C107.317 22.7 106.521 24.0474 105.915 25.239C105.89 25.2641 105.885 25.2943 105.875 25.3244C105.189 26.702 104.498 28.1952 103.807 29.794L103.817 27.6321C103.837 26.0082 103.191 24.4597 102.06 23.3084C101.809 23.057 101.539 22.8257 101.253 22.6246C102.826 21.5336 103.867 19.7136 103.882 17.6372L103.912 12.6397C103.932 9.95492 102.215 7.67237 99.8214 6.8428V6.67689C99.8364 5.06804 99.2105 3.50947 98.0788 2.35814C97.3277 1.59394 96.3913 1.05598 95.3798 0.774431C94.8641 0.633657 94.3283 0.558242 93.7875 0.558242L88.3195 0.533104C85.5705 0.518021 83.167 2.34809 82.4359 5.00771L81.9852 6.6417C81.3543 6.81767 80.7584 7.09921 80.2176 7.47126C79.5216 7.17966 78.8006 6.92325 78.0395 6.71208C76.1517 6.18921 74.0086 5.91269 71.6401 5.89258C67.1936 5.86744 63.6884 6.66684 60.8943 8.35613C60.8793 8.35613 60.8743 8.36618 60.8593 8.36115C60.4837 8.59243 60.1332 8.83878 59.7927 9.09016C58.2505 7.92878 56.4528 7.04894 54.4399 6.49087C52.6723 6.00319 50.7094 5.74678 48.5913 5.72667C45.4868 5.70655 42.7177 6.23949 40.3242 7.32043C39.3979 6.61656 38.4315 6.3149 37.7505 6.09871L37.3999 6.00319C36.4335 5.73672 35.4321 5.60097 34.4306 5.59092C32.9835 5.59595 31.5964 5.82722 30.2945 6.28473C30.2695 6.27971 30.2445 6.26965 30.2244 6.26462C29.7187 6.12385 29.1879 6.04843 28.6471 6.04843L22.6333 6.01324C22.5131 6.01324 22.393 6.0233 22.2728 6.02832C22.2528 4.46473 21.6369 2.95643 20.5352 1.83527C19.7841 1.07106 18.8478 0.533104 17.8363 0.251556C17.3205 0.110782 16.7848 0.0353669 16.244 0.0353669L10.776 0.000173325C8.02693 -0.0149096 5.62341 1.81515 4.89234 4.47478L4.44168 6.10877C3.47026 6.38529 2.56894 6.90314 1.83787 7.62712C0.701203 8.76337 0.0352281 10.3169 0.0302207 11.9459L0.000176732 16.9433C-0.00983793 19.06 1.05672 20.9403 2.69412 22.0414L2.65907 26.7573C2.63904 31.7598 5.0025 34.4496 6.98541 35.8322C6.99542 35.8523 7.02546 35.8574 7.03548 35.8775C8.09703 36.5964 9.32884 37.1595 10.6858 37.5316C12.0428 37.9036 13.6552 38.1148 15.4278 38.1299C16.4543 38.1299 17.5359 38.0544 18.6325 37.9237C19.4687 37.8181 20.2248 37.6874 20.9158 37.5215C21.4015 37.6522 21.9073 37.7226 22.433 37.7276L29.7638 37.7779C31.3811 37.798 32.9184 37.1646 34.0651 36.0283C34.7861 35.3094 35.3169 34.4295 35.6073 33.4692C35.9078 33.7809 36.2132 34.0675 36.5086 34.3189C37.1195 34.8468 37.7855 35.3244 38.4865 35.7518C38.2011 36.2093 37.9407 36.7171 37.7054 37.2953C37.6954 37.3254 37.6753 37.3506 37.6653 37.3807C37.1346 38.7332 36.729 40.3923 36.4185 42.4536C36.4035 42.514 36.4035 42.5592 36.3885 42.6196C36.1431 44.5401 35.9929 46.5361 35.9078 48.5069C35.8176 50.7241 35.7676 52.8106 35.7676 54.8166C35.7425 58.1248 36.3083 60.5431 37.5401 62.4134C37.5952 62.4938 37.6403 62.5693 37.6954 62.6447C38.9021 64.3189 40.5546 65.4702 42.4423 65.9931C43.1634 66.1942 43.9245 66.2948 44.6856 66.3048C46.3781 66.3249 48.8968 65.8222 51.3003 63.3737C52.442 64.4094 53.794 65.1434 55.3362 65.5708C56.3026 65.8372 57.3492 65.983 58.4307 65.983C60.659 65.9981 62.8222 65.1736 64.8852 63.5647C64.8852 63.5497 64.9102 63.5396 64.9102 63.5245C65.6062 62.9715 66.2923 62.3279 66.9682 61.5889C68.5105 63.2882 70.4784 64.4798 72.8418 65.1334C74.1888 65.5054 75.661 65.6914 77.2333 65.6965C79.6017 65.7216 81.9952 65.3043 84.3136 64.4798C84.8845 64.2787 85.4453 64.0524 85.9961 63.8161C86.0862 63.8765 86.1764 63.9368 86.2715 63.9971C87.278 64.6256 88.3495 65.0931 89.4562 65.3998C90.4526 65.6764 91.4791 65.8171 92.5207 65.8171V65.8071C94.4485 65.8272 96.4514 65.3445 98.5044 64.3591C99.0552 64.0926 99.601 63.801 100.152 63.4893C101.058 64.1278 101.924 64.4747 102.605 64.6608C103.171 64.8166 103.757 64.9121 104.338 64.9323H104.523C106.226 64.9574 107.838 64.3139 109.065 63.1625C110.136 64.1379 111.283 64.9825 112.495 65.7015C113.597 66.335 114.763 66.8327 115.995 67.1746C117.227 67.5165 118.574 67.6975 119.941 67.7125C121.964 67.7327 123.982 67.3154 125.96 66.4707C127.567 65.8222 129.104 64.9524 130.536 63.8765C131.833 62.9413 133.02 61.9308 134.072 60.9101C135.038 59.975 135.924 59.0549 136.675 58.1852L137.567 57.1696L137.907 56.7724C140.396 54.1128 140.311 51.0006 139.399 48.9594H139.414Z" fill="var(--fill-0, #4535CD)"/>
<g id="Group_2">
<path id="Vector_9" d="M98.5754 27.0287L96.5074 27.0136C95.7212 27.0086 95.1804 26.8075 94.89 26.4103C94.5996 25.988 94.4544 25.3344 94.4594 24.4445L94.5094 16.9986L98.6405 17.0237L98.6755 12.0212L94.5445 11.9961L94.5845 6.06846L89.1215 6.03327L87.4942 11.9508L84.4697 11.9307L84.4347 16.9332L87.1637 16.9533L87.0986 26.7321C87.0836 28.6325 87.6544 29.985 88.8061 30.7793C89.9828 31.5787 91.6502 31.986 93.8184 31.996C94.5094 31.996 95.3206 31.9458 96.257 31.8251C97.1934 31.7095 97.9545 31.5536 98.5503 31.3575L98.5804 27.0237L98.5754 27.0287Z" fill="var(--fill-0, #F8F4EB)"/>
<path id="Vector_10" d="M83.5776 26.9283C83.182 26.9283 82.8916 26.7876 82.6963 26.5161C82.501 26.2446 82.4059 25.8977 82.4059 25.4753L82.456 17.8434C82.471 15.596 81.5496 13.9721 79.6819 12.9716C77.8192 11.9459 75.4006 11.4231 72.4213 11.403C69.1515 11.3829 66.6228 11.9057 64.8452 12.9816C63.0926 14.0576 62.2063 15.5206 62.1963 17.3708C62.1963 17.592 62.2063 17.768 62.2314 17.8886L69.4619 17.9389V17.7931C69.4669 17.1998 69.7424 16.7675 70.2831 16.501C70.849 16.2345 71.5149 16.1038 72.2761 16.1088C73.1123 16.1139 73.7883 16.315 74.304 16.7172C74.8448 17.1144 75.1102 17.6976 75.1052 18.4618V19.4271C72.0007 19.407 69.487 19.5729 67.5692 19.9299C65.6464 20.2868 64.1692 20.9706 63.1277 21.9761C62.1112 22.9565 61.6004 24.3994 61.5854 26.2999C61.5604 29.955 63.8387 31.8001 68.4104 31.8303C69.9577 31.8403 71.3147 31.6292 72.4713 31.1918C73.628 30.7544 74.6796 30.1712 75.621 29.4321C75.9615 30.2013 76.5824 30.8097 77.4887 31.2622C78.4201 31.6895 79.6018 31.9057 81.0289 31.9158C81.765 31.9158 82.4209 31.8655 82.9867 31.7448C83.5526 31.6493 83.9832 31.5538 84.2786 31.4582C84.5991 31.3376 84.7944 31.2521 84.8695 31.2018L84.8995 26.9434L83.5726 26.9334L83.5776 26.9283ZM73.9485 26.4909C73.2325 27.0038 72.3912 27.2602 71.4348 27.2501C69.7624 27.2401 68.9312 26.6166 68.9362 25.3798C68.9362 24.6156 69.4369 24.0123 70.4233 23.5749C71.4348 23.1124 72.9871 22.8861 75.0752 22.9012L75.0651 24.5704C75.0601 25.3346 74.6846 25.9781 73.9435 26.4909H73.9485Z" fill="var(--fill-0, #F8F4EB)"/>
<path id="Vector_11" d="M53.1528 24.1683C53.1478 25.0331 52.8474 25.7219 52.2515 26.2347C51.6807 26.7475 50.7844 27.0039 49.5526 26.9939C48.2006 26.9838 47.2041 26.6218 46.5732 25.8978C45.9623 25.1789 45.6619 24.113 45.6719 22.7053L60.2833 22.8058L60.2933 21.5439C60.3183 18.0849 59.387 15.5107 57.5042 13.8164C55.6465 12.1221 52.9325 11.2674 49.3673 11.2423C45.9473 11.2171 43.2633 12.0668 41.3055 13.7812C39.3526 15.4956 38.3612 18.0346 38.3411 21.3931C38.3161 24.827 39.2975 27.4011 41.2804 29.1206C43.2634 30.8149 46.0624 31.6746 49.6777 31.6947C53.1228 31.7199 55.7466 31.0663 57.5493 29.749C59.3519 28.4268 60.2632 26.5816 60.2783 24.2086L53.1578 24.1583L53.1528 24.1683ZM49.6277 15.9582C50.6592 15.9632 51.4604 16.2649 52.0212 16.8632C52.607 17.4615 52.8975 18.2659 52.8924 19.2764L45.732 19.2262C46.0174 17.0291 47.3143 15.9381 49.6277 15.9532V15.9582Z" fill="var(--fill-0, #F8F4EB)"/>
<path id="Vector_12" d="M36.7847 11.3478C36.3441 11.1969 35.8383 11.1215 35.2725 11.1165C34.0657 11.1064 32.9841 11.398 32.0177 11.9863C31.0563 12.5494 30.3503 13.394 29.8996 14.5303L29.439 11.5639L23.4251 11.5237L23.295 31.0863L30.6357 31.1366L30.6958 22.4287C30.7058 20.8701 31.0463 19.7037 31.7173 18.9144C32.4133 18.1301 33.5199 17.7429 35.0472 17.753L37.4106 17.7681L37.4507 11.579C37.4507 11.579 37.2304 11.4785 36.7897 11.3528L36.7847 11.3478Z" fill="var(--fill-0, #F8F4EB)"/>
<path id="Vector_13" d="M18.9586 26.4961C18.1724 26.4911 17.6316 26.29 17.3412 25.8928C17.0508 25.4705 16.9055 24.8169 16.9106 23.927L16.9606 16.4811L21.0917 16.5112L21.1267 11.5087L16.9957 11.4836L17.0357 5.55599L11.5727 5.5208L9.94536 11.4383L6.92093 11.4182L6.88587 16.4207L9.61487 16.4408L9.54978 26.2196C9.53475 28.1201 10.1056 29.4725 11.2573 30.2669C12.434 31.0663 14.1014 31.4735 16.2696 31.4836C16.9606 31.4836 17.7718 31.4333 18.7082 31.3126C19.6446 31.197 20.4057 31.0411 21.0015 30.8451L21.0316 26.5112L18.9636 26.4961H18.9586Z" fill="var(--fill-0, #F8F4EB)"/>
</g>
<g id="Group_3">
<path id="Vector_14" d="M134.697 50.8752C134.577 50.5031 134.341 50.3171 134.001 50.3171C133.831 50.3171 133.63 50.3624 133.41 50.4629C133.215 50.5333 132.989 50.6841 132.744 50.9053C132.273 51.3478 131.632 51.9611 130.811 52.7455C129.995 53.5046 129.044 54.2889 127.952 55.0984C126.891 55.9078 125.729 56.5916 124.472 57.1497C123.215 57.7077 121.908 57.9843 120.556 57.9742C119.525 57.9692 118.493 57.6172 117.462 56.9184C116.435 56.1944 115.429 55.2894 114.452 54.1934C113.476 53.0773 112.56 51.8958 111.708 50.654C110.857 49.387 110.111 48.2105 109.48 47.1195C111.528 46.2447 113.416 45.4906 115.138 44.8621C116.891 44.2085 118.568 43.6002 120.171 43.0421C121.773 42.4589 123.39 41.8908 125.018 41.3327C125.509 41.1366 125.834 40.9204 125.979 40.6741C126.154 40.4026 126.24 40.1311 126.245 39.8596C126.245 39.5127 126.114 39.206 125.844 38.9295C125.599 38.6328 125.243 38.482 124.777 38.477C123.891 38.472 122.769 38.6479 121.418 39.0099C120.061 39.3719 118.618 39.8546 117.091 40.4629C115.564 41.0461 114.082 41.7047 112.65 42.4337C111.218 43.1628 109.971 43.8968 108.909 44.6308C109.26 43.3991 109.675 42.0567 110.156 40.5987C110.632 39.1457 111.132 37.6776 111.663 36.1995C112.214 34.7213 112.755 33.3035 113.276 31.9511C113.826 30.5987 114.327 29.377 114.778 28.291C114.928 27.924 115.063 27.5871 115.188 27.2955C115.339 26.9989 115.414 26.7274 115.414 26.481C115.414 25.8123 115.063 25.4805 114.352 25.4755C113.912 25.4755 113.526 25.5911 113.205 25.8375C112.91 26.0838 112.55 26.6218 112.124 27.4614C111.278 29.1608 110.426 31.0461 109.575 33.1125C108.749 35.1587 107.948 37.2653 107.172 39.4322C106.396 41.574 105.705 43.6605 105.099 45.6816C104.633 47.2804 104.242 48.7686 103.922 50.1512C103.601 50.4579 103.266 50.7646 102.92 51.0763C101.904 51.9611 100.857 52.7807 99.7658 53.5398C98.6792 54.299 97.6177 54.9073 96.5812 55.3699C95.5697 55.8324 94.6333 56.0587 93.772 56.0536C93.061 56.0536 92.395 55.8576 91.7841 55.4855C91.1983 55.1135 90.6825 54.5403 90.2469 53.7711C91.709 52.3734 92.9008 50.8148 93.8221 49.0904C94.7435 47.3659 95.2091 45.6062 95.2242 43.8013C95.2342 42.1975 94.8837 41.0059 94.1776 40.2367C93.4916 39.4423 92.6003 39.0401 91.4937 39.0351C90.6324 39.03 89.7812 39.382 88.94 40.0909C88.1238 40.7998 87.4528 41.8455 86.927 43.2281C86.4012 44.6057 86.1308 46.2849 86.1208 48.2608C86.1158 49.1758 86.1709 50.0406 86.2861 50.8551C86.4012 51.6695 86.5715 52.4237 86.7868 53.1175C85.6001 53.9973 84.3032 54.6962 82.8961 55.204C81.5141 55.7118 80.087 55.9631 78.6098 55.9531C76.7171 55.938 75.3651 55.5609 74.5589 54.8168C73.7527 54.0728 73.3071 52.8058 73.2169 51.031C75.5854 50.1814 77.4982 49.2211 78.9553 48.1401C80.4375 47.0391 81.5141 45.8978 82.1901 44.7163C82.8611 43.5097 83.2016 42.3282 83.2116 41.1668C83.2216 40.0054 82.9061 39.03 82.2702 38.2357C81.6343 37.4413 80.6679 37.0391 79.3609 37.029C78.3545 37.024 77.3179 37.3609 76.2564 38.0446C75.1948 38.7284 74.2184 39.6987 73.3221 40.9506C72.4258 42.1773 71.6947 43.6303 71.1139 45.3096C70.5631 46.9586 70.2776 48.7736 70.2676 50.7495C70.2526 53.2935 70.8785 55.3096 72.1454 56.8028C73.4122 58.291 75.4001 59.0451 78.1091 59.0652C79.7565 59.0753 81.434 58.7786 83.1315 58.1703C84.834 57.5619 86.4263 56.7374 87.9084 55.6816C88.5644 56.7977 89.3606 57.6575 90.2919 58.2558C91.2483 58.854 92.2648 59.1557 93.3464 59.1658C94.3779 59.1708 95.4996 58.8842 96.7113 58.301C97.9431 57.7178 99.18 56.9586 100.417 56.0285C101.408 55.2995 102.35 54.5252 103.251 53.7208C103.191 54.2286 103.156 54.6861 103.156 55.0833C103.151 56.0235 103.391 56.7877 103.877 57.386C104.363 57.9843 104.878 58.2809 105.419 58.2859C105.614 58.2859 105.775 58.1753 105.9 57.9541C106.025 57.7329 106.15 57.3005 106.275 56.662C106.426 56.0235 106.616 55.0833 106.846 53.8515C107.102 52.6198 107.442 51.0009 107.873 49.0049C108.454 50.2417 109.145 51.569 109.951 52.9818C110.777 54.3694 111.718 55.6715 112.765 56.8933C113.841 58.11 115.038 59.1054 116.36 59.8797C117.707 60.6539 119.179 61.0461 120.782 61.0562C122.013 61.0662 123.22 60.8148 124.402 60.302C125.609 59.8143 126.735 59.1808 127.772 58.3965C128.833 57.6122 129.8 56.8028 130.666 55.9732C131.557 55.1135 132.313 54.3292 132.934 53.6152C133.555 52.9013 134.011 52.3734 134.311 52.0315C134.707 51.6142 134.832 51.2321 134.687 50.8852L134.697 50.8752ZM74.2535 45.395C74.7041 44.3593 75.2249 43.4242 75.8208 42.5896C76.4166 41.7299 77.0375 41.0411 77.6785 40.5283C78.3194 39.9903 78.9403 39.7238 79.5312 39.7238C79.9268 39.7238 80.1972 39.8294 80.3424 40.0255C80.4876 40.2015 80.5627 40.4579 80.5577 40.8048C80.5527 41.5941 80.2022 42.4689 79.5061 43.4292C78.8352 44.3895 77.9439 45.3196 76.8322 46.2246C75.7456 47.1044 74.5839 47.8536 73.3471 48.4619C73.5274 47.4513 73.8278 46.4257 74.2535 45.395ZM91.694 47.215C91.0931 48.5222 90.2869 49.7389 89.2704 50.8651C89.1052 49.8747 89.0251 48.7786 89.0351 47.567C89.0451 45.8375 89.3155 44.4297 89.8363 43.3488C90.3871 42.2427 91.038 41.6897 91.8042 41.6947C92.3449 41.6947 92.6103 42.2427 92.6053 43.3287C92.5953 44.6107 92.2949 45.9079 91.694 47.215Z" fill="var(--fill-0, #F8F4EB)"/>
<path id="Vector_15" d="M70.8401 42.559C70.8401 41.9155 70.6899 41.4077 70.3694 41.0356C70.079 40.6636 69.7585 40.4775 69.413 40.4725C69.1676 40.4725 68.9223 40.6183 68.6719 40.9099C68.4466 41.1814 68.1612 41.7093 67.8106 42.4987C67.0646 44.0019 66.2784 45.5756 65.4522 47.2247C64.656 48.8486 63.8448 50.3619 63.0236 51.7646C62.2275 53.1422 61.4313 54.2734 60.6401 55.1583C59.874 56.018 59.143 56.4454 58.4519 56.4403C58.2066 56.4403 58.0864 55.7968 58.0964 54.5097C58.0964 54.1628 58.1515 53.5846 58.2567 52.7701C58.3618 51.9305 58.492 50.9803 58.6422 49.9195C58.7974 48.8335 58.9527 47.7475 59.1079 46.6616C59.2631 45.5756 59.3933 44.6153 59.4985 43.7757C59.6036 42.9109 59.6537 42.3076 59.6587 41.9607C59.6687 40.7993 59.3783 39.9094 58.7924 39.286C58.2316 38.6374 57.6157 38.3157 56.9547 38.3106C56.3889 38.3106 55.8081 38.6374 55.2122 39.3011C54.6163 39.9396 54.0205 40.7993 53.4246 41.8803C52.8287 42.9361 52.2428 44.1075 51.667 45.3896C51.0912 46.6716 50.5303 47.9637 49.9795 49.2709C49.4287 50.553 48.903 51.7345 48.4072 52.8154C47.9065 53.8762 47.4358 54.736 46.9902 55.3996C46.5695 56.0381 46.174 56.3599 45.8034 56.3549C45.7033 56.3549 45.6332 56.2443 45.5831 56.018C45.5581 55.7717 45.548 55.4499 45.5531 55.0527C45.5581 54.1125 45.6382 52.9662 45.7984 51.6088C45.9536 50.2262 46.1389 48.8084 46.3442 47.3503C46.5745 45.8672 46.7698 44.4896 46.9251 43.2025C47.0803 41.9205 47.1604 40.8948 47.1654 40.1306C47.1704 39.3916 47.0152 38.7983 46.6997 38.3509C46.3843 37.8783 46.0137 37.642 45.5981 37.642C45.0073 37.642 44.5265 38.1045 44.151 39.0396C43.7754 39.9748 43.47 41.2317 43.2397 42.8104C43.0344 44.3891 42.8841 46.1789 42.799 48.1799C42.7139 50.1558 42.6638 52.192 42.6488 54.2935C42.6338 56.2945 42.8992 57.6922 43.4349 58.4866C43.9958 59.2558 44.7068 59.6429 45.5681 59.648C46.3292 59.648 47.0853 59.2759 47.8264 58.5168C48.5675 57.7576 49.2785 56.7872 49.9495 55.6057C50.6455 54.4242 51.2915 53.1824 51.8923 51.8752C52.5182 50.5479 53.064 49.3262 53.5397 48.2201C53.9654 47.2096 54.366 46.2392 54.7415 45.2991C55.1421 44.3388 55.4776 43.5494 55.753 42.9361C56.0534 42.2976 56.2537 41.9758 56.3489 41.9758C56.449 41.9758 56.4841 42.1518 56.454 42.4936C56.429 42.7651 56.3489 43.2729 56.2237 44.012C56.1185 44.751 55.9933 45.6158 55.8381 46.6012C55.6829 47.5866 55.5277 48.6123 55.3724 49.6731C55.2422 50.734 55.1271 51.7194 55.0219 52.6344C54.9418 53.5494 54.9017 54.2885 54.8967 54.8566C54.8867 56.2141 55.2623 57.3051 56.0184 58.1246C56.7995 58.919 57.8911 59.3212 59.2932 59.3312C60.1044 59.3363 60.9907 58.9592 61.9571 58.2C62.9235 57.4157 63.8999 56.3348 64.8914 54.9572C65.9079 53.5545 66.9043 51.9205 67.8757 50.0502C68.8472 48.1548 69.7585 46.0985 70.6097 43.8813C70.7099 43.6349 70.775 43.4137 70.8 43.2176C70.8251 42.9964 70.8401 42.7752 70.8401 42.5489V42.559Z" fill="var(--fill-0, #F8F4EB)"/>
</g>
</g>
</svg>
