<svg version="1.1" id="Layer_1" xmlns:x="ns_extend;" xmlns:i="ns_ai;" xmlns:graph="ns_graphs;" xmlns="http://www.w3.org/2000/svg" xmlns:xlink="http://www.w3.org/1999/xlink" x="0px" y="0px" viewBox="0 0 375.1 158.7" style="enable-background:new 0 0 375.1 158.7;" xml:space="preserve">
 <style type="text/css">
  .st0{fill:#651C32;}
 </style>
 <metadata>
  <sfw xmlns="ns_sfw;">
   <slices>
   </slices>
   <sliceSourceBounds bottomLeftOrigin="true" height="158.7" width="375.1" x="12" y="120.3">
   </sliceSourceBounds>
  </sfw>
 </metadata>
 <g>
  <g>
   <path class="st0" d="M372,103.4c-9.8,22.3-16.5,26.2-21.8,26.2c-7.3,0-10.3-6.4-6-17.4c3-7.3,25.1-60.7,27.5-65.9h-10.3
			l-10.9,26.1c1.9-17.2-3.8-28.3-15.2-28.3c-21,0-48.1,31.9-59.8,60.5c-12.5,21-18.8,25-24.1,25c-7.3,0-10.3-6.4-6-17.4l27.8-65.9
			h-10.4c-2.2,5.2-25.4,58.7-28.6,66c-5.1,11-13.5,17.4-20.8,17.4c-4.8,0-7.6-3.9-3.8-14.7c9.8-22.7,11.8-29.1,13.1-35.3
			c4.2-21.1-3.8-35.5-16.8-35.5c-9.7,0-21.6,7.9-32.2,20.5l26.5-62.3l-10.4-0.2L146.1,104c-8.8,21.6-15.9,25.5-21.2,25.5
			c-6.6,0-9.7-5.2-7-14.5l14.7-34H66.1v6.2c8.7,1.4,15.1,9,15,17.8c0,13-17,22.3-34.9,22.3c-28.4,0-36.4-19-31.3-37.3
			c9.5-33.5,46.3-58.4,82.9-58.4c21.2,0,32.6,11.2,29.3,31.1c-0.1,1.3-0.8,3.5-1.7,6.6h9.9c1.4-3.8,2.2-7.5,3.1-11.2
			C146.2,24,132.6,0,101.5,0C59.6,0,12.1,53.3,1.9,100.5c-7.3,34.1,6.8,58.2,30.8,58.2c28.7,0,60.9-26.5,76.5-68.3h9.1l-1.3,2.9
			l-3.6,8.2l-6.2,14.1l-3.9,9c-7.5,16.9-2.6,29.7,9.5,29.7c12,0,27-9.8,43.2-49.5l2.6-5.4c8.5-16.1,21.6-24.9,35.5-24.9
			c16.3,0,18,10.6,14.8,19.9c-1.6,4.2-5.1,11.5-11.5,26.6c-7.7,20.2-5.6,33.3,6.6,33.3c5.5,0,16-3.3,28.9-26
			c-7.1,22.7,2.8,26,10.5,26c7.3,0,14.6-5.2,26.3-23.5c0.8,13.1,7.5,23.5,19.6,23.5c13.2,0,27.8-13,39.3-29.8l-2,5.1
			c-7.3,18.5,0,24.7,11,24.7c15.1,0,25.5-21.1,37.4-50.7L372,103.4z M341.3,86.9c-3.8,16.5-25.1,37-45.6,37
			c-6.6,0-14.1-5.1-11.9-15.2c3.5-15.9,25-34.2,44.2-34.2C338.9,74.5,343.1,79,341.3,86.9L341.3,86.9z M341.3,86.9">
   </path>
  </g>
  <path class="st0" d="M270.8,30c10.3,0,21.8-11.5,23.4-20.1c0.8-5-1.4-8.3-6.8-8.3c-10,0-21.4,11.6-22.7,19.4
		C263.3,28.4,267.5,29.9,270.8,30L270.8,30z M270.8,30">
  </path>
 </g>
</svg>