<svg preserveAspectRatio="none" width="100%" height="100%" overflow="visible" style="display: block;" viewBox="0 0 122.073 26.0497" fill="none" xmlns="http://www.w3.org/2000/svg">
<g id="Group">
<path id="Vector" d="M0 0H4.28186V21.708L0 26.0496V0ZM8.56373 21.708C10.9628 21.708 12.8883 19.754 12.8883 17.3664C12.8883 14.9789 10.9612 13.0248 8.56373 13.0248V8.68322C9.76245 8.68322 10.7047 7.72786 10.7047 6.51408C10.7047 5.29863 9.76245 4.34328 8.56373 4.34328V0C12.1171 0 14.9882 2.90774 14.9882 6.51241C14.9882 7.98796 14.5162 9.33346 13.7039 10.4189C15.7594 11.9828 17.1291 14.5437 17.1291 17.3648C17.1291 22.1415 13.3192 26.048 8.56537 26.048V21.708H8.56373Z" fill="var(--fill-0, black)"/>
<path id="Vector_2" d="M19.2766 8.68322V3.78164e-08H23.5585V8.68155H27.8403L23.5585 13.0248L19.2766 8.68322ZM27.8387 13.0248L32.1206 8.68322V3.78164e-08H36.4024V8.68155L32.1206 13.0232V21.7064L27.8387 26.048V13.0248Z" fill="var(--fill-0, black)"/>
<path id="Vector_3" d="M40.6941 3.78164e-08H44.976V21.708L40.6941 26.0496V3.78164e-08ZM49.2562 13.0248C51.6126 13.0248 53.5381 11.0708 53.5381 8.68322C53.5381 6.29567 51.6109 4.34161 49.2562 4.34161V3.78164e-08C53.9673 3.78164e-08 57.82 3.90645 57.82 8.68155C57.82 13.4583 53.9673 17.3648 49.2562 17.3648V13.0248ZM53.5397 17.3664L57.8216 21.708V26.0496H53.5397V17.3664Z" fill="var(--fill-0, black)"/>
<path id="Vector_4" d="M62.1117 3.78164e-08H66.3936V21.708L62.1117 26.0496V3.78164e-08ZM70.6738 3.78164e-08H79.2375V4.34161H70.6738V3.78164e-08ZM70.6738 8.68322H79.2375V13.0248H70.6738V8.68322ZM70.6738 21.708H79.2375V26.0496H70.6738V21.708Z" fill="var(--fill-0, black)"/>
<path id="Vector_5" d="M83.5292 3.78164e-08H87.8111V21.708L83.5292 26.0496V3.78164e-08ZM92.0913 21.708C94.4477 21.708 96.3732 19.754 96.3732 17.3664V8.68322C96.3732 6.29567 94.446 4.34161 92.0913 4.34161V3.78164e-08C96.8451 3.78164e-08 100.655 3.90645 100.655 8.68155V17.3648C100.655 22.1415 96.8451 26.048 92.0913 26.048V21.708Z" fill="var(--fill-0, black)"/>
<path id="Vector_6" d="M104.945 8.68322C104.945 3.90811 108.798 0.00166732 113.507 0.00166732C118.261 0.00166732 122.071 3.90811 122.071 8.68322L117.789 13.0248V8.68322C117.789 6.29567 115.905 4.34161 113.507 4.34161C111.153 4.34161 109.225 6.29567 109.225 8.68322L104.943 13.0248V8.68322H104.945ZM104.945 17.3664L109.227 13.0248V17.3664C109.227 19.754 111.154 21.708 113.509 21.708C115.908 21.708 117.791 19.754 117.791 17.3664L122.073 13.0248V17.3664C122.073 22.1432 118.263 26.0497 113.509 26.0497C108.799 26.0497 104.945 22.1432 104.945 17.3664Z" fill="var(--fill-0, black)"/>
</g>
</svg>
