<svg preserveAspectRatio="none" width="100%" height="100%" overflow="visible" style="display: block;" viewBox="0 0 97.9815 41" fill="none" xmlns="http://www.w3.org/2000/svg">
<g id="Group">
<g id="Group_2">
<path id="Vector" d="M97.1977 26.7133C94.6373 32.4745 92.8868 33.482 91.5021 33.482C89.5949 33.482 88.8111 31.8286 89.9345 28.9868C90.7183 27.1008 96.4923 13.305 97.1193 11.9616H94.4283L91.5805 18.7045C92.0769 14.2609 90.5877 11.3932 87.6093 11.3932C82.1228 11.3932 75.0425 19.6345 71.9857 27.0233C68.7199 32.4486 67.074 33.482 65.6893 33.482C63.782 33.482 62.9983 31.8286 64.1217 28.9868L71.3848 11.9616H68.6677C68.0929 13.305 62.0316 27.1267 61.1955 29.0126C59.8631 31.8544 57.6685 33.5079 55.7612 33.5079C54.5072 33.5079 53.7756 32.5003 54.7684 29.7101C57.3288 23.8456 57.8514 22.1922 58.191 20.5904C59.2883 15.1393 57.1982 11.419 53.8018 11.419C51.2675 11.419 48.1585 13.46 45.3891 16.7152L52.3126 0.620038L49.5954 0.568368L38.1782 26.8683C35.8791 32.4486 34.0241 33.4562 32.6394 33.4562C30.9151 33.4562 30.1052 32.1128 30.8106 29.7101L34.6511 20.9263H17.2771V22.528C19.5501 22.8897 21.2222 24.8532 21.1961 27.1267C21.1961 30.4852 16.7546 32.8878 12.078 32.8878C4.65808 32.8878 2.56797 27.9792 3.90041 23.2514C6.38242 14.5967 15.9969 8.16383 25.5592 8.16383C31.098 8.16383 34.0764 11.0573 33.2142 16.1985C33.1881 16.5343 33.0052 17.1027 32.77 17.9036H35.3566C35.7223 16.9219 35.9313 15.966 36.1665 15.0101C38.2043 6.20038 34.6511 0 26.5258 0C15.5789 0 3.16887 13.77 0.503984 25.9641C-1.40324 34.7738 2.28058 41 8.55091 41C16.0492 41 24.4619 34.1538 28.5376 23.3548H30.9151L30.5754 24.104L29.6349 26.2224L28.015 29.8652L26.9961 32.1903C25.0366 36.5564 26.3168 39.8633 29.4781 39.8633C32.6133 39.8633 36.5322 37.3314 40.7647 27.075L41.444 25.6799C43.6647 21.5205 47.0873 19.247 50.7189 19.247C54.9775 19.247 55.4216 21.9855 54.5856 24.3882C54.1675 25.4732 53.2531 27.3592 51.581 31.2602C49.5693 36.4789 50.118 39.8633 53.3054 39.8633C54.7423 39.8633 57.4856 39.0107 60.8559 33.1462C59.0009 39.0107 61.5874 39.8633 63.5992 39.8633C65.5064 39.8633 67.4136 38.5199 70.4704 33.7921C70.6794 37.1764 72.4299 39.8633 75.5912 39.8633C79.0398 39.8633 82.8543 36.5047 85.8588 32.1645L85.3363 33.482C83.4291 38.2615 85.3363 39.8633 88.2102 39.8633C92.1553 39.8633 94.8724 34.4121 97.9815 26.765L97.1977 26.7133ZM89.1769 22.4505C88.1841 26.7133 82.6192 32.0095 77.2633 32.0095C75.5389 32.0095 73.5794 30.6919 74.1542 28.0825C75.0686 23.9748 80.6858 19.247 85.7021 19.247C88.5498 19.247 89.6471 20.4096 89.1769 22.4505Z" fill="var(--fill-0, #6B2039)"/>
</g>
<path id="Vector_2" d="M70.7572 7.75047C73.4482 7.75047 76.4528 4.77946 76.8708 2.55766C77.0798 1.26591 76.505 0.413359 75.0942 0.413359C72.4816 0.413359 69.5032 3.41021 69.1635 5.42533C68.7977 7.33711 69.895 7.72464 70.7572 7.75047Z" fill="var(--fill-0, #6B2039)"/>
</g>
</svg>
