<?xml version="1.0" encoding="utf-8"?>
<!-- Generator: Adobe Illustrator 19.2.1, SVG Export Plug-In . SVG Version: 6.00 Build 0)  -->
<svg version="1.1" id="layer" xmlns="http://www.w3.org/2000/svg" xmlns:xlink="http://www.w3.org/1999/xlink" x="0px" y="0px"
	 viewBox="0 0 652 652" style="enable-background:new 0 0 652 652;" xml:space="preserve">
<style type="text/css">
	.st0{fill:#CFB08D;}
</style>
<path class="st0" d="M74.9,264.5c-11.1,0.8-21.1,4.4-29.9,11c-4,3-8.2,7.2-11.3,11.3c-3.4,4.6-6.3,10.1-8.1,15.7
	c-3.5,10.5-3.7,22.3-0.6,32.9c1.6,5.6,4.3,11.2,7.5,15.9c4.1,6,9.2,10.9,15.2,14.9c18.4,12.2,42.5,12.2,61,0
	c3.4-2.2,5.6-4.1,8.7-7.1c2.2-2.2,3.7-3.9,5.4-6.1c12.4-16.6,14.4-39.1,5.2-57.7c-1.2-2.4-2-3.7-3.5-6.1c-2.2-3.3-4.2-5.7-7.1-8.6
	c-4.5-4.5-9.1-7.7-14.7-10.5c-5.9-2.9-11.9-4.6-18.6-5.3C82.5,264.5,76.4,264.4,74.9,264.5z M62.5,292.4c4.2,0.8,7.5,2.6,10.9,6.2
	l1.4,1.4v-3.4v-3.4h3.6h3.6v3.4v3.4l1.7-1.7c0.9-0.9,2.1-2,2.6-2.4c2.4-1.8,5-2.9,7.9-3.5c0.8-0.2,1.6-0.2,3.4-0.2
	c2.1,0,2.5,0,3.7,0.3c7.3,1.6,13.1,6.6,15.4,13.5c2.2,6.7,0.8,14-3.7,19.3c-2.7,3.1-7,5.6-11.2,6.5c-3.5,0.7-7.3,0.5-10.6-0.6
	c-1.5-0.5-3.9-1.7-5.1-2.6c-0.6-0.4-1.7-1.4-2.6-2.3l-1.5-1.5l0.1,2.9c0.1,5.1,0.7,7.5,2.1,9.7c1.4,2.1,4.4,4.1,7.3,4.9
	c3.8,1.1,9.2,1,12.7-0.3c2.8-1,5.3-2.9,7-5.5l0.7-1.1h2.6h2.6l-0.1,0.2c-0.1,0.4-1.4,2.8-2.1,3.8c-1.8,2.7-3.7,4.3-6.7,5.8
	c-2.2,1.1-4.8,1.8-7.6,2.2c-1.7,0.2-5.9,0.2-7.5-0.1c-3.9-0.6-7-1.8-9.6-3.9c-2.1-1.7-3.8-3.9-4.9-6.4c-0.2-0.5-0.4-0.8-0.4-0.8
	c-0.1,0-0.1,0.1-0.1,0.2c0,0.1-0.2,0.6-0.5,1.2c-2.5,5.3-7.3,8.6-14.1,9.6c-1.5,0.2-5.8,0.3-7.5,0.1c-2.7-0.4-5.3-1.1-7.6-2.2
	c-3-1.5-4.9-3.1-6.7-5.8c-0.7-1-2-3.4-2.1-3.8l-0.1-0.2h2.6h2.6l0.7,1.1c1.7,2.6,4.2,4.5,7,5.5c3.6,1.2,9,1.4,12.7,0.3
	c2-0.6,4.2-1.8,5.7-3.1c1.4-1.3,2.6-3.2,3-5.1c0.4-1.7,0.6-3.3,0.7-6.4l0.1-2.9l-1.5,1.5c-1.8,1.8-3,2.7-5.1,3.7
	c-2.6,1.3-4.9,1.9-7.7,2.1c-7,0.5-14.3-2.9-18.1-8.6c-5.4-8-4.2-18.9,2.8-25.6c3.1-3,7.3-5,11.6-5.6
	C57.8,292.2,61.4,292.2,62.5,292.4z"/>
<path class="st0" d="M57.9,297c-1.3,0.1-3,0.6-4.3,1.1c-4.9,2-8.3,6.1-9.4,11.4c-0.3,1.5-0.4,4.7-0.1,6.2c0.6,3,1.8,5.4,4,7.5
	c3.1,3.1,7,4.5,12.1,4.3c2.7-0.1,4.6-0.5,6.6-1.5c1.6-0.7,2.6-1.5,3.9-2.8c2.1-2.1,3.2-4.2,3.9-7.2c0.2-1,0.2-1.4,0.2-3.7
	c0-2.3,0-2.7-0.2-3.7c-0.7-3.1-1.9-5.3-4-7.4c-2.2-2.2-4.7-3.5-7.7-4.1C61.6,296.9,59.3,296.9,57.9,297z M95,297
	c-2,0.2-4.2,0.9-5.9,1.9c-4,2.3-6.4,5.9-7.2,10.5c-0.2,1.2-0.2,1.6-0.2,3.5c0.1,2.4,0.2,3.5,0.8,5.2c0.7,2.1,1.7,3.6,3.3,5.2
	c2.2,2.2,4.6,3.4,7.9,4c1.4,0.3,5.4,0.3,6.7,0c1.6-0.3,2.8-0.7,4.1-1.3c4.1-2,6.9-5.7,7.8-10.3c0.3-1.5,0.3-4.7-0.1-6.2
	c-0.5-2.2-1.2-4-2.4-5.8C106.7,299,100.9,296.4,95,297z"/>
<path class="st0" d="M389.2,263.7c-0.9,0.2-2,0.8-2.7,1.5c-1.8,1.8-2.2,4.4-1,6.6c0.4,0.8,1.5,1.9,2.3,2.3c1.5,0.8,3.8,0.8,5.3,0
	c0.9-0.5,1.9-1.6,2.4-2.5C397.4,267.4,393.8,262.8,389.2,263.7z M209.2,283.8c-5.6,0.4-10.9,2.3-15.7,5.5c-5,3.3-8.7,7.5-11.3,12.8
	c-1.7,3.5-2.6,6.5-3.2,10.4c-0.3,1.9-0.3,6.7,0,8.6c1.3,9.3,5.9,16.9,13.4,22c4.5,3.1,9.4,5,14.9,5.7c1.9,0.3,6.4,0.2,8.3,0
	c8.2-1.1,15.2-4.8,20.2-10.6l1-1.1v2.3c0,6.3-0.7,10.1-2.6,13.9c-1.5,3-3.4,5.1-6.4,7.1c-3.3,2.2-6.8,3.5-11.4,4.1
	c-1.9,0.3-7.6,0.3-9.6,0c-6.7-0.9-11.7-3.4-15.5-7.6c-1-1.1-2.2-2.8-2.8-3.8l-0.4-0.7h-4.5H179l0.2,0.4c0.3,0.7,1.4,2.9,2,3.9
	c3.8,6.7,8,10.3,15,13c5.1,2,10.7,2.9,16.6,2.7c7.8-0.3,13.9-2,19.3-5.6c1.8-1.2,2.9-2.1,4.4-3.6c3.1-3,4.9-6.1,6.4-10.5
	c1.1-3.3,1.7-6.4,2.1-11.2c0.1-1,0.1-9.4,0.2-29.6l0-28.2H241h-4.2l0,6.2l0,6.2l-1.2-1.4c-3.5-3.9-7.5-6.9-11.5-8.6
	C219.4,284.2,214.3,283.4,209.2,283.8z M213.6,291.1c5.6,0.5,11.1,3,15,6.8c3.8,3.7,5.9,8,6.8,13.8c0.4,2.5,0.5,6.1,0.2,8.6
	c-0.7,5.2-2.6,9.3-6.2,13c-2,2.1-3.8,3.4-6.3,4.6c-4,1.9-8.6,2.8-13.9,2.5c-2.2-0.1-3.6-0.3-5.6-0.8c-4.5-1.1-8.1-3.2-11.4-6.6
	c-4.5-4.6-6.6-10.5-6.4-17.4c0.1-3.9,0.9-7,2.6-10.5c2.5-5.1,6.3-8.8,11.5-11.4c3-1.5,5.8-2.2,9.6-2.6
	C210.3,291,212.5,291,213.6,291.1z M289.4,283.8c-7.7,0.6-14.3,3.6-19.8,8.9c-3.1,3-5.3,5.9-7,9.5c-4.6,9.2-4.6,21,0,30.2
	c2.4,4.8,6.4,9.6,10.6,12.5c5.7,4.1,12.4,6,20.3,5.7c2.4-0.1,3.4-0.2,5.4-0.5c8.3-1.4,15.1-5.8,20.4-13c3.2-4.5,5.2-9.4,6-15
	c0.3-1.9,0.3-7.5,0-9.4c-1.1-7.9-4.3-14.2-10.1-19.9c-2.1-2.1-4-3.5-6.5-5C303.3,284.6,296.5,283.2,289.4,283.8z M295.9,292
	c5.2,0.8,9.7,3.1,13.5,7c4.7,4.7,7.2,10.1,7.6,16.8c0.3,4.8-0.7,9.5-2.9,13.7c-3.6,7-9.9,11.5-17.6,12.8c-1.7,0.3-5,0.4-6.7,0.2
	c-4.8-0.5-9.4-2.3-13-5.3c-3.8-3.1-6.9-7.8-8.3-12.7c-2-7-0.9-14.9,2.8-20.8c2-3.1,5.1-6.3,8-8.2c1.2-0.8,3.2-1.8,4.5-2.3
	c1.8-0.7,4.4-1.3,6.6-1.5C291.4,291.7,294.9,291.9,295.9,292z M386.2,319.7c0,23.7,0,36.6-0.1,37.6c-0.1,2-0.4,3.5-0.9,4.3
	c-0.8,1.5-2.3,2.5-4,2.7c-1.6,0.2-3.8-0.2-5.8-1.2c-0.5-0.3-1-0.5-1-0.5c0,0,0,1.7,0,3.7l0,3.7l0.7,0.3c2.1,0.8,5.1,1.5,7.2,1.6
	c3.6,0.3,6.3-0.5,8.4-2.6c2-1.9,3.1-4.6,3.6-8.7c0.1-1.2,0.2-6.4,0.2-39.3v-37.9h-4.2h-4.2V319.7z M438.6,283.8
	c-3.6,0.3-7,1.2-10.1,2.5c-7.1,3.1-13.8,9.7-17,16.9c-3.5,7.8-3.8,17.8-0.8,26c1,2.8,3.1,6.4,5.1,8.9c1.1,1.4,3.3,3.7,4.8,4.9
	c5.9,5,12.8,7.6,20.8,7.6c9.7,0,17.8-3.8,24.7-11.6l0.7-0.7v6.2v6.2h4.1h4.1v-33.5v-33.5h-4.1h-4.1v6.5l0,6.5l-0.3-0.4
	c-1.7-2.2-3-3.7-4.5-4.9c-4.7-4.3-9.9-6.7-16.2-7.5C444.3,283.7,440.1,283.6,438.6,283.8z M445.9,291.9c5.7,0.8,10.1,3.1,14.1,7.2
	c3.8,3.9,5.9,8.2,6.9,13.7c0.3,1.7,0.4,5.7,0.2,7.5c-1,10-7,17.7-16.5,21.1c-2.7,1-4.8,1.4-7.8,1.4c-4,0.1-6.9-0.4-10.3-1.9
	c-6.1-2.6-10.8-7.5-13.5-13.9c-1.5-3.5-2.1-6.7-2-10.6c0.1-5,1.6-9.5,4.5-13.8c3.4-5,8.5-8.7,14.3-10.2c1.3-0.3,3-0.6,4.2-0.7
	C441.1,291.6,444.9,291.8,445.9,291.9z M489.2,317.1v33.5h4.2h4.2l0-16.7c0-17.1,0.1-17.9,0.5-21.8c0.3-2.3,0.5-3.6,1.1-5.3
	c2.4-7.4,9-13.5,16.2-15c1.6-0.4,3.1-0.5,5.1-0.4c3.5,0.1,6.1,0.8,8.6,2.3c1.2,0.7,3.1,2.6,3.9,3.8c1.1,1.6,1.9,3.6,2.5,5.8
	c1,3.8,1.1,7,1.1,29.9v17.4h4.1h4.1l0-20.4c0-22.2,0-21.4-0.7-25.8c-0.9-6.4-2.9-10.6-6.6-14.3c-3.4-3.4-7.6-5.5-12.6-6.3
	c-1.9-0.3-5.8-0.3-7.8,0.1c-4.8,0.7-8.9,2.6-13,5.7c-1.3,1-4.4,4.1-5.6,5.6l-1,1.2v-6.4v-6.4h-4.2h-4.2V317.1z M586.6,283.8
	c-9.3,0.8-17.1,5.1-23.2,12.8c-3.7,4.7-6,10.3-6.7,16.6c-0.2,1.5-0.2,6.2,0,7.7c0.9,8,3.9,14.2,9.4,19.9c5.3,5.5,11.4,8.6,18.8,9.6
	c1.9,0.3,6.7,0.3,8.6,0c6-0.8,11.1-3,15.7-6.8c1.2-1,3.8-3.5,4.9-4.7l0.6-0.7l0,6.2v6.2h4.1h4.1v-33.5v-33.5h-4.1h-4.1v6.6l0,6.6
	l-0.3-0.4c-2.1-2.6-4.2-4.9-6.1-6.4c-4.3-3.4-9.1-5.5-14.7-6.2C592.1,283.7,588.1,283.6,586.6,283.8z M594,291.9
	c5.3,0.8,9.8,3.1,13.6,6.8c4.7,4.6,7.2,10.2,7.5,17c0.4,7.7-1.9,14.5-6.8,19.5c-3.1,3.1-7,5.5-11.4,6.7c-2.1,0.6-3.7,0.8-6.2,0.9
	c-4.4,0.1-7.5-0.6-11.3-2.4c-4.2-2-7.4-4.9-10-8.7c-3.1-4.7-4.7-9.9-4.5-15.3c0.1-4,1-7.2,2.8-10.9c2.1-4.2,4.8-7.3,8.5-9.8
	c3.4-2.3,7.1-3.6,11.4-4.1C588.9,291.6,592.7,291.7,594,291.9z M339.8,317.2v33.4h4.3h4.3v-14.8c0-17.2,0.1-21.3,0.7-26.3
	c0.7-5.1,2.4-9.6,5-12.8c1.4-1.8,3.6-3.4,5.6-4.2c2.4-1,4.6-0.9,7.2,0.1c0.4,0.2,0.8,0.3,0.8,0.3c0.2-0.3,4.2-6.8,4.2-6.9
	c0-0.2-2.1-1.2-3.2-1.5c-4.7-1.6-9.9-0.4-14.6,3.4c-1.6,1.3-3.8,3.7-5.3,5.8l-0.6,0.8v-5.3v-5.3h-4.3h-4.3V317.2z"/>
</svg>
