<?xml version="1.0" encoding="UTF-8"?>
<svg xmlns="http://www.w3.org/2000/svg" xmlns:svg="http://www.w3.org/2000/svg" viewBox="0 0 154.12 68.8" version="1.1">
	<g>
		<path fill="#3f0791" d="m36.53.62-7.47 31.32h6.17l1.52-6.71H47.4l1.52 6.71h6.17L47.62.62zm1.47 19 3.67-16h.81l3.62 16zM14.47.62h11.11V32h-5.47V3.57h-1L18 27.45a5.19 5.19 0 0 1-5.18 4.94 5.18 5.18 0 0 1-5.18-4.94L6.48 3.58h-1V32H0V.62h11.19l1.23 27.17h.81zm117.1 32A16.28 16.28 0 0 1 122.15 3a16.29 16.29 0 0 1 24.44 7l-5.33 2.26a10.76 10.76 0 0 0-8.45-6.48A10.54 10.54 0 0 0 123 10.2a10.86 10.86 0 0 0-.72 11 10.58 10.58 0 0 0 9 5.73 10.73 10.73 0 0 0 10-6.55l5.33 2.26a16.49 16.49 0 0 1-15.04 9.93zM23.9 58.69v.54a9.72 9.72 0 0 1-.78 4 8.31 8.31 0 0 1-2.26 3 10.08 10.08 0 0 1-3.58 1.92 15.46 15.46 0 0 1-4.74.67 15.64 15.64 0 0 1-5.44-.87 10.77 10.77 0 0 1-3.91-2.42 10.34 10.34 0 0 1-2.37-3.64A12.42 12.42 0 0 1 0 57.35V56h5.9v1.07a6.17 6.17 0 0 0 1.63 4.5q1.64 1.68 5.08 1.68a5.84 5.84 0 0 0 4-1.16 3.63 3.63 0 0 0 1.3-2.77 3.93 3.93 0 0 0-.27-1.45 3.07 3.07 0 0 0-.94-1.25 6.73 6.73 0 0 0-1.83-1 16.23 16.23 0 0 0-2.95-.76 30.34 30.34 0 0 1-4.34-1 12.19 12.19 0 0 1-3.42-1.72 7.49 7.49 0 0 1-2.26-2.68 9 9 0 0 1-.8-4v-.27a8.17 8.17 0 0 1 .78-3.56 8.51 8.51 0 0 1 2.19-2.84 10.07 10.07 0 0 1 3.4-1.88 13.81 13.81 0 0 1 4.45-.67 14.35 14.35 0 0 1 4.92.78 10.48 10.48 0 0 1 3.6 2.13 8.74 8.74 0 0 1 2.19 3.09 9.4 9.4 0 0 1 .74 3.67v1.61h-5.92v-1.08A4.42 4.42 0 0 0 16 43.17a5.71 5.71 0 0 0-4.09-1.39 6 6 0 0 0-3.53.92 2.88 2.88 0 0 0-1.3 2.48 3.25 3.25 0 0 0 .31 1.45 2.94 2.94 0 0 0 1.1 1.16 8.52 8.52 0 0 0 2.06.92 27.25 27.25 0 0 0 3.24.76 16.65 16.65 0 0 1 7.52 3 7.55 7.55 0 0 1 2.59 6.22zm23.79-19a8.76 8.76 0 0 0-3-2.06 10.44 10.44 0 0 0-4.21-.78H27.86v31.33h5.91V56.37h6.74a10.17 10.17 0 0 0 4.21-.81 8.69 8.69 0 0 0 4.77-5.12 10.1 10.1 0 0 0 .6-3.42V46a9.6 9.6 0 0 0-.6-3.33 8.87 8.87 0 0 0-1.8-2.97zm-3.52 7.18A3.63 3.63 0 0 1 43 49.65a4.34 4.34 0 0 1-3.11 1.07h-6.13V42.5h6.16A4.38 4.38 0 0 1 43 43.57a3.64 3.64 0 0 1 1.14 2.77zm95.78-10h5.47v25.91a5.89 5.89 0 0 1-5.89 5.89 5.9 5.9 0 0 1-5.8-4.84l-4.35-24h-.82v28.34h-5.47v-31.3h11.26L139.27 64h.67V36.86zm-27.06-4.92H91.43V26.3h7.78v-20h-7.78V.62h21.46v5.64h-7.78v20h7.78zm-25.74-.3h-5V21.9H70.84v-5.57h16.32v15.31zm-16.55.89c-4-.15-8.48-2.69-11.16-6A16.29 16.29 0 0 1 63 2.78 16.3 16.3 0 0 1 87.15 10l-5.34 2.26a10.78 10.78 0 0 0-8.56-6.52 10.54 10.54 0 0 0-9.83 4.64 10.92 10.92 0 0 0-.53 11A10.55 10.55 0 0 0 72.05 27a10.25 10.25 0 0 0 9.42-6.57l.69.07c.78 4.36-1.69 12.41-11.56 12.03zM69.08 68.8a16.28 16.28 0 1 1 16.28-16.28A16.3 16.3 0 0 1 69.08 68.8zm0-26.89a10.61 10.61 0 1 0 10.49 10.61 10.56 10.56 0 0 0-10.49-10.61zm34.75 26.89a16.28 16.28 0 1 1 16.28-16.28 16.3 16.3 0 0 1-16.28 16.28zm0-26.77a10.49 10.49 0 1 0 10.49 10.49A10.5 10.5 0 0 0 103.83 42zM150.27.32a3.81 3.81 0 0 1 3.85 3.85 3.85 3.85 0 1 1-7.7 0 3.81 3.81 0 0 1 3.85-3.85zm0 .9a2.91 2.91 0 0 0-2.93 2.94 2.93 2.93 0 1 0 5.86 0 2.91 2.91 0 0 0-2.93-2.94zm-1.56.83h1.93c.86 0 1.36.47 1.36 1.14a1.09 1.09 0 0 1-.81 1.09 1 1 0 0 1 .67 1c0 .47 0 .67.22.86v.1h-1a1.76 1.76 0 0 1-.17-1c0-.54-.24-.74-.71-.74h-.61v1.7h-.91V2.05zm1.82 1.71c.35 0 .57-.17.57-.49s-.22-.44-.57-.44h-.91v.92z"/>
	</g>
</svg>