<svg preserveAspectRatio="none" width="100%" height="100%" overflow="visible" style="display: block;" viewBox="0 0 132.309 30.9237" fill="none" xmlns="http://www.w3.org/2000/svg">
<path id="Vector" d="M16.5357 28.4232C11.6744 28.4232 8.35101 25.7512 6.78322 21.6386C5.96363 19.4964 5.5592 17.2211 5.59101 14.9312C5.59101 8.03417 8.72944 3.24403 15.6636 3.24403C20.3229 3.24403 23.1995 5.24695 24.837 10.0272H26.8316L26.5613 3.43518C23.7714 1.65856 20.2845 0.763218 16.042 0.763218C10.0668 0.763218 4.98068 3.39723 2.15239 8.14802C0.692003 10.6559 -0.0510361 13.5087 0.0027234 16.4015C0.0027234 21.6765 2.53083 26.3528 7.27689 28.9475C9.87546 30.3147 12.7889 30.9918 15.7319 30.9124C20.3613 30.9124 24.0332 30.0452 27.2869 28.5272L28.1305 21.2577H26.0961C24.8754 24.5776 23.4215 26.5707 21.0114 27.6305C19.8292 28.1547 18.3368 28.4232 16.5357 28.4232ZM37.506 3.24403L37.6995 0H36.3237L30.2034 1.81317V2.79565L32.9164 4.03536V26.7239C32.9164 28.27 32.1126 28.6129 30.0099 28.8716V30.5301H40.4225V28.8716C38.3112 28.6129 37.5174 28.27 37.5174 26.7239V3.25387L37.506 3.24403ZM78.9117 30.9124H79.7155L86.7578 29.5954V27.8975L85.769 27.8216C84.123 27.6684 83.6962 27.3353 83.6962 26.0084V13.9108L83.8911 10.0272H82.7771L76.1218 10.9718V12.6317L76.772 12.747C78.5731 13.0042 79.1052 13.5004 79.1052 14.7415V25.5221C77.3809 26.8391 75.7348 27.6684 73.7787 27.6684C71.6091 27.6684 70.2632 26.5805 70.2632 24.0421V13.922L70.4567 10.0385H69.3129L62.649 10.983V12.643L63.3376 12.7582C65.1387 13.0155 65.6708 13.5116 65.6708 14.7513V24.7027C65.6708 28.9193 68.0936 30.9237 71.9477 30.9237C74.8926 30.9237 77.3041 29.3776 79.1151 27.2313L78.9216 30.9223L78.9117 30.9124ZM59.5604 17.4894C59.5604 12.0976 56.6539 10.0272 51.4042 10.0272C46.7748 10.0272 43.4144 11.9163 43.4144 15.0451C43.4144 15.9812 43.753 16.6966 44.4401 17.1928L47.9655 16.7346C47.8105 15.686 47.7336 15.0465 47.7336 14.7794C47.7336 13.0042 48.6925 12.1075 50.6388 12.1075C53.5154 12.1075 54.9694 14.102 54.9694 17.308V18.3566L47.7052 20.5029C45.2838 21.1522 43.9066 21.7159 42.9876 23.0329C42.5005 23.8377 42.2649 24.7668 42.3104 25.7034C42.3104 28.7563 44.4401 30.9124 48.0822 30.9124C50.717 30.9124 53.0516 29.7388 55.0846 27.5166C55.8102 29.7388 56.9256 30.9124 58.9116 30.9124C60.5193 30.9124 61.9704 30.2729 63.2693 29.0234L62.8823 27.7063C62.3369 27.8579 61.773 27.935 61.2064 27.9355C60.0925 27.9355 59.5604 27.0682 59.5604 25.3689V17.4894ZM50.2617 27.8596C48.2757 27.8596 47.0465 26.7239 47.0465 24.7308C47.0465 23.3758 47.6952 22.5831 49.0809 22.1249L54.9694 20.2836V25.8566C53.09 27.258 51.9875 27.8596 50.2617 27.8596ZM111.572 29.5954V27.8975L110.575 27.8216C108.927 27.6684 108.512 27.3353 108.512 26.0084V3.24403L108.705 0H107.32L101.199 1.81317V2.79565L103.911 4.03536V11.4975C102.383 10.4654 100.559 9.94964 98.7097 10.0272C92.6263 10.0272 87.8803 14.5883 87.8803 21.4095C87.8803 27.0289 91.2904 30.9124 96.9086 30.9124C99.8137 30.9124 102.342 29.5209 103.911 27.3634L103.718 30.9124H104.53L111.572 29.5954ZM98.8249 12.2888C101.731 12.2888 103.911 13.9488 103.911 17.0016V25.5896C103.248 26.2398 102.46 26.7521 101.593 27.0961C100.727 27.4402 99.7987 27.6089 98.8648 27.5925C94.6992 27.5925 92.5879 24.3485 92.5879 20.0165C92.5879 15.1505 94.9979 12.2888 98.8249 12.2888ZM126.459 16.5828C125.917 14.064 124.348 12.6332 122.168 12.6332C118.913 12.6332 116.657 15.0465 116.657 18.5084C116.657 23.633 119.408 26.953 123.854 26.953C125.31 26.9389 126.737 26.5484 127.992 25.8202C129.248 25.0919 130.288 24.0515 131.01 22.8024L132.309 23.1467C131.729 27.5925 127.641 30.9124 122.624 30.9124C116.734 30.9124 112.676 26.6199 112.676 20.5127C112.676 14.3592 117.084 10.0272 122.972 10.0272C127.368 10.0272 130.47 12.6317 131.465 17.1534L116.125 21.7918V19.7481L126.459 16.5898V16.5814V16.5828Z" fill="var(--fill-0, black)"/>
</svg>
