<svg preserveAspectRatio="none" width="100%" height="100%" overflow="visible" style="display: block;" viewBox="0 0 97 43.374" fill="none" xmlns="http://www.w3.org/2000/svg">
<g id="Group">
<path id="Vector" d="M22.9914 0.394629L18.29 20.1316H22.1732L23.1299 15.9032H29.8327L30.7894 20.1316H34.6726L29.9712 0.394629H22.9914ZM23.9166 12.3679L26.2264 2.28514H26.7362L29.0145 12.3679H23.9166ZM9.10735 0.394629H16.0997V20.1694H12.657V2.25364H12.0277L11.329 17.3021C11.2887 18.1409 10.9276 18.9319 10.3207 19.5114C9.7138 20.0909 8.90752 20.4145 8.06887 20.4152C7.22977 20.4161 6.42262 20.093 5.81539 19.5132C5.20815 18.9333 4.84758 18.1414 4.8087 17.3021L4.07862 2.25994H3.44924V20.1694H0.000257806V0.394629H7.04299L7.81712 17.5164H8.32692L9.10735 0.394629ZM82.8074 20.5601C80.6232 20.572 78.4923 19.8847 76.7257 18.5985C74.9592 17.3123 73.6493 15.4945 72.9873 13.4103C72.3254 11.3262 72.3459 9.08476 73.0459 7.01311C73.7459 4.94145 75.0889 3.148 76.8787 1.89444C78.1322 1.00555 79.5692 0.410033 81.0834 0.151899C82.5977 -0.106236 84.1505 -0.0203938 85.6272 0.403082C87.1039 0.826558 88.4666 1.57684 89.6148 2.5985C90.763 3.62016 91.6672 4.88708 92.2607 6.30564L88.9061 7.72983C88.4496 6.64569 87.7193 5.69913 86.7868 4.98317C85.8544 4.26721 84.752 3.8065 83.5878 3.64631C82.4037 3.51254 81.2055 3.70059 80.119 4.19072C79.0326 4.68085 78.0981 5.45495 77.4137 6.43167C76.7271 7.44146 76.323 8.61683 76.2434 9.83577C76.1637 11.0547 76.4113 12.2728 76.9605 13.3636C77.5005 14.4139 78.3095 15.3018 79.3048 15.9363C80.3001 16.5707 81.4459 16.929 82.6249 16.9744C83.9646 16.9891 85.2783 16.6045 86.399 15.8695C87.5198 15.1345 88.3968 14.0823 88.9187 12.8468L92.2732 14.271C91.472 16.1212 90.1505 17.698 88.4697 18.8091C86.7889 19.9203 84.8215 20.5177 82.8074 20.5286V20.5601ZM15.0424 36.9887V37.329C15.0585 38.1945 14.8912 39.0536 14.5515 39.8497C14.2276 40.5803 13.7411 41.227 13.1291 41.7402C12.4678 42.2924 11.7012 42.7041 10.8759 42.9501C9.90941 43.2451 8.90293 43.3875 7.89265 43.3723C6.72797 43.3939 5.56872 43.2082 4.46884 42.8241C3.54847 42.499 2.70905 41.9789 2.00797 41.2991C1.35417 40.6488 0.845745 39.867 0.516347 39.0052C0.167378 38.0922 -0.00767155 37.1218 0.000257806 36.1443V35.2935H3.71358V35.9678C3.68733 36.4851 3.76455 37.0024 3.94072 37.4894C4.11689 37.9763 4.38845 38.4231 4.73947 38.8036C5.42759 39.5094 6.49333 39.8623 7.9367 39.8623C8.83708 39.9367 9.73329 39.6764 10.4542 39.1313C10.7093 38.9175 10.9147 38.6505 11.056 38.349C11.1973 38.0475 11.2712 37.7188 11.2724 37.3857C11.2739 37.0731 11.2162 36.7631 11.1025 36.472C10.9765 36.1626 10.7727 35.8913 10.5109 35.6842C10.162 35.4155 9.77339 35.2029 9.3591 35.0541C8.75657 34.8365 8.13495 34.6761 7.50243 34.5751C6.57775 34.4324 5.66479 34.2217 4.77094 33.945C4.00091 33.6994 3.27447 33.3336 2.61847 32.8611C2.01758 32.4187 1.5301 31.8399 1.19607 31.1722C0.837771 30.3816 0.665513 29.5193 0.692573 28.6515V28.4814C0.68542 27.7061 0.853233 26.9392 1.18349 26.238C1.51075 25.5501 1.98062 24.94 2.56182 24.4483C3.19155 23.918 3.91837 23.5156 4.70171 23.2636C5.60595 22.9704 6.55208 22.8278 7.50243 22.8413C8.55534 22.8232 9.6033 22.9895 10.599 23.3329C11.4366 23.6233 12.2072 24.0798 12.8647 24.6751C13.4608 25.2155 13.9313 25.8802 14.2431 26.6224C14.5516 27.3542 14.71 28.1407 14.7088 28.9351V29.9497H10.9829V29.2691C10.9826 28.8809 10.9012 28.4971 10.7441 28.1422C10.5869 27.7873 10.3574 27.4693 10.0703 27.2084C9.35991 26.5902 8.43565 26.2757 7.49614 26.3325C6.71343 26.2902 5.93696 26.4928 5.27444 26.9122C5.01655 27.0815 4.80606 27.3139 4.66289 27.5874C4.51971 27.8609 4.44859 28.1664 4.45625 28.4751C4.45009 28.7906 4.51687 29.1034 4.65136 29.3888C4.81026 29.6918 5.0499 29.9449 5.34367 30.1198C5.74826 30.3698 6.18426 30.5647 6.64019 30.6996C7.30953 30.9007 7.99053 31.0606 8.67937 31.1785C10.3883 31.4092 12.014 32.0585 13.4123 33.069C13.9686 33.5514 14.4054 34.1565 14.6882 34.8367C14.9711 35.5169 15.0923 36.2536 15.0424 36.9887ZM30.0153 25.0154C29.4836 24.4551 28.8403 24.0129 28.1271 23.7173C27.2873 23.3719 26.3851 23.2045 25.4774 23.2257H17.5347V42.969H21.2543V35.5267H25.4963C26.4057 35.547 27.309 35.373 28.146 35.0163C28.8424 34.7162 29.4689 34.2744 29.9858 33.719C30.5026 33.1635 30.8984 32.5066 31.1481 31.7898C31.3973 31.0986 31.5251 30.3694 31.5258 29.6346V28.9918C31.525 28.2755 31.3971 27.5649 31.1481 26.8933C30.8974 26.2008 30.5124 25.5648 30.0153 25.0217V25.0154ZM27.7998 29.5401C27.8097 29.8679 27.749 30.1939 27.622 30.4962C27.4949 30.7985 27.3045 31.0698 27.0635 31.2919C26.5246 31.7651 25.8216 32.0073 25.1061 31.9662H21.248V26.7862H25.125C25.8337 26.7528 26.5281 26.9943 27.0635 27.4605C27.2999 27.6838 27.4862 27.955 27.6099 28.256C27.7336 28.5569 27.7919 28.8808 27.781 29.2061L27.7998 29.5401ZM88.0816 23.2383H91.5243V39.5661C91.5243 40.5505 91.1337 41.4946 90.4385 42.1907C89.7433 42.8868 88.8004 43.2778 87.8173 43.2778C86.9486 43.2772 86.1076 42.9717 85.4406 42.4144C84.7737 41.8572 84.3229 41.0834 84.1669 40.2278L81.4291 25.1037H80.913V42.9627H77.4703V23.2383H84.5571L87.6536 40.3349H88.0753V23.232L88.0816 23.2383ZM71.0506 20.1379H57.5442V16.5774H62.4408V3.974H57.5442V0.394629H71.0506V3.9488H66.1541V16.5522H71.0506V20.1379ZM54.8505 19.9489H51.7036V13.8047H44.5853V10.2946H54.8568V19.9425L54.8505 19.9489ZM44.4343 20.5097C41.9168 20.4152 39.0972 18.8145 37.4104 16.7287C36.5157 15.622 35.8606 14.341 35.4869 12.9672C35.1132 11.5933 35.0291 10.1567 35.2398 8.74853C35.4505 7.34038 35.9515 5.99151 36.7109 4.78767C37.4704 3.58382 38.4716 2.55133 39.651 1.7558C40.9091 0.906268 42.3397 0.346747 43.8397 0.11756C45.3398 -0.111627 46.8719 -0.00477356 48.3258 0.430421C49.7796 0.865615 51.1189 1.61831 52.2472 2.63427C53.3754 3.65022 54.2646 4.90413 54.8505 6.30564L51.4896 7.72983C51.0297 6.63249 50.29 5.67538 49.3445 4.9543C48.399 4.23322 47.2809 3.77348 46.1021 3.62111C44.9029 3.49971 43.6933 3.70777 42.6032 4.22294C41.5132 4.73811 40.584 5.54092 39.9154 6.5451C39.2513 7.56733 38.8705 8.74786 38.8119 9.96586C38.7533 11.1839 39.019 12.3956 39.5818 13.477C40.1377 14.5304 40.966 15.4148 41.9802 16.0378C42.9944 16.6609 44.1572 16.9996 45.3469 17.0186C46.635 17.0001 47.8881 16.5958 48.9448 15.8579C50.0014 15.12 50.8132 14.0823 51.2756 12.8783L51.7099 12.9224C52.2008 15.67 50.6462 20.7429 44.4343 20.5034V20.5097ZM43.4776 43.3597C41.4511 43.3597 39.4701 42.758 37.7851 41.6307C36.1001 40.5034 34.7868 38.9012 34.0113 37.0266C33.2358 35.1519 33.0329 33.0892 33.4283 31.0991C33.8236 29.109 34.7995 27.281 36.2324 25.8462C37.6654 24.4114 39.4911 23.4343 41.4787 23.0385C43.4663 22.6426 45.5265 22.8458 47.3987 23.6223C49.271 24.3988 50.8712 25.7137 51.9971 27.4008C53.123 29.0879 53.7239 31.0715 53.7239 33.1005C53.7206 35.8204 52.64 38.4279 50.7192 40.3512C48.7983 42.2744 46.1941 43.3564 43.4776 43.3597ZM43.4776 26.4144C42.1538 26.3994 40.8554 26.7788 39.7474 27.5043C38.6393 28.2298 37.7717 29.2687 37.2547 30.489C36.7376 31.7094 36.5946 33.056 36.8436 34.358C37.0927 35.6599 37.7227 36.8583 38.6535 37.8009C39.5843 38.7436 40.774 39.3879 42.0713 39.6521C43.3687 39.9163 44.7152 39.7884 45.9398 39.2846C47.1644 38.7808 48.2118 37.924 48.9489 36.8229C49.6861 35.7218 50.0797 34.4261 50.0798 33.1005C50.0882 31.3378 49.3977 29.6437 48.1599 28.3902C46.9221 27.1367 45.2381 26.4261 43.4776 26.4144ZM65.3485 43.3597C63.322 43.3597 61.341 42.758 59.656 41.6307C57.971 40.5034 56.6577 38.9012 55.8822 37.0266C55.1067 35.1519 54.9038 33.0892 55.2991 31.0991C55.6945 29.109 56.6703 27.281 58.1033 25.8462C59.5363 24.4114 61.362 23.4343 63.3495 23.0385C65.3371 22.6426 67.3973 22.8458 69.2696 23.6223C71.1418 24.3988 72.7421 25.7137 73.8679 27.4008C74.9938 29.0879 75.5948 31.0715 75.5948 33.1005C75.5914 35.8204 74.5108 38.4279 72.59 40.3512C70.6692 42.2744 68.0649 43.3564 65.3485 43.3597ZM65.3485 26.49C64.0427 26.49 62.7662 26.8777 61.6805 27.6041C60.5948 28.3305 59.7486 29.3629 59.2489 30.5708C58.7492 31.7787 58.6184 33.1079 58.8732 34.3902C59.1279 35.6725 59.7567 36.8504 60.6801 37.7749C61.6034 38.6994 62.7798 39.3289 64.0605 39.584C65.3412 39.8391 66.6686 39.7082 67.875 39.2078C69.0814 38.7075 70.1125 37.8602 70.838 36.7731C71.5634 35.686 71.9507 34.408 71.9507 33.1005C71.9523 32.2311 71.7828 31.3698 71.4518 30.566C71.1209 29.7621 70.6349 29.0315 70.0218 28.4158C69.4086 27.8001 68.6803 27.3115 67.8784 26.9778C67.0765 26.6441 66.2169 26.472 65.3485 26.4711V26.49ZM94.5768 0.205578C94.8959 0.202205 95.2125 0.262656 95.508 0.383388C95.8035 0.504119 96.072 0.682702 96.2977 0.908667C96.5233 1.13463 96.7017 1.40343 96.8223 1.69931C96.9429 1.99519 97.0032 2.31219 96.9999 2.63174C96.9999 2.95035 96.9372 3.26583 96.8154 3.56019C96.6937 3.85455 96.5152 4.122 96.2902 4.34729C96.0652 4.57258 95.798 4.75129 95.5041 4.87322C95.2101 4.99514 94.895 5.0579 94.5768 5.0579C94.2586 5.0579 93.9435 4.99514 93.6495 4.87322C93.3555 4.75129 93.0884 4.57258 92.8634 4.34729C92.6384 4.122 92.4599 3.85455 92.3381 3.56019C92.2163 3.26583 92.1537 2.95035 92.1537 2.63174C92.1503 2.31219 92.2107 1.99519 92.3313 1.69931C92.4518 1.40343 92.6302 1.13463 92.8559 0.908667C93.0815 0.682702 93.35 0.504119 93.6455 0.383388C93.941 0.262656 94.2576 0.202205 94.5768 0.205578ZM94.5768 0.772732C94.3336 0.771046 94.0925 0.817862 93.8676 0.910451C93.6427 1.00304 93.4385 1.13955 93.2668 1.31201C93.0952 1.48447 92.9595 1.68943 92.8678 1.91493C92.7761 2.14044 92.7302 2.38197 92.7327 2.62544C92.7327 3.11513 92.927 3.58477 93.2728 3.93104C93.6186 4.27731 94.0877 4.47184 94.5768 4.47184C95.0659 4.47184 95.5349 4.27731 95.8807 3.93104C96.2266 3.58477 96.4208 3.11513 96.4208 2.62544C96.4234 2.38197 96.3774 2.14044 96.2857 1.91493C96.194 1.68943 96.0584 1.48447 95.8867 1.31201C95.7151 1.13955 95.5108 1.00304 95.2859 0.910451C95.061 0.817862 94.8199 0.771046 94.5768 0.772732ZM93.5949 1.29577H94.8096C95.3509 1.29577 95.6656 1.59196 95.6656 2.01417C95.6708 2.16953 95.6232 2.32205 95.5306 2.44682C95.438 2.57158 95.3059 2.66121 95.1558 2.70106C95.2849 2.74601 95.3959 2.83181 95.4719 2.9455C95.548 3.05919 95.5851 3.19459 95.5775 3.33123C95.5775 3.62741 95.5775 3.75344 95.7159 3.87318V3.93619H95.0866C94.9899 3.7412 94.9527 3.52204 94.9796 3.30602C94.9796 2.96573 94.8285 2.83969 94.5327 2.83969H94.1488V3.91099H93.5761V1.29577H93.5949ZM94.7404 2.37337C94.9607 2.37337 95.0992 2.26624 95.0992 2.06458C95.0992 1.86293 94.9607 1.78731 94.7404 1.78731H94.1677V2.36707L94.7404 2.37337Z" fill="#142B6F"/>
</g>
</svg>
