<svg preserveAspectRatio="none" width="100%" height="100%" overflow="visible" style="display: block;" viewBox="0 0 40 39.999" fill="none" xmlns="http://www.w3.org/2000/svg">
<path id="Subtract" d="M32.7275 0C36.744 0.000144051 39.9999 3.25601 40 7.27246V32.7266C39.9999 36.743 36.744 39.9989 32.7275 39.999H7.27246C3.25602 39.9989 8.67142e-05 36.743 0 32.7266V7.27246C9.1388e-05 3.25601 3.25602 0.000144051 7.27246 0H32.7275ZM9.26758 28.0898C8.27491 28.0899 7.46995 28.8941 7.46973 29.8867C7.46985 30.8794 8.27484 31.6845 9.26758 31.6846H10.4912C11.484 31.6846 12.2889 30.8795 12.2891 29.8867C12.2888 28.8941 11.4839 28.0898 10.4912 28.0898H9.26758ZM16.0146 28.0898C15.022 28.0899 14.217 28.8941 14.2168 29.8867C14.2169 30.8794 15.0219 31.6845 16.0146 31.6846H17.2383C18.2311 31.6846 19.036 30.8795 19.0361 29.8867C19.0359 28.8941 18.231 28.0898 17.2383 28.0898H16.0146ZM22.7617 28.0898C21.7691 28.0899 20.9641 28.8941 20.9639 29.8867C20.964 30.8794 21.769 31.6845 22.7617 31.6846H23.9854C24.9781 31.6846 25.7831 30.8795 25.7832 29.8867C25.783 28.8941 24.9781 28.0898 23.9854 28.0898H22.7617ZM29.5078 28.0898C28.5152 28.09 27.7102 28.8942 27.71 29.8867C27.7101 30.8794 28.5152 31.6844 29.5078 31.6846H30.7314C31.7242 31.6846 32.5292 30.8795 32.5293 29.8867C32.5291 28.8941 31.7242 28.0898 30.7314 28.0898H29.5078ZM9.26758 20.8984C8.27477 20.8985 7.46974 21.7035 7.46973 22.6963C7.46985 23.689 8.27484 24.4941 9.26758 24.4941H17.2383C18.231 24.4941 19.036 23.689 19.0361 22.6963C19.0361 21.7035 18.2311 20.8985 17.2383 20.8984H9.26758ZM22.7617 20.8984C21.7689 20.8985 20.9639 21.7035 20.9639 22.6963C20.964 23.689 21.769 24.4941 22.7617 24.4941H30.7324C31.7252 24.4941 32.5302 23.689 32.5303 22.6963C32.5303 21.7034 31.7253 20.8984 30.7324 20.8984H22.7617ZM9.26758 14.6064C8.27479 14.6065 7.46976 15.4115 7.46973 16.4043C7.46985 17.397 8.27484 18.2021 9.26758 18.2021H17.2383C18.231 18.2021 19.036 17.397 19.0361 16.4043C19.0361 15.4115 18.2311 14.6065 17.2383 14.6064H9.26758ZM22.7617 14.6064C21.7689 14.6065 20.9639 15.4115 20.9639 16.4043C20.964 17.397 21.769 18.2021 22.7617 18.2021H30.7324C31.7252 18.2021 32.5302 17.397 32.5303 16.4043C32.5302 15.4115 31.7253 14.6064 30.7324 14.6064H22.7617ZM9.26758 8.31445C8.27477 8.3145 7.46973 9.11948 7.46973 10.1123C7.46992 11.105 8.27489 11.9101 9.26758 11.9102H17.2383C18.231 11.9102 19.0359 11.105 19.0361 10.1123C19.0361 9.11946 18.2311 8.31446 17.2383 8.31445H9.26758ZM22.7617 8.31445C21.7689 8.3145 20.9639 9.11953 20.9639 10.1123C20.964 11.105 21.769 11.9101 22.7617 11.9102H30.7324C31.7252 11.9101 32.5302 11.105 32.5303 10.1123C32.5302 9.11953 31.7252 8.3145 30.7324 8.31445H22.7617Z" fill="var(--fill-0, #F1ECE7)"/>
</svg>
