<svg width="160" height="62" viewBox="0 0 160 62" fill="none" xmlns="http://www.w3.org/2000/svg">
<g id="TUMBLERWARE / fathers-day / 160&#195;&#151;600 - F1">
<g id="Frame 12">
<g id="Frame 3">
<g id="Frame 4">
<g id="prices">
<g id="$189">
<path d="M57.6073 25.96C56.4806 25.9253 55.4753 25.8213 54.5913 25.648C53.7073 25.4573 52.9013 25.1973 52.1733 24.868V21.514C52.884 21.8607 53.742 22.1813 54.7473 22.476C55.7526 22.7533 56.706 22.918 57.6073 22.97V19.044C56.602 18.6453 55.744 18.264 55.0333 17.9C54.34 17.536 53.7766 17.1547 53.3433 16.756C52.9273 16.34 52.624 15.8893 52.4333 15.404C52.2426 14.9013 52.1473 14.3293 52.1473 13.688C52.1473 12.8213 52.3726 12.076 52.8233 11.452C53.2913 10.8107 53.9326 10.2993 54.7473 9.918C55.5793 9.53667 56.5326 9.30267 57.6073 9.216V7.266H59.3493V9.164C60.32 9.19867 61.23 9.31133 62.0793 9.502C62.946 9.69267 63.7866 9.97 64.6013 10.334L63.4053 13.298C62.712 13.0033 62.01 12.778 61.2993 12.622C60.606 12.466 59.956 12.362 59.3493 12.31V16.054C60.2853 16.4007 61.178 16.782 62.0273 17.198C62.8766 17.5967 63.5613 18.108 64.0813 18.732C64.6186 19.356 64.8873 20.1793 64.8873 21.202C64.8873 22.4673 64.428 23.5247 63.5093 24.374C62.5906 25.2233 61.204 25.7347 59.3493 25.908V28.508H57.6073V25.96ZM59.3493 22.892C59.9386 22.788 60.372 22.6147 60.6493 22.372C60.9266 22.112 61.0653 21.7827 61.0653 21.384C61.0653 21.1413 60.996 20.9333 60.8573 20.76C60.736 20.5693 60.5453 20.396 60.2853 20.24C60.0426 20.0667 59.7306 19.8933 59.3493 19.72V22.892ZM57.6073 12.362C57.2606 12.414 56.966 12.5007 56.7233 12.622C56.4806 12.726 56.29 12.8733 56.1513 13.064C56.03 13.2373 55.9693 13.4453 55.9693 13.688C55.9693 13.9307 56.0213 14.1473 56.1253 14.338C56.2466 14.5113 56.4286 14.6847 56.6713 14.858C56.914 15.014 57.226 15.1787 57.6073 15.352V12.362ZM70.6142 27V12.7L66.9482 13.896V10.776L71.3942 8.8H74.3582V27H70.6142ZM89.724 17.692C91.024 18.264 91.57 19.226 91.57 21.93C91.57 25.83 90.4 27 87.93 27H81.69C79.22 27 78.05 25.83 78.05 21.93C78.05 19.226 78.596 18.264 79.896 17.692C78.7 17.042 78.258 16.158 78.258 13.662C78.258 9.97 79.428 8.8 81.898 8.8H87.722C90.192 8.8 91.362 9.97 91.362 13.662C91.362 16.158 90.92 17.042 89.724 17.692ZM87.098 12.18H82.522C82.132 12.18 82.002 12.31 82.002 14.104C82.002 15.898 82.132 16.028 82.522 16.028H87.098C87.488 16.028 87.618 15.898 87.618 14.104C87.618 12.31 87.488 12.18 87.098 12.18ZM82.314 23.62H87.306C87.696 23.62 87.826 23.49 87.826 21.488C87.826 19.486 87.696 19.356 87.306 19.356H82.314C81.924 19.356 81.794 19.486 81.794 21.488C81.794 23.49 81.924 23.62 82.314 23.62ZM98.385 21.644V23.048C98.385 23.386 98.567 23.568 98.905 23.568H103.091C103.429 23.568 103.611 23.386 103.611 23.048V18.03C102.675 19.33 101.609 20.214 98.775 20.214C95.603 20.214 94.433 19.044 94.433 16.574V12.44C94.433 9.97 95.603 8.8 98.073 8.8H103.715C106.185 8.8 107.355 9.97 107.355 12.44V23.36C107.355 25.83 106.185 27 103.715 27H98.281C95.811 27 94.641 25.83 94.641 23.36V21.644H98.385ZM103.611 16.028V12.752C103.611 12.362 103.481 12.232 103.091 12.232H98.697C98.307 12.232 98.177 12.362 98.177 12.752V16.366C98.177 16.756 98.307 16.886 99.399 16.886C101.479 16.886 102.519 16.6 103.611 16.028Z" fill="#333333"/>
<path d="M51.0293 18.472H65.9082V19.772H51.0293V18.472ZM65.9082 18.576H108.967V19.876H65.9082V18.576Z" fill="#333333"/>
</g>
<path id="$161" d="M60.2479 56.96C59.1213 56.9253 58.1159 56.8213 57.2319 56.648C56.3479 56.4573 55.5419 56.1973 54.8139 55.868V52.514C55.5246 52.8607 56.3826 53.1813 57.3879 53.476C58.3933 53.7533 59.3466 53.918 60.2479 53.97V50.044C59.2426 49.6453 58.3846 49.264 57.6739 48.9C56.9806 48.536 56.4173 48.1547 55.9839 47.756C55.5679 47.34 55.2646 46.8893 55.0739 46.404C54.8833 45.9013 54.7879 45.3293 54.7879 44.688C54.7879 43.8213 55.0133 43.076 55.4639 42.452C55.9319 41.8107 56.5733 41.2993 57.3879 40.918C58.2199 40.5367 59.1733 40.3027 60.2479 40.216V38.266H61.9899V40.164C62.9606 40.1987 63.8706 40.3113 64.7199 40.502C65.5866 40.6927 66.4273 40.97 67.2419 41.334L66.0459 44.298C65.3526 44.0033 64.6506 43.778 63.9399 43.622C63.2466 43.466 62.5966 43.362 61.9899 43.31V47.054C62.9259 47.4007 63.8186 47.782 64.6679 48.198C65.5173 48.5967 66.2019 49.108 66.7219 49.732C67.2593 50.356 67.5279 51.1793 67.5279 52.202C67.5279 53.4673 67.0686 54.5247 66.1499 55.374C65.2313 56.2233 63.8446 56.7347 61.9899 56.908V59.508H60.2479V56.96ZM61.9899 53.892C62.5793 53.788 63.0126 53.6147 63.2899 53.372C63.5673 53.112 63.7059 52.7827 63.7059 52.384C63.7059 52.1413 63.6366 51.9333 63.4979 51.76C63.3766 51.5693 63.1859 51.396 62.9259 51.24C62.6833 51.0667 62.3713 50.8933 61.9899 50.72V53.892ZM60.2479 43.362C59.9013 43.414 59.6066 43.5007 59.3639 43.622C59.1213 43.726 58.9306 43.8733 58.7919 44.064C58.6706 44.2373 58.6099 44.4453 58.6099 44.688C58.6099 44.9307 58.6619 45.1473 58.7659 45.338C58.8873 45.5113 59.0693 45.6847 59.3119 45.858C59.5546 46.014 59.8666 46.1787 60.2479 46.352V43.362ZM73.2548 58V43.7L69.5888 44.896V41.776L74.0348 39.8H76.9988V58H73.2548ZM89.9726 45.156V43.752C89.9726 43.414 89.7906 43.232 89.4526 43.232H85.2666C84.9286 43.232 84.7466 43.414 84.7466 43.752V48.692C85.6826 47.392 86.7486 46.508 89.6086 46.508C92.7546 46.508 93.9246 47.678 93.9246 50.148V54.36C93.9246 56.83 92.7546 58 90.2846 58H84.6426C82.1726 58 81.0026 56.83 81.0026 54.36V43.44C81.0026 40.97 82.1726 39.8 84.6426 39.8H90.0766C92.5466 39.8 93.7166 40.97 93.7166 43.44V45.156H89.9726ZM84.7466 50.694V54.048C84.7466 54.438 84.8766 54.568 85.2666 54.568H89.6606C90.0506 54.568 90.1806 54.438 90.1806 54.048V50.356C90.1806 49.966 90.0506 49.836 88.9586 49.836C86.8786 49.836 85.8386 50.122 84.7466 50.694ZM100.194 58V43.7L96.5283 44.896V41.776L100.974 39.8H103.938V58H100.194Z" fill="#F15A29"/>
</g>
</g>
</g>
</g>
</g>
</svg>
