<svg width="103" height="50" viewBox="0 0 103 50" fill="none" xmlns="http://www.w3.org/2000/svg">
<g id="TUMBLERWARE / fathers-day / 160&#195;&#151;600 - F2">
<path id="details" d="M4.50415 9.71729V0.426376H7.55869C9.42324 0.426376 10.3078 1.22183 10.3078 3.10547V3.55729C10.3078 5.38365 9.42324 6.23001 7.55869 6.23001H5.74506V9.71729H4.50415ZM5.74506 5.18001H7.38051C8.63415 5.18001 9.04778 4.7091 9.04778 3.48092V3.17547C9.04778 1.92819 8.63415 1.47001 7.38051 1.47001H5.74506V5.18001ZM14.1274 9.83819C12.5492 9.83819 11.4229 9.02365 11.4229 6.99365V5.21819C11.4229 3.18819 12.5492 2.37365 14.1274 2.37365C15.7056 2.37365 16.832 3.18819 16.832 5.21819V6.33819L12.5683 6.33183V7.10819C12.5683 8.40638 13.0901 8.88365 14.1274 8.88365C15.152 8.88365 15.6929 8.38092 15.6929 7.35001V7.31819H16.832V7.35001C16.832 9.1191 15.7056 9.83819 14.1274 9.83819ZM12.5683 5.4091H15.6929V5.10365C15.6929 3.84365 15.171 3.32819 14.1274 3.32819C13.0901 3.32819 12.5683 3.84365 12.5683 5.10365V5.4091ZM18.3948 9.71729V2.49456H19.502V3.44274C19.973 2.59638 20.813 2.29728 21.9075 2.39274V3.57638C20.9593 3.40456 20.1575 3.64638 19.5466 4.24456V9.71729H18.3948ZM23.6343 1.56547C23.6343 0.496376 24.1689 0.00637615 25.3334 0.00637615H26.5362V0.890922H25.4416C24.9325 0.890922 24.7798 1.07547 24.7798 1.57183V2.49456H26.5362V3.43638H24.7798V9.71729H23.6343V3.43638H22.4889V2.49456H23.6343V1.56547ZM29.9184 9.83819C28.3402 9.83819 27.2139 9.02365 27.2139 6.99365V5.21819C27.2139 3.18819 28.3402 2.37365 29.9184 2.37365C31.4966 2.37365 32.623 3.18819 32.623 5.21819V6.33819L28.3593 6.33183V7.10819C28.3593 8.40638 28.8812 8.88365 29.9184 8.88365C30.943 8.88365 31.4839 8.38092 31.4839 7.35001V7.31819H32.623V7.35001C32.623 9.1191 31.4966 9.83819 29.9184 9.83819ZM28.3593 5.4091H31.4839V5.10365C31.4839 3.84365 30.9621 3.32819 29.9184 3.32819C28.8812 3.32819 28.3593 3.84365 28.3593 5.10365V5.4091ZM36.7588 9.83819C35.1743 9.83819 34.0225 8.94092 34.0225 6.89819V5.31365C34.0225 3.27092 35.1743 2.37365 36.7588 2.37365C38.3052 2.37365 39.4888 3.11183 39.4888 5.07819V5.15456H38.3243V5.07819C38.3243 3.8691 37.8088 3.36638 36.7525 3.36638C35.6961 3.36638 35.1807 3.95183 35.1807 5.19274V7.0191C35.1807 8.26001 35.6961 8.84547 36.7525 8.84547C37.8088 8.84547 38.3243 8.34274 38.3243 7.13365V7.05729H39.4888V7.13365C39.4888 9.10001 38.3052 9.83819 36.7588 9.83819ZM43.1682 9.71729C42.0227 9.71729 41.52 9.24001 41.52 8.18365V3.43638H40.3491V2.49456H41.52V0.725467L42.6654 0.375467V2.49456H44.46V3.43638H42.6654V8.13274C42.6654 8.56547 42.8182 8.75638 43.2954 8.75638H44.46V9.71729H43.1682ZM48.8863 1.56547C48.8863 0.496376 49.4208 0.00637615 50.5854 0.00637615H51.7881V0.890922H50.6936C50.1845 0.890922 50.0317 1.07547 50.0317 1.57183V2.49456H51.7881V3.43638H50.0317V9.71729H48.8863V3.43638H47.7408V2.49456H48.8863V1.56547ZM55.3295 9.83819C53.6686 9.83819 52.4658 8.94729 52.4658 6.90456V5.31365C52.4658 3.27092 53.6686 2.37365 55.3295 2.37365C56.984 2.37365 58.1867 3.27092 58.1867 5.31365V6.90456C58.1867 8.94729 56.984 9.83819 55.3295 9.83819ZM53.624 7.0191C53.624 8.26001 54.184 8.84547 55.3295 8.84547C56.4686 8.84547 57.0286 8.26001 57.0286 7.0191V5.19274C57.0286 3.95183 56.4686 3.36638 55.3295 3.36638C54.184 3.36638 53.624 3.95183 53.624 5.19274V7.0191ZM59.7522 9.71729V2.49456H60.8595V3.44274C61.3304 2.59638 62.1704 2.29728 63.2649 2.39274V3.57638C62.3167 3.40456 61.5149 3.64638 60.904 4.24456V9.71729H59.7522ZM71.2301 4.96365C71.2301 4.20638 71.0137 3.37274 69.8237 3.37274C69.1619 3.37274 68.6274 3.61456 68.1565 4.13638V9.71729H66.9983V1.2517e-05H68.1565V3.3791C68.6019 2.69819 69.3147 2.37365 70.161 2.37365C71.5737 2.37365 72.3819 3.19456 72.3819 4.88092V9.71729H71.2301V4.96365ZM76.7396 9.83819C75.0787 9.83819 73.876 8.94729 73.876 6.90456V5.31365C73.876 3.27092 75.0787 2.37365 76.7396 2.37365C78.3942 2.37365 79.5969 3.27092 79.5969 5.31365V6.90456C79.5969 8.94729 78.3942 9.83819 76.7396 9.83819ZM75.0342 7.0191C75.0342 8.26001 75.5942 8.84547 76.7396 8.84547C77.8787 8.84547 78.4387 8.26001 78.4387 7.0191V5.19274C78.4387 3.95183 77.8787 3.36638 76.7396 3.36638C75.5942 3.36638 75.0342 3.95183 75.0342 5.19274V7.0191ZM81.1624 9.71729V2.49456H82.276V3.43638C82.7087 2.71729 83.4342 2.37365 84.2996 2.37365C85.2669 2.37365 85.9414 2.76183 86.2724 3.55729C86.7496 2.76183 87.5324 2.37365 88.4805 2.37365C89.8869 2.37365 90.676 3.19456 90.676 4.88092V9.71729H89.5305V4.97001C89.5305 4.20638 89.3142 3.3791 88.1369 3.3791C87.4687 3.3791 86.9278 3.63365 86.4505 4.18729C86.4824 4.40365 86.5014 4.63274 86.5014 4.88092V9.71729H85.3433V4.97001C85.3433 4.20638 85.1333 3.3791 83.956 3.3791C83.3069 3.3791 82.7787 3.62092 82.3142 4.13638V9.71729H81.1624ZM94.8735 9.83819C93.2953 9.83819 92.169 9.02365 92.169 6.99365V5.21819C92.169 3.18819 93.2953 2.37365 94.8735 2.37365C96.4517 2.37365 97.578 3.18819 97.578 5.21819V6.33819L93.3144 6.33183V7.10819C93.3144 8.40638 93.8362 8.88365 94.8735 8.88365C95.898 8.88365 96.439 8.38092 96.439 7.35001V7.31819H97.578V7.35001C97.578 9.1191 96.4517 9.83819 94.8735 9.83819ZM93.3144 5.4091H96.439V5.10365C96.439 3.84365 95.9171 3.32819 94.8735 3.32819C93.8362 3.32819 93.3144 3.84365 93.3144 5.10365V5.4091ZM2.73637 29.8382C1.15183 29.8382 1.11163e-05 28.9409 1.11163e-05 26.8982V25.3136C1.11163e-05 23.2709 1.15183 22.3736 2.73637 22.3736C4.28274 22.3736 5.46637 23.1118 5.46637 25.0782V25.1546H4.30183V25.0782C4.30183 23.8691 3.78637 23.3664 2.73001 23.3664C1.67365 23.3664 1.15819 23.9518 1.15819 25.1927V27.0191C1.15819 28.26 1.67365 28.8455 2.73001 28.8455C3.78637 28.8455 4.30183 28.3427 4.30183 27.1336V27.0573H5.46637V27.1336C5.46637 29.1 4.28274 29.8382 2.73637 29.8382ZM11.2584 24.9636C11.2584 24.2064 11.0421 23.3727 9.85206 23.3727C9.19025 23.3727 8.6557 23.6146 8.18479 24.1364V29.7173H7.02661V20H8.18479V23.3791C8.63025 22.6982 9.34297 22.3736 10.1893 22.3736C11.6021 22.3736 12.4102 23.1946 12.4102 24.8809V29.7173H11.2584V24.9636ZM16.6089 29.8382C15.0307 29.8382 13.9043 29.0236 13.9043 26.9936V25.2182C13.9043 23.1882 15.0307 22.3736 16.6089 22.3736C18.187 22.3736 19.3134 23.1882 19.3134 25.2182V26.3382L15.0498 26.3318V27.1082C15.0498 28.4064 15.5716 28.8836 16.6089 28.8836C17.6334 28.8836 18.1743 28.3809 18.1743 27.35V27.3182H19.3134V27.35C19.3134 29.1191 18.187 29.8382 16.6089 29.8382ZM15.0498 25.4091H18.1743V25.1036C18.1743 23.8436 17.6525 23.3282 16.6089 23.3282C15.5716 23.3282 15.0498 23.8436 15.0498 25.1036V25.4091ZM21.3853 21.5655C21.3853 20.4964 21.9199 20.0064 23.0844 20.0064H24.2871V20.8909H23.1926C22.6835 20.8909 22.5308 21.0755 22.5308 21.5718V22.4946H24.2871V23.4364H22.5308V29.7173H21.3853V23.4364H20.2399V22.4946H21.3853V21.5655ZM27.733 29.8382C25.843 29.8382 25.0921 28.9982 25.0921 27.49V27.4009H26.2821V27.4964C26.2821 28.4955 26.6767 28.9027 27.733 28.9027C28.6621 28.9027 29.1712 28.6291 29.1712 27.9227V27.8273C29.1712 27.2864 28.9103 26.9936 28.0639 26.7391L26.963 26.4082C25.633 26.0073 25.1303 25.4091 25.1303 24.3846V24.2955C25.1303 23.1246 26.123 22.3736 27.7394 22.3736C29.5849 22.3736 30.3421 23.1882 30.3421 24.7155V24.8491H29.1776V24.7155C29.1776 23.6782 28.7449 23.3091 27.7394 23.3091C26.7912 23.3091 26.3076 23.6782 26.3076 24.3018V24.3909C26.3076 24.9446 26.6003 25.2436 27.4276 25.4982L28.5412 25.8418C29.8585 26.2427 30.4121 26.8027 30.3485 27.8336L30.3421 27.9355C30.2658 29.1955 29.3621 29.8382 27.733 29.8382ZM38.7045 29.7173C38.6409 29.3609 38.5836 28.9791 38.5454 28.6036C38.1318 29.38 37.3109 29.8318 36.2863 29.8318C34.9372 29.8318 34.2118 29.0173 34.2118 27.8718V27.7636C34.2118 26.8409 34.689 26.1027 36.4072 25.7273L38.4563 25.2818V24.6327C38.4563 23.7736 38.0872 23.3155 37.0118 23.3155C35.9681 23.3155 35.5545 23.7673 35.5545 24.6391V24.9255H34.3772V24.6582C34.3772 23.0291 35.4399 22.38 37.0181 22.38C38.7045 22.38 39.6081 23.0482 39.6081 24.6646V26.6436C39.6081 27.6746 39.6654 28.75 39.8754 29.7173H38.7045ZM35.4145 27.8464C35.4145 28.4573 35.8409 28.8518 36.649 28.8518C37.3681 28.8518 38.0745 28.5146 38.4945 27.9291C38.469 27.5091 38.4563 27.0891 38.4563 26.6946V26.1918L36.789 26.5673C35.7518 26.8027 35.4145 27.1718 35.4145 27.7382V27.8464ZM45.7189 24.97C45.7189 24.2064 45.5025 23.3791 44.3125 23.3791C43.6507 23.3791 43.1161 23.6209 42.6516 24.1491V29.7173H41.4934V22.4946H42.6134V23.43C43.0589 22.7173 43.7843 22.3736 44.6498 22.3736C46.0689 22.3736 46.877 23.1882 46.877 24.8809V29.7173H45.7189V24.97ZM50.7829 29.8382C49.3638 29.8382 48.4347 29.0109 48.4347 27.3118V24.9C48.4347 23.2009 49.3638 22.3736 50.7829 22.3736C51.6866 22.3736 52.3993 22.7046 52.8447 23.3982V20.0064H53.9966V29.7173H52.8766V28.7627C52.4375 29.4882 51.7057 29.8382 50.7829 29.8382ZM49.5866 27.2546C49.5866 28.3618 50.0766 28.8455 51.0375 28.8455C51.7566 28.8455 52.3547 28.5973 52.8447 28.0627V24.1491C52.3547 23.6146 51.7566 23.3664 51.0375 23.3664C50.0766 23.3664 49.5866 23.85 49.5866 24.9573V27.2546ZM60.9281 29.8382C59.2672 29.8382 58.0645 28.9473 58.0645 26.9046V25.3136C58.0645 23.2709 59.2672 22.3736 60.9281 22.3736C62.5826 22.3736 63.7854 23.2709 63.7854 25.3136V26.9046C63.7854 28.9473 62.5826 29.8382 60.9281 29.8382ZM59.2226 27.0191C59.2226 28.26 59.7826 28.8455 60.9281 28.8455C62.0672 28.8455 62.6272 28.26 62.6272 27.0191V25.1927C62.6272 23.9518 62.0672 23.3664 60.9281 23.3664C59.7826 23.3664 59.2226 23.9518 59.2226 25.1927V27.0191ZM67.489 29.8382C66.1017 29.8382 65.2872 29.0555 65.2872 27.35V22.4946H66.4454V27.2482C66.4454 27.9546 66.6045 28.8391 67.8454 28.8391C68.4881 28.8391 69.0417 28.5973 69.5063 28.0882V22.4946H70.6645V29.7173H69.5381V28.7755C69.0799 29.4946 68.3417 29.8382 67.489 29.8382ZM74.634 29.7173C73.4885 29.7173 72.9858 29.24 72.9858 28.1836V23.4364H71.8149V22.4946H72.9858V20.7255L74.1313 20.3755V22.4946H75.9258V23.4364H74.1313V28.1327C74.1313 28.5655 74.284 28.7564 74.7613 28.7564H75.9258V29.7173H74.634ZM79.4528 29.8382C78.0338 29.8382 77.1047 29.0109 77.1047 27.3118V24.9C77.1047 23.2009 78.0338 22.3736 79.4528 22.3736C80.3565 22.3736 81.0692 22.7046 81.5147 23.3982V20.0064H82.6665V29.7173H81.5465V28.7627C81.1074 29.4882 80.3756 29.8382 79.4528 29.8382ZM78.2565 27.2546C78.2565 28.3618 78.7465 28.8455 79.7074 28.8455C80.4265 28.8455 81.0247 28.5973 81.5147 28.0627V24.1491C81.0247 23.6146 80.4265 23.3664 79.7074 23.3664C78.7465 23.3664 78.2565 23.85 78.2565 24.9573V27.2546ZM87.0824 29.8382C85.4215 29.8382 84.2188 28.9473 84.2188 26.9046V25.3136C84.2188 23.2709 85.4215 22.3736 87.0824 22.3736C88.7369 22.3736 89.9397 23.2709 89.9397 25.3136V26.9046C89.9397 28.9473 88.7369 29.8382 87.0824 29.8382ZM85.3769 27.0191C85.3769 28.26 85.9369 28.8455 87.0824 28.8455C88.2215 28.8455 88.7815 28.26 88.7815 27.0191V25.1927C88.7815 23.9518 88.2215 23.3664 87.0824 23.3664C85.9369 23.3664 85.3769 23.9518 85.3769 25.1927V27.0191ZM94.2054 29.8382C92.5445 29.8382 91.3418 28.9473 91.3418 26.9046V25.3136C91.3418 23.2709 92.5445 22.3736 94.2054 22.3736C95.86 22.3736 97.0627 23.2709 97.0627 25.3136V26.9046C97.0627 28.9473 95.86 29.8382 94.2054 29.8382ZM92.5 27.0191C92.5 28.26 93.06 28.8455 94.2054 28.8455C95.3445 28.8455 95.9045 28.26 95.9045 27.0191V25.1927C95.9045 23.9518 95.3445 23.3664 94.2054 23.3664C93.06 23.3664 92.5 23.9518 92.5 25.1927V27.0191ZM98.6282 29.7173V22.4946H99.7354V23.4427C100.206 22.5964 101.046 22.2973 102.141 22.3927V23.5764C101.193 23.4046 100.391 23.6464 99.78 24.2446V29.7173H98.6282ZM18.5503 49.8382C16.9721 49.8382 15.8457 49.0236 15.8457 46.9936V45.2182C15.8457 43.1882 16.9721 42.3736 18.5503 42.3736C20.1284 42.3736 21.2548 43.1882 21.2548 45.2182V46.3382L16.9912 46.3318V47.1082C16.9912 48.4064 17.513 48.8836 18.5503 48.8836C19.5748 48.8836 20.1157 48.3809 20.1157 47.35V47.3182H21.2548V47.35C21.2548 49.1191 20.1284 49.8382 18.5503 49.8382ZM16.9912 45.4091H20.1157V45.1036C20.1157 43.8436 19.5939 43.3282 18.5503 43.3282C17.513 43.3282 16.9912 43.8436 16.9912 45.1036V45.4091ZM27.0431 44.97C27.0431 44.2064 26.8267 43.3791 25.6367 43.3791C24.9749 43.3791 24.4404 43.6209 23.9758 44.1491V49.7173H22.8176V42.4946H23.9376V43.43C24.3831 42.7173 25.1085 42.3736 25.974 42.3736C27.3931 42.3736 28.2013 43.1882 28.2013 44.8809V49.7173H27.0431V44.97ZM32.1008 49.7173C30.9553 49.7173 30.4526 49.24 30.4526 48.1836V43.4364H29.2817V42.4946H30.4526V40.7255L31.5981 40.3755V42.4946H33.3926V43.4364H31.5981V48.1327C31.5981 48.5655 31.7508 48.7564 32.2281 48.7564H33.3926V49.7173H32.1008ZM39.026 44.9636C39.026 44.2064 38.8096 43.3727 37.6196 43.3727C36.9578 43.3727 36.4233 43.6146 35.9524 44.1364V49.7173H34.7942V40H35.9524V43.3791C36.3978 42.6982 37.1106 42.3736 37.9569 42.3736C39.3696 42.3736 40.1778 43.1946 40.1778 44.8809V49.7173H39.026V44.9636ZM44.0964 49.8382C42.7092 49.8382 41.8946 49.0555 41.8946 47.35V42.4946H43.0528V47.2482C43.0528 47.9546 43.2119 48.8391 44.4528 48.8391C45.0955 48.8391 45.6492 48.5973 46.1137 48.0882V42.4946H47.2719V49.7173H46.1455V48.7755C45.6873 49.4946 44.9492 49.8382 44.0964 49.8382ZM51.6041 49.8382C49.7141 49.8382 48.9632 48.9982 48.9632 47.49V47.4009H50.1532V47.4964C50.1532 48.4955 50.5478 48.9027 51.6041 48.9027C52.5332 48.9027 53.0423 48.6291 53.0423 47.9227V47.8273C53.0423 47.2864 52.7814 46.9936 51.935 46.7391L50.8341 46.4082C49.5041 46.0073 49.0014 45.4091 49.0014 44.3846V44.2955C49.0014 43.1246 49.9941 42.3736 51.6105 42.3736C53.4559 42.3736 54.2132 43.1882 54.2132 44.7155V44.8491H53.0487V44.7155C53.0487 43.6782 52.6159 43.3091 51.6105 43.3091C50.6623 43.3091 50.1787 43.6782 50.1787 44.3018V44.3909C50.1787 44.9446 50.4714 45.2436 51.2987 45.4982L52.4123 45.8418C53.7296 46.2427 54.2832 46.8027 54.2196 47.8336L54.2132 47.9355C54.1369 49.1955 53.2332 49.8382 51.6041 49.8382ZM55.9172 49.7173V42.4946H57.0691V49.7173H55.9172ZM55.9236 41.5082V40.0064H57.0754V41.5082H55.9236ZM63.0541 49.7173C62.9905 49.3609 62.9332 48.9791 62.895 48.6036C62.4814 49.38 61.6605 49.8318 60.6359 49.8318C59.2868 49.8318 58.5614 49.0173 58.5614 47.8718V47.7636C58.5614 46.8409 59.0386 46.1027 60.7568 45.7273L62.8059 45.2818V44.6327C62.8059 43.7736 62.4368 43.3155 61.3614 43.3155C60.3177 43.3155 59.9041 43.7673 59.9041 44.6391V44.9255H58.7268V44.6582C58.7268 43.0291 59.7896 42.38 61.3677 42.38C63.0541 42.38 63.9577 43.0482 63.9577 44.6646V46.6436C63.9577 47.6746 64.015 48.75 64.225 49.7173H63.0541ZM59.7641 47.8464C59.7641 48.4573 60.1905 48.8518 60.9986 48.8518C61.7177 48.8518 62.4241 48.5146 62.8441 47.9291C62.8186 47.5091 62.8059 47.0891 62.8059 46.6946V46.1918L61.1386 46.5673C60.1014 46.8027 59.7641 47.1718 59.7641 47.7382V47.8464ZM68.3248 49.8382C66.4348 49.8382 65.6839 48.9982 65.6839 47.49V47.4009H66.8739V47.4964C66.8739 48.4955 67.2685 48.9027 68.3248 48.9027C69.2539 48.9027 69.763 48.6291 69.763 47.9227V47.8273C69.763 47.2864 69.5021 46.9936 68.6557 46.7391L67.5548 46.4082C66.2248 46.0073 65.7221 45.4091 65.7221 44.3846V44.2955C65.7221 43.1246 66.7148 42.3736 68.3312 42.3736C70.1767 42.3736 70.9339 43.1882 70.9339 44.7155V44.8491H69.7694V44.7155C69.7694 43.6782 69.3367 43.3091 68.3312 43.3091C67.383 43.3091 66.8994 43.6782 66.8994 44.3018V44.3909C66.8994 44.9446 67.1921 45.2436 68.0194 45.4982L69.133 45.8418C70.4503 46.2427 71.0039 46.8027 70.9403 47.8336L70.9339 47.9355C70.8576 49.1955 69.9539 49.8382 68.3248 49.8382ZM74.757 49.7173C73.6116 49.7173 73.1088 49.24 73.1088 48.1836V43.4364H71.9379V42.4946H73.1088V40.7255L74.2543 40.3755V42.4946H76.0488V43.4364H74.2543V48.1327C74.2543 48.5655 74.407 48.7564 74.8843 48.7564H76.0488V49.7173H74.757ZM79.9323 49.8382C78.0423 49.8382 77.2913 48.9982 77.2913 47.49V47.4009H78.4813V47.4964C78.4813 48.4955 78.8759 48.9027 79.9323 48.9027C80.8613 48.9027 81.3704 48.6291 81.3704 47.9227V47.8273C81.3704 47.2864 81.1095 46.9936 80.2632 46.7391L79.1623 46.4082C77.8323 46.0073 77.3295 45.4091 77.3295 44.3846V44.2955C77.3295 43.1246 78.3223 42.3736 79.9386 42.3736C81.7841 42.3736 82.5413 43.1882 82.5413 44.7155V44.8491H81.3768V44.7155C81.3768 43.6782 80.9441 43.3091 79.9386 43.3091C78.9904 43.3091 78.5068 43.6782 78.5068 44.3018V44.3909C78.5068 44.9446 78.7995 45.2436 79.6268 45.4982L80.7404 45.8418C82.0577 46.2427 82.6113 46.8027 82.5477 47.8336L82.5413 47.9355C82.465 49.1955 81.5613 49.8382 79.9323 49.8382ZM84.3154 49.7173V47.9418H85.6008V49.7173H84.3154Z" fill="black"/>
</g>
</svg>
