<svg width="90" height="62" viewBox="0 0 90 62" fill="none" xmlns="http://www.w3.org/2000/svg">
<g id="TUMBLERWARE / fathers-day / 160&#195;&#151;600 - F3">
<g id="Frame 12">
<g id="Frame 3">
<g id="Frame 4">
<path id="item name" d="M37.1499 2.6H33.3499V14H30.4699V2.6H26.6699V-9.53674e-07H37.1499V2.6ZM39.2343 14V-9.53674e-07H42.1143V5.52H47.0743V-9.53674e-07H49.9543V14H47.0743V8.16H42.1143V14H39.2343ZM53.121 -9.53674e-07H62.541V2.64H56.001V5.54H61.301V8.14H56.001V11.36H62.541V14H53.121V-9.53674e-07ZM9.31477 38H4.17477C2.27477 38 1.37477 37.1 1.37477 35.2V26.8C1.37477 24.9 2.27477 24 4.17477 24H9.31477C11.2148 24 12.1148 24.9 12.1148 26.8V35.2C12.1148 37.1 11.2148 38 9.31477 38ZM4.25477 27.04V34.96C4.25477 35.26 4.35477 35.36 4.65477 35.36H8.83477C9.13477 35.36 9.23477 35.26 9.23477 34.96V27.04C9.23477 26.74 9.13477 26.64 8.83477 26.64H4.65477C4.35477 26.64 4.25477 26.74 4.25477 27.04ZM25.5574 38H22.4574L20.1374 33.06H17.8174V38H14.9374V24H22.3174C24.2174 24 25.1174 24.9 25.1174 26.8V30.18C25.1174 31.76 24.4974 32.66 23.1774 32.9L25.5574 38ZM17.8174 30.5H21.8374C22.1374 30.5 22.2374 30.4 22.2374 30.1V27C22.2374 26.7 22.1374 26.6 21.8374 26.6H17.8174V30.5ZM27.9452 38V24H30.8252V38H27.9452ZM41.1804 28.64V27.04C41.1804 26.74 41.0804 26.64 40.7804 26.64H36.9204C36.6204 26.64 36.5204 26.74 36.5204 27.04V34.96C36.5204 35.26 36.6204 35.36 36.9204 35.36H40.7804C41.0804 35.36 41.1804 35.26 41.1804 34.96V32.8H38.5404V30.28H44.0604V35.2C44.0604 37.1 43.1604 38 41.2604 38H36.4404C34.5404 38 33.6404 37.1 33.6404 35.2V26.8C33.6404 24.9 34.5404 24 36.4404 24H41.2604C43.1604 24 44.0604 24.9 44.0604 26.8V28.64H41.1804ZM46.8124 38V24H49.6924V38H46.8124ZM61.1476 24H63.9476V38H61.1476L55.6476 28.66V38H52.8476V24H55.8476L61.1476 33.02V24ZM74.5454 34.96H69.7454L68.8854 38H65.8454L70.1054 24H74.3054L78.5654 38H75.4054L74.5454 34.96ZM73.8054 32.32L72.1454 26.44L70.4854 32.32H73.8054ZM80.4648 24H83.3448V35.36H89.3848V38H80.4648V24ZM10.48 50.6H6.68V62H3.8V50.6H7.45058e-09V48H10.48V50.6ZM22.9044 48V59.2C22.9044 61.1 22.0044 62 20.1044 62H15.2244C13.3244 62 12.4244 61.1 12.4244 59.2V48H15.3044V58.96C15.3044 59.26 15.4044 59.36 15.7044 59.36H19.6244C19.9244 59.36 20.0244 59.26 20.0244 58.96V48H22.9044ZM39.6838 48V62H36.8438V53.08L33.8238 60.14H31.7038L28.6838 53.08V62H25.9238V48H29.0838L32.8038 56.24L36.5238 48H39.6838ZM42.8378 48H50.1578C52.0578 48 52.9578 48.9 52.9578 51.74C52.9578 53.62 52.6178 54.34 51.6978 54.84C52.6978 55.28 53.1178 56.06 53.1178 58.1C53.1178 61.1 52.2178 62 50.3178 62H42.8378V48ZM45.7178 53.6H49.6778C49.9778 53.6 50.0778 53.5 50.0778 52.1C50.0778 50.7 49.9778 50.6 49.6778 50.6H45.7178V53.6ZM45.7178 59.4H49.8378C50.1378 59.4 50.2378 59.3 50.2378 57.74C50.2378 56.18 50.1378 56.08 49.8378 56.08H45.7178V59.4ZM55.6894 48H58.5694V59.36H64.6094V62H55.6894V48ZM66.7831 48H76.2031V50.64H69.6631V53.54H74.9631V56.14H69.6631V59.36H76.2031V62H66.7831V48ZM89.3563 62H86.2563L83.9363 57.06H81.6163V62H78.7363V48H86.1163C88.0163 48 88.9162 48.9 88.9162 50.8V54.18C88.9162 55.76 88.2963 56.66 86.9763 56.9L89.3563 62ZM81.6163 54.5H85.6363C85.9363 54.5 86.0363 54.4 86.0363 54.1V51C86.0363 50.7 85.9363 50.6 85.6363 50.6H81.6163V54.5Z" fill="#333333"/>
</g>
</g>
</g>
</g>
</svg>
