<svg width="160" height="31" viewBox="0 0 160 31" fill="none" xmlns="http://www.w3.org/2000/svg">
<g id="TUMBLERWARE / fathers-day / 160&#195;&#151;600 - F3">
<g id="Frame 12">
<g id="Frame 3">
<g id="Frame 4">
<g id="price">
<path id="$129" d="M57.8231 25.96C56.6965 25.9253 55.6911 25.8213 54.8071 25.648C53.9231 25.4573 53.1171 25.1973 52.3891 24.868V21.514C53.0998 21.8607 53.9578 22.1813 54.9631 22.476C55.9685 22.7533 56.9218 22.918 57.8231 22.97V19.044C56.8178 18.6453 55.9598 18.264 55.2491 17.9C54.5558 17.536 53.9925 17.1547 53.5591 16.756C53.1431 16.34 52.8398 15.8893 52.6491 15.404C52.4585 14.9013 52.3631 14.3293 52.3631 13.688C52.3631 12.8213 52.5885 12.076 53.0391 11.452C53.5071 10.8107 54.1485 10.2993 54.9631 9.918C55.7951 9.53667 56.7485 9.30267 57.8231 9.216V7.266H59.5651V9.164C60.5358 9.19867 61.4458 9.31133 62.2951 9.502C63.1618 9.69267 64.0025 9.97 64.8171 10.334L63.6211 13.298C62.9278 13.0033 62.2258 12.778 61.5151 12.622C60.8218 12.466 60.1718 12.362 59.5651 12.31V16.054C60.5011 16.4007 61.3938 16.782 62.2431 17.198C63.0925 17.5967 63.7771 18.108 64.2971 18.732C64.8345 19.356 65.1031 20.1793 65.1031 21.202C65.1031 22.4673 64.6438 23.5247 63.7251 24.374C62.8065 25.2233 61.4198 25.7347 59.5651 25.908V28.508H57.8231V25.96ZM59.5651 22.892C60.1545 22.788 60.5878 22.6147 60.8651 22.372C61.1425 22.112 61.2811 21.7827 61.2811 21.384C61.2811 21.1413 61.2118 20.9333 61.0731 20.76C60.9518 20.5693 60.7611 20.396 60.5011 20.24C60.2585 20.0667 59.9465 19.8933 59.5651 19.72V22.892ZM57.8231 12.362C57.4765 12.414 57.1818 12.5007 56.9391 12.622C56.6965 12.726 56.5058 12.8733 56.3671 13.064C56.2458 13.2373 56.1851 13.4453 56.1851 13.688C56.1851 13.9307 56.2371 14.1473 56.3411 14.338C56.4625 14.5113 56.6445 14.6847 56.8871 14.858C57.1298 15.014 57.4418 15.1787 57.8231 15.352V12.362ZM70.83 27V12.7L67.164 13.896V10.776L71.61 8.8H74.574V27H70.83ZM82.3218 14.468H78.6818V12.44C78.6818 9.97 79.8518 8.8 82.3218 8.8H87.5738C90.0438 8.8 91.2138 9.97 91.2138 12.44V15.352C91.2138 17.432 89.6798 18.29 87.4698 19.096L83.2578 20.656C82.5818 20.916 82.2178 21.02 82.2178 21.696V23.568H91.2658V27H78.4738V20.864C78.4738 18.784 80.0078 17.926 82.2178 17.12L86.4298 15.56C87.1058 15.3 87.4698 15.196 87.4698 14.52V12.752C87.4698 12.362 87.3398 12.232 86.9498 12.232H82.8418C82.4518 12.232 82.3218 12.362 82.3218 12.752V14.468ZM98.1692 21.644V23.048C98.1692 23.386 98.3512 23.568 98.6892 23.568H102.875C103.213 23.568 103.395 23.386 103.395 23.048V18.03C102.459 19.33 101.393 20.214 98.5592 20.214C95.3872 20.214 94.2172 19.044 94.2172 16.574V12.44C94.2172 9.97 95.3872 8.8 97.8572 8.8H103.499C105.969 8.8 107.139 9.97 107.139 12.44V23.36C107.139 25.83 105.969 27 103.499 27H98.0652C95.5952 27 94.4252 25.83 94.4252 23.36V21.644H98.1692ZM103.395 16.028V12.752C103.395 12.362 103.265 12.232 102.875 12.232H98.4812C98.0912 12.232 97.9612 12.362 97.9612 12.752V16.366C97.9612 16.756 98.0912 16.886 99.1832 16.886C101.263 16.886 102.303 16.6 103.395 16.028Z" fill="#F15A29"/>
</g>
</g>
</g>
</g>
</g>
</svg>
