<svg width="81" height="12" viewBox="0 0 81 12" fill="none" xmlns="http://www.w3.org/2000/svg">
<g id="TUMBLERWARE / fathers-day / 160&#195;&#151;600 - F4">
<g id="CTA">
<rect width="159" height="51" transform="translate(-39.3264 -21.8)" fill="#F15A29"/>
<path id="SHOP NOW" d="M5.72802 3.51995V2.39995C5.72802 2.15995 5.64802 2.07995 5.40802 2.07995H2.65602C2.41602 2.07995 2.33602 2.15995 2.33602 2.39995V3.61595C2.33602 3.96795 2.46402 4.06395 2.88002 4.15995L5.85602 4.79995C7.26402 5.10395 8.16002 5.66395 8.16002 7.10395V8.95995C8.16002 10.48 7.44002 11.2 5.92002 11.2H2.24002C0.720022 11.2 2.15173e-05 10.48 2.15173e-05 8.95995V7.55195H2.24002V8.79995C2.24002 9.03995 2.32002 9.11995 2.56002 9.11995H5.53602C5.77602 9.11995 5.85602 9.03995 5.85602 8.79995V7.45595C5.85602 7.10395 5.72802 7.00795 5.31202 6.91195L2.33602 6.27195C0.928022 5.96795 0.0320215 5.40795 0.0320215 3.96795V2.23995C0.0320215 0.719951 0.752022 -4.95911e-05 2.27202 -4.95911e-05H5.72802C7.24802 -4.95911e-05 7.96802 0.719951 7.96802 2.23995V3.51995H5.72802ZM10.3516 11.2V-4.95911e-05H12.6556V4.41595H16.6236V-4.95911e-05H18.9276V11.2H16.6236V6.52795H12.6556V11.2H10.3516ZM27.541 11.2H23.429C21.909 11.2 21.189 10.48 21.189 8.95995V2.23995C21.189 0.719951 21.909 -4.95911e-05 23.429 -4.95911e-05H27.541C29.061 -4.95911e-05 29.781 0.719951 29.781 2.23995V8.95995C29.781 10.48 29.061 11.2 27.541 11.2ZM23.493 2.43195V8.76795C23.493 9.00795 23.573 9.08795 23.813 9.08795H27.157C27.397 9.08795 27.477 9.00795 27.477 8.76795V2.43195C27.477 2.19195 27.397 2.11195 27.157 2.11195H23.813C23.573 2.11195 23.493 2.19195 23.493 2.43195ZM32.0391 -4.95911e-05H37.9591C39.4791 -4.95911e-05 40.1991 0.719951 40.1991 2.23995V5.21595C40.1991 6.73595 39.4791 7.45595 37.9591 7.45595H34.3431V11.2H32.0391V-4.95911e-05ZM34.3431 5.34395H37.5751C37.8151 5.34395 37.8951 5.26395 37.8951 5.02395V2.43195C37.8951 2.19195 37.8151 2.11195 37.5751 2.11195H34.3431V5.34395ZM52.5385 -4.95911e-05H54.7785V11.2H52.5385L48.1385 3.72795V11.2H45.8985V-4.95911e-05H48.2985L52.5385 7.21595V-4.95911e-05ZM63.3848 11.2H59.2728C57.7528 11.2 57.0328 10.48 57.0328 8.95995V2.23995C57.0328 0.719951 57.7528 -4.95911e-05 59.2728 -4.95911e-05H63.3848C64.9048 -4.95911e-05 65.6248 0.719951 65.6248 2.23995V8.95995C65.6248 10.48 64.9048 11.2 63.3848 11.2ZM59.3368 2.43195V8.76795C59.3368 9.00795 59.4168 9.08795 59.6568 9.08795H63.0008C63.2408 9.08795 63.3208 9.00795 63.3208 8.76795V2.43195C63.3208 2.19195 63.2408 2.11195 63.0008 2.11195H59.6568C59.4168 2.11195 59.3368 2.19195 59.3368 2.43195ZM78.1754 11.2H75.7434L73.9034 3.90395L72.0634 11.2H69.5194L66.7194 -4.95911e-05H69.1194L70.8634 8.22395L72.9274 -4.95911e-05H74.8794L76.9434 8.22395L78.6874 -4.95911e-05H80.9914L78.1754 11.2Z" fill="white"/>
</g>
</g>
</svg>
