<svg width="126" height="53" viewBox="0 0 126 53" fill="none" xmlns="http://www.w3.org/2000/svg">
<g id="TUMBLERWARE / fathers-day / 160&#195;&#151;600 - F1">
<path id="details" d="M-3.57628e-07 9.71094V0.420028H2.87636C5.17364 0.420028 6.28091 1.40639 6.28091 3.60185V6.52912C6.28091 8.72457 5.17364 9.71094 2.87636 9.71094H-3.57628e-07ZM1.24091 8.66094H2.87636C4.36545 8.66094 5.02727 8.06912 5.02727 6.52276V3.60821C5.02727 2.06185 4.36545 1.47003 2.87636 1.47003H1.24091V8.66094ZM10.4162 9.83185C8.83805 9.83185 7.71168 9.0173 7.71168 6.9873V5.21185C7.71168 3.18185 8.83805 2.3673 10.4162 2.3673C11.9944 2.3673 13.1208 3.18185 13.1208 5.21185V6.33185L8.85714 6.32548V7.10185C8.85714 8.40003 9.37896 8.8773 10.4162 8.8773C11.4408 8.8773 11.9817 8.37457 11.9817 7.34366V7.31185H13.1208V7.34366C13.1208 9.11276 11.9944 9.83185 10.4162 9.83185ZM8.85714 5.40276H11.9817V5.0973C11.9817 3.8373 11.4599 3.32185 10.4162 3.32185C9.37896 3.32185 8.85714 3.8373 8.85714 5.0973V5.40276ZM17.2885 9.83185C15.3985 9.83185 14.6475 8.99185 14.6475 7.48366V7.39457H15.8375V7.49003C15.8375 8.48912 16.2321 8.89639 17.2885 8.89639C18.2175 8.89639 18.7266 8.62276 18.7266 7.91639V7.82094C18.7266 7.28003 18.4657 6.9873 17.6194 6.73276L16.5185 6.40185C15.1885 6.00094 14.6857 5.40276 14.6857 4.37821V4.28912C14.6857 3.11821 15.6785 2.3673 17.2948 2.3673C19.1403 2.3673 19.8975 3.18185 19.8975 4.70912V4.84276H18.733V4.70912C18.733 3.67185 18.3003 3.30276 17.2948 3.30276C16.3466 3.30276 15.863 3.67185 15.863 4.29548V4.38457C15.863 4.93821 16.1557 5.2373 16.983 5.49185L18.0966 5.83548C19.4139 6.23639 19.9675 6.79639 19.9039 7.8273L19.8975 7.92912C19.8212 9.18912 18.9175 9.83185 17.2885 9.83185ZM21.6016 9.71094V2.48821H22.7534V9.71094H21.6016ZM21.6079 1.50185V2.8491e-05H22.7597V1.50185H21.6079ZM27.1348 12.2309C25.4739 12.2309 24.3921 11.5246 24.3921 10.1118V10.0164H25.5439V10.1118C25.5439 10.8564 25.9957 11.3591 27.1348 11.3591C28.2739 11.3591 28.713 10.8818 28.713 9.93366V8.43821C28.2675 9.13185 27.5548 9.46276 26.6702 9.46276C25.2321 9.46276 24.373 8.63548 24.373 6.94912V4.91912C24.373 3.23276 25.2321 2.3673 26.6702 2.3673C27.5866 2.3673 28.3121 2.72366 28.7575 3.46185V2.48821H29.8712V9.9273C29.8712 11.55 28.8021 12.2309 27.1348 12.2309ZM25.5248 6.87912C25.5248 7.64912 25.7666 8.46366 27.0139 8.46366C27.6948 8.46366 28.2421 8.22185 28.713 7.69366V4.13639C28.2421 3.60821 27.6948 3.36639 27.0139 3.36639C25.7666 3.36639 25.5248 4.21912 25.5248 4.98276V6.87912ZM35.9442 4.96366C35.9442 4.20003 35.7278 3.37276 34.5378 3.37276C33.876 3.37276 33.3415 3.61457 32.8769 4.14276V9.71094H31.7187V2.48821H32.8387V3.42366C33.2842 2.71094 34.0097 2.3673 34.8751 2.3673C36.2942 2.3673 37.1024 3.18185 37.1024 4.87457V9.71094H35.9442V4.96366ZM41.301 9.83185C39.7228 9.83185 38.5964 9.0173 38.5964 6.9873V5.21185C38.5964 3.18185 39.7228 2.3673 41.301 2.3673C42.8792 2.3673 44.0055 3.18185 44.0055 5.21185V6.33185L39.7419 6.32548V7.10185C39.7419 8.40003 40.2637 8.8773 41.301 8.8773C42.3255 8.8773 42.8664 8.37457 42.8664 7.34366V7.31185H44.0055V7.34366C44.0055 9.11276 42.8792 9.83185 41.301 9.83185ZM39.7419 5.40276H42.8664V5.0973C42.8664 3.8373 42.3446 3.32185 41.301 3.32185C40.2637 3.32185 39.7419 3.8373 39.7419 5.0973V5.40276ZM47.8169 9.83185C46.3978 9.83185 45.4687 9.00457 45.4687 7.30548V4.89366C45.4687 3.19457 46.3978 2.3673 47.8169 2.3673C48.7205 2.3673 49.4332 2.69821 49.8787 3.39185V2.8491e-05H51.0305V9.71094H49.9105V8.75639C49.4714 9.48185 48.7396 9.83185 47.8169 9.83185ZM46.6205 7.24821C46.6205 8.35548 47.1105 8.83912 48.0714 8.83912C48.7905 8.83912 49.3887 8.59094 49.8787 8.05639V4.14276C49.3887 3.60821 48.7905 3.36003 48.0714 3.36003C47.1105 3.36003 46.6205 3.84366 46.6205 4.95094V7.24821ZM57.5039 9.71094C56.3584 9.71094 55.8557 9.23366 55.8557 8.1773V3.43003H54.6848V2.48821H55.8557V0.71912L57.0011 0.369119V2.48821H58.7957V3.43003H57.0011V8.12639C57.0011 8.55912 57.1539 8.75003 57.6311 8.75003H58.7957V9.71094H57.5039ZM62.7745 9.83185C61.1136 9.83185 59.9109 8.94094 59.9109 6.89821V5.3073C59.9109 3.26457 61.1136 2.3673 62.7745 2.3673C64.4291 2.3673 65.6318 3.26457 65.6318 5.3073V6.89821C65.6318 8.94094 64.4291 9.83185 62.7745 9.83185ZM61.0691 7.01276C61.0691 8.25366 61.6291 8.83912 62.7745 8.83912C63.9136 8.83912 64.4736 8.25366 64.4736 7.01276V5.18639C64.4736 3.94548 63.9136 3.36003 62.7745 3.36003C61.6291 3.36003 61.0691 3.94548 61.0691 5.18639V7.01276ZM72.9265 9.83185C72.0038 9.83185 71.272 9.48185 70.8329 8.75639V9.71094H69.7129V2.8491e-05H70.8647V3.39185C71.3102 2.69821 72.0229 2.3673 72.9265 2.3673C74.3456 2.3673 75.2747 3.19457 75.2747 4.89366V7.30548C75.2747 9.00457 74.3456 9.83185 72.9265 9.83185ZM70.8647 8.05639C71.3547 8.59094 71.9529 8.83912 72.672 8.83912C73.6329 8.83912 74.1229 8.35548 74.1229 7.24821V4.95094C74.1229 3.84366 73.6329 3.36003 72.672 3.36003C71.9529 3.36003 71.3547 3.60821 70.8647 4.14276V8.05639ZM79.4319 9.83185C77.8537 9.83185 76.7273 9.0173 76.7273 6.9873V5.21185C76.7273 3.18185 77.8537 2.3673 79.4319 2.3673C81.01 2.3673 82.1364 3.18185 82.1364 5.21185V6.33185L77.8728 6.32548V7.10185C77.8728 8.40003 78.3946 8.8773 79.4319 8.8773C80.4564 8.8773 80.9973 8.37457 80.9973 7.34366V7.31185H82.1364V7.34366C82.1364 9.11276 81.01 9.83185 79.4319 9.83185ZM77.8728 5.40276H80.9973V5.0973C80.9973 3.8373 80.4755 3.32185 79.4319 3.32185C78.3946 3.32185 77.8728 3.8373 77.8728 5.0973V5.40276ZM88.6967 9.83185C86.8067 9.83185 86.0558 8.99185 86.0558 7.48366V7.39457H87.2458V7.49003C87.2458 8.48912 87.6403 8.89639 88.6967 8.89639C89.6258 8.89639 90.1348 8.62276 90.1348 7.91639V7.82094C90.1348 7.28003 89.8739 6.9873 89.0276 6.73276L87.9267 6.40185C86.5967 6.00094 86.0939 5.40276 86.0939 4.37821V4.28912C86.0939 3.11821 87.0867 2.3673 88.703 2.3673C90.5485 2.3673 91.3058 3.18185 91.3058 4.70912V4.84276H90.1412V4.70912C90.1412 3.67185 89.7085 3.30276 88.703 3.30276C87.7548 3.30276 87.2712 3.67185 87.2712 4.29548V4.38457C87.2712 4.93821 87.5639 5.2373 88.3912 5.49185L89.5048 5.83548C90.8221 6.23639 91.3758 6.79639 91.3121 7.8273L91.3058 7.92912C91.2294 9.18912 90.3258 9.83185 88.6967 9.83185ZM93.0098 9.71094V2.48821H94.1616V9.71094H93.0098ZM93.0161 1.50185V2.8491e-05H94.1679V1.50185H93.0161ZM96.0996 9.71094V2.48821H97.2132V3.43003C97.646 2.71094 98.3714 2.3673 99.2369 2.3673C100.204 2.3673 100.879 2.75548 101.21 3.55094C101.687 2.75548 102.47 2.3673 103.418 2.3673C104.824 2.3673 105.613 3.18821 105.613 4.87457V9.71094H104.468V4.96366C104.468 4.20003 104.251 3.37276 103.074 3.37276C102.406 3.37276 101.865 3.6273 101.388 4.18094C101.42 4.3973 101.439 4.62639 101.439 4.87457V9.71094H100.281V4.96366C100.281 4.20003 100.071 3.37276 98.8932 3.37276C98.2442 3.37276 97.716 3.61457 97.2514 4.13003V9.71094H96.0996ZM110.606 9.83185C109.709 9.83185 108.996 9.50094 108.551 8.82003V12.11H107.393V2.48821H108.513V3.44276C108.952 2.7173 109.683 2.3673 110.606 2.3673C112.025 2.3673 112.954 3.19457 112.954 4.89366V7.30548C112.954 9.00457 112.025 9.83185 110.606 9.83185ZM108.551 8.06276C109.041 8.59094 109.639 8.83912 110.352 8.83912C111.313 8.83912 111.803 8.35548 111.803 7.24821V4.95094C111.803 3.84366 111.313 3.36003 110.352 3.36003C109.639 3.36003 109.041 3.60821 108.551 4.13639V8.06276ZM114.57 9.71094V2.8491e-05H115.716V9.71094H114.57ZM119.983 9.83185C118.404 9.83185 117.278 9.0173 117.278 6.9873V5.21185C117.278 3.18185 118.404 2.3673 119.983 2.3673C121.561 2.3673 122.687 3.18185 122.687 5.21185V6.33185L118.424 6.32548V7.10185C118.424 8.40003 118.945 8.8773 119.983 8.8773C121.007 8.8773 121.548 8.37457 121.548 7.34366V7.31185H122.687V7.34366C122.687 9.11276 121.561 9.83185 119.983 9.83185ZM118.424 5.40276H121.548V5.0973C121.548 3.8373 121.026 3.32185 119.983 3.32185C118.945 3.32185 118.424 3.8373 118.424 5.0973V5.40276ZM124.18 10.6782C124.613 10.6846 124.855 10.5128 124.855 9.88276V9.71094H124.32V7.93548H125.605V9.88276C125.605 10.9073 125.045 11.3146 124.18 11.3146V10.6782ZM6.91151 29.8318C5.02151 29.8318 4.2706 28.9918 4.2706 27.4837V27.3946H5.4606V27.49C5.4606 28.4891 5.85514 28.8964 6.91151 28.8964C7.8406 28.8964 8.34969 28.6228 8.34969 27.9164V27.8209C8.34969 27.28 8.08878 26.9873 7.24241 26.7328L6.14151 26.4018C4.81151 26.0009 4.30878 25.4028 4.30878 24.3782V24.2891C4.30878 23.1182 5.30151 22.3673 6.91787 22.3673C8.76332 22.3673 9.5206 23.1818 9.5206 24.7091V24.8428H8.35605V24.7091C8.35605 23.6718 7.92332 23.3028 6.91787 23.3028C5.96969 23.3028 5.48605 23.6718 5.48605 24.2955V24.3846C5.48605 24.9382 5.77878 25.2373 6.60605 25.4918L7.71969 25.8355C9.03696 26.2364 9.5906 26.7964 9.52696 27.8273L9.5206 27.9291C9.44423 29.1891 8.5406 29.8318 6.91151 29.8318ZM15.3673 29.7109C15.3037 29.3546 15.2464 28.9728 15.2082 28.5973C14.7946 29.3737 13.9737 29.8255 12.9492 29.8255C11.6001 29.8255 10.8746 29.0109 10.8746 27.8655V27.7573C10.8746 26.8346 11.3519 26.0964 13.0701 25.7209L15.1192 25.2755V24.6264C15.1192 23.7673 14.7501 23.3091 13.6746 23.3091C12.631 23.3091 12.2173 23.7609 12.2173 24.6328V24.9191H11.0401V24.6518C11.0401 23.0228 12.1028 22.3737 13.681 22.3737C15.3673 22.3737 16.271 23.0418 16.271 24.6582V26.6373C16.271 27.6682 16.3282 28.7437 16.5382 29.7109H15.3673ZM12.0773 27.84C12.0773 28.4509 12.5037 28.8455 13.3119 28.8455C14.031 28.8455 14.7373 28.5082 15.1573 27.9228C15.1319 27.5028 15.1192 27.0828 15.1192 26.6882V26.1855L13.4519 26.5609C12.4146 26.7964 12.0773 27.1655 12.0773 27.7318V27.84ZM20.1113 29.7109C18.9658 29.7109 18.4631 29.2337 18.4631 28.1773V23.43H17.2922V22.4882H18.4631V20.7191L19.6086 20.3691V22.4882H21.4031V23.43H19.6086V28.1264C19.6086 28.5591 19.7613 28.75 20.2386 28.75H21.4031V29.7109H20.1113ZM22.8047 29.7109V22.4882H23.9565V29.7109H22.8047ZM22.8111 21.5018V20H23.9629V21.5018H22.8111ZM28.2806 29.8318C26.3906 29.8318 25.6397 28.9918 25.6397 27.4837V27.3946H26.8297V27.49C26.8297 28.4891 27.2243 28.8964 28.2806 28.8964C29.2097 28.8964 29.7188 28.6228 29.7188 27.9164V27.8209C29.7188 27.28 29.4579 26.9873 28.6116 26.7328L27.5106 26.4018C26.1806 26.0009 25.6779 25.4028 25.6779 24.3782V24.2891C25.6779 23.1182 26.6706 22.3673 28.287 22.3673C30.1325 22.3673 30.8897 23.1818 30.8897 24.7091V24.8428H29.7252V24.7091C29.7252 23.6718 29.2925 23.3028 28.287 23.3028C27.3388 23.3028 26.8552 23.6718 26.8552 24.2955V24.3846C26.8552 24.9382 27.1479 25.2373 27.9752 25.4918L29.0888 25.8355C30.4061 26.2364 30.9597 26.7964 30.8961 27.8273L30.8897 27.9291C30.8134 29.1891 29.9097 29.8318 28.2806 29.8318ZM33.1028 21.5591C33.1028 20.49 33.6374 20 34.8019 20H36.0047V20.8846H34.9101C34.401 20.8846 34.2483 21.0691 34.2483 21.5655V22.4882H36.0047V23.43H34.2483V29.7109H33.1028V23.43H31.9574V22.4882H33.1028V21.5591ZM37.1585 32.1164L37.1522 31.2191H38.3103C38.8449 31.2191 39.0676 31.0409 39.214 30.6018L39.5067 29.7109H38.8831L36.6876 22.4882H37.9222L39.7103 28.8518H39.7294L41.5112 22.4882H42.7522L40.2449 30.6464C39.9394 31.6455 39.3603 32.1164 38.304 32.1164H37.1585ZM44.0508 29.7109V22.4882H45.2026V29.7109H44.0508ZM44.0571 21.5018V20H45.209V21.5018H44.0571ZM51.3661 24.9637C51.3661 24.2 51.1497 23.3728 49.9597 23.3728C49.2979 23.3728 48.7634 23.6146 48.2988 24.1428V29.7109H47.1406V22.4882H48.2606V23.4237C48.7061 22.7109 49.4315 22.3673 50.297 22.3673C51.7161 22.3673 52.5243 23.1818 52.5243 24.8746V29.7109H51.3661V24.9637ZM56.8438 32.2309C55.1829 32.2309 54.1011 31.5246 54.1011 30.1118V30.0164H55.2529V30.1118C55.2529 30.8564 55.7047 31.3591 56.8438 31.3591C57.9829 31.3591 58.422 30.8818 58.422 29.9337V28.4382C57.9765 29.1318 57.2638 29.4628 56.3792 29.4628C54.9411 29.4628 54.082 28.6355 54.082 26.9491V24.9191C54.082 23.2328 54.9411 22.3673 56.3792 22.3673C57.2956 22.3673 58.0211 22.7237 58.4665 23.4618V22.4882H59.5801V29.9273C59.5801 31.55 58.5111 32.2309 56.8438 32.2309ZM55.2338 26.8791C55.2338 27.6491 55.4756 28.4637 56.7229 28.4637C57.4038 28.4637 57.9511 28.2218 58.422 27.6937V24.1364C57.9511 23.6082 57.4038 23.3664 56.7229 23.3664C55.4756 23.3664 55.2338 24.2191 55.2338 24.9828V26.8791ZM61.3577 30.6782C61.7905 30.6846 62.0323 30.5128 62.0323 29.8828V29.7109H61.4977V27.9355H62.7832V29.8828C62.7832 30.9073 62.2232 31.3146 61.3577 31.3146V30.6782ZM71.3537 29.7109C71.29 29.3546 71.2328 28.9728 71.1946 28.5973C70.7809 29.3737 69.96 29.8255 68.9355 29.8255C67.5864 29.8255 66.8609 29.0109 66.8609 27.8655V27.7573C66.8609 26.8346 67.3382 26.0964 69.0564 25.7209L71.1055 25.2755V24.6264C71.1055 23.7673 70.7364 23.3091 69.6609 23.3091C68.6173 23.3091 68.2037 23.7609 68.2037 24.6328V24.9191H67.0264V24.6518C67.0264 23.0228 68.0891 22.3737 69.6673 22.3737C71.3537 22.3737 72.2573 23.0418 72.2573 24.6582V26.6373C72.2573 27.6682 72.3146 28.7437 72.5246 29.7109H71.3537ZM68.0637 27.84C68.0637 28.4509 68.49 28.8455 69.2982 28.8455C70.0173 28.8455 70.7237 28.5082 71.1437 27.9228C71.1182 27.5028 71.1055 27.0828 71.1055 26.6882V26.1855L69.4382 26.5609C68.4009 26.7964 68.0637 27.1655 68.0637 27.7318V27.84ZM78.368 24.9637C78.368 24.2 78.1517 23.3728 76.9617 23.3728C76.2999 23.3728 75.7653 23.6146 75.3008 24.1428V29.7109H74.1426V22.4882H75.2626V23.4237C75.708 22.7109 76.4335 22.3673 77.2989 22.3673C78.718 22.3673 79.5262 23.1818 79.5262 24.8746V29.7109H78.368V24.9637ZM83.4321 29.8318C82.013 29.8318 81.0839 29.0046 81.0839 27.3055V24.8937C81.0839 23.1946 82.013 22.3673 83.4321 22.3673C84.3357 22.3673 85.0485 22.6982 85.4939 23.3918V20H86.6457V29.7109H85.5257V28.7564C85.0866 29.4818 84.3548 29.8318 83.4321 29.8318ZM82.2357 27.2482C82.2357 28.3555 82.7257 28.8391 83.6866 28.8391C84.4057 28.8391 85.0039 28.5909 85.4939 28.0564V24.1428C85.0039 23.6082 84.4057 23.36 83.6866 23.36C82.7257 23.36 82.2357 23.8437 82.2357 24.9509V27.2482ZM91 29.7109V22.4882H92.1136V23.43C92.5464 22.7109 93.2718 22.3673 94.1373 22.3673C95.1045 22.3673 95.7791 22.7555 96.11 23.5509C96.5873 22.7555 97.37 22.3673 98.3182 22.3673C99.7245 22.3673 100.514 23.1882 100.514 24.8746V29.7109H99.3682V24.9637C99.3682 24.2 99.1518 23.3728 97.9745 23.3728C97.3064 23.3728 96.7655 23.6273 96.2882 24.1809C96.32 24.3973 96.3391 24.6264 96.3391 24.8746V29.7109H95.1809V24.9637C95.1809 24.2 94.9709 23.3728 93.7936 23.3728C93.1445 23.3728 92.6164 23.6146 92.1518 24.13V29.7109H91ZM106.436 29.7109C106.372 29.3546 106.315 28.9728 106.277 28.5973C105.863 29.3737 105.042 29.8255 104.018 29.8255C102.668 29.8255 101.943 29.0109 101.943 27.8655V27.7573C101.943 26.8346 102.42 26.0964 104.138 25.7209L106.188 25.2755V24.6264C106.188 23.7673 105.818 23.3091 104.743 23.3091C103.699 23.3091 103.286 23.7609 103.286 24.6328V24.9191H102.108V24.6518C102.108 23.0228 103.171 22.3737 104.749 22.3737C106.436 22.3737 107.339 23.0418 107.339 24.6582V26.6373C107.339 27.6682 107.397 28.7437 107.607 29.7109H106.436ZM103.146 27.84C103.146 28.4509 103.572 28.8455 104.38 28.8455C105.099 28.8455 105.806 28.5082 106.226 27.9228C106.2 27.5028 106.188 27.0828 106.188 26.6882V26.1855L104.52 26.5609C103.483 26.7964 103.146 27.1655 103.146 27.7318V27.84ZM111.35 29.8318C109.931 29.8318 109.002 29.0046 109.002 27.3055V24.8937C109.002 23.1946 109.931 22.3673 111.35 22.3673C112.254 22.3673 112.966 22.6982 113.412 23.3918V20H114.564V29.7109H113.444V28.7564C113.005 29.4818 112.273 29.8318 111.35 29.8318ZM110.154 27.2482C110.154 28.3555 110.644 28.8391 111.605 28.8391C112.324 28.8391 112.922 28.5909 113.412 28.0564V24.1428C112.922 23.6082 112.324 23.36 111.605 23.36C110.644 23.36 110.154 23.8437 110.154 24.9509V27.2482ZM118.821 29.8318C117.242 29.8318 116.116 29.0173 116.116 26.9873V25.2118C116.116 23.1818 117.242 22.3673 118.821 22.3673C120.399 22.3673 121.525 23.1818 121.525 25.2118V26.3318L117.261 26.3255V27.1018C117.261 28.4 117.783 28.8773 118.821 28.8773C119.845 28.8773 120.386 28.3746 120.386 27.3437V27.3118H121.525V27.3437C121.525 29.1128 120.399 29.8318 118.821 29.8318ZM117.261 25.4028H120.386V25.0973C120.386 23.8373 119.864 23.3218 118.821 23.3218C117.783 23.3218 117.261 23.8373 117.261 25.0973V25.4028ZM6.52827 49.7109C5.38282 49.7109 4.88009 49.2337 4.88009 48.1773V43.43H3.70918V42.4882H4.88009V40.7191L6.02554 40.3691V42.4882H7.82009V43.43H6.02554V48.1264C6.02554 48.5591 6.17827 48.75 6.65554 48.75H7.82009V49.7109H6.52827ZM11.799 49.8318C10.138 49.8318 8.93532 48.9409 8.93532 46.8982V45.3073C8.93532 43.2646 10.138 42.3673 11.799 42.3673C13.4535 42.3673 14.6562 43.2646 14.6562 45.3073V46.8982C14.6562 48.9409 13.4535 49.8318 11.799 49.8318ZM10.0935 47.0128C10.0935 48.2537 10.6535 48.8391 11.799 48.8391C12.938 48.8391 13.498 48.2537 13.498 47.0128V45.1864C13.498 43.9455 12.938 43.36 11.799 43.36C10.6535 43.36 10.0935 43.9455 10.0935 45.1864V47.0128ZM21.9509 49.8318C21.0282 49.8318 20.2964 49.4818 19.8573 48.7564V49.7109H18.7373V40H19.8891V43.3918C20.3346 42.6982 21.0473 42.3673 21.9509 42.3673C23.37 42.3673 24.2991 43.1946 24.2991 44.8937V47.3055C24.2991 49.0046 23.37 49.8318 21.9509 49.8318ZM19.8891 48.0564C20.3791 48.5909 20.9773 48.8391 21.6964 48.8391C22.6573 48.8391 23.1473 48.3555 23.1473 47.2482V44.9509C23.1473 43.8437 22.6573 43.36 21.6964 43.36C20.9773 43.36 20.3791 43.6082 19.8891 44.1428V48.0564ZM28.4563 49.8318C26.8781 49.8318 25.7517 49.0173 25.7517 46.9873V45.2118C25.7517 43.1818 26.8781 42.3673 28.4563 42.3673C30.0344 42.3673 31.1608 43.1818 31.1608 45.2118V46.3318L26.8972 46.3255V47.1018C26.8972 48.4 27.419 48.8773 28.4563 48.8773C29.4808 48.8773 30.0217 48.3746 30.0217 47.3437V47.3118H31.1608V47.3437C31.1608 49.1128 30.0344 49.8318 28.4563 49.8318ZM26.8972 45.4028H30.0217V45.0973C30.0217 43.8373 29.4999 43.3218 28.4563 43.3218C27.419 43.3218 26.8972 43.8373 26.8972 45.0973V45.4028ZM37.3774 49.8318C35.9902 49.8318 35.1756 49.0491 35.1756 47.3437V42.4882H36.3338V47.2418C36.3338 47.9482 36.4929 48.8328 37.7338 48.8328C38.3765 48.8328 38.9302 48.5909 39.3947 48.0818V42.4882H40.5529V49.7109H39.4265V48.7691C38.9683 49.4882 38.2302 49.8318 37.3774 49.8318ZM44.8851 49.8318C42.9951 49.8318 42.2442 48.9918 42.2442 47.4837V47.3946H43.4342V47.49C43.4342 48.4891 43.8288 48.8964 44.8851 48.8964C45.8142 48.8964 46.3233 48.6228 46.3233 47.9164V47.8209C46.3233 47.28 46.0624 46.9873 45.216 46.7328L44.1151 46.4018C42.7851 46.0009 42.2824 45.4028 42.2824 44.3782V44.2891C42.2824 43.1182 43.2751 42.3673 44.8915 42.3673C46.737 42.3673 47.4942 43.1818 47.4942 44.7091V44.8428H46.3297V44.7091C46.3297 43.6718 45.897 43.3028 44.8915 43.3028C43.9433 43.3028 43.4597 43.6718 43.4597 44.2955V44.3846C43.4597 44.9382 43.7524 45.2373 44.5797 45.4918L45.6933 45.8355C47.0106 46.2364 47.5642 46.7964 47.5006 47.8273L47.4942 47.9291C47.4179 49.1891 46.5142 49.8318 44.8851 49.8318ZM51.7395 49.8318C50.1613 49.8318 49.0349 49.0173 49.0349 46.9873V45.2118C49.0349 43.1818 50.1613 42.3673 51.7395 42.3673C53.3177 42.3673 54.444 43.1818 54.444 45.2118V46.3318L50.1804 46.3255V47.1018C50.1804 48.4 50.7022 48.8773 51.7395 48.8773C52.764 48.8773 53.3049 48.3746 53.3049 47.3437V47.3118H54.444V47.3437C54.444 49.1128 53.3177 49.8318 51.7395 49.8318ZM50.1804 45.4028H53.3049V45.0973C53.3049 43.8373 52.7831 43.3218 51.7395 43.3218C50.7022 43.3218 50.1804 43.8373 50.1804 45.0973V45.4028ZM58.2553 49.8318C56.8362 49.8318 55.9072 49.0046 55.9072 47.3055V44.8937C55.9072 43.1946 56.8362 42.3673 58.2553 42.3673C59.159 42.3673 59.8717 42.6982 60.3172 43.3918V40H61.469V49.7109H60.349V48.7564C59.9099 49.4818 59.1781 49.8318 58.2553 49.8318ZM57.059 47.2482C57.059 48.3555 57.549 48.8391 58.5099 48.8391C59.229 48.8391 59.8272 48.5909 60.3172 48.0564V44.1428C59.8272 43.6082 59.229 43.36 58.5099 43.36C57.549 43.36 57.059 43.8437 57.059 44.9509V47.2482ZM68.2414 49.8318C66.6632 49.8318 65.5369 49.0173 65.5369 46.9873V45.2118C65.5369 43.1818 66.6632 42.3673 68.2414 42.3673C69.8196 42.3673 70.946 43.1818 70.946 45.2118V46.3318L66.6823 46.3255V47.1018C66.6823 48.4 67.2042 48.8773 68.2414 48.8773C69.266 48.8773 69.8069 48.3746 69.8069 47.3437V47.3118H70.946V47.3437C70.946 49.1128 69.8196 49.8318 68.2414 49.8318ZM66.6823 45.4028H69.8069V45.0973C69.8069 43.8373 69.2851 43.3218 68.2414 43.3218C67.2042 43.3218 66.6823 43.8373 66.6823 45.0973V45.4028ZM73.9528 49.7109L71.7765 42.4882H73.0174L74.7801 48.8582H74.7992L76.5683 42.4882H77.8092L75.6265 49.7109H73.9528ZM81.3391 49.8318C79.7609 49.8318 78.6345 49.0173 78.6345 46.9873V45.2118C78.6345 43.1818 79.7609 42.3673 81.3391 42.3673C82.9173 42.3673 84.0436 43.1818 84.0436 45.2118V46.3318L79.78 46.3255V47.1018C79.78 48.4 80.3018 48.8773 81.3391 48.8773C82.3636 48.8773 82.9045 48.3746 82.9045 47.3437V47.3118H84.0436V47.3437C84.0436 49.1128 82.9173 49.8318 81.3391 49.8318ZM79.78 45.4028H82.9045V45.0973C82.9045 43.8373 82.3827 43.3218 81.3391 43.3218C80.3018 43.3218 79.78 43.8373 79.78 45.0973V45.4028ZM85.6064 49.7109V42.4882H86.7137V43.4364C87.1846 42.59 88.0246 42.2909 89.1192 42.3864V43.57C88.171 43.3982 87.3692 43.64 86.7583 44.2382V49.7109H85.6064ZM90.3353 52.1164L90.3289 51.2191H91.4871C92.0216 51.2191 92.2444 51.0409 92.3907 50.6018L92.6835 49.7109H92.0598L89.8644 42.4882H91.0989L92.8871 48.8518H92.9062L94.688 42.4882H95.9289L93.4216 50.6464C93.1162 51.6455 92.5371 52.1164 91.4807 52.1164H90.3353ZM101.869 49.8318C100.45 49.8318 99.5204 49.0046 99.5204 47.3055V44.8937C99.5204 43.1946 100.45 42.3673 101.869 42.3673C102.772 42.3673 103.485 42.6982 103.93 43.3918V40H105.082V49.7109H103.962V48.7564C103.523 49.4818 102.791 49.8318 101.869 49.8318ZM100.672 47.2482C100.672 48.3555 101.162 48.8391 102.123 48.8391C102.842 48.8391 103.44 48.5909 103.93 48.0564V44.1428C103.44 43.6082 102.842 43.36 102.123 43.36C101.162 43.36 100.672 43.8437 100.672 44.9509V47.2482ZM111.064 49.7109C111 49.3546 110.943 48.9728 110.905 48.5973C110.491 49.3737 109.67 49.8255 108.645 49.8255C107.296 49.8255 106.571 49.0109 106.571 47.8655V47.7573C106.571 46.8346 107.048 46.0964 108.766 45.7209L110.815 45.2755V44.6264C110.815 43.7673 110.446 43.3091 109.371 43.3091C108.327 43.3091 107.914 43.7609 107.914 44.6328V44.9191H106.736V44.6518C106.736 43.0228 107.799 42.3737 109.377 42.3737C111.064 42.3737 111.967 43.0418 111.967 44.6582V46.6373C111.967 47.6682 112.025 48.7437 112.235 49.7109H111.064ZM107.774 47.84C107.774 48.4509 108.2 48.8455 109.008 48.8455C109.727 48.8455 110.434 48.5082 110.854 47.9228C110.828 47.5028 110.815 47.0828 110.815 46.6882V46.1855L109.148 46.5609C108.111 46.7964 107.774 47.1655 107.774 47.7318V47.84ZM113.591 52.1164L113.585 51.2191H114.743C115.277 51.2191 115.5 51.0409 115.647 50.6018L115.939 49.7109H115.316L113.12 42.4882H114.355L116.143 48.8518H116.162L117.944 42.4882H119.185L116.677 50.6464C116.372 51.6455 115.793 52.1164 114.737 52.1164H113.591ZM119.911 49.7109V47.9355H121.196V49.7109H119.911Z" fill="black"/>
</g>
</svg>
