<svg width="66" height="12" viewBox="0 0 66 12" fill="none" xmlns="http://www.w3.org/2000/svg">
<g id="TUMBLERWARE / fathers-day / 728&#195;&#151;90 - F1">
<g id="Frame 6">
<path id="25% off" d="M2.36801 3.872H0.128006V2.624C0.128006 1.104 0.848006 0.383999 2.36801 0.383999H5.60001C7.12001 0.383999 7.84001 1.104 7.84001 2.624V4.416C7.84001 5.696 6.89601 6.224 5.53601 6.72L2.94401 7.68C2.52801 7.84 2.30401 7.904 2.30401 8.32V9.472H7.87201V11.584H6.25849e-06V7.808C6.25849e-06 6.528 0.944006 6 2.30401 5.504L4.89601 4.544C5.31201 4.384 5.53601 4.32 5.53601 3.904V2.816C5.53601 2.576 5.45601 2.496 5.21601 2.496H2.68801C2.44801 2.496 2.36801 2.576 2.36801 2.816V3.872ZM12.1843 2.496V5.552C12.7603 4.752 13.3203 4.208 14.9683 4.208C16.8243 4.208 17.5443 4.928 17.5443 6.448V9.28C17.5443 10.8 16.7603 11.584 15.2403 11.584H11.9603C10.4403 11.584 9.72026 10.864 9.72026 9.344V8.112H12.0243V9.152C12.0243 9.392 12.1043 9.472 12.3443 9.472H14.9203C15.1603 9.472 15.2403 9.392 15.2403 9.152V6.576C15.2403 6.336 15.1603 6.256 14.5843 6.256C13.4003 6.256 12.8563 6.432 12.1843 6.784L9.88026 6.208V0.383999H17.2243V2.496H12.1843ZM21.6623 -9.53674e-07C22.5583 -9.53674e-07 23.2356 0.314666 23.6943 0.943999C24.1636 1.56267 24.3983 2.43733 24.3983 3.568C24.3983 4.69867 24.1796 5.584 23.7423 6.224C23.3049 6.85333 22.6116 7.168 21.6623 7.168C21.0756 7.168 20.5796 7.024 20.1743 6.736C19.7796 6.448 19.4809 6.03733 19.2783 5.504C19.0756 4.96 18.9743 4.31467 18.9743 3.568C18.9743 2.43733 19.1876 1.56267 19.6143 0.943999C20.0409 0.314666 20.7236 -9.53674e-07 21.6623 -9.53674e-07ZM21.6783 1.632C21.4223 1.632 21.2356 1.792 21.1183 2.112C21.0009 2.432 20.9423 2.92267 20.9423 3.584C20.9423 4.23467 21.0009 4.72533 21.1183 5.056C21.2356 5.38667 21.4223 5.552 21.6783 5.552C21.9343 5.552 22.1209 5.38667 22.2383 5.056C22.3663 4.72533 22.4303 4.23467 22.4303 3.584C22.4303 2.92267 22.3663 2.432 22.2383 2.112C22.1209 1.792 21.9343 1.632 21.6783 1.632ZM29.7743 0.159999L23.4383 11.584H21.5663L27.9023 0.159999H29.7743ZM29.6623 4.56C30.2596 4.56 30.7609 4.704 31.1663 4.992C31.5716 5.26933 31.8756 5.67467 32.0783 6.208C32.2916 6.73067 32.3983 7.37067 32.3983 8.128C32.3983 9.25867 32.1796 10.144 31.7423 10.784C31.3049 11.4133 30.6116 11.728 29.6623 11.728C29.0756 11.728 28.5796 11.584 28.1743 11.296C27.7796 11.008 27.4809 10.5973 27.2783 10.064C27.0756 9.52 26.9743 8.87467 26.9743 8.128C26.9743 6.99733 27.1876 6.12267 27.6143 5.504C28.0409 4.87467 28.7236 4.56 29.6623 4.56ZM29.6783 6.192C29.4223 6.192 29.2356 6.352 29.1183 6.672C29.0009 6.992 28.9423 7.48267 28.9423 8.144C28.9423 8.79467 29.0009 9.28533 29.1183 9.616C29.2356 9.94667 29.4223 10.112 29.6783 10.112C29.9343 10.112 30.1209 9.952 30.2383 9.632C30.3663 9.30133 30.4303 8.80533 30.4303 8.144C30.4303 7.48267 30.3663 6.992 30.2383 6.672C30.1209 6.352 29.9343 6.192 29.6783 6.192ZM44.0879 11.584H39.9759C38.4559 11.584 37.7359 10.864 37.7359 9.344V2.624C37.7359 1.104 38.4559 0.383999 39.9759 0.383999H44.0879C45.6079 0.383999 46.3279 1.104 46.3279 2.624V9.344C46.3279 10.864 45.6079 11.584 44.0879 11.584ZM40.0399 2.816V9.152C40.0399 9.392 40.1199 9.472 40.3599 9.472H43.7039C43.9439 9.472 44.0239 9.392 44.0239 9.152V2.816C44.0239 2.576 43.9439 2.496 43.7039 2.496H40.3599C40.1199 2.496 40.0399 2.576 40.0399 2.816ZM48.586 11.584V0.383999H56.122V2.496H50.89V4.912H55.13V6.992H50.89V11.584H48.586ZM57.8673 11.584V0.383999H65.4033V2.496H60.1713V4.912H64.4113V6.992H60.1713V11.584H57.8673Z" fill="#F15A29"/>
</g>
</g>
</svg>
