<svg width="87" height="10" viewBox="0 0 87 10" fill="none" xmlns="http://www.w3.org/2000/svg">
<g id="TUMBLERWARE / fathers-day / 728&#195;&#151;90 - F1">
<g id="Frame 6">
<g id="details">
<path id="STARTER SET" d="M5.01199 3.08V2.1C5.01199 1.89 4.94199 1.82 4.73199 1.82H2.32399C2.11399 1.82 2.04399 1.89 2.04399 2.1V3.164C2.04399 3.472 2.15599 3.556 2.51999 3.64L5.12399 4.2C6.35599 4.466 7.13999 4.956 7.13999 6.216V7.84C7.13999 9.17 6.50999 9.8 5.17999 9.8H1.95999C0.629988 9.8 -1.169e-05 9.17 -1.169e-05 7.84V6.608H1.95999V7.7C1.95999 7.91 2.02999 7.98 2.23999 7.98H4.84399C5.05399 7.98 5.12399 7.91 5.12399 7.7V6.524C5.12399 6.216 5.01199 6.132 4.64799 6.048L2.04399 5.488C0.811988 5.222 0.0279883 4.732 0.0279883 3.472V1.96C0.0279883 0.629999 0.657988 -1.43051e-06 1.98799 -1.43051e-06H5.01199C6.34199 -1.43051e-06 6.97199 0.629999 6.97199 1.96V3.08H5.01199ZM15.5009 1.82H12.8409V9.8H10.8249V1.82H8.16494V-1.43051e-06H15.5009V1.82ZM21.0469 7.672H17.6869L17.0849 9.8H14.9569L17.9389 -1.43051e-06H20.8789L23.8609 9.8H21.6489L21.0469 7.672ZM20.5289 5.824L19.3669 1.708L18.2049 5.824H20.5289ZM32.6245 9.8H30.4545L28.8305 6.342H27.2065V9.8H25.1905V-1.43051e-06H30.3565C31.6865 -1.43051e-06 32.3165 0.629999 32.3165 1.96V4.326C32.3165 5.432 31.8825 6.062 30.9585 6.23L32.6245 9.8ZM27.2065 4.55H30.0205C30.2305 4.55 30.3005 4.48 30.3005 4.27V2.1C30.3005 1.89 30.2305 1.82 30.0205 1.82H27.2065V4.55ZM40.7392 1.82H38.0792V9.8H36.0632V1.82H33.4032V-1.43051e-06H40.7392V1.82ZM42.1983 -1.43051e-06H48.7923V1.848H44.2143V3.878H47.9243V5.698H44.2143V7.952H48.7923V9.8H42.1983V-1.43051e-06ZM57.9995 9.8H55.8295L54.2055 6.342H52.5815V9.8H50.5655V-1.43051e-06H55.7315C57.0615 -1.43051e-06 57.6915 0.629999 57.6915 1.96V4.326C57.6915 5.432 57.2575 6.062 56.3335 6.23L57.9995 9.8ZM52.5815 4.55H55.3955C55.6055 4.55 55.6755 4.48 55.6755 4.27V2.1C55.6755 1.89 55.6055 1.82 55.3955 1.82H52.5815V4.55ZM67.7522 3.08V2.1C67.7522 1.89 67.6822 1.82 67.4722 1.82H65.0642C64.8542 1.82 64.7842 1.89 64.7842 2.1V3.164C64.7842 3.472 64.8962 3.556 65.2602 3.64L67.8642 4.2C69.0962 4.466 69.8802 4.956 69.8802 6.216V7.84C69.8802 9.17 69.2502 9.8 67.9202 9.8H64.7002C63.3702 9.8 62.7402 9.17 62.7402 7.84V6.608H64.7002V7.7C64.7002 7.91 64.7702 7.98 64.9802 7.98H67.5842C67.7942 7.98 67.8642 7.91 67.8642 7.7V6.524C67.8642 6.216 67.7522 6.132 67.3882 6.048L64.7842 5.488C63.5522 5.222 62.7682 4.732 62.7682 3.472V1.96C62.7682 0.629999 63.3982 -1.43051e-06 64.7282 -1.43051e-06H67.7522C69.0822 -1.43051e-06 69.7122 0.629999 69.7122 1.96V3.08H67.7522ZM71.7979 -1.43051e-06H78.3919V1.848H73.8139V3.878H77.5239V5.698H73.8139V7.952H78.3919V9.8H71.7979V-1.43051e-06ZM86.7451 1.82H84.0851V9.8H82.0691V1.82H79.4091V-1.43051e-06H86.7451V1.82Z" fill="#333333"/>
</g>
</g>
</g>
</svg>
