<svg width="91" height="19" viewBox="0 0 91 19" fill="none" xmlns="http://www.w3.org/2000/svg">
<g id="TUMBLERWARE / fathers-day / 728&#195;&#151;90 - F1">
<g id="Frame 6">
<g id="details">
<g id="price">
<g id="$207">
<path d="M4.53238 16.36C3.83904 16.3387 3.22038 16.2747 2.67638 16.168C2.13238 16.0507 1.63638 15.8907 1.18838 15.688V13.624C1.62571 13.8373 2.15371 14.0347 2.77238 14.216C3.39104 14.3867 3.97771 14.488 4.53238 14.52V12.104C3.91371 11.8587 3.38571 11.624 2.94838 11.4C2.52171 11.176 2.17504 10.9413 1.90838 10.696C1.65238 10.44 1.46571 10.1627 1.34838 9.864C1.23104 9.55467 1.17238 9.20267 1.17238 8.808C1.17238 8.27467 1.31104 7.816 1.58838 7.432C1.87638 7.03733 2.27104 6.72267 2.77238 6.488C3.28438 6.25333 3.87104 6.10933 4.53238 6.056V4.856H5.60438V6.024C6.20171 6.04533 6.76171 6.11467 7.28438 6.232C7.81771 6.34933 8.33504 6.52 8.83638 6.744L8.10038 8.568C7.67371 8.38667 7.24171 8.248 6.80438 8.152C6.37771 8.056 5.97771 7.992 5.60438 7.96V10.264C6.18038 10.4773 6.72971 10.712 7.25238 10.968C7.77504 11.2133 8.19638 11.528 8.51638 11.912C8.84704 12.296 9.01238 12.8027 9.01238 13.432C9.01238 14.2107 8.72971 14.8613 8.16438 15.384C7.59904 15.9067 6.74571 16.2213 5.60438 16.328V17.928H4.53238V16.36ZM5.60438 14.472C5.96704 14.408 6.23371 14.3013 6.40438 14.152C6.57504 13.992 6.66038 13.7893 6.66038 13.544C6.66038 13.3947 6.61771 13.2667 6.53238 13.16C6.45771 13.0427 6.34038 12.936 6.18038 12.84C6.03104 12.7333 5.83904 12.6267 5.60438 12.52V14.472ZM4.53238 7.992C4.31904 8.024 4.13771 8.07733 3.98838 8.152C3.83904 8.216 3.72171 8.30667 3.63638 8.424C3.56171 8.53067 3.52438 8.65867 3.52438 8.808C3.52438 8.95733 3.55638 9.09067 3.62038 9.208C3.69504 9.31467 3.80704 9.42133 3.95638 9.528C4.10571 9.624 4.29771 9.72533 4.53238 9.832V7.992ZM12.9366 9.288H10.6966V8.04C10.6966 6.52 11.4166 5.8 12.9366 5.8H16.1686C17.6886 5.8 18.4086 6.52 18.4086 8.04V9.832C18.4086 11.112 17.4646 11.64 16.1046 12.136L13.5126 13.096C13.0966 13.256 12.8726 13.32 12.8726 13.736V14.888H18.4406V17H10.5686V13.224C10.5686 11.944 11.5126 11.416 12.8726 10.92L15.4646 9.96C15.8806 9.8 16.1046 9.736 16.1046 9.32V8.232C16.1046 7.992 16.0246 7.912 15.7846 7.912H13.2566C13.0166 7.912 12.9366 7.992 12.9366 8.232V9.288ZM26.3529 17H22.5289C21.0089 17 20.2889 16.28 20.2889 14.76V8.04C20.2889 6.52 21.0089 5.8 22.5289 5.8H26.3529C27.8729 5.8 28.5929 6.52 28.5929 8.04V14.76C28.5929 16.28 27.8729 17 26.3529 17ZM22.5929 8.232V14.568C22.5929 14.808 22.6729 14.888 22.9129 14.888H25.9689C26.2089 14.888 26.2889 14.808 26.2889 14.568V8.232C26.2889 7.992 26.2089 7.912 25.9689 7.912H22.9129C22.6729 7.912 22.5929 7.992 22.5929 8.232ZM38.0009 7.448L33.1689 17H30.6409L35.3129 7.88H29.7769V5.8H38.0009V7.448Z" fill="#333333"/>
<path d="M0.484375 11.752H9.64062V12.552H0.484375V11.752ZM9.64062 11.816H38.5129V12.616H9.64062V11.816Z" fill="#333333"/>
</g>
<path id="$155" d="M59.3839 16.36C58.6906 16.3387 58.0719 16.2747 57.5279 16.168C56.9839 16.0507 56.4879 15.8907 56.0399 15.688V13.624C56.4773 13.8373 57.0053 14.0347 57.6239 14.216C58.2426 14.3867 58.8293 14.488 59.3839 14.52V12.104C58.7653 11.8587 58.2373 11.624 57.7999 11.4C57.3733 11.176 57.0266 10.9413 56.7599 10.696C56.5039 10.44 56.3173 10.1627 56.1999 9.864C56.0826 9.55467 56.0239 9.20267 56.0239 8.808C56.0239 8.27467 56.1626 7.816 56.4399 7.432C56.7279 7.03733 57.1226 6.72267 57.6239 6.488C58.1359 6.25333 58.7226 6.10933 59.3839 6.056V4.856H60.4559V6.024C61.0533 6.04533 61.6133 6.11467 62.1359 6.232C62.6693 6.34933 63.1866 6.52 63.6879 6.744L62.9519 8.568C62.5253 8.38667 62.0933 8.248 61.6559 8.152C61.2293 8.056 60.8293 7.992 60.4559 7.96V10.264C61.0319 10.4773 61.5813 10.712 62.1039 10.968C62.6266 11.2133 63.0479 11.528 63.3679 11.912C63.6986 12.296 63.8639 12.8027 63.8639 13.432C63.8639 14.2107 63.5813 14.8613 63.0159 15.384C62.4506 15.9067 61.5973 16.2213 60.4559 16.328V17.928H59.3839V16.36ZM60.4559 14.472C60.8186 14.408 61.0853 14.3013 61.2559 14.152C61.4266 13.992 61.5119 13.7893 61.5119 13.544C61.5119 13.3947 61.4693 13.2667 61.3839 13.16C61.3093 13.0427 61.1919 12.936 61.0319 12.84C60.8826 12.7333 60.6906 12.6267 60.4559 12.52V14.472ZM59.3839 7.992C59.1706 8.024 58.9893 8.07733 58.8399 8.152C58.6906 8.216 58.5733 8.30667 58.4879 8.424C58.4133 8.53067 58.3759 8.65867 58.3759 8.808C58.3759 8.95733 58.4079 9.09067 58.4719 9.208C58.5466 9.31467 58.6586 9.42133 58.8079 9.528C58.9573 9.624 59.1493 9.72533 59.3839 9.832V7.992ZM67.3882 17V8.2L65.1322 8.936V7.016L67.8682 5.8H69.6922V17H67.3882ZM74.6201 7.912V10.968C75.1961 10.168 75.7561 9.624 77.4041 9.624C79.2601 9.624 79.9801 10.344 79.9801 11.864V14.696C79.9801 16.216 79.1961 17 77.6761 17H74.3961C72.8761 17 72.1561 16.28 72.1561 14.76V13.528H74.4601V14.568C74.4601 14.808 74.5401 14.888 74.7801 14.888H77.3561C77.5961 14.888 77.6761 14.808 77.6761 14.568V11.992C77.6761 11.752 77.5961 11.672 77.0201 11.672C75.8361 11.672 75.2921 11.848 74.6201 12.2L72.3161 11.624V5.8H79.6601V7.912H74.6201ZM84.3701 7.912V10.968C84.9461 10.168 85.5061 9.624 87.1541 9.624C89.0101 9.624 89.7301 10.344 89.7301 11.864V14.696C89.7301 16.216 88.9461 17 87.4261 17H84.1461C82.6261 17 81.9061 16.28 81.9061 14.76V13.528H84.2101V14.568C84.2101 14.808 84.2901 14.888 84.5301 14.888H87.1061C87.3461 14.888 87.4261 14.808 87.4261 14.568V11.992C87.4261 11.752 87.3461 11.672 86.7701 11.672C85.5861 11.672 85.0421 11.848 84.3701 12.2L82.0661 11.624V5.8H89.4101V7.912H84.3701Z" fill="#F15A29"/>
</g>
</g>
</g>
</g>
</svg>
