<svg width="152" height="10" viewBox="0 0 152 10" fill="none" xmlns="http://www.w3.org/2000/svg">
<g id="TUMBLERWARE / fathers-day / 728&#195;&#151;90 - F2">
<g id="Frame 7">
<g id="Frame 3">
<path id="Tumbler GIft bundle" d="M7.33599 1.82H4.67599V9.8H2.65999V1.82H-6.0983e-06V2.38419e-06H7.33599V1.82ZM16.0331 2.38419e-06V7.84C16.0331 9.17 15.4031 9.8 14.0731 9.8H10.6571C9.32706 9.8 8.69706 9.17 8.69706 7.84V2.38419e-06H10.7131V7.672C10.7131 7.882 10.7831 7.952 10.9931 7.952H13.7371C13.9471 7.952 14.0171 7.882 14.0171 7.672V2.38419e-06H16.0331ZM27.7786 2.38419e-06V9.8H25.7906V3.556L23.6766 8.498H22.1926L20.0786 3.556V9.8H18.1466V2.38419e-06H20.3586L22.9626 5.768L25.5666 2.38419e-06H27.7786ZM29.9865 2.38419e-06H35.1105C36.4405 2.38419e-06 37.0705 0.630003 37.0705 2.618C37.0705 3.934 36.8325 4.438 36.1885 4.788C36.8885 5.096 37.1825 5.642 37.1825 7.07C37.1825 9.17 36.5525 9.8 35.2225 9.8H29.9865V2.38419e-06ZM32.0025 3.92H34.7745C34.9845 3.92 35.0545 3.85 35.0545 2.87C35.0545 1.89 34.9845 1.82 34.7745 1.82H32.0025V3.92ZM32.0025 7.98H34.8865C35.0965 7.98 35.1665 7.91 35.1665 6.818C35.1665 5.726 35.0965 5.656 34.8865 5.656H32.0025V7.98ZM38.9826 2.38419e-06H40.9986V7.952H45.2266V9.8H38.9826V2.38419e-06ZM46.7482 2.38419e-06H53.3422V1.848H48.7642V3.878H52.4742V5.698H48.7642V7.952H53.3422V9.8H46.7482V2.38419e-06ZM62.5494 9.8H60.3794L58.7554 6.342H57.1314V9.8H55.1154V2.38419e-06H60.2814C61.6114 2.38419e-06 62.2414 0.630003 62.2414 1.96V4.326C62.2414 5.432 61.8074 6.062 60.8834 6.23L62.5494 9.8ZM57.1314 4.55H59.9454C60.1554 4.55 60.2254 4.48 60.2254 4.27V2.1C60.2254 1.89 60.1554 1.82 59.9454 1.82H57.1314V4.55ZM72.6241 3.248V2.128C72.6241 1.918 72.5541 1.848 72.3441 1.848H69.6421C69.4321 1.848 69.3621 1.918 69.3621 2.128V7.672C69.3621 7.882 69.4321 7.952 69.6421 7.952H72.3441C72.5541 7.952 72.6241 7.882 72.6241 7.672V6.16H70.7761V4.396H74.6401V7.84C74.6401 9.17 74.0101 9.8 72.6801 9.8H69.3061C67.9761 9.8 67.3461 9.17 67.3461 7.84V1.96C67.3461 0.630003 67.9761 2.38419e-06 69.3061 2.38419e-06H72.6801C74.0101 2.38419e-06 74.6401 0.630003 74.6401 1.96V3.248H72.6241ZM76.5665 9.8V2.38419e-06H78.5825V9.8H76.5665ZM80.7912 9.8V2.38419e-06H87.3852V1.848H82.8072V3.962H86.5172V5.782H82.8072V9.8H80.7912ZM95.4922 1.82H92.8322V9.8H90.8162V1.82H88.1562V2.38419e-06H95.4922V1.82ZM99.9728 2.38419e-06H105.097C106.427 2.38419e-06 107.057 0.630003 107.057 2.618C107.057 3.934 106.819 4.438 106.175 4.788C106.875 5.096 107.169 5.642 107.169 7.07C107.169 9.17 106.539 9.8 105.209 9.8H99.9728V2.38419e-06ZM101.989 3.92H104.761C104.971 3.92 105.041 3.85 105.041 2.87C105.041 1.89 104.971 1.82 104.761 1.82H101.989V3.92ZM101.989 7.98H104.873C105.083 7.98 105.153 7.91 105.153 6.818C105.153 5.726 105.083 5.656 104.873 5.656H101.989V7.98ZM116.207 2.38419e-06V7.84C116.207 9.17 115.577 9.8 114.247 9.8H110.831C109.501 9.8 108.871 9.17 108.871 7.84V2.38419e-06H110.887V7.672C110.887 7.882 110.957 7.952 111.167 7.952H113.911C114.121 7.952 114.191 7.882 114.191 7.672V2.38419e-06H116.207ZM124.13 2.38419e-06H126.09V9.8H124.13L120.28 3.262V9.8H118.32V2.38419e-06H120.42L124.13 6.314V2.38419e-06ZM128.301 2.38419e-06H133.663C134.993 2.38419e-06 135.623 0.630003 135.623 1.96V7.84C135.623 9.17 134.993 9.8 133.663 9.8H128.301V2.38419e-06ZM130.317 7.952H133.327C133.537 7.952 133.607 7.882 133.607 7.672V2.128C133.607 1.918 133.537 1.848 133.327 1.848H130.317V7.952ZM137.598 2.38419e-06H139.614V7.952H143.842V9.8H137.598V2.38419e-06ZM145.363 2.38419e-06H151.957V1.848H147.379V3.878H151.089V5.698H147.379V7.952H151.957V9.8H145.363V2.38419e-06Z" fill="#333333"/>
</g>
</g>
</g>
</svg>
