<svg width="63" height="12" viewBox="0 0 63 12" fill="none" xmlns="http://www.w3.org/2000/svg">
<g id="TUMBLERWARE / fathers-day / 728&#195;&#151;90 - F2">
<g id="Frame 7">
<path id="15% off" d="M2.256 11.584V2.784L6.55651e-07 3.52V1.6L2.736 0.383999H4.56V11.584H2.256ZM9.48788 2.496V5.552C10.0639 4.752 10.6239 4.208 12.2719 4.208C14.1279 4.208 14.8479 4.928 14.8479 6.448V9.28C14.8479 10.8 14.0639 11.584 12.5439 11.584H9.26388C7.74388 11.584 7.02388 10.864 7.02388 9.344V8.112H9.32788V9.152C9.32788 9.392 9.40788 9.472 9.64788 9.472H12.2239C12.4639 9.472 12.5439 9.392 12.5439 9.152V6.576C12.5439 6.336 12.4639 6.256 11.8879 6.256C10.7039 6.256 10.1599 6.432 9.48788 6.784L7.18388 6.208V0.383999H14.5279V2.496H9.48788ZM18.9659 -9.53674e-07C19.8619 -9.53674e-07 20.5392 0.314666 20.9979 0.943999C21.4672 1.56267 21.7019 2.43733 21.7019 3.568C21.7019 4.69867 21.4832 5.584 21.0459 6.224C20.6085 6.85333 19.9152 7.168 18.9659 7.168C18.3792 7.168 17.8832 7.024 17.4779 6.736C17.0832 6.448 16.7845 6.03733 16.5819 5.504C16.3792 4.96 16.2779 4.31467 16.2779 3.568C16.2779 2.43733 16.4912 1.56267 16.9179 0.943999C17.3445 0.314666 18.0272 -9.53674e-07 18.9659 -9.53674e-07ZM18.9819 1.632C18.7259 1.632 18.5392 1.792 18.4219 2.112C18.3045 2.432 18.2459 2.92267 18.2459 3.584C18.2459 4.23467 18.3045 4.72533 18.4219 5.056C18.5392 5.38667 18.7259 5.552 18.9819 5.552C19.2379 5.552 19.4245 5.38667 19.5419 5.056C19.6699 4.72533 19.7339 4.23467 19.7339 3.584C19.7339 2.92267 19.6699 2.432 19.5419 2.112C19.4245 1.792 19.2379 1.632 18.9819 1.632ZM27.0779 0.159999L20.7419 11.584H18.8699L25.2059 0.159999H27.0779ZM26.9659 4.56C27.5632 4.56 28.0645 4.704 28.4699 4.992C28.8752 5.26933 29.1792 5.67467 29.3819 6.208C29.5952 6.73067 29.7019 7.37067 29.7019 8.128C29.7019 9.25867 29.4832 10.144 29.0459 10.784C28.6085 11.4133 27.9152 11.728 26.9659 11.728C26.3792 11.728 25.8832 11.584 25.4779 11.296C25.0832 11.008 24.7845 10.5973 24.5819 10.064C24.3792 9.52 24.2779 8.87467 24.2779 8.128C24.2779 6.99733 24.4912 6.12267 24.9179 5.504C25.3445 4.87467 26.0272 4.56 26.9659 4.56ZM26.9819 6.192C26.7259 6.192 26.5392 6.352 26.4219 6.672C26.3045 6.992 26.2459 7.48267 26.2459 8.144C26.2459 8.79467 26.3045 9.28533 26.4219 9.616C26.5392 9.94667 26.7259 10.112 26.9819 10.112C27.2379 10.112 27.4245 9.952 27.5419 9.632C27.6699 9.30133 27.7339 8.80533 27.7339 8.144C27.7339 7.48267 27.6699 6.992 27.5419 6.672C27.4245 6.352 27.2379 6.192 26.9819 6.192ZM41.3915 11.584H37.2795C35.7595 11.584 35.0395 10.864 35.0395 9.344V2.624C35.0395 1.104 35.7595 0.383999 37.2795 0.383999H41.3915C42.9115 0.383999 43.6315 1.104 43.6315 2.624V9.344C43.6315 10.864 42.9115 11.584 41.3915 11.584ZM37.3435 2.816V9.152C37.3435 9.392 37.4235 9.472 37.6635 9.472H41.0075C41.2475 9.472 41.3275 9.392 41.3275 9.152V2.816C41.3275 2.576 41.2475 2.496 41.0075 2.496H37.6635C37.4235 2.496 37.3435 2.576 37.3435 2.816ZM45.8896 11.584V0.383999H53.4256V2.496H48.1936V4.912H52.4336V6.992H48.1936V11.584H45.8896ZM55.1709 11.584V0.383999H62.7069V2.496H57.4749V4.912H61.7149V6.992H57.4749V11.584H55.1709Z" fill="#F15A29"/>
</g>
</g>
</svg>
