<svg width="63" height="12" viewBox="0 0 63 12" fill="none" xmlns="http://www.w3.org/2000/svg">
<g id="TUMBLERWARE / fathers-day / 728&#195;&#151;90 - F3">
<g id="Frame 9">
<path id="15% off" d="M2.256 11.584V2.78401L6.55651e-07 3.52001V1.60001L2.736 0.384014H4.56V11.584H2.256ZM9.48788 2.49601V5.55201C10.0639 4.75201 10.6239 4.20801 12.2719 4.20801C14.1279 4.20801 14.8479 4.92801 14.8479 6.44801V9.28001C14.8479 10.8 14.0639 11.584 12.5439 11.584H9.26388C7.74388 11.584 7.02388 10.864 7.02388 9.34401V8.11201H9.32788V9.15201C9.32788 9.39201 9.40788 9.47201 9.64788 9.47201H12.2239C12.4639 9.47201 12.5439 9.39201 12.5439 9.15201V6.57601C12.5439 6.33601 12.4639 6.25601 11.8879 6.25601C10.7039 6.25601 10.1599 6.43201 9.48788 6.78401L7.18388 6.20801V0.384014H14.5279V2.49601H9.48788ZM18.9659 1.43051e-05C19.8619 1.43051e-05 20.5392 0.314681 20.9979 0.944015C21.4672 1.56268 21.7019 2.43735 21.7019 3.56801C21.7019 4.69868 21.4832 5.58401 21.0459 6.22401C20.6085 6.85335 19.9152 7.16801 18.9659 7.16801C18.3792 7.16801 17.8832 7.02401 17.4779 6.73601C17.0832 6.44801 16.7845 6.03735 16.5819 5.50401C16.3792 4.96001 16.2779 4.31468 16.2779 3.56801C16.2779 2.43735 16.4912 1.56268 16.9179 0.944015C17.3445 0.314681 18.0272 1.43051e-05 18.9659 1.43051e-05ZM18.9819 1.63201C18.7259 1.63201 18.5392 1.79201 18.4219 2.11201C18.3045 2.43201 18.2459 2.92268 18.2459 3.58401C18.2459 4.23468 18.3045 4.72535 18.4219 5.05601C18.5392 5.38668 18.7259 5.55201 18.9819 5.55201C19.2379 5.55201 19.4245 5.38668 19.5419 5.05601C19.6699 4.72535 19.7339 4.23468 19.7339 3.58401C19.7339 2.92268 19.6699 2.43201 19.5419 2.11201C19.4245 1.79201 19.2379 1.63201 18.9819 1.63201ZM27.0779 0.160014L20.7419 11.584H18.8699L25.2059 0.160014H27.0779ZM26.9659 4.56001C27.5632 4.56001 28.0645 4.70401 28.4699 4.99201C28.8752 5.26935 29.1792 5.67468 29.3819 6.20801C29.5952 6.73068 29.7019 7.37068 29.7019 8.12801C29.7019 9.25868 29.4832 10.144 29.0459 10.784C28.6085 11.4133 27.9152 11.728 26.9659 11.728C26.3792 11.728 25.8832 11.584 25.4779 11.296C25.0832 11.008 24.7845 10.5973 24.5819 10.064C24.3792 9.52001 24.2779 8.87468 24.2779 8.12801C24.2779 6.99735 24.4912 6.12268 24.9179 5.50401C25.3445 4.87468 26.0272 4.56001 26.9659 4.56001ZM26.9819 6.19201C26.7259 6.19201 26.5392 6.35201 26.4219 6.67201C26.3045 6.99201 26.2459 7.48268 26.2459 8.14401C26.2459 8.79468 26.3045 9.28535 26.4219 9.61601C26.5392 9.94668 26.7259 10.112 26.9819 10.112C27.2379 10.112 27.4245 9.95201 27.5419 9.63201C27.6699 9.30135 27.7339 8.80535 27.7339 8.14401C27.7339 7.48268 27.6699 6.99201 27.5419 6.67201C27.4245 6.35201 27.2379 6.19201 26.9819 6.19201ZM41.3915 11.584H37.2795C35.7595 11.584 35.0395 10.864 35.0395 9.34401V2.62401C35.0395 1.10401 35.7595 0.384014 37.2795 0.384014H41.3915C42.9115 0.384014 43.6315 1.10401 43.6315 2.62401V9.34401C43.6315 10.864 42.9115 11.584 41.3915 11.584ZM37.3435 2.81601V9.15201C37.3435 9.39201 37.4235 9.47201 37.6635 9.47201H41.0075C41.2475 9.47201 41.3275 9.39201 41.3275 9.15201V2.81601C41.3275 2.57601 41.2475 2.49601 41.0075 2.49601H37.6635C37.4235 2.49601 37.3435 2.57601 37.3435 2.81601ZM45.8896 11.584V0.384014H53.4256V2.49601H48.1936V4.91201H52.4336V6.99201H48.1936V11.584H45.8896ZM55.1709 11.584V0.384014H62.7069V2.49601H57.4749V4.91201H61.7149V6.99201H57.4749V11.584H55.1709Z" fill="#F15A29"/>
</g>
</g>
</svg>
