<svg width="197" height="13" viewBox="0 0 197 13" fill="none" xmlns="http://www.w3.org/2000/svg">
<g id="TUMBLERWARE / fathers-day / 728&#195;&#151;90 - F3">
<g id="Frame 9">
<g id="Frame 3">
<path id="The original tumbler (2PK)" d="M7.33599 2.016H4.67599V9.996H2.65999V2.016H-6.0983e-06V0.196002H7.33599V2.016ZM8.79506 9.996V0.196002H10.8111V4.06H14.2831V0.196002H16.2991V9.996H14.2831V5.908H10.8111V9.996H8.79506ZM18.5158 0.196002H25.1098V2.044H20.5318V4.074H24.2418V5.894H20.5318V8.148H25.1098V9.996H18.5158V0.196002ZM35.5662 9.996H31.9682C30.6382 9.996 30.0082 9.366 30.0082 8.036V2.156C30.0082 0.826002 30.6382 0.196002 31.9682 0.196002H35.5662C36.8962 0.196002 37.5262 0.826002 37.5262 2.156V8.036C37.5262 9.366 36.8962 9.996 35.5662 9.996ZM32.0242 2.324V7.868C32.0242 8.078 32.0942 8.148 32.3042 8.148H35.2302C35.4402 8.148 35.5102 8.078 35.5102 7.868V2.324C35.5102 2.114 35.4402 2.044 35.2302 2.044H32.3042C32.0942 2.044 32.0242 2.114 32.0242 2.324ZM46.9361 9.996H44.7661L43.1421 6.538H41.5181V9.996H39.5021V0.196002H44.6681C45.9981 0.196002 46.6281 0.826002 46.6281 2.156V4.522C46.6281 5.628 46.1941 6.258 45.2701 6.426L46.9361 9.996ZM41.5181 4.746H44.3321C44.5421 4.746 44.6121 4.676 44.6121 4.466V2.296C44.6121 2.086 44.5421 2.016 44.3321 2.016H41.5181V4.746ZM48.6076 9.996V0.196002H50.6236V9.996H48.6076ZM57.8722 3.444V2.324C57.8722 2.114 57.8022 2.044 57.5922 2.044H54.8902C54.6802 2.044 54.6102 2.114 54.6102 2.324V7.868C54.6102 8.078 54.6802 8.148 54.8902 8.148H57.5922C57.8022 8.148 57.8722 8.078 57.8722 7.868V6.356H56.0242V4.592H59.8882V8.036C59.8882 9.366 59.2582 9.996 57.9282 9.996H54.5542C53.2242 9.996 52.5942 9.366 52.5942 8.036V2.156C52.5942 0.826002 53.2242 0.196002 54.5542 0.196002H57.9282C59.2582 0.196002 59.8882 0.826002 59.8882 2.156V3.444H57.8722ZM61.8146 9.996V0.196002H63.8306V9.996H61.8146ZM71.8492 0.196002H73.8092V9.996H71.8492L67.9992 3.458V9.996H66.0392V0.196002H68.1392L71.8492 6.51V0.196002ZM81.2277 7.868H77.8677L77.2657 9.996H75.1377L78.1197 0.196002H81.0597L84.0417 9.996H81.8297L81.2277 7.868ZM80.7097 6.02L79.5477 1.904L78.3857 6.02H80.7097ZM85.3712 0.196002H87.3872V8.148H91.6152V9.996H85.3712V0.196002ZM102.424 2.016H99.7639V9.996H97.7479V2.016H95.0879V0.196002H102.424V2.016ZM111.121 0.196002V8.036C111.121 9.366 110.491 9.996 109.161 9.996H105.745C104.415 9.996 103.785 9.366 103.785 8.036V0.196002H105.801V7.868C105.801 8.078 105.871 8.148 106.081 8.148H108.825C109.035 8.148 109.105 8.078 109.105 7.868V0.196002H111.121ZM122.867 0.196002V9.996H120.879V3.752L118.765 8.694H117.281L115.167 3.752V9.996H113.235V0.196002H115.447L118.051 5.964L120.655 0.196002H122.867ZM125.074 0.196002H130.198C131.528 0.196002 132.158 0.826002 132.158 2.814C132.158 4.13 131.92 4.634 131.276 4.984C131.976 5.292 132.27 5.838 132.27 7.266C132.27 9.366 131.64 9.996 130.31 9.996H125.074V0.196002ZM127.09 4.116H129.862C130.072 4.116 130.142 4.046 130.142 3.066C130.142 2.086 130.072 2.016 129.862 2.016H127.09V4.116ZM127.09 8.176H129.974C130.184 8.176 130.254 8.106 130.254 7.014C130.254 5.922 130.184 5.852 129.974 5.852H127.09V8.176ZM134.07 0.196002H136.086V8.148H140.314V9.996H134.07V0.196002ZM141.836 0.196002H148.43V2.044H143.852V4.074H147.562V5.894H143.852V8.148H148.43V9.996H141.836V0.196002ZM157.637 9.996H155.467L153.843 6.538H152.219V9.996H150.203V0.196002H155.369C156.699 0.196002 157.329 0.826002 157.329 2.156V4.522C157.329 5.628 156.895 6.258 155.971 6.426L157.637 9.996ZM152.219 4.746H155.033C155.243 4.746 155.313 4.676 155.313 4.466V2.296C155.313 2.086 155.243 2.016 155.033 2.016H152.219V4.746ZM162.126 6.16C162.126 5.39467 162.196 4.648 162.336 3.92C162.485 3.192 162.714 2.49667 163.022 1.834C163.33 1.17134 163.717 0.560002 164.184 1.54972e-06H165.892C165.472 0.578669 165.117 1.204 164.828 1.876C164.539 2.548 164.319 3.24334 164.17 3.962C164.021 4.68067 163.946 5.40867 163.946 6.146C163.946 6.86467 164.021 7.58334 164.17 8.302C164.319 9.01134 164.534 9.69267 164.814 10.346C165.103 11.0087 165.458 11.6293 165.878 12.208H164.184C163.717 11.6573 163.33 11.0553 163.022 10.402C162.714 9.758 162.485 9.07667 162.336 8.358C162.196 7.63934 162.126 6.90667 162.126 6.16ZM169.194 3.248H167.234V2.156C167.234 0.826002 167.864 0.196002 169.194 0.196002H172.022C173.352 0.196002 173.982 0.826002 173.982 2.156V3.724C173.982 4.844 173.156 5.306 171.966 5.74L169.698 6.58C169.334 6.72 169.138 6.776 169.138 7.14V8.148H174.01V9.996H167.122V6.692C167.122 5.572 167.948 5.11 169.138 4.676L171.406 3.836C171.77 3.696 171.966 3.64 171.966 3.276V2.324C171.966 2.114 171.896 2.044 171.686 2.044H169.474C169.264 2.044 169.194 2.114 169.194 2.324V3.248ZM175.865 0.196002H181.045C182.375 0.196002 183.005 0.826002 183.005 2.156V4.76C183.005 6.09 182.375 6.72 181.045 6.72H177.881V9.996H175.865V0.196002ZM177.881 4.872H180.709C180.919 4.872 180.989 4.802 180.989 4.592V2.324C180.989 2.114 180.919 2.044 180.709 2.044H177.881V4.872ZM190.355 9.996L188.045 5.754L186.617 7.56V9.996H184.629V0.196002H186.617V4.788L190.103 0.196002H192.469L189.403 4.06L192.623 9.996H190.355ZM196.938 6.16C196.938 6.90667 196.863 7.63934 196.714 8.358C196.574 9.07667 196.35 9.758 196.042 10.402C195.743 11.0553 195.356 11.6573 194.88 12.208H193.186C193.606 11.6293 193.956 11.0087 194.236 10.346C194.525 9.69267 194.744 9.01134 194.894 8.302C195.043 7.58334 195.118 6.86467 195.118 6.146C195.118 5.40867 195.043 4.68067 194.894 3.962C194.744 3.24334 194.525 2.548 194.236 1.876C193.956 1.204 193.601 0.578669 193.172 1.54972e-06H194.88C195.356 0.560002 195.743 1.17134 196.042 1.834C196.35 2.49667 196.574 3.192 196.714 3.92C196.863 4.648 196.938 5.39467 196.938 6.16Z" fill="#333333"/>
</g>
</g>
</g>
</svg>
