<svg width="198" height="19" viewBox="0 0 198 19" fill="none" xmlns="http://www.w3.org/2000/svg">
<g id="TUMBLERWARE / fathers-day / 728&#195;&#151;90 - F3">
<g id="Frame 9">
<g id="Frame 3">
<g id="price">
<g id="$258">
<path d="M4.30581 16.36C3.61248 16.3387 2.99381 16.2747 2.44981 16.168C1.90581 16.0507 1.40981 15.8907 0.961813 15.688V13.624C1.39915 13.8373 1.92715 14.0347 2.54581 14.216C3.16448 14.3867 3.75115 14.488 4.30581 14.52V12.104C3.68715 11.8587 3.15915 11.624 2.72181 11.4C2.29515 11.176 1.94848 10.9413 1.68181 10.696C1.42581 10.44 1.23915 10.1627 1.12181 9.864C1.00448 9.55467 0.945813 9.20267 0.945813 8.808C0.945813 8.27467 1.08448 7.816 1.36181 7.432C1.64981 7.03733 2.04448 6.72267 2.54581 6.488C3.05781 6.25333 3.64448 6.10933 4.30581 6.056V4.856H5.37781V6.024C5.97515 6.04533 6.53515 6.11467 7.05781 6.232C7.59115 6.34933 8.10848 6.52 8.60981 6.744L7.87381 8.568C7.44715 8.38667 7.01515 8.248 6.57781 8.152C6.15115 8.056 5.75115 7.992 5.37781 7.96V10.264C5.95381 10.4773 6.50315 10.712 7.02581 10.968C7.54848 11.2133 7.96981 11.528 8.28981 11.912C8.62048 12.296 8.78581 12.8027 8.78581 13.432C8.78581 14.2107 8.50315 14.8613 7.93781 15.384C7.37248 15.9067 6.51915 16.2213 5.37781 16.328V17.928H4.30581V16.36ZM5.37781 14.472C5.74048 14.408 6.00715 14.3013 6.17781 14.152C6.34848 13.992 6.43381 13.7893 6.43381 13.544C6.43381 13.3947 6.39115 13.2667 6.30581 13.16C6.23115 13.0427 6.11381 12.936 5.95381 12.84C5.80448 12.7333 5.61248 12.6267 5.37781 12.52V14.472ZM4.30581 7.992C4.09248 8.024 3.91115 8.07733 3.76181 8.152C3.61248 8.216 3.49515 8.30667 3.40981 8.424C3.33515 8.53067 3.29781 8.65867 3.29781 8.808C3.29781 8.95733 3.32981 9.09067 3.39381 9.208C3.46848 9.31467 3.58048 9.42133 3.72981 9.528C3.87915 9.624 4.07115 9.72533 4.30581 9.832V7.992ZM12.7101 9.288H10.4701V8.04C10.4701 6.52 11.1901 5.8 12.7101 5.8H15.9421C17.4621 5.8 18.1821 6.52 18.1821 8.04V9.832C18.1821 11.112 17.2381 11.64 15.8781 12.136L13.2861 13.096C12.8701 13.256 12.6461 13.32 12.6461 13.736V14.888H18.2141V17H10.3421V13.224C10.3421 11.944 11.2861 11.416 12.6461 10.92L15.2381 9.96C15.6541 9.8 15.8781 9.736 15.8781 9.32V8.232C15.8781 7.992 15.7981 7.912 15.5581 7.912H13.0301C12.7901 7.912 12.7101 7.992 12.7101 8.232V9.288ZM22.5263 7.912V10.968C23.1023 10.168 23.6623 9.624 25.3103 9.624C27.1663 9.624 27.8863 10.344 27.8863 11.864V14.696C27.8863 16.216 27.1023 17 25.5823 17H22.3023C20.7823 17 20.0623 16.28 20.0623 14.76V13.528H22.3663V14.568C22.3663 14.808 22.4463 14.888 22.6863 14.888H25.2623C25.5023 14.888 25.5823 14.808 25.5823 14.568V11.992C25.5823 11.752 25.5023 11.672 24.9263 11.672C23.7423 11.672 23.1983 11.848 22.5263 12.2L20.2223 11.624V5.8H27.5663V7.912H22.5263ZM36.8043 11.272C37.6043 11.624 37.9403 12.216 37.9403 13.88C37.9403 16.28 37.2203 17 35.7003 17H31.8603C30.3403 17 29.6203 16.28 29.6203 13.88C29.6203 12.216 29.9563 11.624 30.7563 11.272C30.0203 10.872 29.7483 10.328 29.7483 8.792C29.7483 6.52 30.4683 5.8 31.9883 5.8H35.5723C37.0923 5.8 37.8123 6.52 37.8123 8.792C37.8123 10.328 37.5403 10.872 36.8043 11.272ZM35.1883 7.88H32.3723C32.1323 7.88 32.0523 7.96 32.0523 9.064C32.0523 10.168 32.1323 10.248 32.3723 10.248H35.1883C35.4283 10.248 35.5083 10.168 35.5083 9.064C35.5083 7.96 35.4283 7.88 35.1883 7.88ZM32.2443 14.92H35.3163C35.5563 14.92 35.6363 14.84 35.6363 13.608C35.6363 12.376 35.5563 12.296 35.3163 12.296H32.2443C32.0043 12.296 31.9243 12.376 31.9243 13.608C31.9243 14.84 32.0043 14.92 32.2443 14.92Z" fill="#333333"/>
<path d="M0.257812 11.752H9.41406V12.552H0.257812V11.752ZM9.41406 11.816H38.7403V12.616H9.41406V11.816Z" fill="#333333"/>
</g>
<path id="$219.30" d="M59.5402 16.36C58.8469 16.3387 58.2282 16.2747 57.6842 16.168C57.1402 16.0507 56.6442 15.8907 56.1962 15.688V13.624C56.6335 13.8373 57.1615 14.0347 57.7802 14.216C58.3989 14.3867 58.9855 14.488 59.5402 14.52V12.104C58.9215 11.8587 58.3935 11.624 57.9562 11.4C57.5295 11.176 57.1829 10.9413 56.9162 10.696C56.6602 10.44 56.4735 10.1627 56.3562 9.864C56.2389 9.55467 56.1802 9.20267 56.1802 8.808C56.1802 8.27467 56.3189 7.816 56.5962 7.432C56.8842 7.03733 57.2789 6.72267 57.7802 6.488C58.2922 6.25333 58.8789 6.10933 59.5402 6.056V4.856H60.6122V6.024C61.2095 6.04533 61.7695 6.11467 62.2922 6.232C62.8255 6.34933 63.3429 6.52 63.8442 6.744L63.1082 8.568C62.6815 8.38667 62.2495 8.248 61.8122 8.152C61.3855 8.056 60.9855 7.992 60.6122 7.96V10.264C61.1882 10.4773 61.7375 10.712 62.2602 10.968C62.7829 11.2133 63.2042 11.528 63.5242 11.912C63.8549 12.296 64.0202 12.8027 64.0202 13.432C64.0202 14.2107 63.7375 14.8613 63.1722 15.384C62.6069 15.9067 61.7535 16.2213 60.6122 16.328V17.928H59.5402V16.36ZM60.6122 14.472C60.9749 14.408 61.2415 14.3013 61.4122 14.152C61.5829 13.992 61.6682 13.7893 61.6682 13.544C61.6682 13.3947 61.6255 13.2667 61.5402 13.16C61.4655 13.0427 61.3482 12.936 61.1882 12.84C61.0389 12.7333 60.8469 12.6267 60.6122 12.52V14.472ZM59.5402 7.992C59.3269 8.024 59.1455 8.07733 58.9962 8.152C58.8469 8.216 58.7295 8.30667 58.6442 8.424C58.5695 8.53067 58.5322 8.65867 58.5322 8.808C58.5322 8.95733 58.5642 9.09067 58.6282 9.208C58.7029 9.31467 58.8149 9.42133 58.9642 9.528C59.1135 9.624 59.3055 9.72533 59.5402 9.832V7.992ZM67.9444 9.288H65.7044V8.04C65.7044 6.52 66.4244 5.8 67.9444 5.8H71.1764C72.6964 5.8 73.4164 6.52 73.4164 8.04V9.832C73.4164 11.112 72.4724 11.64 71.1124 12.136L68.5204 13.096C68.1044 13.256 67.8804 13.32 67.8804 13.736V14.888H73.4484V17H65.5764V13.224C65.5764 11.944 66.5204 11.416 67.8804 10.92L70.4724 9.96C70.8884 9.8 71.1124 9.736 71.1124 9.32V8.232C71.1124 7.992 71.0324 7.912 70.7924 7.912H68.2644C68.0244 7.912 67.9444 7.992 67.9444 8.232V9.288ZM77.2007 17V8.2L74.9447 8.936V7.016L77.6807 5.8H79.5047V17H77.2007ZM84.3686 13.704V14.568C84.3686 14.776 84.4806 14.888 84.6886 14.888H87.2646C87.4726 14.888 87.5846 14.776 87.5846 14.568V11.48C87.0086 12.28 86.3526 12.824 84.6086 12.824C82.6566 12.824 81.9366 12.104 81.9366 10.584V8.04C81.9366 6.52 82.6566 5.8 84.1766 5.8H87.6486C89.1686 5.8 89.8886 6.52 89.8886 8.04V14.76C89.8886 16.28 89.1686 17 87.6486 17H84.3046C82.7846 17 82.0646 16.28 82.0646 14.76V13.704H84.3686ZM87.5846 10.248V8.232C87.5846 7.992 87.5046 7.912 87.2646 7.912H84.5606C84.3206 7.912 84.2406 7.992 84.2406 8.232V10.456C84.2406 10.696 84.3206 10.776 84.9926 10.776C86.2726 10.776 86.9126 10.6 87.5846 10.248ZM94.0378 17H91.4778V14.504H94.0378V17ZM97.6728 13.544V13.608C97.6728 14.84 97.7528 14.92 97.9928 14.92H100.809C101.049 14.92 101.129 14.84 101.129 13.608C101.129 12.376 101.049 12.296 100.809 12.296H98.1368V10.248H100.681C100.921 10.248 101.001 10.168 101.001 9.064C101.001 7.96 100.921 7.88 100.681 7.88H98.1208C97.8808 7.88 97.8008 7.96 97.8008 9.064V9.256H95.4968V8.888C95.4968 6.52 96.2168 5.8 97.7368 5.8H101.065C102.585 5.8 103.305 6.52 103.305 8.792C103.305 10.328 103.033 10.872 102.297 11.272C103.097 11.624 103.433 12.216 103.433 13.88C103.433 16.28 102.713 17 101.193 17H97.6088C96.0888 17 95.3688 16.28 95.3688 13.88V13.544H97.6728ZM111.283 17H107.459C105.939 17 105.219 16.28 105.219 14.76V8.04C105.219 6.52 105.939 5.8 107.459 5.8H111.283C112.803 5.8 113.523 6.52 113.523 8.04V14.76C113.523 16.28 112.803 17 111.283 17ZM107.523 8.232V14.568C107.523 14.808 107.603 14.888 107.843 14.888H110.899C111.139 14.888 111.219 14.808 111.219 14.568V8.232C111.219 7.992 111.139 7.912 110.899 7.912H107.843C107.603 7.912 107.523 7.992 107.523 8.232Z" fill="#F15A29"/>
</g>
</g>
</g>
</g>
</svg>
