<svg width="174" height="12" viewBox="0 0 174 12" fill="none" xmlns="http://www.w3.org/2000/svg">
<g id="TUMBLERWARE / fathers-day / 300&#195;&#151;250 - F1">
<g id="details">
<path id="Tumbler GIft bundle" d="M8.384 2.08001H5.344V11.2H3.04V2.08001H3.8743e-07V1.14441e-05H8.384V2.08001ZM18.3235 1.14441e-05V8.96001C18.3235 10.48 17.6035 11.2 16.0835 11.2H12.1795C10.6595 11.2 9.9395 10.48 9.9395 8.96001V1.14441e-05H12.2435V8.76801C12.2435 9.00801 12.3235 9.08801 12.5635 9.08801H15.6995C15.9395 9.08801 16.0195 9.00801 16.0195 8.76801V1.14441e-05H18.3235ZM31.747 1.14441e-05V11.2H29.475V4.06401L27.059 9.71201H25.363L22.947 4.06401V11.2H20.739V1.14441e-05H23.267L26.243 6.59201L29.219 1.14441e-05H31.747ZM34.2703 1.14441e-05H40.1263C41.6463 1.14441e-05 42.3663 0.720012 42.3663 2.99201C42.3663 4.49601 42.0943 5.07201 41.3583 5.47201C42.1583 5.82401 42.4943 6.44801 42.4943 8.08001C42.4943 10.48 41.7743 11.2 40.2543 11.2H34.2703V1.14441e-05ZM36.5743 4.48001H39.7423C39.9823 4.48001 40.0623 4.40001 40.0623 3.28001C40.0623 2.16001 39.9823 2.08001 39.7423 2.08001H36.5743V4.48001ZM36.5743 9.12001H39.8703C40.1103 9.12001 40.1903 9.04001 40.1903 7.79201C40.1903 6.54401 40.1103 6.46401 39.8703 6.46401H36.5743V9.12001ZM44.5515 1.14441e-05H46.8555V9.08801H51.6875V11.2H44.5515V1.14441e-05ZM53.4265 1.14441e-05H60.9625V2.11201H55.7305V4.43201H59.9705V6.51201H55.7305V9.08801H60.9625V11.2H53.4265V1.14441e-05ZM71.485 11.2H69.005L67.149 7.24801H65.293V11.2H62.989V1.14441e-05H68.893C70.413 1.14441e-05 71.133 0.720012 71.133 2.24001V4.94401C71.133 6.20801 70.637 6.92801 69.581 7.12001L71.485 11.2ZM65.293 5.20001H68.509C68.749 5.20001 68.829 5.12001 68.829 4.88001V2.40001C68.829 2.16001 68.749 2.08001 68.509 2.08001H65.293V5.20001ZM82.999 3.71201V2.43201C82.999 2.19201 82.919 2.11201 82.679 2.11201H79.591C79.351 2.11201 79.271 2.19201 79.271 2.43201V8.76801C79.271 9.00801 79.351 9.08801 79.591 9.08801H82.679C82.919 9.08801 82.999 9.00801 82.999 8.76801V7.04001H80.887V5.02401H85.303V8.96001C85.303 10.48 84.583 11.2 83.063 11.2H79.207C77.687 11.2 76.967 10.48 76.967 8.96001V2.24001C76.967 0.720012 77.687 1.14441e-05 79.207 1.14441e-05H83.063C84.583 1.14441e-05 85.303 0.720012 85.303 2.24001V3.71201H82.999ZM87.5046 11.2V1.14441e-05H89.8086V11.2H87.5046ZM92.3328 11.2V1.14441e-05H99.8688V2.11201H94.6368V4.52801H98.8768V6.60801H94.6368V11.2H92.3328ZM109.134 2.08001H106.094V11.2H103.79V2.08001H100.75V1.14441e-05H109.134V2.08001ZM114.255 1.14441e-05H120.111C121.631 1.14441e-05 122.351 0.720012 122.351 2.99201C122.351 4.49601 122.079 5.07201 121.343 5.47201C122.143 5.82401 122.479 6.44801 122.479 8.08001C122.479 10.48 121.759 11.2 120.239 11.2H114.255V1.14441e-05ZM116.559 4.48001H119.727C119.967 4.48001 120.047 4.40001 120.047 3.28001C120.047 2.16001 119.967 2.08001 119.727 2.08001H116.559V4.48001ZM116.559 9.12001H119.855C120.095 9.12001 120.175 9.04001 120.175 7.79201C120.175 6.54401 120.095 6.46401 119.855 6.46401H116.559V9.12001ZM132.808 1.14441e-05V8.96001C132.808 10.48 132.088 11.2 130.568 11.2H126.664C125.144 11.2 124.424 10.48 124.424 8.96001V1.14441e-05H126.728V8.76801C126.728 9.00801 126.808 9.08801 127.048 9.08801H130.184C130.424 9.08801 130.504 9.00801 130.504 8.76801V1.14441e-05H132.808ZM141.863 1.14441e-05H144.103V11.2H141.863L137.463 3.72801V11.2H135.223V1.14441e-05H137.623L141.863 7.21601V1.14441e-05ZM146.63 1.14441e-05H152.758C154.278 1.14441e-05 154.998 0.720012 154.998 2.24001V8.96001C154.998 10.48 154.278 11.2 152.758 11.2H146.63V1.14441e-05ZM148.934 9.08801H152.374C152.614 9.08801 152.694 9.00801 152.694 8.76801V2.43201C152.694 2.19201 152.614 2.11201 152.374 2.11201H148.934V9.08801ZM157.255 1.14441e-05H159.559V9.08801H164.391V11.2H157.255V1.14441e-05ZM166.13 1.14441e-05H173.666V2.11201H168.434V4.43201H172.674V6.51201H168.434V9.08801H173.666V11.2H166.13V1.14441e-05Z" fill="#333333"/>
</g>
</g>
</svg>
