<svg width="88" height="19" viewBox="0 0 88 19" fill="none" xmlns="http://www.w3.org/2000/svg">
<g id="TUMBLERWARE / fathers-day / 300&#195;&#151;250 - F1">
<g id="details">
<g id="price">
<g id="$189">
<path d="M5.71988 16.36C5.02654 16.3387 4.40788 16.2747 3.86388 16.168C3.31988 16.0507 2.82388 15.8907 2.37588 15.688V13.624C2.81321 13.8373 3.34121 14.0347 3.95988 14.216C4.57854 14.3867 5.16521 14.488 5.71988 14.52V12.104C5.10121 11.8587 4.57321 11.624 4.13588 11.4C3.70921 11.176 3.36254 10.9413 3.09588 10.696C2.83988 10.44 2.65321 10.1627 2.53588 9.864C2.41854 9.55467 2.35988 9.20267 2.35988 8.808C2.35988 8.27467 2.49854 7.816 2.77588 7.432C3.06388 7.03733 3.45854 6.72267 3.95988 6.488C4.47188 6.25333 5.05854 6.10933 5.71988 6.056V4.856H6.79188V6.024C7.38921 6.04533 7.94921 6.11467 8.47188 6.232C9.00521 6.34933 9.52254 6.52 10.0239 6.744L9.28788 8.568C8.86121 8.38667 8.42921 8.248 7.99188 8.152C7.56521 8.056 7.16521 7.992 6.79188 7.96V10.264C7.36788 10.4773 7.91721 10.712 8.43988 10.968C8.96254 11.2133 9.38388 11.528 9.70388 11.912C10.0345 12.296 10.1999 12.8027 10.1999 13.432C10.1999 14.2107 9.91721 14.8613 9.35188 15.384C8.78654 15.9067 7.93321 16.2213 6.79188 16.328V17.928H5.71988V16.36ZM6.79188 14.472C7.15454 14.408 7.42121 14.3013 7.59188 14.152C7.76254 13.992 7.84788 13.7893 7.84788 13.544C7.84788 13.3947 7.80521 13.2667 7.71988 13.16C7.64521 13.0427 7.52788 12.936 7.36788 12.84C7.21854 12.7333 7.02654 12.6267 6.79188 12.52V14.472ZM5.71988 7.992C5.50654 8.024 5.32521 8.07733 5.17588 8.152C5.02654 8.216 4.90921 8.30667 4.82388 8.424C4.74921 8.53067 4.71188 8.65867 4.71188 8.808C4.71188 8.95733 4.74388 9.09067 4.80788 9.208C4.88254 9.31467 4.99454 9.42133 5.14388 9.528C5.29321 9.624 5.48521 9.72533 5.71988 9.832V7.992ZM13.7241 17V8.2L11.4681 8.936V7.016L14.2041 5.8H16.0281V17H13.7241ZM25.484 11.272C26.284 11.624 26.62 12.216 26.62 13.88C26.62 16.28 25.9 17 24.38 17H20.54C19.02 17 18.3 16.28 18.3 13.88C18.3 12.216 18.636 11.624 19.436 11.272C18.7 10.872 18.428 10.328 18.428 8.792C18.428 6.52 19.148 5.8 20.668 5.8H24.252C25.772 5.8 26.492 6.52 26.492 8.792C26.492 10.328 26.22 10.872 25.484 11.272ZM23.868 7.88H21.052C20.812 7.88 20.732 7.96 20.732 9.064C20.732 10.168 20.812 10.248 21.052 10.248H23.868C24.108 10.248 24.188 10.168 24.188 9.064C24.188 7.96 24.108 7.88 23.868 7.88ZM20.924 14.92H23.996C24.236 14.92 24.316 14.84 24.316 13.608C24.316 12.376 24.236 12.296 23.996 12.296H20.924C20.684 12.296 20.604 12.376 20.604 13.608C20.604 14.84 20.684 14.92 20.924 14.92ZM30.8139 13.704V14.568C30.8139 14.776 30.9259 14.888 31.1339 14.888H33.7099C33.9179 14.888 34.0299 14.776 34.0299 14.568V11.48C33.4539 12.28 32.7979 12.824 31.0539 12.824C29.1019 12.824 28.3819 12.104 28.3819 10.584V8.04C28.3819 6.52 29.1019 5.8 30.6219 5.8H34.0939C35.6139 5.8 36.3339 6.52 36.3339 8.04V14.76C36.3339 16.28 35.6139 17 34.0939 17H30.7499C29.2299 17 28.5099 16.28 28.5099 14.76V13.704H30.8139ZM34.0299 10.248V8.232C34.0299 7.992 33.9499 7.912 33.7099 7.912H31.0059C30.7659 7.912 30.6859 7.992 30.6859 8.232V10.456C30.6859 10.696 30.7659 10.776 31.4379 10.776C32.7179 10.776 33.3579 10.6 34.0299 10.248Z" fill="#333333"/>
<path d="M1.67188 11.752H10.8281V12.552H1.67188V11.752ZM10.8281 11.816H37.3259V12.616H10.8281V11.816Z" fill="#333333"/>
</g>
<path id="$161" d="M59.3449 16.36C58.6515 16.3387 58.0329 16.2747 57.4889 16.168C56.9449 16.0507 56.4489 15.8907 56.0009 15.688V13.624C56.4382 13.8373 56.9662 14.0347 57.5849 14.216C58.2035 14.3867 58.7902 14.488 59.3449 14.52V12.104C58.7262 11.8587 58.1982 11.624 57.7609 11.4C57.3342 11.176 56.9875 10.9413 56.7209 10.696C56.4649 10.44 56.2782 10.1627 56.1609 9.864C56.0435 9.55467 55.9849 9.20267 55.9849 8.808C55.9849 8.27467 56.1235 7.816 56.4009 7.432C56.6889 7.03733 57.0835 6.72267 57.5849 6.488C58.0969 6.25333 58.6835 6.10933 59.3449 6.056V4.856H60.4169V6.024C61.0142 6.04533 61.5742 6.11467 62.0969 6.232C62.6302 6.34933 63.1475 6.52 63.6489 6.744L62.9129 8.568C62.4862 8.38667 62.0542 8.248 61.6169 8.152C61.1902 8.056 60.7902 7.992 60.4169 7.96V10.264C60.9929 10.4773 61.5422 10.712 62.0649 10.968C62.5875 11.2133 63.0089 11.528 63.3289 11.912C63.6595 12.296 63.8249 12.8027 63.8249 13.432C63.8249 14.2107 63.5422 14.8613 62.9769 15.384C62.4115 15.9067 61.5582 16.2213 60.4169 16.328V17.928H59.3449V16.36ZM60.4169 14.472C60.7795 14.408 61.0462 14.3013 61.2169 14.152C61.3875 13.992 61.4729 13.7893 61.4729 13.544C61.4729 13.3947 61.4302 13.2667 61.3449 13.16C61.2702 13.0427 61.1529 12.936 60.9929 12.84C60.8435 12.7333 60.6515 12.6267 60.4169 12.52V14.472ZM59.3449 7.992C59.1315 8.024 58.9502 8.07733 58.8009 8.152C58.6515 8.216 58.5342 8.30667 58.4489 8.424C58.3742 8.53067 58.3369 8.65867 58.3369 8.808C58.3369 8.95733 58.3689 9.09067 58.4329 9.208C58.5075 9.31467 58.6195 9.42133 58.7689 9.528C58.9182 9.624 59.1102 9.72533 59.3449 9.832V7.992ZM67.3491 17V8.2L65.0931 8.936V7.016L67.8291 5.8H69.6531V17H67.3491ZM77.637 9.096V8.232C77.637 8.024 77.525 7.912 77.317 7.912H74.741C74.533 7.912 74.421 8.024 74.421 8.232V11.272C74.997 10.472 75.653 9.928 77.413 9.928C79.349 9.928 80.069 10.648 80.069 12.168V14.76C80.069 16.28 79.349 17 77.829 17H74.357C72.837 17 72.117 16.28 72.117 14.76V8.04C72.117 6.52 72.837 5.8 74.357 5.8H77.701C79.221 5.8 79.941 6.52 79.941 8.04V9.096H77.637ZM74.421 12.504V14.568C74.421 14.808 74.501 14.888 74.741 14.888H77.445C77.685 14.888 77.765 14.808 77.765 14.568V12.296C77.765 12.056 77.685 11.976 77.013 11.976C75.733 11.976 75.093 12.152 74.421 12.504ZM83.9273 17V8.2L81.6713 8.936V7.016L84.4073 5.8H86.2313V17H83.9273Z" fill="#F15A29"/>
</g>
</g>
</g>
</svg>
