<svg width="100" height="12" viewBox="0 0 100 12" fill="none" xmlns="http://www.w3.org/2000/svg">
<g id="TUMBLERWARE / fathers-day / 300&#195;&#151;250 - F2">
<g id="details">
<path id="STARTER SET" d="M5.72799 3.52001V2.40001C5.72799 2.16001 5.64799 2.08001 5.40799 2.08001H2.65599C2.41599 2.08001 2.33599 2.16001 2.33599 2.40001V3.61601C2.33599 3.96801 2.46399 4.06401 2.87999 4.16001L5.85599 4.80001C7.26399 5.10401 8.15999 5.66401 8.15999 7.10401V8.96001C8.15999 10.48 7.43999 11.2 5.91999 11.2H2.23999C0.719991 11.2 -9.0003e-06 10.48 -9.0003e-06 8.96001V7.55201H2.23999V8.80001C2.23999 9.04001 2.31999 9.12001 2.55999 9.12001H5.53599C5.77599 9.12001 5.85599 9.04001 5.85599 8.80001V7.45601C5.85599 7.10401 5.72799 7.00801 5.31199 6.91201L2.33599 6.27201C0.927991 5.96801 0.031991 5.40801 0.031991 3.96801V2.24001C0.031991 0.720012 0.751991 1.14441e-05 2.27199 1.14441e-05H5.72799C7.24799 1.14441e-05 7.96799 0.720012 7.96799 2.24001V3.52001H5.72799ZM17.7154 2.08001H14.6754V11.2H12.3714V2.08001H9.33137V1.14441e-05H17.7154V2.08001ZM24.0536 8.76801H20.2136L19.5256 11.2H17.0936L20.5016 1.14441e-05H23.8616L27.2696 11.2H24.7416L24.0536 8.76801ZM23.4616 6.65601L22.1336 1.95201L20.8056 6.65601H23.4616ZM37.2851 11.2H34.8051L32.9491 7.24801H31.0931V11.2H28.7891V1.14441e-05H34.6931C36.2131 1.14441e-05 36.9331 0.720012 36.9331 2.24001V4.94401C36.9331 6.20801 36.4371 6.92801 35.3811 7.12001L37.2851 11.2ZM31.0931 5.20001H34.3091C34.5491 5.20001 34.6291 5.12001 34.6291 4.88001V2.40001C34.6291 2.16001 34.5491 2.08001 34.3091 2.08001H31.0931V5.20001ZM46.5591 2.08001H43.5191V11.2H41.2151V2.08001H38.1751V1.14441e-05H46.5591V2.08001ZM48.2266 1.14441e-05H55.7626V2.11201H50.5306V4.43201H54.7706V6.51201H50.5306V9.08801H55.7626V11.2H48.2266V1.14441e-05ZM66.2851 11.2H63.8051L61.9491 7.24801H60.0931V11.2H57.7891V1.14441e-05H63.6931C65.2131 1.14441e-05 65.9331 0.720012 65.9331 2.24001V4.94401C65.9331 6.20801 65.4371 6.92801 64.3811 7.12001L66.2851 11.2ZM60.0931 5.20001H63.3091C63.5491 5.20001 63.6291 5.12001 63.6291 4.88001V2.40001C63.6291 2.16001 63.5491 2.08001 63.3091 2.08001H60.0931V5.20001ZM77.4311 3.52001V2.40001C77.4311 2.16001 77.3511 2.08001 77.1111 2.08001H74.3591C74.1191 2.08001 74.0391 2.16001 74.0391 2.40001V3.61601C74.0391 3.96801 74.1671 4.06401 74.5831 4.16001L77.5591 4.80001C78.9671 5.10401 79.8631 5.66401 79.8631 7.10401V8.96001C79.8631 10.48 79.1431 11.2 77.6231 11.2H73.9431C72.4231 11.2 71.7031 10.48 71.7031 8.96001V7.55201H73.9431V8.80001C73.9431 9.04001 74.0231 9.12001 74.2631 9.12001H77.2391C77.4791 9.12001 77.5591 9.04001 77.5591 8.80001V7.45601C77.5591 7.10401 77.4311 7.00801 77.0151 6.91201L74.0391 6.27201C72.6311 5.96801 71.7351 5.40801 71.7351 3.96801V2.24001C71.7351 0.720012 72.4551 1.14441e-05 73.9751 1.14441e-05H77.4311C78.9511 1.14441e-05 79.6711 0.720012 79.6711 2.24001V3.52001H77.4311ZM82.0547 1.14441e-05H89.5907V2.11201H84.3587V4.43201H88.5987V6.51201H84.3587V9.08801H89.5907V11.2H82.0547V1.14441e-05ZM99.1372 2.08001H96.0972V11.2H93.7932V2.08001H90.7532V1.14441e-05H99.1372V2.08001Z" fill="#333333"/>
</g>
</g>
</svg>
