<svg width="34" height="14" viewBox="0 0 34 14" fill="none" xmlns="http://www.w3.org/2000/svg">
<g id="TUMBLERWARE / fathers-day / 300&#195;&#151;250 - F3">
<g id="details">
<path id="$129" d="M3.36001 11.504C2.66668 11.4826 2.04801 11.4186 1.50401 11.312C0.960012 11.1946 0.464012 11.0346 0.0160118 10.832V8.76798C0.453345 8.98132 0.981345 9.17865 1.60001 9.35998C2.21868 9.53065 2.80535 9.63198 3.36001 9.66398V7.24798C2.74135 7.00265 2.21335 6.76798 1.77601 6.54398C1.34935 6.31998 1.00268 6.08531 0.736012 5.83998C0.480012 5.58398 0.293345 5.30665 0.176012 5.00798C0.0586784 4.69865 1.17421e-05 4.34665 1.17421e-05 3.95198C1.17421e-05 3.41865 0.138678 2.95998 0.416012 2.57598C0.704012 2.18131 1.09868 1.86665 1.60001 1.63198C2.11201 1.39732 2.69868 1.25331 3.36001 1.19998V-1.90735e-05H4.43201V1.16798C5.02935 1.18931 5.58935 1.25865 6.11201 1.37598C6.64535 1.49331 7.16268 1.66398 7.66401 1.88798L6.92801 3.71198C6.50135 3.53065 6.06935 3.39198 5.63201 3.29598C5.20535 3.19998 4.80535 3.13598 4.43201 3.10398V5.40798C5.00801 5.62131 5.55735 5.85598 6.08001 6.11198C6.60268 6.35732 7.02401 6.67198 7.34401 7.05598C7.67468 7.43998 7.84001 7.94665 7.84001 8.57598C7.84001 9.35465 7.55735 10.0053 6.99201 10.528C6.42668 11.0506 5.57335 11.3653 4.43201 11.472V13.072H3.36001V11.504ZM4.43201 9.61598C4.79468 9.55198 5.06135 9.44532 5.23201 9.29598C5.40268 9.13598 5.48801 8.93332 5.48801 8.68798C5.48801 8.53865 5.44535 8.41065 5.36001 8.30398C5.28535 8.18665 5.16801 8.07998 5.00801 7.98398C4.85868 7.87732 4.66668 7.77065 4.43201 7.66398V9.61598ZM3.36001 3.13598C3.14668 3.16798 2.96535 3.22132 2.81601 3.29598C2.66668 3.35998 2.54935 3.45065 2.46401 3.56798C2.38935 3.67465 2.35201 3.80265 2.35201 3.95198C2.35201 4.10131 2.38401 4.23465 2.44801 4.35198C2.52268 4.45865 2.63468 4.56531 2.78401 4.67198C2.93335 4.76798 3.12535 4.86931 3.36001 4.97598V3.13598ZM11.3643 12.144V3.34398L9.10826 4.07998V2.15998L11.8443 0.943981H13.6683V12.144H11.3643ZM18.4361 4.43198H16.1961V3.18398C16.1961 1.66398 16.9161 0.943981 18.4361 0.943981H21.6681C23.1881 0.943981 23.9081 1.66398 23.9081 3.18398V4.97598C23.9081 6.25598 22.9641 6.78398 21.6041 7.27998L19.0121 8.23998C18.5961 8.39998 18.3721 8.46398 18.3721 8.87998V10.032H23.9401V12.144H16.0681V8.36798C16.0681 7.08798 17.0121 6.55998 18.3721 6.06398L20.9641 5.10398C21.3801 4.94398 21.6041 4.87998 21.6041 4.46398V3.37598C21.6041 3.13598 21.5241 3.05598 21.2841 3.05598H18.7561C18.5161 3.05598 18.4361 3.13598 18.4361 3.37598V4.43198ZM28.1884 8.84798V9.71198C28.1884 9.91998 28.3004 10.032 28.5084 10.032H31.0844C31.2924 10.032 31.4044 9.91998 31.4044 9.71198V6.62398C30.8284 7.42398 30.1724 7.96798 28.4284 7.96798C26.4764 7.96798 25.7564 7.24798 25.7564 5.72798V3.18398C25.7564 1.66398 26.4764 0.943981 27.9964 0.943981H31.4684C32.9884 0.943981 33.7084 1.66398 33.7084 3.18398V9.90398C33.7084 11.424 32.9884 12.144 31.4684 12.144H28.1244C26.6044 12.144 25.8844 11.424 25.8844 9.90398V8.84798H28.1884ZM31.4044 5.39198V3.37598C31.4044 3.13598 31.3244 3.05598 31.0844 3.05598H28.3804C28.1404 3.05598 28.0604 3.13598 28.0604 3.37598V5.59998C28.0604 5.83998 28.1404 5.91998 28.8124 5.91998C30.0924 5.91998 30.7324 5.74398 31.4044 5.39198Z" fill="#F15A29"/>
</g>
</g>
</svg>
