<svg width="181" height="12" viewBox="0 0 181 12" fill="none" xmlns="http://www.w3.org/2000/svg">
<g id="TUMBLERWARE / fathers-day / 300&#195;&#151;250 - F3">
<g id="details">
<path id="The original tumbler" d="M8.38398 2.08001H5.34398V11.2H3.03998V2.08001H-2.44081e-05V1.14441e-05H8.38398V2.08001ZM10.0515 11.2V1.14441e-05H12.3555V4.41601H16.3235V1.14441e-05H18.6275V11.2H16.3235V6.52801H12.3555V11.2H10.0515ZM21.1609 1.14441e-05H28.6969V2.11201H23.4649V4.43201H27.7049V6.51201H23.4649V9.08801H28.6969V11.2H21.1609V1.14441e-05ZM40.6471 11.2H36.5351C35.0151 11.2 34.2951 10.48 34.2951 8.96001V2.24001C34.2951 0.720012 35.0151 1.14441e-05 36.5351 1.14441e-05H40.6471C42.1671 1.14441e-05 42.8871 0.720012 42.8871 2.24001V8.96001C42.8871 10.48 42.1671 11.2 40.6471 11.2ZM36.5991 2.43201V8.76801C36.5991 9.00801 36.6791 9.08801 36.9191 9.08801H40.2631C40.5031 9.08801 40.5831 9.00801 40.5831 8.76801V2.43201C40.5831 2.19201 40.5031 2.11201 40.2631 2.11201H36.9191C36.6791 2.11201 36.5991 2.19201 36.5991 2.43201ZM53.6412 11.2H51.1612L49.3052 7.24801H47.4492V11.2H45.1452V1.14441e-05H51.0492C52.5692 1.14441e-05 53.2892 0.720012 53.2892 2.24001V4.94401C53.2892 6.20801 52.7932 6.92801 51.7372 7.12001L53.6412 11.2ZM47.4492 5.20001H50.6652C50.9052 5.20001 50.9852 5.12001 50.9852 4.88001V2.40001C50.9852 2.16001 50.9052 2.08001 50.6652 2.08001H47.4492V5.20001ZM55.5515 11.2V1.14441e-05H57.8555V11.2H55.5515ZM66.1396 3.71201V2.43201C66.1396 2.19201 66.0596 2.11201 65.8196 2.11201H62.7316C62.4916 2.11201 62.4116 2.19201 62.4116 2.43201V8.76801C62.4116 9.00801 62.4916 9.08801 62.7316 9.08801H65.8196C66.0596 9.08801 66.1396 9.00801 66.1396 8.76801V7.04001H64.0276V5.02401H68.4436V8.96001C68.4436 10.48 67.7236 11.2 66.2036 11.2H62.3476C60.8276 11.2 60.1076 10.48 60.1076 8.96001V2.24001C60.1076 0.720012 60.8276 1.14441e-05 62.3476 1.14441e-05H66.2036C67.7236 1.14441e-05 68.4436 0.720012 68.4436 2.24001V3.71201H66.1396ZM70.6452 11.2V1.14441e-05H72.9492V11.2H70.6452ZM82.1134 1.14441e-05H84.3534V11.2H82.1134L77.7134 3.72801V11.2H75.4734V1.14441e-05H77.8734L82.1134 7.21601V1.14441e-05ZM92.8316 8.76801H88.9916L88.3036 11.2H85.8716L89.2796 1.14441e-05H92.6396L96.0476 11.2H93.5196L92.8316 8.76801ZM92.2396 6.65601L90.9116 1.95201L89.5836 6.65601H92.2396ZM97.5671 1.14441e-05H99.8711V9.08801H104.703V11.2H97.5671V1.14441e-05ZM117.056 2.08001H114.016V11.2H111.712V2.08001H108.672V1.14441e-05H117.056V2.08001ZM126.995 1.14441e-05V8.96001C126.995 10.48 126.275 11.2 124.755 11.2H120.851C119.331 11.2 118.611 10.48 118.611 8.96001V1.14441e-05H120.915V8.76801C120.915 9.00801 120.995 9.08801 121.235 9.08801H124.371C124.611 9.08801 124.691 9.00801 124.691 8.76801V1.14441e-05H126.995ZM140.419 1.14441e-05V11.2H138.147V4.06401L135.731 9.71201H134.035L131.619 4.06401V11.2H129.411V1.14441e-05H131.939L134.915 6.59201L137.891 1.14441e-05H140.419ZM142.942 1.14441e-05H148.798C150.318 1.14441e-05 151.038 0.720012 151.038 2.99201C151.038 4.49601 150.766 5.07201 150.03 5.47201C150.83 5.82401 151.166 6.44801 151.166 8.08001C151.166 10.48 150.446 11.2 148.926 11.2H142.942V1.14441e-05ZM145.246 4.48001H148.414C148.654 4.48001 148.734 4.40001 148.734 3.28001C148.734 2.16001 148.654 2.08001 148.414 2.08001H145.246V4.48001ZM145.246 9.12001H148.542C148.782 9.12001 148.862 9.04001 148.862 7.79201C148.862 6.54401 148.782 6.46401 148.542 6.46401H145.246V9.12001ZM153.223 1.14441e-05H155.527V9.08801H160.359V11.2H153.223V1.14441e-05ZM162.098 1.14441e-05H169.634V2.11201H164.402V4.43201H168.642V6.51201H164.402V9.08801H169.634V11.2H162.098V1.14441e-05ZM180.157 11.2H177.677L175.821 7.24801H173.965V11.2H171.661V1.14441e-05H177.565C179.085 1.14441e-05 179.805 0.720012 179.805 2.24001V4.94401C179.805 6.20801 179.309 6.92801 178.253 7.12001L180.157 11.2ZM173.965 5.20001H177.181C177.421 5.20001 177.501 5.12001 177.501 4.88001V2.40001C177.501 2.16001 177.421 2.08001 177.181 2.08001H173.965V5.20001Z" fill="#333333"/>
</g>
</g>
</svg>
