<svg width="85" height="29" viewBox="0 0 85 29" fill="none" xmlns="http://www.w3.org/2000/svg">
<g id="TUMBLERWARE / fathers-day / 300&#195;&#151;250 - F4">
<g id="CTA">
<rect width="85" height="29" fill="#F15A29"/>
<path id="SHOP NOW" d="M18.8187 13.72V12.95C18.8187 12.785 18.7637 12.73 18.5987 12.73H16.7067C16.5417 12.73 16.4867 12.785 16.4867 12.95V13.786C16.4867 14.028 16.5747 14.094 16.8607 14.16L18.9067 14.6C19.8747 14.809 20.4907 15.194 20.4907 16.184V17.46C20.4907 18.505 19.9957 19 18.9507 19H16.4207C15.3757 19 14.8807 18.505 14.8807 17.46V16.492H16.4207V17.35C16.4207 17.515 16.4757 17.57 16.6407 17.57H18.6867C18.8517 17.57 18.9067 17.515 18.9067 17.35V16.426C18.9067 16.184 18.8187 16.118 18.5327 16.052L16.4867 15.612C15.5187 15.403 14.9027 15.018 14.9027 14.028V12.84C14.9027 11.795 15.3977 11.3 16.4427 11.3H18.8187C19.8637 11.3 20.3587 11.795 20.3587 12.84V13.72H18.8187ZM21.9974 19V11.3H23.5814V14.336H26.3094V11.3H27.8934V19H26.3094V15.788H23.5814V19H21.9974ZM33.8151 19H30.9881C29.9431 19 29.4481 18.505 29.4481 17.46V12.84C29.4481 11.795 29.9431 11.3 30.9881 11.3H33.8151C34.8601 11.3 35.3551 11.795 35.3551 12.84V17.46C35.3551 18.505 34.8601 19 33.8151 19ZM31.0321 12.972V17.328C31.0321 17.493 31.0871 17.548 31.2521 17.548H33.5511C33.7161 17.548 33.7711 17.493 33.7711 17.328V12.972C33.7711 12.807 33.7161 12.752 33.5511 12.752H31.2521C31.0871 12.752 31.0321 12.807 31.0321 12.972ZM36.9076 11.3H40.9776C42.0226 11.3 42.5176 11.795 42.5176 12.84V14.886C42.5176 15.931 42.0226 16.426 40.9776 16.426H38.4916V19H36.9076V11.3ZM38.4916 14.974H40.7136C40.8786 14.974 40.9336 14.919 40.9336 14.754V12.972C40.9336 12.807 40.8786 12.752 40.7136 12.752H38.4916V14.974ZM51.0009 11.3H52.5409V19H51.0009L47.9759 13.863V19H46.4359V11.3H48.0859L51.0009 16.261V11.3ZM58.4577 19H55.6307C54.5857 19 54.0907 18.505 54.0907 17.46V12.84C54.0907 11.795 54.5857 11.3 55.6307 11.3H58.4577C59.5027 11.3 59.9977 11.795 59.9977 12.84V17.46C59.9977 18.505 59.5027 19 58.4577 19ZM55.6747 12.972V17.328C55.6747 17.493 55.7297 17.548 55.8947 17.548H58.1937C58.3587 17.548 58.4137 17.493 58.4137 17.328V12.972C58.4137 12.807 58.3587 12.752 58.1937 12.752H55.8947C55.7297 12.752 55.6747 12.807 55.6747 12.972ZM68.6262 19H66.9542L65.6892 13.984L64.4242 19H62.6752L60.7502 11.3H62.4002L63.5992 16.954L65.0182 11.3H66.3602L67.7792 16.954L68.9782 11.3H70.5622L68.6262 19Z" fill="white"/>
</g>
</g>
</svg>
