<svg width="260" height="43" viewBox="0 0 260 43" fill="none" xmlns="http://www.w3.org/2000/svg">
<g id="TUMBLERWARE / fathers-day / 300&#195;&#151;250 - F4">
<g id="details">
<path id="Shop Our father&#226;&#128;&#153;s day Sale" d="M6.656 9.32V8.2C6.656 7.96 6.576 7.88 6.336 7.88H3.584C3.344 7.88 3.264 7.96 3.264 8.2V9.416C3.264 9.768 3.392 9.864 3.808 9.96L6.784 10.6C8.192 10.904 9.088 11.464 9.088 12.904V14.76C9.088 16.28 8.368 17 6.848 17H3.168C1.648 17 0.928 16.28 0.928 14.76V13.352H3.168V14.6C3.168 14.84 3.248 14.92 3.488 14.92H6.464C6.704 14.92 6.784 14.84 6.784 14.6V13.256C6.784 12.904 6.656 12.808 6.24 12.712L3.264 12.072C1.856 11.768 0.96 11.208 0.96 9.768V8.04C0.96 6.52 1.68 5.8 3.2 5.8H6.656C8.176 5.8 8.896 6.52 8.896 8.04V9.32H6.656ZM11.2796 17V5.8H13.5836V10.216H17.5516V5.8H19.8556V17H17.5516V12.328H13.5836V17H11.2796ZM28.469 17H24.357C22.837 17 22.117 16.28 22.117 14.76V8.04C22.117 6.52 22.837 5.8 24.357 5.8H28.469C29.989 5.8 30.709 6.52 30.709 8.04V14.76C30.709 16.28 29.989 17 28.469 17ZM24.421 8.232V14.568C24.421 14.808 24.501 14.888 24.741 14.888H28.085C28.325 14.888 28.405 14.808 28.405 14.568V8.232C28.405 7.992 28.325 7.912 28.085 7.912H24.741C24.501 7.912 24.421 7.992 24.421 8.232ZM32.9671 5.8H38.8871C40.4071 5.8 41.1271 6.52 41.1271 8.04V11.016C41.1271 12.536 40.4071 13.256 38.8871 13.256H35.2711V17H32.9671V5.8ZM35.2711 11.144H38.5031C38.7431 11.144 38.8231 11.064 38.8231 10.824V8.232C38.8231 7.992 38.7431 7.912 38.5031 7.912H35.2711V11.144ZM52.9065 17H48.7945C47.2745 17 46.5545 16.28 46.5545 14.76V8.04C46.5545 6.52 47.2745 5.8 48.7945 5.8H52.9065C54.4265 5.8 55.1465 6.52 55.1465 8.04V14.76C55.1465 16.28 54.4265 17 52.9065 17ZM48.8585 8.232V14.568C48.8585 14.808 48.9385 14.888 49.1785 14.888H52.5225C52.7625 14.888 52.8425 14.808 52.8425 14.568V8.232C52.8425 7.992 52.7625 7.912 52.5225 7.912H49.1785C48.9385 7.912 48.8585 7.992 48.8585 8.232ZM65.6766 5.8V14.76C65.6766 16.28 64.9566 17 63.4366 17H59.5326C58.0126 17 57.2926 16.28 57.2926 14.76V5.8H59.5966V14.568C59.5966 14.808 59.6766 14.888 59.9166 14.888H63.0526C63.2926 14.888 63.3726 14.808 63.3726 14.568V5.8H65.6766ZM76.5881 17H74.1081L72.2521 13.048H70.3961V17H68.0921V5.8H73.9961C75.5161 5.8 76.2361 6.52 76.2361 8.04V10.744C76.2361 12.008 75.7401 12.728 74.6841 12.92L76.5881 17ZM70.3961 11H73.6121C73.8521 11 73.9321 10.92 73.9321 10.68V8.2C73.9321 7.96 73.8521 7.88 73.6121 7.88H70.3961V11ZM82.3421 17V5.8H89.8781V7.912H84.6461V10.328H88.8861V12.408H84.6461V17H82.3421ZM96.7004 14.568H92.8604L92.1724 17H89.7404L93.1484 5.8H96.5084L99.9164 17H97.3884L96.7004 14.568ZM96.1084 12.456L94.7804 7.752L93.4524 12.456H96.1084ZM107.675 7.88H104.635V17H102.331V7.88H99.2906V5.8H107.675V7.88ZM109.342 17V5.8H111.646V10.216H115.614V5.8H117.918V17H115.614V12.328H111.646V17H109.342ZM120.452 5.8H127.988V7.912H122.756V10.232H126.996V12.312H122.756V14.888H127.988V17H120.452V5.8ZM138.51 17H136.03L134.174 13.048H132.318V17H130.014V5.8H135.918C137.438 5.8 138.158 6.52 138.158 8.04V10.744C138.158 12.008 137.662 12.728 136.606 12.92L138.51 17ZM132.318 11H135.534C135.774 11 135.854 10.92 135.854 10.68V8.2C135.854 7.96 135.774 7.88 135.534 7.88H132.318V11ZM142.436 5.752C142.34 6.12533 142.218 6.53067 142.068 6.968C141.919 7.39467 141.759 7.82667 141.588 8.264C141.418 8.69067 141.242 9.10133 141.06 9.496H139.348C139.423 9.176 139.498 8.84533 139.572 8.504C139.647 8.16267 139.716 7.82133 139.78 7.48C139.855 7.128 139.919 6.792 139.972 6.472C140.036 6.152 140.09 5.85333 140.132 5.576H142.324L142.436 5.752ZM149.281 9.32V8.2C149.281 7.96 149.201 7.88 148.961 7.88H146.209C145.969 7.88 145.889 7.96 145.889 8.2V9.416C145.889 9.768 146.017 9.864 146.433 9.96L149.409 10.6C150.817 10.904 151.713 11.464 151.713 12.904V14.76C151.713 16.28 150.993 17 149.473 17H145.793C144.273 17 143.553 16.28 143.553 14.76V13.352H145.793V14.6C145.793 14.84 145.873 14.92 146.113 14.92H149.089C149.329 14.92 149.409 14.84 149.409 14.6V13.256C149.409 12.904 149.281 12.808 148.865 12.712L145.889 12.072C144.481 11.768 143.585 11.208 143.585 9.768V8.04C143.585 6.52 144.305 5.8 145.825 5.8H149.281C150.801 5.8 151.521 6.52 151.521 8.04V9.32H149.281ZM157.748 5.8H163.876C165.396 5.8 166.116 6.52 166.116 8.04V14.76C166.116 16.28 165.396 17 163.876 17H157.748V5.8ZM160.052 14.888H163.492C163.732 14.888 163.812 14.808 163.812 14.568V8.232C163.812 7.992 163.732 7.912 163.492 7.912H160.052V14.888ZM174.107 14.568H170.267L169.579 17H167.147L170.555 5.8H173.915L177.323 17H174.795L174.107 14.568ZM173.515 12.456L172.187 7.752L170.859 12.456H173.515ZM182.032 17H179.728V13.176L176.08 5.8H178.576L180.896 10.792L183.216 5.8H185.68L182.032 13.176V17ZM196 9.32V8.2C196 7.96 195.92 7.88 195.68 7.88H192.928C192.688 7.88 192.608 7.96 192.608 8.2V9.416C192.608 9.768 192.736 9.864 193.152 9.96L196.128 10.6C197.536 10.904 198.432 11.464 198.432 12.904V14.76C198.432 16.28 197.712 17 196.192 17H192.512C190.992 17 190.272 16.28 190.272 14.76V13.352H192.512V14.6C192.512 14.84 192.592 14.92 192.832 14.92H195.808C196.048 14.92 196.128 14.84 196.128 14.6V13.256C196.128 12.904 196 12.808 195.584 12.712L192.608 12.072C191.2 11.768 190.304 11.208 190.304 9.768V8.04C190.304 6.52 191.024 5.8 192.544 5.8H196C197.52 5.8 198.24 6.52 198.24 8.04V9.32H196ZM206.388 14.568H202.548L201.86 17H199.428L202.836 5.8H206.196L209.604 17H207.076L206.388 14.568ZM205.796 12.456L204.468 7.752L203.14 12.456H205.796ZM211.123 5.8H213.427V14.888H218.259V17H211.123V5.8ZM219.998 5.8H227.534V7.912H222.302V10.232H226.542V12.312H222.302V14.888H227.534V17H219.998V5.8Z" fill="#333333"/>
<path id="Up to 25% off" d="M4.66182 38.1382C2.52364 38.1382 1.18545 37.0545 1.18545 34.5964V27.3818H2.61818V34.5964C2.61818 36.2473 3.26545 36.9673 4.66182 36.9673C6.08727 36.9673 6.66909 36.2255 6.66909 34.5964V27.3818H8.10182V34.5964C8.10182 37.04 6.83636 38.1382 4.66182 38.1382ZM13.8679 38.1382C12.8424 38.1382 12.0279 37.76 11.5188 36.9818V40.7418H10.1952V29.7455H11.4752V30.8364C11.977 30.0073 12.8134 29.6073 13.8679 29.6073C15.4897 29.6073 16.5515 30.5527 16.5515 32.4945V35.2509C16.5515 37.1927 15.4897 38.1382 13.8679 38.1382ZM11.5188 36.1164C12.0788 36.72 12.7624 37.0036 13.577 37.0036C14.6752 37.0036 15.2352 36.4509 15.2352 35.1855V32.56C15.2352 31.2945 14.6752 30.7418 13.577 30.7418C12.7624 30.7418 12.0788 31.0255 11.5188 31.6291V36.1164ZM23.6951 38C22.386 38 21.8115 37.4545 21.8115 36.2473V30.8218H20.4733V29.7455H21.8115V27.7236L23.1206 27.3236V29.7455H25.1715V30.8218H23.1206V36.1891C23.1206 36.6836 23.2951 36.9018 23.8406 36.9018H25.1715V38H23.6951ZM29.7188 38.1382C27.8206 38.1382 26.446 37.12 26.446 34.7855V32.9673C26.446 30.6327 27.8206 29.6073 29.7188 29.6073C31.6097 29.6073 32.9842 30.6327 32.9842 32.9673V34.7855C32.9842 37.12 31.6097 38.1382 29.7188 38.1382ZM27.7697 34.9164C27.7697 36.3345 28.4097 37.0036 29.7188 37.0036C31.0206 37.0036 31.6606 36.3345 31.6606 34.9164V32.8291C31.6606 31.4109 31.0206 30.7418 29.7188 30.7418C28.4097 30.7418 27.7697 31.4109 27.7697 32.8291V34.9164ZM37.6919 36.2618C37.6919 34.9673 38.0556 33.8836 39.9538 33.0473L41.7137 32.2691C42.7101 31.8255 43.1901 31.3382 43.1901 30.24V30.2036C43.1901 29.1709 42.7101 28.4218 41.1465 28.4218C39.5174 28.4218 39.1101 29.2655 39.1101 30.3055V30.9891H37.6919V30.3055C37.6919 28.2909 38.9428 27.2436 41.1465 27.2436C43.3283 27.2436 44.6083 28.2327 44.6083 30.2036V30.24C44.6083 31.7236 44.0047 32.5891 42.361 33.3236L40.5865 34.1164C39.5756 34.5673 39.1174 35.0982 39.1174 36.2618V36.7273H44.6083V38H37.6919V36.2618ZM50.4177 38.1382C48.2941 38.1382 46.9123 37.1636 46.9123 35.1491V35.0036H48.3014V35.1636C48.3014 36.3055 48.9341 36.96 50.4177 36.96C51.9086 36.96 52.5195 36.3127 52.5195 35.0036V34C52.5195 32.7127 52.0614 31.9491 50.4541 31.9491C48.9632 31.9491 48.4105 32.5964 48.4105 33.5418V33.6873H47.0141V27.3818H53.6905V28.6545H48.4105V31.8327C48.8541 31.0836 49.705 30.7345 50.8468 30.7345C53.0359 30.7345 53.9232 32.1164 53.9232 33.9055V34.9964C53.9232 37.12 52.4105 38.1382 50.4177 38.1382ZM58.12 26.416C58.9093 26.416 59.5067 26.7307 59.912 27.36C60.3173 27.9787 60.52 28.8533 60.52 29.984C60.52 31.1147 60.3227 32 59.928 32.64C59.544 33.2693 58.9413 33.584 58.12 33.584C57.6187 33.584 57.192 33.44 56.84 33.152C56.488 32.864 56.2213 32.4533 56.04 31.92C55.8693 31.376 55.784 30.7307 55.784 29.984C55.784 28.8533 55.9707 27.9787 56.344 27.36C56.7173 26.7307 57.3093 26.416 58.12 26.416ZM58.12 27.408C57.7147 27.408 57.416 27.6267 57.224 28.064C57.0427 28.4907 56.952 29.1307 56.952 29.984C56.952 30.8373 57.0427 31.4827 57.224 31.92C57.416 32.3573 57.7147 32.576 58.12 32.576C58.536 32.576 58.8453 32.3627 59.048 31.936C59.2507 31.4987 59.352 30.848 59.352 29.984C59.352 29.1307 59.2507 28.4907 59.048 28.064C58.8453 27.6267 58.536 27.408 58.12 27.408ZM65.432 26.576L59.096 38H57.864L64.2 26.576H65.432ZM65.112 30.992C65.6347 30.992 66.072 31.136 66.424 31.424C66.776 31.7013 67.0427 32.1067 67.224 32.64C67.416 33.1627 67.512 33.8027 67.512 34.56C67.512 35.6907 67.3147 36.576 66.92 37.216C66.536 37.8453 65.9333 38.16 65.112 38.16C64.6107 38.16 64.184 38.016 63.832 37.728C63.48 37.44 63.2133 37.0293 63.032 36.496C62.8613 35.952 62.776 35.3067 62.776 34.56C62.776 33.4293 62.9627 32.5547 63.336 31.936C63.7093 31.3067 64.3013 30.992 65.112 30.992ZM65.112 32C64.7067 32 64.408 32.2133 64.216 32.64C64.0347 33.0667 63.944 33.7067 63.944 34.56C63.944 35.424 64.0347 36.0747 64.216 36.512C64.408 36.9387 64.7067 37.152 65.112 37.152C65.528 37.152 65.8373 36.9387 66.04 36.512C66.2427 36.0853 66.344 35.4347 66.344 34.56C66.344 33.7067 66.2427 33.0667 66.04 32.64C65.8373 32.2133 65.528 32 65.112 32ZM75.1719 38.1382C73.2737 38.1382 71.8991 37.12 71.8991 34.7855V32.9673C71.8991 30.6327 73.2737 29.6073 75.1719 29.6073C77.0628 29.6073 78.4373 30.6327 78.4373 32.9673V34.7855C78.4373 37.12 77.0628 38.1382 75.1719 38.1382ZM73.2228 34.9164C73.2228 36.3345 73.8628 37.0036 75.1719 37.0036C76.4737 37.0036 77.1137 36.3345 77.1137 34.9164V32.8291C77.1137 31.4109 76.4737 30.7418 75.1719 30.7418C73.8628 30.7418 73.2228 31.4109 73.2228 32.8291V34.9164ZM80.8082 28.6836C80.8082 27.4618 81.4191 26.9018 82.7501 26.9018H84.1246V27.9127H82.8737C82.2919 27.9127 82.1173 28.1236 82.1173 28.6909V29.7455H84.1246V30.8218H82.1173V38H80.8082V30.8218H79.4991V29.7455H80.8082V28.6836ZM85.9489 28.6836C85.9489 27.4618 86.5598 26.9018 87.8907 26.9018H89.2652V27.9127H88.0143C87.4325 27.9127 87.258 28.1236 87.258 28.6909V29.7455H89.2652V30.8218H87.258V38H85.9489V30.8218H84.6398V29.7455H85.9489V28.6836Z" fill="#494949"/>
</g>
</g>
</svg>
