<svg width="63" height="12" viewBox="0 0 63 12" fill="none" xmlns="http://www.w3.org/2000/svg">
<g id="TUMBLERWARE / fathers-day / 160&#195;&#151;600 - F1">
<g id="Frame 12">
<path id="discount" d="M2.256 11.584V2.78398L6.55651e-07 3.51998V1.59998L2.736 0.383984H4.56V11.584H2.256ZM9.48788 2.49598V5.55198C10.0639 4.75198 10.6239 4.20798 12.2719 4.20798C14.1279 4.20798 14.8479 4.92798 14.8479 6.44798V9.27998C14.8479 10.8 14.0639 11.584 12.5439 11.584H9.26388C7.74388 11.584 7.02388 10.864 7.02388 9.34398V8.11198H9.32788V9.15198C9.32788 9.39198 9.40788 9.47198 9.64788 9.47198H12.2239C12.4639 9.47198 12.5439 9.39198 12.5439 9.15198V6.57598C12.5439 6.33598 12.4639 6.25598 11.8879 6.25598C10.7039 6.25598 10.1599 6.43198 9.48788 6.78398L7.18388 6.20798V0.383984H14.5279V2.49598H9.48788ZM18.9659 -1.62125e-05C19.8619 -1.62125e-05 20.5392 0.314651 20.9979 0.943984C21.4672 1.56265 21.7019 2.43732 21.7019 3.56798C21.7019 4.69865 21.4832 5.58398 21.0459 6.22398C20.6085 6.85332 19.9152 7.16798 18.9659 7.16798C18.3792 7.16798 17.8832 7.02398 17.4779 6.73598C17.0832 6.44798 16.7845 6.03732 16.5819 5.50398C16.3792 4.95998 16.2779 4.31465 16.2779 3.56798C16.2779 2.43732 16.4912 1.56265 16.9179 0.943984C17.3445 0.314651 18.0272 -1.62125e-05 18.9659 -1.62125e-05ZM18.9819 1.63198C18.7259 1.63198 18.5392 1.79198 18.4219 2.11198C18.3045 2.43198 18.2459 2.92265 18.2459 3.58398C18.2459 4.23465 18.3045 4.72532 18.4219 5.05598C18.5392 5.38665 18.7259 5.55198 18.9819 5.55198C19.2379 5.55198 19.4245 5.38665 19.5419 5.05598C19.6699 4.72532 19.7339 4.23465 19.7339 3.58398C19.7339 2.92265 19.6699 2.43198 19.5419 2.11198C19.4245 1.79198 19.2379 1.63198 18.9819 1.63198ZM27.0779 0.159984L20.7419 11.584H18.8699L25.2059 0.159984H27.0779ZM26.9659 4.55998C27.5632 4.55998 28.0645 4.70398 28.4699 4.99198C28.8752 5.26932 29.1792 5.67465 29.3819 6.20798C29.5952 6.73065 29.7019 7.37065 29.7019 8.12798C29.7019 9.25865 29.4832 10.144 29.0459 10.784C28.6085 11.4133 27.9152 11.728 26.9659 11.728C26.3792 11.728 25.8832 11.584 25.4779 11.296C25.0832 11.008 24.7845 10.5973 24.5819 10.064C24.3792 9.51998 24.2779 8.87465 24.2779 8.12798C24.2779 6.99732 24.4912 6.12265 24.9179 5.50398C25.3445 4.87465 26.0272 4.55998 26.9659 4.55998ZM26.9819 6.19198C26.7259 6.19198 26.5392 6.35198 26.4219 6.67198C26.3045 6.99198 26.2459 7.48265 26.2459 8.14398C26.2459 8.79465 26.3045 9.28532 26.4219 9.61598C26.5392 9.94665 26.7259 10.112 26.9819 10.112C27.2379 10.112 27.4245 9.95198 27.5419 9.63198C27.6699 9.30132 27.7339 8.80532 27.7339 8.14398C27.7339 7.48265 27.6699 6.99198 27.5419 6.67198C27.4245 6.35198 27.2379 6.19198 26.9819 6.19198ZM41.3915 11.584H37.2795C35.7595 11.584 35.0395 10.864 35.0395 9.34398V2.62398C35.0395 1.10398 35.7595 0.383984 37.2795 0.383984H41.3915C42.9115 0.383984 43.6315 1.10398 43.6315 2.62398V9.34398C43.6315 10.864 42.9115 11.584 41.3915 11.584ZM37.3435 2.81598V9.15198C37.3435 9.39198 37.4235 9.47198 37.6635 9.47198H41.0075C41.2475 9.47198 41.3275 9.39198 41.3275 9.15198V2.81598C41.3275 2.57598 41.2475 2.49598 41.0075 2.49598H37.6635C37.4235 2.49598 37.3435 2.57598 37.3435 2.81598ZM45.8896 11.584V0.383984H53.4256V2.49598H48.1936V4.91198H52.4336V6.99198H48.1936V11.584H45.8896ZM55.1709 11.584V0.383984H62.7069V2.49598H57.4749V4.91198H61.7149V6.99198H57.4749V11.584H55.1709Z" fill="#F15A29"/>
</g>
</g>
</svg>
