<svg width="121" height="38" viewBox="0 0 121 38" fill="none" xmlns="http://www.w3.org/2000/svg">
<g id="TUMBLERWARE / fathers-day / 160&#195;&#151;600 - F1">
<g id="Frame 12">
<g id="Frame 3">
<g id="Frame 4">
<path id="item name" d="M23.5388 2.6H19.7388V14H16.8588V2.6H13.0588V-9.53674e-07H23.5388V2.6ZM35.9632 -9.53674e-07V11.2C35.9632 13.1 35.0632 14 33.1632 14H28.2832C26.3832 14 25.4832 13.1 25.4832 11.2V-9.53674e-07H28.3632V10.96C28.3632 11.26 28.4632 11.36 28.7632 11.36H32.6832C32.9832 11.36 33.0832 11.26 33.0832 10.96V-9.53674e-07H35.9632ZM52.7426 -9.53674e-07V14H49.9026V5.08L46.8826 12.14H44.7626L41.7426 5.08V14H38.9826V-9.53674e-07H42.1426L45.8626 8.24L49.5826 -9.53674e-07H52.7426ZM55.8966 -9.53674e-07H63.2166C65.1166 -9.53674e-07 66.0166 0.899999 66.0166 3.74C66.0166 5.62 65.6766 6.34 64.7566 6.84C65.7566 7.28 66.1766 8.06 66.1766 10.1C66.1766 13.1 65.2766 14 63.3766 14H55.8966V-9.53674e-07ZM58.7766 5.6H62.7366C63.0366 5.6 63.1366 5.5 63.1366 4.1C63.1366 2.7 63.0366 2.6 62.7366 2.6H58.7766V5.6ZM58.7766 11.4H62.8966C63.1966 11.4 63.2966 11.3 63.2966 9.74C63.2966 8.18 63.1966 8.08 62.8966 8.08H58.7766V11.4ZM68.7482 -9.53674e-07H71.6282V11.36H77.6682V14H68.7482V-9.53674e-07ZM79.842 -9.53674e-07H89.262V2.64H82.722V5.54H88.022V8.14H82.722V11.36H89.262V14H79.842V-9.53674e-07ZM102.415 14H99.3151L96.9951 9.06H94.6751V14H91.7951V-9.53674e-07H99.1751C101.075 -9.53674e-07 101.975 0.899999 101.975 2.8V6.18C101.975 7.76 101.355 8.66 100.035 8.9L102.415 14ZM94.6751 6.5H98.6951C98.9951 6.5 99.0951 6.4 99.0951 6.1V3C99.0951 2.7 98.9951 2.6 98.6951 2.6H94.6751V6.5ZM7.54 28.64V27.04C7.54 26.74 7.44 26.64 7.14 26.64H3.28C2.98 26.64 2.88 26.74 2.88 27.04V34.96C2.88 35.26 2.98 35.36 3.28 35.36H7.14C7.44 35.36 7.54 35.26 7.54 34.96V32.8H4.9V30.28H10.42V35.2C10.42 37.1 9.52 38 7.62 38H2.8C0.9 38 2.83122e-07 37.1 2.83122e-07 35.2V26.8C2.83122e-07 24.9 0.9 24 2.8 24H7.62C9.52 24 10.42 24.9 10.42 26.8V28.64H7.54ZM13.172 38V24H16.052V38H13.172ZM19.2072 38V24H28.6272V26.64H22.0872V29.66H27.3872V32.26H22.0872V38H19.2072ZM40.2088 26.6H36.4088V38H33.5288V26.6H29.7288V24H40.2088V26.6ZM46.6095 24H53.9295C55.8295 24 56.7295 24.9 56.7295 27.74C56.7295 29.62 56.3895 30.34 55.4695 30.84C56.4695 31.28 56.8895 32.06 56.8895 34.1C56.8895 37.1 55.9895 38 54.0895 38H46.6095V24ZM49.4895 29.6H53.4495C53.7495 29.6 53.8495 29.5 53.8495 28.1C53.8495 26.7 53.7495 26.6 53.4495 26.6H49.4895V29.6ZM49.4895 35.4H53.6095C53.9095 35.4 54.0095 35.3 54.0095 33.74C54.0095 32.18 53.9095 32.08 53.6095 32.08H49.4895V35.4ZM69.8011 24V35.2C69.8011 37.1 68.9011 38 67.0011 38H62.1211C60.2211 38 59.3211 37.1 59.3211 35.2V24H62.2011V34.96C62.2011 35.26 62.3011 35.36 62.6011 35.36H66.5211C66.8211 35.36 66.9211 35.26 66.9211 34.96V24H69.8011ZM81.1205 24H83.9205V38H81.1205L75.6205 28.66V38H72.8205V24H75.8205L81.1205 33.02V24ZM87.0783 24H94.7383C96.6383 24 97.5383 24.9 97.5383 26.8V35.2C97.5383 37.1 96.6383 38 94.7383 38H87.0783V24ZM89.9583 35.36H94.2583C94.5583 35.36 94.6583 35.26 94.6583 34.96V27.04C94.6583 26.74 94.5583 26.64 94.2583 26.64H89.9583V35.36ZM100.36 24H103.24V35.36H109.28V38H100.36V24ZM111.453 24H120.873V26.64H114.333V29.54H119.633V32.14H114.333V35.36H120.873V38H111.453V24Z" fill="#333333"/>
</g>
</g>
</g>
</g>
</svg>
