<svg width="126" height="62" viewBox="0 0 126 62" fill="none" xmlns="http://www.w3.org/2000/svg">
<g id="TUMBLERWARE / fathers-day / 160&#195;&#151;600 - F2">
<g id="Frame 12">
<g id="Frame 3">
<g id="Frame 4">
<g id="prices">
<g id="$207">
<path d="M38.6776 25.96C37.5509 25.9253 36.5456 25.8213 35.6616 25.648C34.7776 25.4573 33.9716 25.1973 33.2436 24.868V21.514C33.9543 21.8607 34.8123 22.1813 35.8176 22.476C36.8229 22.7533 37.7763 22.918 38.6776 22.97V19.044C37.6723 18.6453 36.8143 18.264 36.1036 17.9C35.4103 17.536 34.8469 17.1547 34.4136 16.756C33.9976 16.34 33.6943 15.8893 33.5036 15.404C33.3129 14.9013 33.2176 14.3293 33.2176 13.688C33.2176 12.8213 33.4429 12.076 33.8936 11.452C34.3616 10.8107 35.0029 10.2993 35.8176 9.918C36.6496 9.53667 37.6029 9.30267 38.6776 9.216V7.266H40.4196V9.164C41.3903 9.19867 42.3003 9.31133 43.1496 9.502C44.0163 9.69267 44.8569 9.97 45.6716 10.334L44.4756 13.298C43.7823 13.0033 43.0803 12.778 42.3696 12.622C41.6763 12.466 41.0263 12.362 40.4196 12.31V16.054C41.3556 16.4007 42.2483 16.782 43.0976 17.198C43.9469 17.5967 44.6316 18.108 45.1516 18.732C45.6889 19.356 45.9576 20.1793 45.9576 21.202C45.9576 22.4673 45.4983 23.5247 44.5796 24.374C43.6609 25.2233 42.2743 25.7347 40.4196 25.908V28.508H38.6776V25.96ZM40.4196 22.892C41.0089 22.788 41.4423 22.6147 41.7196 22.372C41.9969 22.112 42.1356 21.7827 42.1356 21.384C42.1356 21.1413 42.0663 20.9333 41.9276 20.76C41.8063 20.5693 41.6156 20.396 41.3556 20.24C41.1129 20.0667 40.8009 19.8933 40.4196 19.72V22.892ZM38.6776 12.362C38.3309 12.414 38.0363 12.5007 37.7936 12.622C37.5509 12.726 37.3603 12.8733 37.2216 13.064C37.1003 13.2373 37.0396 13.4453 37.0396 13.688C37.0396 13.9307 37.0916 14.1473 37.1956 14.338C37.3169 14.5113 37.4989 14.6847 37.7416 14.858C37.9843 15.014 38.2963 15.1787 38.6776 15.352V12.362ZM52.3345 14.468H48.6945V12.44C48.6945 9.97 49.8645 8.8 52.3345 8.8H57.5865C60.0565 8.8 61.2265 9.97 61.2265 12.44V15.352C61.2265 17.432 59.6925 18.29 57.4825 19.096L53.2705 20.656C52.5945 20.916 52.2305 21.02 52.2305 21.696V23.568H61.2785V27H48.4865V20.864C48.4865 18.784 50.0205 17.926 52.2305 17.12L56.4425 15.56C57.1185 15.3 57.4825 15.196 57.4825 14.52V12.752C57.4825 12.362 57.3525 12.232 56.9625 12.232H52.8545C52.4645 12.232 52.3345 12.362 52.3345 12.752V14.468ZM74.1359 27H67.9219C65.4519 27 64.2819 25.83 64.2819 23.36V12.44C64.2819 9.97 65.4519 8.8 67.9219 8.8H74.1359C76.6059 8.8 77.7759 9.97 77.7759 12.44V23.36C77.7759 25.83 76.6059 27 74.1359 27ZM68.0259 12.752V23.048C68.0259 23.438 68.1559 23.568 68.5459 23.568H73.5119C73.9019 23.568 74.0319 23.438 74.0319 23.048V12.752C74.0319 12.362 73.9019 12.232 73.5119 12.232H68.5459C68.1559 12.232 68.0259 12.362 68.0259 12.752ZM93.0639 11.478L85.2119 27H81.1039L88.6959 12.18H79.6999V8.8H93.0639V11.478Z" fill="#333333"/>
<path d="M32.0996 18.472H46.9785V19.772H32.0996V18.472ZM46.9785 18.576H93.8959V19.876H46.9785V18.576Z" fill="#333333"/>
</g>
<path id="$155" d="M40.8739 56.96C39.7472 56.9253 38.7419 56.8213 37.8579 56.648C36.9739 56.4573 36.1679 56.1973 35.4399 55.868V52.514C36.1506 52.8607 37.0086 53.1813 38.0139 53.476C39.0192 53.7533 39.9726 53.918 40.8739 53.97V50.044C39.8686 49.6453 39.0106 49.264 38.2999 48.9C37.6066 48.536 37.0432 48.1547 36.6099 47.756C36.1939 47.34 35.8906 46.8893 35.6999 46.404C35.5092 45.9013 35.4139 45.3293 35.4139 44.688C35.4139 43.8213 35.6392 43.076 36.0899 42.452C36.5579 41.8107 37.1992 41.2993 38.0139 40.918C38.8459 40.5367 39.7992 40.3027 40.8739 40.216V38.266H42.6159V40.164C43.5866 40.1987 44.4966 40.3113 45.3459 40.502C46.2126 40.6927 47.0532 40.97 47.8679 41.334L46.6719 44.298C45.9786 44.0033 45.2766 43.778 44.5659 43.622C43.8726 43.466 43.2226 43.362 42.6159 43.31V47.054C43.5519 47.4007 44.4446 47.782 45.2939 48.198C46.1432 48.5967 46.8279 49.108 47.3479 49.732C47.8852 50.356 48.1539 51.1793 48.1539 52.202C48.1539 53.4673 47.6946 54.5247 46.7759 55.374C45.8572 56.2233 44.4706 56.7347 42.6159 56.908V59.508H40.8739V56.96ZM42.6159 53.892C43.2052 53.788 43.6386 53.6147 43.9159 53.372C44.1932 53.112 44.3319 52.7827 44.3319 52.384C44.3319 52.1413 44.2626 51.9333 44.1239 51.76C44.0026 51.5693 43.8119 51.396 43.5519 51.24C43.3092 51.0667 42.9972 50.8933 42.6159 50.72V53.892ZM40.8739 43.362C40.5272 43.414 40.2326 43.5007 39.9899 43.622C39.7472 43.726 39.5566 43.8733 39.4179 44.064C39.2966 44.2373 39.2359 44.4453 39.2359 44.688C39.2359 44.9307 39.2879 45.1473 39.3919 45.338C39.5132 45.5113 39.6952 45.6847 39.9379 45.858C40.1806 46.014 40.4926 46.1787 40.8739 46.352V43.362ZM53.8808 58V43.7L50.2148 44.896V41.776L54.6608 39.8H57.6248V58H53.8808ZM65.6326 43.232V48.198C66.5686 46.898 67.4786 46.014 70.1566 46.014C73.1726 46.014 74.3426 47.184 74.3426 49.654V54.256C74.3426 56.726 73.0686 58 70.5986 58H65.2686C62.7986 58 61.6286 56.83 61.6286 54.36V52.358H65.3726V54.048C65.3726 54.438 65.5026 54.568 65.8926 54.568H70.0786C70.4686 54.568 70.5986 54.438 70.5986 54.048V49.862C70.5986 49.472 70.4686 49.342 69.5326 49.342C67.6086 49.342 66.7246 49.628 65.6326 50.2L61.8886 49.264V39.8H73.8226V43.232H65.6326ZM81.4764 43.232V48.198C82.4124 46.898 83.3224 46.014 86.0004 46.014C89.0164 46.014 90.1864 47.184 90.1864 49.654V54.256C90.1864 56.726 88.9124 58 86.4424 58H81.1124C78.6424 58 77.4724 56.83 77.4724 54.36V52.358H81.2164V54.048C81.2164 54.438 81.3464 54.568 81.7364 54.568H85.9224C86.3124 54.568 86.4424 54.438 86.4424 54.048V49.862C86.4424 49.472 86.3124 49.342 85.3764 49.342C83.4524 49.342 82.5684 49.628 81.4764 50.2L77.7324 49.264V39.8H89.6664V43.232H81.4764Z" fill="#F15A29"/>
</g>
</g>
</g>
</g>
</g>
</svg>
