<svg width="124" height="14" viewBox="0 0 124 14" fill="none" xmlns="http://www.w3.org/2000/svg">
<g id="TUMBLERWARE / fathers-day / 160&#195;&#151;600 - F2">
<g id="Frame 12">
<g id="Frame 3">
<g id="Frame 4">
<path id="item name" d="M7.16 4.4V3C7.16 2.7 7.06 2.6 6.76 2.6H3.32C3.02 2.6 2.92 2.7 2.92 3V4.52C2.92 4.96 3.08 5.08 3.6 5.2L7.32 6C9.08 6.38 10.2 7.08 10.2 8.88V11.2C10.2 13.1 9.3 14 7.4 14H2.8C0.899996 14 -3.62098e-06 13.1 -3.62098e-06 11.2V9.44H2.8V11C2.8 11.3 2.9 11.4 3.2 11.4H6.92C7.22 11.4 7.32 11.3 7.32 11V9.32C7.32 8.88 7.16 8.76 6.64 8.64L2.92 7.84C1.16 7.46 0.0399964 6.76 0.0399964 4.96V2.8C0.0399964 0.899999 0.939996 -9.53674e-07 2.84 -9.53674e-07H7.16C9.06 -9.53674e-07 9.96 0.899999 9.96 2.8V4.4H7.16ZM22.1442 2.6H18.3442V14H15.4642V2.6H11.6642V-9.53674e-07H22.1442V2.6ZM30.067 10.96H25.267L24.407 14H21.367L25.627 -9.53674e-07H29.827L34.087 14H30.927L30.067 10.96ZM29.327 8.32L27.667 2.44L26.007 8.32H29.327ZM46.6064 14H43.5064L41.1864 9.06H38.8664V14H35.9864V-9.53674e-07H43.3664C45.2664 -9.53674e-07 46.1664 0.899999 46.1664 2.8V6.18C46.1664 7.76 45.5464 8.66 44.2264 8.9L46.6064 14ZM38.8664 6.5H42.8864C43.1864 6.5 43.2864 6.4 43.2864 6.1V3C43.2864 2.7 43.1864 2.6 42.8864 2.6H38.8664V6.5ZM58.1989 2.6H54.3989V14H51.5189V2.6H47.7189V-9.53674e-07H58.1989V2.6ZM60.2833 -9.53674e-07H69.7033V2.64H63.1633V5.54H68.4633V8.14H63.1633V11.36H69.7033V14H60.2833V-9.53674e-07ZM82.8564 14H79.7564L77.4364 9.06H75.1164V14H72.2364V-9.53674e-07H79.6164C81.5164 -9.53674e-07 82.4164 0.899999 82.4164 2.8V6.18C82.4164 7.76 81.7964 8.66 80.4764 8.9L82.8564 14ZM75.1164 6.5H79.1364C79.4364 6.5 79.5364 6.4 79.5364 6.1V3C79.5364 2.7 79.4364 2.6 79.1364 2.6H75.1164V6.5ZM96.7889 4.4V3C96.7889 2.7 96.6889 2.6 96.3889 2.6H92.9489C92.6489 2.6 92.5489 2.7 92.5489 3V4.52C92.5489 4.96 92.7089 5.08 93.2289 5.2L96.9489 6C98.7089 6.38 99.8289 7.08 99.8289 8.88V11.2C99.8289 13.1 98.9289 14 97.0289 14H92.4289C90.5289 14 89.6289 13.1 89.6289 11.2V9.44H92.4289V11C92.4289 11.3 92.5289 11.4 92.8289 11.4H96.5489C96.8489 11.4 96.9489 11.3 96.9489 11V9.32C96.9489 8.88 96.7889 8.76 96.2689 8.64L92.5489 7.84C90.7889 7.46 89.6689 6.76 89.6689 4.96V2.8C89.6689 0.899999 90.5689 -9.53674e-07 92.4689 -9.53674e-07H96.7889C98.6889 -9.53674e-07 99.5889 0.899999 99.5889 2.8V4.4H96.7889ZM102.568 -9.53674e-07H111.988V2.64H105.448V5.54H110.748V8.14H105.448V11.36H111.988V14H102.568V-9.53674e-07ZM123.922 2.6H120.122V14H117.242V2.6H113.442V-9.53674e-07H123.922V2.6Z" fill="#333333"/>
</g>
</g>
</g>
</g>
</svg>
