<svg width="66" height="12" viewBox="0 0 66 12" fill="none" xmlns="http://www.w3.org/2000/svg">
<g id="TUMBLERWARE / fathers-day / 160&#195;&#151;600 - F2">
<g id="Frame 12">
<path id="discount" d="M2.36799 3.87198H0.127991V2.62398C0.127991 1.10398 0.847991 0.383984 2.36799 0.383984H5.59999C7.11999 0.383984 7.83999 1.10398 7.83999 2.62398V4.41598C7.83999 5.69598 6.89599 6.22398 5.53599 6.71998L2.94399 7.67998C2.52799 7.83998 2.30399 7.90398 2.30399 8.31998V9.47198H7.87199V11.584H-9.0003e-06V7.80798C-9.0003e-06 6.52798 0.943991 5.99998 2.30399 5.50398L4.89599 4.54398C5.31199 4.38398 5.53599 4.31998 5.53599 3.90398V2.81598C5.53599 2.57598 5.45599 2.49598 5.21599 2.49598H2.68799C2.44799 2.49598 2.36799 2.57598 2.36799 2.81598V3.87198ZM12.1842 2.49598V5.55198C12.7602 4.75198 13.3202 4.20798 14.9682 4.20798C16.8242 4.20798 17.5442 4.92798 17.5442 6.44798V9.27998C17.5442 10.8 16.7602 11.584 15.2402 11.584H11.9602C10.4402 11.584 9.72024 10.864 9.72024 9.34398V8.11198H12.0242V9.15198C12.0242 9.39198 12.1042 9.47198 12.3442 9.47198H14.9202C15.1602 9.47198 15.2402 9.39198 15.2402 9.15198V6.57598C15.2402 6.33598 15.1602 6.25598 14.5842 6.25598C13.4002 6.25598 12.8562 6.43198 12.1842 6.78398L9.88024 6.20798V0.383984H17.2242V2.49598H12.1842ZM21.6622 -1.62125e-05C22.5582 -1.62125e-05 23.2356 0.314651 23.6942 0.943984C24.1636 1.56265 24.3982 2.43732 24.3982 3.56798C24.3982 4.69865 24.1796 5.58398 23.7422 6.22398C23.3049 6.85332 22.6116 7.16798 21.6622 7.16798C21.0756 7.16798 20.5796 7.02398 20.1742 6.73598C19.7796 6.44798 19.4809 6.03732 19.2782 5.50398C19.0756 4.95998 18.9742 4.31465 18.9742 3.56798C18.9742 2.43732 19.1876 1.56265 19.6142 0.943984C20.0409 0.314651 20.7236 -1.62125e-05 21.6622 -1.62125e-05ZM21.6782 1.63198C21.4222 1.63198 21.2356 1.79198 21.1182 2.11198C21.0009 2.43198 20.9422 2.92265 20.9422 3.58398C20.9422 4.23465 21.0009 4.72532 21.1182 5.05598C21.2356 5.38665 21.4222 5.55198 21.6782 5.55198C21.9342 5.55198 22.1209 5.38665 22.2382 5.05598C22.3662 4.72532 22.4302 4.23465 22.4302 3.58398C22.4302 2.92265 22.3662 2.43198 22.2382 2.11198C22.1209 1.79198 21.9342 1.63198 21.6782 1.63198ZM29.7742 0.159984L23.4382 11.584H21.5662L27.9022 0.159984H29.7742ZM29.6622 4.55998C30.2596 4.55998 30.7609 4.70398 31.1662 4.99198C31.5716 5.26932 31.8756 5.67465 32.0782 6.20798C32.2916 6.73065 32.3982 7.37065 32.3982 8.12798C32.3982 9.25865 32.1796 10.144 31.7422 10.784C31.3049 11.4133 30.6116 11.728 29.6622 11.728C29.0756 11.728 28.5796 11.584 28.1742 11.296C27.7796 11.008 27.4809 10.5973 27.2782 10.064C27.0756 9.51998 26.9742 8.87465 26.9742 8.12798C26.9742 6.99732 27.1876 6.12265 27.6142 5.50398C28.0409 4.87465 28.7236 4.55998 29.6622 4.55998ZM29.6782 6.19198C29.4222 6.19198 29.2356 6.35198 29.1182 6.67198C29.0009 6.99198 28.9422 7.48265 28.9422 8.14398C28.9422 8.79465 29.0009 9.28532 29.1182 9.61598C29.2356 9.94665 29.4222 10.112 29.6782 10.112C29.9342 10.112 30.1209 9.95198 30.2382 9.63198C30.3662 9.30132 30.4302 8.80532 30.4302 8.14398C30.4302 7.48265 30.3662 6.99198 30.2382 6.67198C30.1209 6.35198 29.9342 6.19198 29.6782 6.19198ZM44.0879 11.584H39.9759C38.4559 11.584 37.7359 10.864 37.7359 9.34398V2.62398C37.7359 1.10398 38.4559 0.383984 39.9759 0.383984H44.0879C45.6079 0.383984 46.3279 1.10398 46.3279 2.62398V9.34398C46.3279 10.864 45.6079 11.584 44.0879 11.584ZM40.0399 2.81598V9.15198C40.0399 9.39198 40.1199 9.47198 40.3599 9.47198H43.7039C43.9439 9.47198 44.0239 9.39198 44.0239 9.15198V2.81598C44.0239 2.57598 43.9439 2.49598 43.7039 2.49598H40.3599C40.1199 2.49598 40.0399 2.57598 40.0399 2.81598ZM48.586 11.584V0.383984H56.122V2.49598H50.89V4.91198H55.13V6.99198H50.89V11.584H48.586ZM57.8672 11.584V0.383984H65.4032V2.49598H60.1712V4.91198H64.4112V6.99198H60.1712V11.584H57.8672Z" fill="#F15A29"/>
</g>
</g>
</svg>
