<svg width="120" height="113" viewBox="0 0 120 113" fill="none" xmlns="http://www.w3.org/2000/svg">
<g id="TUMBLERWARE / fathers-day / 160&#195;&#151;600 - F3">
<path id="details" d="M26.9249 9.71729V1.51456H24.5767V0.426376H30.5012V1.51456H28.1594V9.71729H26.9249ZM30.8506 9.71729V2.49456H31.9579V3.44274C32.4288 2.59638 33.2688 2.29728 34.3633 2.39274V3.57638C33.4151 3.40456 32.6133 3.64638 32.0024 4.24456V9.71729H30.8506ZM35.5794 12.1227L35.573 11.2255H36.7312C37.2658 11.2255 37.4885 11.0473 37.6349 10.6082L37.9276 9.71729H37.304L35.1085 2.49456H36.343L38.1312 8.85819H38.1503L39.9321 2.49456H41.173L38.6658 10.6527C38.3603 11.6518 37.7812 12.1227 36.7249 12.1227H35.5794ZM47.1064 9.71729C45.9609 9.71729 45.4582 9.24001 45.4582 8.18365V3.43638H44.2873V2.49456H45.4582V0.725467L46.6037 0.375467V2.49456H48.3982V3.43638H46.6037V8.13274C46.6037 8.56547 46.7564 8.75638 47.2337 8.75638H48.3982V9.71729H47.1064ZM54.0316 4.96365C54.0316 4.20638 53.8153 3.37274 52.6253 3.37274C51.9634 3.37274 51.4289 3.61456 50.958 4.13638V9.71729H49.7998V1.2517e-05H50.958V3.3791C51.4034 2.69819 52.1162 2.37365 52.9625 2.37365C54.3753 2.37365 55.1834 3.19456 55.1834 4.88092V9.71729H54.0316V4.96365ZM59.382 9.83819C57.8039 9.83819 56.6775 9.02365 56.6775 6.99365V5.21819C56.6775 3.18819 57.8039 2.37365 59.382 2.37365C60.9602 2.37365 62.0866 3.18819 62.0866 5.21819V6.33819L57.823 6.33183V7.10819C57.823 8.40638 58.3448 8.88365 59.382 8.88365C60.4066 8.88365 60.9475 8.38092 60.9475 7.35001V7.31819H62.0866V7.35001C62.0866 9.1191 60.9602 9.83819 59.382 9.83819ZM57.823 5.4091H60.9475V5.10365C60.9475 3.84365 60.4257 3.32819 59.382 3.32819C58.3448 3.32819 57.823 3.84365 57.823 5.10365V5.4091ZM66.165 9.71729V2.49456H67.2787V3.43638C67.7114 2.71729 68.4369 2.37365 69.3023 2.37365C70.2696 2.37365 70.9441 2.76183 71.275 3.55729C71.7523 2.76183 72.535 2.37365 73.4832 2.37365C74.8896 2.37365 75.6787 3.19456 75.6787 4.88092V9.71729H74.5332V4.97001C74.5332 4.20638 74.3169 3.3791 73.1396 3.3791C72.4714 3.3791 71.9305 3.63365 71.4532 4.18729C71.485 4.40365 71.5041 4.63274 71.5041 4.88092V9.71729H70.3459V4.97001C70.3459 4.20638 70.1359 3.3791 68.9587 3.3791C68.3096 3.3791 67.7814 3.62092 67.3169 4.13638V9.71729H66.165ZM80.0353 9.83819C78.3744 9.83819 77.1716 8.94729 77.1716 6.90456V5.31365C77.1716 3.27092 78.3744 2.37365 80.0353 2.37365C81.6898 2.37365 82.8926 3.27092 82.8926 5.31365V6.90456C82.8926 8.94729 81.6898 9.83819 80.0353 9.83819ZM78.3298 7.0191C78.3298 8.26001 78.8898 8.84547 80.0353 8.84547C81.1744 8.84547 81.7344 8.26001 81.7344 7.0191V5.19274C81.7344 3.95183 81.1744 3.36638 80.0353 3.36638C78.8898 3.36638 78.3298 3.95183 78.3298 5.19274V7.0191ZM87.0629 9.83819C85.1729 9.83819 84.422 8.99819 84.422 7.49001V7.40092H85.612V7.49638C85.612 8.49547 86.0065 8.90274 87.0629 8.90274C87.992 8.90274 88.5011 8.6291 88.5011 7.92274V7.82729C88.5011 7.28638 88.2401 6.99365 87.3938 6.7391L86.2929 6.40819C84.9629 6.00728 84.4601 5.4091 84.4601 4.38456V4.29547C84.4601 3.12456 85.4529 2.37365 87.0692 2.37365C88.9147 2.37365 89.672 3.18819 89.672 4.71547V4.8491H88.5074V4.71547C88.5074 3.67819 88.0747 3.3091 87.0692 3.3091C86.1211 3.3091 85.6374 3.67819 85.6374 4.30183V4.39092C85.6374 4.94456 85.9301 5.24365 86.7574 5.49819L87.8711 5.84183C89.1883 6.24274 89.742 6.80274 89.6783 7.83365L89.672 7.93547C89.5956 9.19547 88.692 9.83819 87.0629 9.83819ZM93.4951 9.71729C92.3496 9.71729 91.8469 9.24001 91.8469 8.18365V3.43638H90.676V2.49456H91.8469V0.725467L92.9923 0.375467V2.49456H94.7869V3.43638H92.9923V8.13274C92.9923 8.56547 93.1451 8.75638 93.6223 8.75638H94.7869V9.71729H93.4951ZM5.7699 29.8382C3.8799 29.8382 3.12899 28.9982 3.12899 27.49V27.4009H4.31899V27.4964C4.31899 28.4955 4.71354 28.9027 5.7699 28.9027C6.69899 28.9027 7.20808 28.6291 7.20808 27.9227V27.8273C7.20808 27.2864 6.94717 26.9936 6.10081 26.7391L4.9999 26.4082C3.6699 26.0073 3.16717 25.4091 3.16717 24.3846V24.2955C3.16717 23.1246 4.1599 22.3736 5.77627 22.3736C7.62172 22.3736 8.37899 23.1882 8.37899 24.7155V24.8491H7.21445V24.7155C7.21445 23.6782 6.78172 23.3091 5.77627 23.3091C4.82808 23.3091 4.34445 23.6782 4.34445 24.3018V24.3909C4.34445 24.9446 4.63717 25.2436 5.46445 25.4982L6.57808 25.8418C7.89536 26.2427 8.44899 26.8027 8.38536 27.8336L8.37899 27.9355C8.30263 29.1955 7.39899 29.8382 5.7699 29.8382ZM14.2257 29.7173C14.1621 29.3609 14.1048 28.9791 14.0666 28.6036C13.653 29.38 12.8321 29.8318 11.8076 29.8318C10.4585 29.8318 9.73301 29.0173 9.73301 27.8718V27.7636C9.73301 26.8409 10.2103 26.1027 11.9285 25.7273L13.9776 25.2818V24.6327C13.9776 23.7736 13.6085 23.3155 12.533 23.3155C11.4894 23.3155 11.0757 23.7673 11.0757 24.6391V24.9255H9.89846V24.6582C9.89846 23.0291 10.9612 22.38 12.5394 22.38C14.2257 22.38 15.1294 23.0482 15.1294 24.6646V26.6436C15.1294 27.6746 15.1866 28.75 15.3966 29.7173H14.2257ZM10.9357 27.8464C10.9357 28.4573 11.3621 28.8518 12.1703 28.8518C12.8894 28.8518 13.5957 28.5146 14.0157 27.9291C13.9903 27.5091 13.9776 27.0891 13.9776 26.6946V26.1918L12.3103 26.5673C11.273 26.8027 10.9357 27.1718 10.9357 27.7382V27.8464ZM18.9697 29.7173C17.8242 29.7173 17.3215 29.24 17.3215 28.1836V23.4364H16.1506V22.4946H17.3215V20.7255L18.4669 20.3755V22.4946H20.2615V23.4364H18.4669V28.1327C18.4669 28.5655 18.6197 28.7564 19.0969 28.7564H20.2615V29.7173H18.9697ZM21.6631 29.7173V22.4946H22.8149V29.7173H21.6631ZM21.6694 21.5082V20.0064H22.8213V21.5082H21.6694ZM27.139 29.8382C25.249 29.8382 24.4981 28.9982 24.4981 27.49V27.4009H25.6881V27.4964C25.6881 28.4955 26.0827 28.9027 27.139 28.9027C28.0681 28.9027 28.5772 28.6291 28.5772 27.9227V27.8273C28.5772 27.2864 28.3163 26.9936 27.47 26.7391L26.369 26.4082C25.039 26.0073 24.5363 25.4091 24.5363 24.3846V24.2955C24.5363 23.1246 25.529 22.3736 27.1454 22.3736C28.9909 22.3736 29.7481 23.1882 29.7481 24.7155V24.8491H28.5836V24.7155C28.5836 23.6782 28.1509 23.3091 27.1454 23.3091C26.1972 23.3091 25.7136 23.6782 25.7136 24.3018V24.3909C25.7136 24.9446 26.0063 25.2436 26.8336 25.4982L27.9472 25.8418C29.2645 26.2427 29.8181 26.8027 29.7545 27.8336L29.7481 27.9355C29.6718 29.1955 28.7681 29.8382 27.139 29.8382ZM31.9612 21.5655C31.9612 20.4964 32.4958 20.0064 33.6603 20.0064H34.8631V20.8909H33.7685C33.2594 20.8909 33.1067 21.0755 33.1067 21.5718V22.4946H34.8631V23.4364H33.1067V29.7173H31.9612V23.4364H30.8158V22.4946H31.9612V21.5655ZM36.0169 32.1227L36.0105 31.2255H37.1687C37.7033 31.2255 37.926 31.0473 38.0724 30.6082L38.3651 29.7173H37.7415L35.546 22.4946H36.7805L38.5687 28.8582H38.5878L40.3696 22.4946H41.6105L39.1033 30.6527C38.7978 31.6518 38.2187 32.1227 37.1624 32.1227H36.0169ZM42.9092 29.7173V22.4946H44.061V29.7173H42.9092ZM42.9155 21.5082V20.0064H44.0674V21.5082H42.9155ZM50.2245 24.97C50.2245 24.2064 50.0081 23.3791 48.8181 23.3791C48.1563 23.3791 47.6217 23.6209 47.1572 24.1491V29.7173H45.999V22.4946H47.119V23.43C47.5645 22.7173 48.2899 22.3736 49.1554 22.3736C50.5745 22.3736 51.3827 23.1882 51.3827 24.8809V29.7173H50.2245V24.97ZM55.7022 32.2373C54.0413 32.2373 52.9594 31.5309 52.9594 30.1182V30.0227H54.1113V30.1182C54.1113 30.8627 54.5631 31.3655 55.7022 31.3655C56.8413 31.3655 57.2804 30.8882 57.2804 29.94V28.4446C56.8349 29.1382 56.1222 29.4691 55.2376 29.4691C53.7994 29.4691 52.9404 28.6418 52.9404 26.9555V24.9255C52.9404 23.2391 53.7994 22.3736 55.2376 22.3736C56.154 22.3736 56.8794 22.73 57.3249 23.4682V22.4946H58.4385V29.9336C58.4385 31.5564 57.3694 32.2373 55.7022 32.2373ZM54.0922 26.8855C54.0922 27.6555 54.334 28.47 55.5813 28.47C56.2622 28.47 56.8094 28.2282 57.2804 27.7V24.1427C56.8094 23.6146 56.2622 23.3727 55.5813 23.3727C54.334 23.3727 54.0922 24.2255 54.0922 24.9891V26.8855ZM60.2161 30.6846C60.6489 30.6909 60.8907 30.5191 60.8907 29.8891V29.7173H60.3561V27.9418H61.6416V29.8891C61.6416 30.9136 61.0816 31.3209 60.2161 31.3209V30.6846ZM66.5784 21.5655C66.5784 20.4964 67.113 20.0064 68.2775 20.0064H69.4802V20.8909H68.3857C67.8766 20.8909 67.7239 21.0755 67.7239 21.5718V22.4946H69.4802V23.4364H67.7239V29.7173H66.5784V23.4364H65.433V22.4946H66.5784V21.5655ZM73.0216 29.8382C71.3607 29.8382 70.158 28.9473 70.158 26.9046V25.3136C70.158 23.2709 71.3607 22.3736 73.0216 22.3736C74.6762 22.3736 75.8789 23.2709 75.8789 25.3136V26.9046C75.8789 28.9473 74.6762 29.8382 73.0216 29.8382ZM71.3162 27.0191C71.3162 28.26 71.8762 28.8455 73.0216 28.8455C74.1607 28.8455 74.7207 28.26 74.7207 27.0191V25.1927C74.7207 23.9518 74.1607 23.3664 73.0216 23.3664C71.8762 23.3664 71.3162 23.9518 71.3162 25.1927V27.0191ZM80.1447 29.8382C78.4837 29.8382 77.281 28.9473 77.281 26.9046V25.3136C77.281 23.2709 78.4837 22.3736 80.1447 22.3736C81.7992 22.3736 83.0019 23.2709 83.0019 25.3136V26.9046C83.0019 28.9473 81.7992 29.8382 80.1447 29.8382ZM78.4392 27.0191C78.4392 28.26 78.9992 28.8455 80.1447 28.8455C81.2837 28.8455 81.8437 28.26 81.8437 27.0191V25.1927C81.8437 23.9518 81.2837 23.3664 80.1447 23.3664C78.9992 23.3664 78.4392 23.9518 78.4392 25.1927V27.0191ZM84.5674 29.7173V20.0064H85.7128V29.7173H84.5674ZM90.8709 29.8382C89.9736 29.8382 89.2609 29.5073 88.8154 28.8264V32.1164H87.6572V22.4946H88.7772V23.4491C89.2163 22.7236 89.9481 22.3736 90.8709 22.3736C92.29 22.3736 93.219 23.2009 93.219 24.9V27.3118C93.219 29.0109 92.29 29.8382 90.8709 29.8382ZM88.8154 28.0691C89.3054 28.5973 89.9036 28.8455 90.6163 28.8455C91.5772 28.8455 92.0672 28.3618 92.0672 27.2546V24.9573C92.0672 23.85 91.5772 23.3664 90.6163 23.3664C89.9036 23.3664 89.3054 23.6146 88.8154 24.1427V28.0691ZM94.835 29.7173V22.4946H95.9422V23.4427C96.4131 22.5964 97.2531 22.2973 98.3477 22.3927V23.5764C97.3995 23.4046 96.5977 23.6464 95.9868 24.2446V29.7173H94.835ZM102.006 29.8382C100.345 29.8382 99.1423 28.9473 99.1423 26.9046V25.3136C99.1423 23.2709 100.345 22.3736 102.006 22.3736C103.661 22.3736 104.863 23.2709 104.863 25.3136V26.9046C104.863 28.9473 103.661 29.8382 102.006 29.8382ZM100.301 27.0191C100.301 28.26 100.861 28.8455 102.006 28.8455C103.145 28.8455 103.705 28.26 103.705 27.0191V25.1927C103.705 23.9518 103.145 23.3664 102.006 23.3664C100.861 23.3664 100.301 23.9518 100.301 25.1927V27.0191ZM109.129 29.8382C107.468 29.8382 106.265 28.9473 106.265 26.9046V25.3136C106.265 23.2709 107.468 22.3736 109.129 22.3736C110.784 22.3736 111.986 23.2709 111.986 25.3136V26.9046C111.986 28.9473 110.784 29.8382 109.129 29.8382ZM107.424 27.0191C107.424 28.26 107.984 28.8455 109.129 28.8455C110.268 28.8455 110.828 28.26 110.828 27.0191V25.1927C110.828 23.9518 110.268 23.3664 109.129 23.3664C107.984 23.3664 107.424 23.9518 107.424 25.1927V27.0191ZM114.061 21.5655C114.061 20.4964 114.595 20.0064 115.76 20.0064H116.963V20.8909H115.868C115.359 20.8909 115.206 21.0755 115.206 21.5718V22.4946H116.963V23.4364H115.206V29.7173H114.061V23.4364H112.915V22.4946H114.061V21.5655ZM16.4627 49.7173L14.7508 42.4946H15.9281L17.2836 48.7627H17.3217L18.7536 42.4946H20.4654L21.8972 48.7627H21.929L23.2845 42.4946H24.4617L22.7499 49.7173H21.0954L19.619 43.4682H19.5936L18.1172 49.7173H16.4627ZM29.839 49.7173C29.7754 49.3609 29.7181 48.9791 29.6799 48.6036C29.2663 49.38 28.4454 49.8318 27.4208 49.8318C26.0717 49.8318 25.3463 49.0173 25.3463 47.8718V47.7636C25.3463 46.8409 25.8236 46.1027 27.5417 45.7273L29.5908 45.2818V44.6327C29.5908 43.7736 29.2217 43.3155 28.1463 43.3155C27.1027 43.3155 26.689 43.7673 26.689 44.6391V44.9255H25.5117V44.6582C25.5117 43.0291 26.5745 42.38 28.1527 42.38C29.839 42.38 30.7427 43.0482 30.7427 44.6646V46.6436C30.7427 47.6746 30.7999 48.75 31.0099 49.7173H29.839ZM26.549 47.8464C26.549 48.4573 26.9754 48.8518 27.7836 48.8518C28.5027 48.8518 29.209 48.5146 29.629 47.9291C29.6036 47.5091 29.5908 47.0891 29.5908 46.6946V46.1918L27.9236 46.5673C26.8863 46.8027 26.549 47.1718 26.549 47.7382V47.8464ZM32.3665 52.1227L32.3602 51.2255H33.5183C34.0529 51.2255 34.2756 51.0473 34.422 50.6082L34.7147 49.7173H34.0911L31.8956 42.4946H33.1302L34.9183 48.8582H34.9374L36.7192 42.4946H37.9602L35.4529 50.6527C35.1474 51.6518 34.5683 52.1227 33.512 52.1227H32.3665ZM43.8935 49.7173C42.748 49.7173 42.2453 49.24 42.2453 48.1836V43.4364H41.0744V42.4946H42.2453V40.7255L43.3908 40.3755V42.4946H45.1853V43.4364H43.3908V48.1327C43.3908 48.5655 43.5435 48.7564 44.0208 48.7564H45.1853V49.7173H43.8935ZM49.1642 49.8382C47.5033 49.8382 46.3005 48.9473 46.3005 46.9046V45.3136C46.3005 43.2709 47.5033 42.3736 49.1642 42.3736C50.8187 42.3736 52.0215 43.2709 52.0215 45.3136V46.9046C52.0215 48.9473 50.8187 49.8382 49.1642 49.8382ZM47.4587 47.0191C47.4587 48.26 48.0187 48.8455 49.1642 48.8455C50.3033 48.8455 50.8633 48.26 50.8633 47.0191V45.1927C50.8633 43.9518 50.3033 43.3664 49.1642 43.3664C48.0187 43.3664 47.4587 43.9518 47.4587 45.1927V47.0191ZM58.5844 49.8382C56.6944 49.8382 55.9434 48.9982 55.9434 47.49V47.4009H57.1334V47.4964C57.1334 48.4955 57.528 48.9027 58.5844 48.9027C59.5134 48.9027 60.0225 48.6291 60.0225 47.9227V47.8273C60.0225 47.2864 59.7616 46.9936 58.9153 46.7391L57.8144 46.4082C56.4844 46.0073 55.9816 45.4091 55.9816 44.3846V44.2955C55.9816 43.1246 56.9744 42.3736 58.5907 42.3736C60.4362 42.3736 61.1934 43.1882 61.1934 44.7155V44.8491H60.0289V44.7155C60.0289 43.6782 59.5962 43.3091 58.5907 43.3091C57.6425 43.3091 57.1589 43.6782 57.1589 44.3018V44.3909C57.1589 44.9446 57.4516 45.2436 58.2789 45.4982L59.3925 45.8418C60.7098 46.2427 61.2634 46.8027 61.1998 47.8336L61.1934 47.9355C61.1171 49.1955 60.2134 49.8382 58.5844 49.8382ZM67.1293 44.9636C67.1293 44.2064 66.9129 43.3727 65.7229 43.3727C65.0611 43.3727 64.5265 43.6146 64.0556 44.1364V49.7173H62.8975V40H64.0556V43.3791C64.5011 42.6982 65.2138 42.3736 66.0602 42.3736C67.4729 42.3736 68.2811 43.1946 68.2811 44.8809V49.7173H67.1293V44.9636ZM74.2042 49.7173C74.1406 49.3609 74.0833 48.9791 74.0452 48.6036C73.6315 49.38 72.8106 49.8318 71.7861 49.8318C70.437 49.8318 69.7115 49.0173 69.7115 47.8718V47.7636C69.7115 46.8409 70.1888 46.1027 71.907 45.7273L73.9561 45.2818V44.6327C73.9561 43.7736 73.587 43.3155 72.5115 43.3155C71.4679 43.3155 71.0542 43.7673 71.0542 44.6391V44.9255H69.877V44.6582C69.877 43.0291 70.9397 42.38 72.5179 42.38C74.2042 42.38 75.1079 43.0482 75.1079 44.6646V46.6436C75.1079 47.6746 75.1652 48.75 75.3752 49.7173H74.2042ZM70.9142 47.8464C70.9142 48.4573 71.3406 48.8518 72.1488 48.8518C72.8679 48.8518 73.5742 48.5146 73.9942 47.9291C73.9688 47.5091 73.9561 47.0891 73.9561 46.6946V46.1918L72.2888 46.5673C71.2515 46.8027 70.9142 47.1718 70.9142 47.7382V47.8464ZM76.9932 49.7173V42.4946H78.1004V43.4427C78.5713 42.5964 79.4113 42.2973 80.5059 42.3927V43.5764C79.5577 43.4046 78.7559 43.6464 78.145 44.2446V49.7173H76.9932ZM84.9373 49.8382C84.04 49.8382 83.3273 49.5073 82.8818 48.8264V52.1164H81.7236V42.4946H82.8436V43.4491C83.2827 42.7236 84.0145 42.3736 84.9373 42.3736C86.3564 42.3736 87.2854 43.2009 87.2854 44.9V47.3118C87.2854 49.0109 86.3564 49.8382 84.9373 49.8382ZM82.8818 48.0691C83.3718 48.5973 83.97 48.8455 84.6827 48.8455C85.6436 48.8455 86.1336 48.3618 86.1336 47.2546V44.9573C86.1336 43.85 85.6436 43.3664 84.6827 43.3664C83.97 43.3664 83.3718 43.6146 82.8818 44.1427V48.0691ZM91.4426 49.8382C89.8644 49.8382 88.738 49.0236 88.738 46.9936V45.2182C88.738 43.1882 89.8644 42.3736 91.4426 42.3736C93.0208 42.3736 94.1471 43.1882 94.1471 45.2182V46.3382L89.8835 46.3318V47.1082C89.8835 48.4064 90.4053 48.8836 91.4426 48.8836C92.4671 48.8836 93.008 48.3809 93.008 47.35V47.3182H94.1471V47.35C94.1471 49.1191 93.0208 49.8382 91.4426 49.8382ZM89.8835 45.4091H93.008V45.1036C93.008 43.8436 92.4862 43.3282 91.4426 43.3282C90.4053 43.3282 89.8835 43.8436 89.8835 45.1036V45.4091ZM99.9354 44.97C99.9354 44.2064 99.719 43.3791 98.529 43.3791C97.8672 43.3791 97.3327 43.6209 96.8681 44.1491V49.7173H95.71V42.4946H96.83V43.43C97.2754 42.7173 98.0009 42.3736 98.8663 42.3736C100.285 42.3736 101.094 43.1882 101.094 44.8809V49.7173H99.9354V44.97ZM102.804 50.6846C103.237 50.6909 103.479 50.5191 103.479 49.8891V49.7173H102.944V47.9418H104.229V49.8891C104.229 50.9136 103.669 51.3209 102.804 51.3209V50.6846ZM-2.26498e-06 69.7173V62.4946H1.10727V63.4427C1.57818 62.5964 2.41818 62.2973 3.51272 62.3927V63.5764C2.56454 63.4046 1.76272 63.6464 1.15182 64.2446V69.7173H-2.26498e-06ZM7.01193 69.8382C5.43375 69.8382 4.30738 69.0236 4.30738 66.9936V65.2182C4.30738 63.1882 5.43375 62.3736 7.01193 62.3736C8.59011 62.3736 9.71648 63.1882 9.71648 65.2182V66.3382L5.45284 66.3318V67.1082C5.45284 68.4064 5.97466 68.8836 7.01193 68.8836C8.03648 68.8836 8.57738 68.3809 8.57738 67.35V67.3182H9.71648V67.35C9.71648 69.1191 8.59011 69.8382 7.01193 69.8382ZM5.45284 65.4091H8.57738V65.1036C8.57738 63.8436 8.05557 63.3282 7.01193 63.3282C5.97466 63.3282 5.45284 63.8436 5.45284 65.1036V65.4091ZM13.8842 69.8382C11.9942 69.8382 11.2433 68.9982 11.2433 67.49V67.4009H12.4333V67.4964C12.4333 68.4955 12.8278 68.9027 13.8842 68.9027C14.8133 68.9027 15.3223 68.6291 15.3223 67.9227V67.8273C15.3223 67.2864 15.0614 66.9936 14.2151 66.7391L13.1142 66.4082C11.7842 66.0073 11.2814 65.4091 11.2814 64.3846V64.2955C11.2814 63.1246 12.2742 62.3736 13.8905 62.3736C15.736 62.3736 16.4933 63.1882 16.4933 64.7155V64.8491H15.3287V64.7155C15.3287 63.6782 14.896 63.3091 13.8905 63.3091C12.9423 63.3091 12.4587 63.6782 12.4587 64.3018V64.3909C12.4587 64.9446 12.7514 65.2436 13.5787 65.4982L14.6923 65.8418C16.0096 66.2427 16.5633 66.8027 16.4996 67.8336L16.4933 67.9355C16.4169 69.1955 15.5133 69.8382 13.8842 69.8382ZM20.3164 69.7173C19.1709 69.7173 18.6682 69.24 18.6682 68.1836V63.4364H17.4973V62.4946H18.6682V60.7255L19.8136 60.3755V62.4946H21.6082V63.4364H19.8136V68.1327C19.8136 68.5655 19.9664 68.7564 20.4436 68.7564H21.6082V69.7173H20.3164ZM25.587 69.8382C23.9261 69.8382 22.7234 68.9473 22.7234 66.9046V65.3136C22.7234 63.2709 23.9261 62.3736 25.587 62.3736C27.2416 62.3736 28.4443 63.2709 28.4443 65.3136V66.9046C28.4443 68.9473 27.2416 69.8382 25.587 69.8382ZM23.8816 67.0191C23.8816 68.26 24.4416 68.8455 25.587 68.8455C26.7261 68.8455 27.2861 68.26 27.2861 67.0191V65.1927C27.2861 63.9518 26.7261 63.3664 25.587 63.3664C24.4416 63.3664 23.8816 63.9518 23.8816 65.1927V67.0191ZM30.0098 69.7173V62.4946H31.117V63.4427C31.5879 62.5964 32.4279 62.2973 33.5225 62.3927V63.5764C32.5743 63.4046 31.7725 63.6464 31.1616 64.2446V69.7173H30.0098ZM37.0217 69.8382C35.4435 69.8382 34.3171 69.0236 34.3171 66.9936V65.2182C34.3171 63.1882 35.4435 62.3736 37.0217 62.3736C38.5999 62.3736 39.7262 63.1882 39.7262 65.2182V66.3382L35.4626 66.3318V67.1082C35.4626 68.4064 35.9844 68.8836 37.0217 68.8836C38.0462 68.8836 38.5871 68.3809 38.5871 67.35V67.3182H39.7262V67.35C39.7262 69.1191 38.5999 69.8382 37.0217 69.8382ZM35.4626 65.4091H38.5871V65.1036C38.5871 63.8436 38.0653 63.3282 37.0217 63.3282C35.9844 63.3282 35.4626 63.8436 35.4626 65.1036V65.4091ZM41.2191 70.6846C41.6518 70.6909 41.8936 70.5191 41.8936 69.8891V69.7173H41.3591V67.9418H42.6445V69.8891C42.6445 70.9136 42.0845 71.3209 41.2191 71.3209V70.6846ZM51.215 69.7173C51.1514 69.3609 51.0941 68.9791 51.0559 68.6036C50.6423 69.38 49.8214 69.8318 48.7968 69.8318C47.4477 69.8318 46.7223 69.0173 46.7223 67.8718V67.7636C46.7223 66.8409 47.1995 66.1027 48.9177 65.7273L50.9668 65.2818V64.6327C50.9668 63.7736 50.5977 63.3155 49.5223 63.3155C48.4786 63.3155 48.065 63.7673 48.065 64.6391V64.9255H46.8877V64.6582C46.8877 63.0291 47.9504 62.38 49.5286 62.38C51.215 62.38 52.1186 63.0482 52.1186 64.6646V66.6436C52.1186 67.6746 52.1759 68.75 52.3859 69.7173H51.215ZM47.925 67.8464C47.925 68.4573 48.3514 68.8518 49.1595 68.8518C49.8786 68.8518 50.585 68.5146 51.005 67.9291C50.9795 67.5091 50.9668 67.0891 50.9668 66.6946V66.1918L49.2995 66.5673C48.2623 66.8027 47.925 67.1718 47.925 67.7382V67.8464ZM58.2294 64.97C58.2294 64.2064 58.013 63.3791 56.823 63.3791C56.1612 63.3791 55.6266 63.6209 55.1621 64.1491V69.7173H54.0039V62.4946H55.1239V63.43C55.5694 62.7173 56.2948 62.3736 57.1603 62.3736C58.5794 62.3736 59.3875 63.1882 59.3875 64.8809V69.7173H58.2294V64.97ZM63.2934 69.8382C61.8743 69.8382 60.9452 69.0109 60.9452 67.3118V64.9C60.9452 63.2009 61.8743 62.3736 63.2934 62.3736C64.1971 62.3736 64.9098 62.7046 65.3552 63.3982V60.0064H66.5071V69.7173H65.3871V68.7627C64.948 69.4882 64.2161 69.8382 63.2934 69.8382ZM62.0971 67.2546C62.0971 68.3618 62.5871 68.8455 63.548 68.8455C64.2671 68.8455 64.8652 68.5973 65.3552 68.0627V64.1491C64.8652 63.6146 64.2671 63.3664 63.548 63.3664C62.5871 63.3664 62.0971 63.85 62.0971 64.9573V67.2546ZM70.8613 69.7173V62.4946H71.975V63.4364C72.4077 62.7173 73.1331 62.3736 73.9986 62.3736C74.9659 62.3736 75.6404 62.7618 75.9713 63.5573C76.4486 62.7618 77.2313 62.3736 78.1795 62.3736C79.5859 62.3736 80.375 63.1946 80.375 64.8809V69.7173H79.2295V64.97C79.2295 64.2064 79.0131 63.3791 77.8359 63.3791C77.1677 63.3791 76.6268 63.6336 76.1495 64.1873C76.1813 64.4036 76.2004 64.6327 76.2004 64.8809V69.7173H75.0422V64.97C75.0422 64.2064 74.8322 63.3791 73.655 63.3791C73.0059 63.3791 72.4777 63.6209 72.0131 64.1364V69.7173H70.8613ZM86.297 69.7173C86.2334 69.3609 86.1761 68.9791 86.1379 68.6036C85.7243 69.38 84.9034 69.8318 83.8788 69.8318C82.5297 69.8318 81.8043 69.0173 81.8043 67.8718V67.7636C81.8043 66.8409 82.2816 66.1027 83.9997 65.7273L86.0488 65.2818V64.6327C86.0488 63.7736 85.6797 63.3155 84.6043 63.3155C83.5607 63.3155 83.147 63.7673 83.147 64.6391V64.9255H81.9697V64.6582C81.9697 63.0291 83.0325 62.38 84.6107 62.38C86.297 62.38 87.2007 63.0482 87.2007 64.6646V66.6436C87.2007 67.6746 87.2579 68.75 87.4679 69.7173H86.297ZM83.007 67.8464C83.007 68.4573 83.4334 68.8518 84.2416 68.8518C84.9607 68.8518 85.667 68.5146 86.087 67.9291C86.0616 67.5091 86.0488 67.0891 86.0488 66.6946V66.1918L84.3816 66.5673C83.3443 66.8027 83.007 67.1718 83.007 67.7382V67.8464ZM89.0859 69.7173V62.4946H90.2378V69.7173H89.0859ZM89.0923 61.5082V60.0064H90.2441V61.5082H89.0923ZM96.4012 64.97C96.4012 64.2064 96.1849 63.3791 94.9949 63.3791C94.3331 63.3791 93.7985 63.6209 93.334 64.1491V69.7173H92.1758V62.4946H93.2958V63.43C93.7412 62.7173 94.4667 62.3736 95.3321 62.3736C96.7512 62.3736 97.5594 63.1882 97.5594 64.8809V69.7173H96.4012V64.97ZM101.459 69.7173C100.313 69.7173 99.8108 69.24 99.8108 68.1836V63.4364H98.6398V62.4946H99.8108V60.7255L100.956 60.3755V62.4946H102.751V63.4364H100.956V68.1327C100.956 68.5655 101.109 68.7564 101.586 68.7564H102.751V69.7173H101.459ZM108.295 69.7173C108.231 69.3609 108.174 68.9791 108.136 68.6036C107.722 69.38 106.901 69.8318 105.877 69.8318C104.528 69.8318 103.802 69.0173 103.802 67.8718V67.7636C103.802 66.8409 104.28 66.1027 105.998 65.7273L108.047 65.2818V64.6327C108.047 63.7736 107.678 63.3155 106.602 63.3155C105.559 63.3155 105.145 63.7673 105.145 64.6391V64.9255H103.968V64.6582C103.968 63.0291 105.031 62.38 106.609 62.38C108.295 62.38 109.199 63.0482 109.199 64.6646V66.6436C109.199 67.6746 109.256 68.75 109.466 69.7173H108.295ZM105.005 67.8464C105.005 68.4573 105.431 68.8518 106.24 68.8518C106.959 68.8518 107.665 68.5146 108.085 67.9291C108.06 67.5091 108.047 67.0891 108.047 66.6946V66.1918L106.38 66.5673C105.342 66.8027 105.005 67.1718 105.005 67.7382V67.8464ZM111.084 69.7173V62.4946H112.236V69.7173H111.084ZM111.09 61.5082V60.0064H112.242V61.5082H111.09ZM118.399 64.97C118.399 64.2064 118.183 63.3791 116.993 63.3791C116.331 63.3791 115.797 63.6209 115.332 64.1491V69.7173H114.174V62.4946H115.294V63.43C115.739 62.7173 116.465 62.3736 117.33 62.3736C118.749 62.3736 119.557 63.1882 119.557 64.8809V69.7173H118.399V64.97ZM3.21125 92.1227L3.20488 91.2255H4.36307C4.89761 91.2255 5.12034 91.0473 5.2667 90.6082L5.55943 89.7173H4.93579L2.74034 82.4946H3.97488L5.76307 88.8582H5.78216L7.56398 82.4946H8.80488L6.29761 90.6527C5.99216 91.6518 5.41307 92.1227 4.3567 92.1227H3.21125ZM12.4894 89.8382C10.8285 89.8382 9.62574 88.9473 9.62574 86.9046V85.3136C9.62574 83.2709 10.8285 82.3736 12.4894 82.3736C14.1439 82.3736 15.3467 83.2709 15.3467 85.3136V86.9046C15.3467 88.9473 14.1439 89.8382 12.4894 89.8382ZM10.7839 87.0191C10.7839 88.26 11.3439 88.8455 12.4894 88.8455C13.6285 88.8455 14.1885 88.26 14.1885 87.0191V85.1927C14.1885 83.9518 13.6285 83.3664 12.4894 83.3664C11.3439 83.3664 10.7839 83.9518 10.7839 85.1927V87.0191ZM19.0503 89.8382C17.663 89.8382 16.8485 89.0555 16.8485 87.35V82.4946H18.0067V87.2482C18.0067 87.9546 18.1657 88.8391 19.4067 88.8391C20.0494 88.8391 20.603 88.5973 21.0676 88.0882V82.4946H22.2257V89.7173H21.0994V88.7755C20.6412 89.4946 19.903 89.8382 19.0503 89.8382ZM24.1719 89.7173V82.4946H25.2791V83.4427C25.7501 82.5964 26.5901 82.2973 27.6846 82.3927V83.5764C26.7364 83.4046 25.9346 83.6464 25.3237 84.2446V89.7173H24.1719ZM34.6316 89.8382C33.7089 89.8382 32.9771 89.4882 32.538 88.7627V89.7173H31.418V80.0064H32.5698V83.3982C33.0152 82.7046 33.728 82.3736 34.6316 82.3736C36.0507 82.3736 36.9798 83.2009 36.9798 84.9V87.3118C36.9798 89.0109 36.0507 89.8382 34.6316 89.8382ZM32.5698 88.0627C33.0598 88.5973 33.658 88.8455 34.3771 88.8455C35.338 88.8455 35.828 88.3618 35.828 87.2546V84.9573C35.828 83.85 35.338 83.3664 34.3771 83.3664C33.658 83.3664 33.0598 83.6146 32.5698 84.1491V88.0627ZM38.5957 89.7173V80.0064H39.7412V89.7173H38.5957ZM45.7326 89.7173C45.6689 89.3609 45.6117 88.9791 45.5735 88.6036C45.1598 89.38 44.3389 89.8318 43.3144 89.8318C41.9653 89.8318 41.2398 89.0173 41.2398 87.8718V87.7636C41.2398 86.8409 41.7171 86.1027 43.4353 85.7273L45.4844 85.2818V84.6327C45.4844 83.7736 45.1153 83.3155 44.0398 83.3155C42.9962 83.3155 42.5826 83.7673 42.5826 84.6391V84.9255H41.4053V84.6582C41.4053 83.0291 42.468 82.38 44.0462 82.38C45.7326 82.38 46.6362 83.0482 46.6362 84.6646V86.6436C46.6362 87.6746 46.6935 88.75 46.9035 89.7173H45.7326ZM42.4426 87.8464C42.4426 88.4573 42.8689 88.8518 43.6771 88.8518C44.3962 88.8518 45.1026 88.5146 45.5226 87.9291C45.4971 87.5091 45.4844 87.0891 45.4844 86.6946V86.1918L43.8171 86.5673C42.7798 86.8027 42.4426 87.1718 42.4426 87.7382V87.8464ZM50.6469 89.8382C49.2278 89.8382 48.2988 89.0109 48.2988 87.3118V84.9C48.2988 83.2009 49.2278 82.3736 50.6469 82.3736C51.5506 82.3736 52.2633 82.7046 52.7088 83.3982V80.0064H53.8606V89.7173H52.7406V88.7627C52.3015 89.4882 51.5697 89.8382 50.6469 89.8382ZM49.4506 87.2546C49.4506 88.3618 49.9406 88.8455 50.9015 88.8455C51.6206 88.8455 52.2188 88.5973 52.7088 88.0627V84.1491C52.2188 83.6146 51.6206 83.3664 50.9015 83.3664C49.9406 83.3664 49.4506 83.85 49.4506 84.9573V87.2546ZM58.1174 89.8382C56.5392 89.8382 55.4129 89.0236 55.4129 86.9936V85.2182C55.4129 83.1882 56.5392 82.3736 58.1174 82.3736C59.6956 82.3736 60.8219 83.1882 60.8219 85.2182V86.3382L56.5583 86.3318V87.1082C56.5583 88.4064 57.0801 88.8836 58.1174 88.8836C59.1419 88.8836 59.6829 88.3809 59.6829 87.35V87.3182H60.8219V87.35C60.8219 89.1191 59.6956 89.8382 58.1174 89.8382ZM56.5583 85.4091H59.6829V85.1036C59.6829 83.8436 59.161 83.3282 58.1174 83.3282C57.0801 83.3282 56.5583 83.8436 56.5583 85.1036V85.4091ZM64.9896 89.8382C63.0996 89.8382 62.3487 88.9982 62.3487 87.49V87.4009H63.5387V87.4964C63.5387 88.4955 63.9333 88.9027 64.9896 88.9027C65.9187 88.9027 66.4278 88.6291 66.4278 87.9227V87.8273C66.4278 87.2864 66.1669 86.9936 65.3205 86.7391L64.2196 86.4082C62.8896 86.0073 62.3869 85.4091 62.3869 84.3846V84.2955C62.3869 83.1246 63.3796 82.3736 64.996 82.3736C66.8414 82.3736 67.5987 83.1882 67.5987 84.7155V84.8491H66.4342V84.7155C66.4342 83.6782 66.0014 83.3091 64.996 83.3091C64.0478 83.3091 63.5642 83.6782 63.5642 84.3018V84.3909C63.5642 84.9446 63.8569 85.2436 64.6842 85.4982L65.7978 85.8418C67.1151 86.2427 67.6687 86.8027 67.6051 87.8336L67.5987 87.9355C67.5224 89.1955 66.6187 89.8382 64.9896 89.8382ZM75.9611 89.7173C75.8974 89.3609 75.8402 88.9791 75.802 88.6036C75.3884 89.38 74.5674 89.8318 73.5429 89.8318C72.1938 89.8318 71.4684 89.0173 71.4684 87.8718V87.7636C71.4684 86.8409 71.9456 86.1027 73.6638 85.7273L75.7129 85.2818V84.6327C75.7129 83.7736 75.3438 83.3155 74.2684 83.3155C73.2247 83.3155 72.8111 83.7673 72.8111 84.6391V84.9255H71.6338V84.6582C71.6338 83.0291 72.6965 82.38 74.2747 82.38C75.9611 82.38 76.8647 83.0482 76.8647 84.6646V86.6436C76.8647 87.6746 76.922 88.75 77.132 89.7173H75.9611ZM72.6711 87.8464C72.6711 88.4573 73.0974 88.8518 73.9056 88.8518C74.6247 88.8518 75.3311 88.5146 75.7511 87.9291C75.7256 87.5091 75.7129 87.0891 75.7129 86.6946V86.1918L74.0456 86.5673C73.0084 86.8027 72.6711 87.1718 72.6711 87.7382V87.8464ZM80.705 89.7173C79.5596 89.7173 79.0568 89.24 79.0568 88.1836V83.4364H77.8859V82.4946H79.0568V80.7255L80.2023 80.3755V82.4946H81.9968V83.4364H80.2023V88.1327C80.2023 88.5655 80.355 88.7564 80.8323 88.7564H81.9968V89.7173H80.705ZM90.1459 84.9636C90.1459 84.2064 89.9295 83.3727 88.7395 83.3727C88.0777 83.3727 87.5432 83.6146 87.0722 84.1364V89.7173H85.9141V80H87.0722V83.3791C87.5177 82.6982 88.2304 82.3736 89.0768 82.3736C90.4895 82.3736 91.2977 83.1946 91.2977 84.8809V89.7173H90.1459V84.9636ZM95.6554 89.8382C93.9945 89.8382 92.7918 88.9473 92.7918 86.9046V85.3136C92.7918 83.2709 93.9945 82.3736 95.6554 82.3736C97.3099 82.3736 98.5127 83.2709 98.5127 85.3136V86.9046C98.5127 88.9473 97.3099 89.8382 95.6554 89.8382ZM93.9499 87.0191C93.9499 88.26 94.5099 88.8455 95.6554 88.8455C96.7945 88.8455 97.3545 88.26 97.3545 87.0191V85.1927C97.3545 83.9518 96.7945 83.3664 95.6554 83.3664C94.5099 83.3664 93.9499 83.9518 93.9499 85.1927V87.0191ZM100.078 89.7173V82.4946H101.192V83.4364C101.624 82.7173 102.35 82.3736 103.215 82.3736C104.183 82.3736 104.857 82.7618 105.188 83.5573C105.665 82.7618 106.448 82.3736 107.396 82.3736C108.803 82.3736 109.592 83.1946 109.592 84.8809V89.7173H108.446V84.97C108.446 84.2064 108.23 83.3791 107.053 83.3791C106.384 83.3791 105.844 83.6336 105.366 84.1873C105.398 84.4036 105.417 84.6327 105.417 84.8809V89.7173H104.259V84.97C104.259 84.2064 104.049 83.3791 102.872 83.3791C102.223 83.3791 101.694 83.6209 101.23 84.1364V89.7173H100.078ZM113.789 89.8382C112.211 89.8382 111.085 89.0236 111.085 86.9936V85.2182C111.085 83.1882 112.211 82.3736 113.789 82.3736C115.367 82.3736 116.494 83.1882 116.494 85.2182V86.3382L112.23 86.3318V87.1082C112.23 88.4064 112.752 88.8836 113.789 88.8836C114.814 88.8836 115.355 88.3809 115.355 87.35V87.3182H116.494V87.35C116.494 89.1191 115.367 89.8382 113.789 89.8382ZM112.23 85.4091H115.355V85.1036C115.355 83.8436 114.833 83.3282 113.789 83.3282C112.752 83.3282 112.23 83.8436 112.23 85.1036V85.4091ZM9.11188 106.511V105.419H21.9919V106.511H9.11188ZM25.0039 112.116V111.181H25.4748C25.9711 111.181 26.1239 110.99 26.1239 110.538V102.495H27.2884V110.551C27.2884 111.62 26.7348 112.116 25.5639 112.116H25.0039ZM26.1302 101.508V100.006H27.2821V101.508H26.1302ZM31.2729 109.838C29.8857 109.838 29.0711 109.055 29.0711 107.35V102.495H30.2293V107.248C30.2293 107.955 30.3884 108.839 31.6293 108.839C32.272 108.839 32.8257 108.597 33.2902 108.088V102.495H34.4484V109.717H33.322V108.775C32.8639 109.495 32.1257 109.838 31.2729 109.838ZM38.7806 109.838C36.8906 109.838 36.1397 108.998 36.1397 107.49V107.401H37.3297V107.496C37.3297 108.495 37.7243 108.903 38.7806 108.903C39.7097 108.903 40.2188 108.629 40.2188 107.923V107.827C40.2188 107.286 39.9579 106.994 39.1116 106.739L38.0106 106.408C36.6806 106.007 36.1779 105.409 36.1779 104.385V104.295C36.1779 103.125 37.1706 102.374 38.787 102.374C40.6325 102.374 41.3897 103.188 41.3897 104.715V104.849H40.2252V104.715C40.2252 103.678 39.7925 103.309 38.787 103.309C37.8388 103.309 37.3552 103.678 37.3552 104.302V104.391C37.3552 104.945 37.6479 105.244 38.4752 105.498L39.5888 105.842C40.9061 106.243 41.4597 106.803 41.3961 107.834L41.3897 107.935C41.3134 109.195 40.4097 109.838 38.7806 109.838ZM45.2128 109.717C44.0674 109.717 43.5647 109.24 43.5647 108.184V103.436H42.3937V102.495H43.5647V100.725L44.7101 100.375V102.495H46.5047V103.436H44.7101V108.133C44.7101 108.565 44.8628 108.756 45.3401 108.756H46.5047V109.717H45.2128ZM50.4219 109.717V102.495H51.5291V103.443C52.0001 102.596 52.8401 102.297 53.9346 102.393V103.576C52.9864 103.405 52.1846 103.646 51.5737 104.245V109.717H50.4219ZM57.5929 109.838C55.932 109.838 54.7293 108.947 54.7293 106.905V105.314C54.7293 103.271 55.932 102.374 57.5929 102.374C59.2474 102.374 60.4502 103.271 60.4502 105.314V106.905C60.4502 108.947 59.2474 109.838 57.5929 109.838ZM55.8874 107.019C55.8874 108.26 56.4474 108.845 57.5929 108.845C58.732 108.845 59.292 108.26 59.292 107.019V105.193C59.292 103.952 58.732 103.366 57.5929 103.366C56.4474 103.366 55.8874 103.952 55.8874 105.193V107.019ZM62.0156 109.717V100.006H63.1611V109.717H62.0156ZM65.1738 109.717V100.006H66.3193V109.717H65.1738ZM74.8263 109.717C74.7627 109.361 74.7054 108.979 74.6672 108.604C74.2536 109.38 73.4327 109.832 72.4081 109.832C71.059 109.832 70.3336 109.017 70.3336 107.872V107.764C70.3336 106.841 70.8109 106.103 72.529 105.727L74.5781 105.282V104.633C74.5781 103.774 74.209 103.315 73.1336 103.315C72.09 103.315 71.6763 103.767 71.6763 104.639V104.925H70.499V104.658C70.499 103.029 71.5618 102.38 73.14 102.38C74.8263 102.38 75.73 103.048 75.73 104.665V106.644C75.73 107.675 75.7872 108.75 75.9972 109.717H74.8263ZM71.5363 107.846C71.5363 108.457 71.9627 108.852 72.7709 108.852C73.49 108.852 74.1963 108.515 74.6163 107.929C74.5909 107.509 74.5781 107.089 74.5781 106.695V106.192L72.9109 106.567C71.8736 106.803 71.5363 107.172 71.5363 107.738V107.846ZM81.8407 104.97C81.8407 104.206 81.6243 103.379 80.4343 103.379C79.7725 103.379 79.238 103.621 78.7734 104.149V109.717H77.6152V102.495H78.7352V103.43C79.1807 102.717 79.9061 102.374 80.7716 102.374C82.1907 102.374 82.9989 103.188 82.9989 104.881V109.717H81.8407V104.97ZM86.9047 109.838C85.4857 109.838 84.5566 109.011 84.5566 107.312V104.9C84.5566 103.201 85.4857 102.374 86.9047 102.374C87.8084 102.374 88.5211 102.705 88.9666 103.398V100.006H90.1184V109.717H88.9984V108.763C88.5593 109.488 87.8275 109.838 86.9047 109.838ZM85.7084 107.255C85.7084 108.362 86.1984 108.845 87.1593 108.845C87.8784 108.845 88.4766 108.597 88.9666 108.063V104.149C88.4766 103.615 87.8784 103.366 87.1593 103.366C86.1984 103.366 85.7084 103.85 85.7084 104.957V107.255ZM97.0117 112.237C95.3508 112.237 94.269 111.531 94.269 110.118V110.023H95.4208V110.118C95.4208 110.863 95.8727 111.365 97.0117 111.365C98.1508 111.365 98.5899 110.888 98.5899 109.94V108.445C98.1445 109.138 97.4317 109.469 96.5472 109.469C95.109 109.469 94.2499 108.642 94.2499 106.955V104.925C94.2499 103.239 95.109 102.374 96.5472 102.374C97.4636 102.374 98.189 102.73 98.6345 103.468V102.495H99.7481V109.934C99.7481 111.556 98.679 112.237 97.0117 112.237ZM95.4017 106.885C95.4017 107.655 95.6436 108.47 96.8908 108.47C97.5717 108.47 98.119 108.228 98.5899 107.7V104.143C98.119 103.615 97.5717 103.373 96.8908 103.373C95.6436 103.373 95.4017 104.225 95.4017 104.989V106.885ZM104.173 109.838C102.512 109.838 101.309 108.947 101.309 106.905V105.314C101.309 103.271 102.512 102.374 104.173 102.374C105.828 102.374 107.03 103.271 107.03 105.314V106.905C107.03 108.947 105.828 109.838 104.173 109.838ZM102.468 107.019C102.468 108.26 103.028 108.845 104.173 108.845C105.312 108.845 105.872 108.26 105.872 107.019V105.193C105.872 103.952 105.312 103.366 104.173 103.366C103.028 103.366 102.468 103.952 102.468 105.193V107.019ZM108.666 109.717V107.942H109.951V109.717H108.666Z" fill="black"/>
</g>
</svg>
