<svg width="132" height="27" viewBox="0 0 132 27" fill="none" xmlns="http://www.w3.org/2000/svg">
<g id="TUMBLERWARE / fathers-day / 160&#195;&#151;600 - F4">
<g id="Frame 4">
<path id="title" d="M5.01199 3.27597V2.29597C5.01199 2.08597 4.94199 2.01597 4.73199 2.01597H2.32399C2.11399 2.01597 2.04399 2.08597 2.04399 2.29597V3.35997C2.04399 3.66797 2.15599 3.75197 2.51999 3.83597L5.12399 4.39597C6.35599 4.66197 7.13999 5.15197 7.13999 6.41197V8.03597C7.13999 9.36597 6.50999 9.99597 5.17999 9.99597H1.95999C0.629988 9.99597 -1.169e-05 9.36597 -1.169e-05 8.03597V6.80397H1.95999V7.89597C1.95999 8.10597 2.02999 8.17597 2.23999 8.17597H4.84399C5.05399 8.17597 5.12399 8.10597 5.12399 7.89597V6.71997C5.12399 6.41197 5.01199 6.32797 4.64799 6.24397L2.04399 5.68397C0.811988 5.41797 0.0279883 4.92797 0.0279883 3.66797V2.15597C0.0279883 0.825971 0.657988 0.195971 1.98799 0.195971H5.01199C6.34199 0.195971 6.97199 0.825971 6.97199 2.15597V3.27597H5.01199ZM9.05766 9.99597V0.195971H11.0737V4.05997H14.5457V0.195971H16.5617V9.99597H14.5457V5.90797H11.0737V9.99597H9.05766ZM24.0984 9.99597H20.5004C19.1704 9.99597 18.5404 9.36597 18.5404 8.03597V2.15597C18.5404 0.825971 19.1704 0.195971 20.5004 0.195971H24.0984C25.4284 0.195971 26.0584 0.825971 26.0584 2.15597V8.03597C26.0584 9.36597 25.4284 9.99597 24.0984 9.99597ZM20.5564 2.32397V7.86797C20.5564 8.07797 20.6264 8.14797 20.8364 8.14797H23.7624C23.9724 8.14797 24.0424 8.07797 24.0424 7.86797V2.32397C24.0424 2.11397 23.9724 2.04397 23.7624 2.04397H20.8364C20.6264 2.04397 20.5564 2.11397 20.5564 2.32397ZM28.0342 0.195971H33.2142C34.5442 0.195971 35.1742 0.825971 35.1742 2.15597V4.75997C35.1742 6.08997 34.5442 6.71997 33.2142 6.71997H30.0502V9.99597H28.0342V0.195971ZM30.0502 4.87197H32.8782C33.0882 4.87197 33.1582 4.80197 33.1582 4.59197V2.32397C33.1582 2.11397 33.0882 2.04397 32.8782 2.04397H30.0502V4.87197ZM45.4812 9.99597H41.8832C40.5532 9.99597 39.9232 9.36597 39.9232 8.03597V2.15597C39.9232 0.825971 40.5532 0.195971 41.8832 0.195971H45.4812C46.8112 0.195971 47.4412 0.825971 47.4412 2.15597V8.03597C47.4412 9.36597 46.8112 9.99597 45.4812 9.99597ZM41.9392 2.32397V7.86797C41.9392 8.07797 42.0092 8.14797 42.2192 8.14797H45.1452C45.3552 8.14797 45.4252 8.07797 45.4252 7.86797V2.32397C45.4252 2.11397 45.3552 2.04397 45.1452 2.04397H42.2192C42.0092 2.04397 41.9392 2.11397 41.9392 2.32397ZM56.655 0.195971V8.03597C56.655 9.36597 56.025 9.99597 54.695 9.99597H51.279C49.949 9.99597 49.319 9.36597 49.319 8.03597V0.195971H51.335V7.86797C51.335 8.07797 51.405 8.14797 51.615 8.14797H54.359C54.569 8.14797 54.639 8.07797 54.639 7.86797V0.195971H56.655ZM66.2026 9.99597H64.0326L62.4086 6.53797H60.7846V9.99597H58.7686V0.195971H63.9346C65.2646 0.195971 65.8946 0.825971 65.8946 2.15597V4.52197C65.8946 5.62797 65.4606 6.25797 64.5366 6.42597L66.2026 9.99597ZM60.7846 4.74597H63.5986C63.8086 4.74597 63.8786 4.67597 63.8786 4.46597V2.29597C63.8786 2.08597 63.8086 2.01597 63.5986 2.01597H60.7846V4.74597ZM71.2373 9.99597V0.195971H77.8313V2.04397H73.2533V4.15797H76.9633V5.97797H73.2533V9.99597H71.2373ZM83.8008 7.86797H80.4408L79.8388 9.99597H77.7108L80.6928 0.195971H83.6328L86.6148 9.99597H84.4028L83.8008 7.86797ZM83.2828 6.01997L82.1208 1.90397L80.9588 6.01997H83.2828ZM93.4033 2.01597H90.7433V9.99597H88.7273V2.01597H86.0673V0.195971H93.4033V2.01597ZM94.8623 9.99597V0.195971H96.8783V4.05997H100.35V0.195971H102.366V9.99597H100.35V5.90797H96.8783V9.99597H94.8623ZM104.583 0.195971H111.177V2.04397H106.599V4.07397H110.309V5.89397H106.599V8.14797H111.177V9.99597H104.583V0.195971ZM120.384 9.99597H118.214L116.59 6.53797H114.966V9.99597H112.95V0.195971H118.116C119.446 0.195971 120.076 0.825971 120.076 2.15597V4.52197C120.076 5.62797 119.642 6.25797 118.718 6.42597L120.384 9.99597ZM114.966 4.74597H117.78C117.99 4.74597 118.06 4.67597 118.06 4.46597V2.29597C118.06 2.08597 117.99 2.01597 117.78 2.01597H114.966V4.74597ZM123.82 0.153972C123.736 0.480638 123.628 0.835304 123.498 1.21797C123.367 1.5913 123.227 1.9693 123.078 2.35197C122.928 2.7253 122.774 3.08464 122.616 3.42997H121.118C121.183 3.14997 121.248 2.86064 121.314 2.56197C121.379 2.2633 121.44 1.96464 121.496 1.66597C121.561 1.35797 121.617 1.06397 121.664 0.783971C121.72 0.503971 121.766 0.242638 121.804 -2.89679e-05H123.722L123.82 0.153972ZM129.809 3.27597V2.29597C129.809 2.08597 129.739 2.01597 129.529 2.01597H127.121C126.911 2.01597 126.841 2.08597 126.841 2.29597V3.35997C126.841 3.66797 126.953 3.75197 127.317 3.83597L129.921 4.39597C131.153 4.66197 131.937 5.15197 131.937 6.41197V8.03597C131.937 9.36597 131.307 9.99597 129.977 9.99597H126.757C125.427 9.99597 124.797 9.36597 124.797 8.03597V6.80397H126.757V7.89597C126.757 8.10597 126.827 8.17597 127.037 8.17597H129.641C129.851 8.17597 129.921 8.10597 129.921 7.89597V6.71997C129.921 6.41197 129.809 6.32797 129.445 6.24397L126.841 5.68397C125.609 5.41797 124.825 4.92797 124.825 3.66797V2.15597C124.825 0.825971 125.455 0.195971 126.785 0.195971H129.809C131.139 0.195971 131.769 0.825971 131.769 2.15597V3.27597H129.809ZM35.6563 17.196H41.0183C42.3483 17.196 42.9783 17.826 42.9783 19.156V25.036C42.9783 26.366 42.3483 26.996 41.0183 26.996H35.6563V17.196ZM37.6723 25.148H40.6823C40.8923 25.148 40.9623 25.078 40.9623 24.868V19.324C40.9623 19.114 40.8923 19.044 40.6823 19.044H37.6723V25.148ZM49.9698 24.868H46.6098L46.0078 26.996H43.8798L46.8618 17.196H49.8018L52.7838 26.996H50.5718L49.9698 24.868ZM49.4518 23.02L48.2898 18.904L47.1278 23.02H49.4518ZM56.9048 26.996H54.8888V23.65L51.6968 17.196H53.8808L55.9108 21.564L57.9408 17.196H60.0968L56.9048 23.65V26.996ZM69.1262 20.276V19.296C69.1262 19.086 69.0562 19.016 68.8462 19.016H66.4382C66.2282 19.016 66.1582 19.086 66.1582 19.296V20.36C66.1582 20.668 66.2702 20.752 66.6342 20.836L69.2382 21.396C70.4702 21.662 71.2542 22.152 71.2542 23.412V25.036C71.2542 26.366 70.6242 26.996 69.2942 26.996H66.0742C64.7442 26.996 64.1142 26.366 64.1142 25.036V23.804H66.0742V24.896C66.0742 25.106 66.1442 25.176 66.3542 25.176H68.9582C69.1682 25.176 69.2382 25.106 69.2382 24.896V23.72C69.2382 23.412 69.1262 23.328 68.7622 23.244L66.1582 22.684C64.9262 22.418 64.1422 21.928 64.1422 20.668V19.156C64.1422 17.826 64.7722 17.196 66.1022 17.196H69.1262C70.4562 17.196 71.0862 17.826 71.0862 19.156V20.276H69.1262ZM78.2159 24.868H74.8559L74.2539 26.996H72.1259L75.1079 17.196H78.0479L81.0299 26.996H78.8179L78.2159 24.868ZM77.6979 23.02L76.5359 18.904L75.3739 23.02H77.6979ZM82.3594 17.196H84.3754V25.148H88.6034V26.996H82.3594V17.196ZM90.125 17.196H96.719V19.044H92.141V21.074H95.851V22.894H92.141V25.148H96.719V26.996H90.125V17.196Z" fill="#333333"/>
</g>
</g>
</svg>
