<svg xmlns="http://www.w3.org/2000/svg" fill="none" viewBox="0 0 269 181" height="181" width="269">
<g clip-path="url(#clip0_2359_17682)">
<g clip-path="url(#clip1_2359_17682)">
<path fill="#FBD535" d="M13.1104 41.2309L17.7168 38.467L21.402 51.3651L33.3787 66.1057L45.3555 72.5548L61.9387 74.3974L63.7813 82.689L38.9065 81.7677L22.3233 72.5548L13.1104 54.129V41.2309Z"></path>
<path fill="#FBD535" d="M153.925 91.3088C153.328 90.8713 153.491 89.6846 153.216 89.0951C152.651 87.8196 152.997 88.1793 152.885 87.0674C152.86 86.8534 152.212 85.6211 152.232 85.5584C152.258 85.4748 152.506 85.4144 152.538 85.3099C152.759 84.5995 152.377 84.206 152.39 84.1642C152.416 84.0807 152.664 84.0202 152.697 83.9157C152.776 83.7342 152.703 83.5281 152.782 83.3465C152.834 83.1794 153.505 82.8611 153.715 82.6284C154.438 81.7763 154.592 80.8389 155.866 80.2038C155.975 80.1461 156.638 80.0772 156.747 80.0196C157.48 79.6516 157.516 79.3879 158.568 79.0964C158.671 79.0597 158.778 78.8637 158.875 78.8479C159.323 78.8041 160.877 79.0351 161.391 79.1491C161.496 79.1816 161.535 79.423 161.64 79.4554C161.974 79.5593 162.45 79.5011 162.756 79.6193C162.861 79.6518 163.418 80.2147 163.544 80.2536C165.12 80.9271 166.414 81.6271 167.815 82.4979C170.35 84.0652 172.776 87.0878 175.609 88.2891C175.909 88.4282 177.211 89.9101 177.633 90.2474C178.384 90.7787 179.643 91.1472 180.297 91.6943C181.529 92.7416 180.843 92.6658 182.649 93.4106C183.318 93.6875 185.218 95.3093 185.812 95.2417C186.653 95.1137 186.668 95.5079 187.169 95.6637C187.754 95.8454 191.082 96.2615 191.648 96.2083C191.732 96.2343 192.448 95.7697 192.545 95.7539C193.111 95.7008 193.642 95.9805 194.259 95.691C194.827 95.4095 194.748 94.9267 194.782 94.8914C194.871 94.8273 195.484 95.0638 195.774 95.0163C195.891 95.007 195.977 94.8046 196.08 94.7678C196.197 94.7585 197.205 95.3468 198.006 95.275C198.31 95.2549 199.113 94.5879 199.23 94.5786C199.83 94.4901 201.782 94.2493 202.033 93.6629C202.119 93.4604 202.055 93.005 202.116 92.9554C202.811 92.4152 205.307 92.0455 206.04 91.0132C206.72 90.0789 207.633 90.4546 208.559 90.055C209.005 89.8728 209.692 89.2843 210.11 89.1166C210.926 88.7745 210.414 88.7297 210.591 88.6015C210.986 88.2889 211.683 88.5514 212.43 87.5465C212.948 86.8369 214.186 86.8322 214.9 85.8626C215.027 85.6731 217.141 83.8097 217.271 83.7586C218.538 83.1444 219.741 82.0748 220.971 81.3575C221.286 81.1573 222.829 80.5373 222.945 80.4588C223.095 80.345 222.727 79.9097 224.075 79.1831C225.833 78.2404 226.884 77.2154 228.408 76.2914C229.919 75.4092 230.775 75.3086 231.946 74.0459C233.049 72.8537 233.448 72.3819 234.963 71.4096C236.35 70.5576 239.913 67.8617 240.465 67.1168C240.701 66.8006 241.595 66.2079 242.517 65.6007L269.778 44.3294L268.963 79.4554C268.963 79.4554 267.333 82.6281 256.191 86.5783C256.13 86.628 255.993 86.7 255.814 86.759C255.032 87.0657 254.57 88.1824 253.892 88.5216C252.768 89.0429 250.133 91.1108 249.878 91.123C248.961 91.2733 247.594 92.4293 246.52 93.0119C244.576 94.0345 242.302 95.8251 240.393 96.8124C240.091 96.9708 239.228 97.0231 238.927 97.1816C238.215 97.556 237.447 98.5545 236.721 98.9016C235.851 99.3415 235.342 99.1375 234.75 99.9385C234.204 100.663 233.129 100.878 232.445 101.238C231.042 101.994 229.632 103.068 228.509 103.291C227.359 103.53 225.735 104.629 224.604 105.102C223.794 105.423 223.285 106.617 222.024 106.476C221.71 107.043 220.311 108.304 219.358 108.718C218.542 109.06 219.04 109.077 218.856 109.227C218.795 109.276 217.677 109.043 217.359 109.769C217.307 109.937 217.368 110.184 217.295 110.345C217.216 110.527 216.441 110.882 216.362 111.063C216.283 111.245 216.356 111.451 216.276 111.632C216.223 111.73 216.003 111.776 215.97 111.881C215.899 112.111 215.802 112.791 215.833 112.984C215.835 113.053 216.453 113.864 216.529 114.208C216.627 114.628 217.214 118.339 217.122 118.563C216.729 119.678 216.627 121.113 216.661 122.475C216.641 122.538 217.133 123.24 216.827 123.489C216.772 123.518 215.78 123.393 215.571 123.328C214.862 123.107 213.464 122.375 212.871 122.145C211.407 121.552 210.115 121.288 208.535 120.476C207.473 119.917 205.171 118.262 204.301 117.968C203.904 117.845 203.304 117.933 202.907 117.81C202.448 117.667 201.602 116.556 200.956 116.058C200.836 115.929 200.724 115.848 200.598 115.809C200.515 115.783 199.653 115.904 198.9 115.602C198.314 115.351 198.835 114.779 197.855 114.91C197.69 114.928 195.525 113.934 195.155 113.727C193.656 112.803 192.831 111.996 191.452 111.568C189.135 110.847 186.063 109.091 183.963 107.819C182.506 106.908 182.037 107.312 180.935 106.878C180.768 106.826 180.463 106.112 180.218 105.944C179.719 105.56 178.049 105.041 177.233 104.719C174.967 103.831 173.314 102.446 171.427 101.149C170.88 100.773 168.005 99.4897 167.646 99.5386C165.8 99.881 165.305 99.04 164 99.1153C162.631 99.1711 161.749 98.6218 160.751 97.8534C159.698 97.0446 159.707 97.5288 158.874 97.0408C158.106 96.6414 157.398 95.8255 156.801 95.3879C156.19 94.923 156.456 94.7307 156.063 94.4481C155.599 94.0978 155.752 94.1224 155.288 93.772C154.263 93.018 154.733 91.9496 153.891 91.3441L153.925 91.3088Z"></path>
<path fill="#FFD600" d="M78.8028 78.1052L77.8753 74.9757L76.1064 68.8808L75.074 65.352L74.6953 64.0657L79.4873 58.5212L82.5287 54.9987L90.3044 64.015L105.784 72.9975L121.785 80.3778L140.482 89.3981L151.292 92.8505L149.571 82.921L153.583 78.4858L161.111 77.2517L168.231 79.4651L182.61 90.8093L194.324 93.1221L209.587 86.5252L226.955 73.5254L241.346 63.4724L248.221 58.6671L245.12 63.3396L243.059 66.4337L242.516 65.6005C241.595 66.2077 240.701 66.8004 240.465 67.1167C239.906 67.8824 236.35 70.5574 234.963 71.4094C233.447 72.3817 233.049 72.8535 231.945 74.0457C230.753 75.3019 229.919 75.409 228.408 76.2912C226.891 77.1943 225.854 78.2467 224.074 79.1829C222.726 79.9095 223.067 80.3592 222.945 80.4586C222.85 80.5436 221.306 81.1636 220.971 81.3573C219.741 82.0746 218.538 83.1442 217.271 83.7584C217.113 83.824 215.027 85.673 214.899 85.8624C214.179 86.8529 212.948 86.8367 212.43 87.5463C211.682 88.5512 210.985 88.2887 210.59 88.6013C210.413 88.7295 210.926 88.7744 210.11 89.1164C209.698 89.2632 209.005 89.8726 208.559 90.0548C207.626 90.4753 206.719 90.0787 206.04 91.013C205.286 92.0389 202.789 92.4085 202.116 92.9552C202.054 93.0049 202.119 93.4603 202.033 93.6627C201.782 94.2491 199.83 94.4899 199.23 94.5784C199.127 94.6151 198.331 95.2612 198.006 95.2748C197.205 95.3466 196.204 94.7374 196.08 94.7677C195.977 94.8044 195.87 95.0003 195.773 95.0162C195.505 95.0701 194.871 94.8271 194.782 94.8912C194.748 94.9265 194.827 95.4093 194.259 95.6908C193.642 95.9803 193.111 95.7006 192.545 95.7537C192.448 95.7696 191.738 96.2132 191.648 96.2081C191.082 96.2613 187.753 95.8452 187.169 95.6635C186.668 95.5077 186.653 95.1136 185.812 95.2416C185.212 95.33 183.312 93.7082 182.649 93.4104C180.815 92.68 181.508 92.735 180.297 91.6941C179.643 91.1471 178.383 90.7785 177.633 90.2472C177.211 89.9099 175.888 88.4216 175.608 88.2889C172.776 87.0876 170.35 84.065 167.815 82.4978C166.414 81.6269 165.099 80.9204 163.543 80.2534C163.418 80.2145 162.867 79.6307 162.756 79.6191C162.443 79.5218 161.967 79.58 161.639 79.4552C161.535 79.4228 161.495 79.1814 161.391 79.1489C160.877 79.0349 159.323 78.8039 158.874 78.8477C158.757 78.857 158.671 79.0595 158.568 79.0962C157.543 79.3733 157.486 79.6305 156.747 80.0194C156.637 80.077 155.975 80.146 155.865 80.2036C154.592 80.8387 154.431 81.797 153.715 82.6283C153.505 82.8609 152.855 83.1857 152.782 83.3463C152.702 83.5279 152.776 83.734 152.696 83.9155C152.664 84.02 152.395 84.074 152.39 84.164C152.371 84.2267 152.759 84.5994 152.538 85.3097C152.505 85.4142 152.237 85.4682 152.231 85.5582C152.205 85.6418 152.853 86.8741 152.884 87.0672C152.997 88.1791 152.65 87.8194 153.216 89.0949C153.49 89.6844 153.327 90.8711 153.924 91.3086C154.76 91.935 154.297 92.9826 155.322 93.7366C155.785 94.0869 155.633 94.0623 156.096 94.4127C156.483 94.7161 156.223 94.8875 156.834 95.3525C157.41 95.7835 158.139 96.6059 158.908 97.0053C159.747 97.4724 159.738 96.9882 160.785 97.8179C161.803 98.5928 162.671 99.1147 164.033 99.0798C165.312 99.0189 165.833 99.8456 167.68 99.5031C168.045 99.4334 170.914 100.738 171.461 101.114C173.348 102.411 175.001 103.795 177.266 104.683C178.061 104.999 179.753 105.525 180.251 105.909C180.497 106.077 180.808 106.769 180.969 106.842C182.064 107.297 182.518 106.866 183.996 107.783C186.09 109.076 189.162 110.833 191.486 111.532C192.864 111.961 193.71 112.774 195.188 113.692C195.553 113.919 197.717 114.913 197.889 114.875C198.854 114.717 198.347 115.315 198.933 115.566C199.686 115.869 200.534 115.72 200.632 115.773C200.757 115.812 200.869 115.893 200.99 116.022L198.346 118.339L193.524 118.307L173.202 118.198L173.181 118.192L168.685 118.146L152.28 108.234L141.043 104.901L95.772 82.7391L78.8237 78.1117L78.8028 78.1052Z"></path>
<path fill="#E7DCCF" d="M17.3586 35.5633L24.4439 23.01C24.4439 23.01 38.3644 15.3541 38.9815 15.4314C39.5987 15.5087 50.4746 17.0568 53.0289 17.1635C55.5832 17.2702 66.6601 18.8349 66.6601 18.8349L74.3524 11.6945C74.3524 11.6945 87.1565 21.4033 86.2819 26.0577C85.4074 30.7122 89.6946 49.5505 70.9437 70.4606C60.5608 82.0575 41.659 71.7819 26.8764 60.3353L17.3377 35.5568L17.3586 35.5633Z"></path>
<path fill="#3C422E" d="M21.0114 73.0159C22.8567 74.6665 26.0486 77.5835 28.0089 78.4221C28.2113 78.5079 29.8111 79.9905 30.0826 80.0749C31.2755 80.5832 32.7018 81.0037 33.6219 81.3585C34.8005 81.8395 35.4231 82.1935 36.6068 82.5843C38.4442 83.1556 42.0731 85.1086 43.7008 84.8814C43.9629 84.8483 45.1577 85.7926 46.1595 85.7374C46.7817 85.7246 47.0285 85.9618 47.5464 85.9165C47.7668 85.8705 48.4066 85.3591 48.7342 85.4838C50.4987 86.2157 51.1906 86.5683 52.9069 86.277C53.4794 86.2029 53.5634 86.5956 53.7031 86.662C54.0594 86.8415 58.1792 86.0372 58.916 85.8767C60.1015 85.6724 61.2703 85.6692 62.3658 85.4598C63.4612 85.2505 64.443 84.8912 65.5947 84.7222C66.505 84.5928 67.7578 83.9512 68.2273 83.9139C69.3047 83.8364 69.3585 84.1052 70.5593 83.6307C71.3272 83.2966 71.5393 82.8355 72.3958 82.4373C72.9029 82.2054 73.4184 82.3886 73.8462 82.3383C74.2805 82.2671 75.1171 81.5648 75.6674 81.4151C76.2868 81.264 77.4008 81.2896 77.972 81.1463C78.3019 81.0427 79.106 80.4449 79.196 80.4499C79.5064 80.409 79.9528 80.5936 80.2984 80.5865C80.4158 80.5771 80.5147 80.3329 80.6047 80.338C80.6882 80.3639 80.7485 80.6118 80.8529 80.6443C81.5211 80.852 82.1577 80.8666 82.779 81.1514C83.6026 81.522 83.1209 81.3035 83.6114 81.2727C84.6809 81.1469 85.1268 81.9958 86.0854 81.8585C87.2226 81.6621 88.6415 83.4322 89.2758 83.6752C90.3759 84.0402 91.7354 84.2337 92.837 84.6678C93.1228 84.7795 93.8935 85.6149 94.1232 85.6863C94.7704 85.8875 95.6692 85.869 96.3336 86.236C97.0189 86.6094 97.8569 88.0385 98.0945 88.1582C98.6805 88.4091 99.0132 88.4438 99.4517 88.5801C100.386 88.9623 101.601 89.1795 102.479 89.5213C102.625 89.5668 102.809 90.082 102.969 90.1548C104.085 90.6163 104.989 90.5078 106.218 91.4167C107.425 92.3192 107.087 92.0079 108.343 92.5357C108.51 92.5876 108.693 93.1028 108.86 93.1548C109.509 93.4252 110.344 93.318 111.328 93.7615C112.562 94.2828 114.022 94.9656 115.073 95.636C116.053 96.2387 118.268 96.9959 119.145 97.2685C120.23 97.6061 120.827 98.0436 121.839 98.4726C122.975 98.9406 123.637 99.536 124.766 99.9557C128.16 101.194 131.578 103.013 135.035 104.34C135.858 104.641 136.389 104.921 137.167 105.438C138.787 106.56 139.365 106.396 140.948 107.048C141.276 107.173 141.873 107.978 141.971 108.031C142.661 108.314 143.348 107.726 142.709 108.971C142.209 109.915 140.371 111.337 140.252 111.644C140.174 111.895 140.25 112.239 140.152 112.483C140.113 112.609 139.85 112.642 139.845 112.732C139.639 113.47 139.427 115.328 139.436 116.11C139.41 116.194 139.669 116.32 139.684 116.417C139.712 116.769 139.5 117.23 139.548 117.52C139.659 118.265 140.655 118.597 140.121 119.875C139.764 120.726 142.083 124.242 142.254 125.533C142.294 125.774 142.121 126.11 142.154 126.372C142.265 127.117 144.963 129.193 145.391 130.174C145.456 130.332 145.28 130.529 145.351 130.597C145.38 130.652 145.877 130.6 145.926 130.661C146.026 130.784 146.376 133.046 146.439 133.433C146.464 133.647 146.313 134.058 146.363 134.119C146.391 134.174 146.646 134.093 146.758 134.173C147.523 134.732 148.426 136.617 149.214 137.32C149.327 137.401 149.905 137.603 150.011 137.705C150.538 138.144 151.676 139.712 152.304 139.976C152.485 140.055 152.725 139.947 152.859 140.034C153.16 140.242 153.942 140.967 154.145 141.052C154.75 141.241 155.71 141.173 156.391 141.338C158.469 141.801 161.649 142.767 163.629 142.512C164.491 142.39 165.699 142.261 166.531 142.016C167.239 141.801 166.778 142.62 166.834 143.027C166.844 143.144 166.957 143.592 167.018 143.909C167.08 144.226 168.433 145.472 168.495 145.789C168.756 147.451 168.936 147.461 169.828 148.792C169.921 148.936 169.967 149.523 170.382 149.881C170.852 150.21 171.418 150.157 171.739 150.303C172.592 150.728 175.341 152.637 176.011 152.547C176.128 152.538 176.227 152.294 176.317 152.299C176.379 152.318 176.952 152.909 177.536 152.724C177.586 153.518 177.985 154.444 178.354 155.246C179.338 157.385 181.73 159.412 183.83 160.317C184.172 160.469 185.346 162.071 185.891 162.012C185.994 161.975 186.107 161.758 186.197 161.763C186.281 161.789 186.341 162.037 186.445 162.069C187.093 162.271 187.969 162.177 188.692 162.355C188.776 162.381 188.836 162.629 188.94 162.662C189.697 162.805 191.328 163.083 192.032 163.027C192.15 163.018 192.215 162.809 192.339 162.779C193.615 162.649 194.19 162.346 195.277 162.02C196.115 161.753 197.077 161.09 197.995 160.642C198.906 160.215 200.816 159.594 201.474 158.951C202.321 158.069 203.607 157.025 204.051 156.407C204.293 156.07 205.134 155.942 205.602 155.469C207.634 153.351 210.386 151.571 211.768 149.114C212.169 148.414 212.275 148.882 212.707 148.375C213.208 147.797 213.461 146.982 214.338 146.591C214.51 146.186 215.635 144.336 215.884 144.344C216.016 144.363 216.571 145.154 217.497 145.121C218.292 145.07 219.831 145.938 220.746 146.383C221.605 146.787 222.874 147.64 223.694 147.872C224.459 148.064 226.511 148.313 227.341 148.296C227.424 148.322 227.551 148.063 227.647 148.047C227.999 148.019 228.46 148.231 228.75 148.184C228.915 148.167 229.436 147.595 229.689 147.445C229.819 147.394 230.434 147.333 230.564 147.281C230.968 147.086 232.7 145.494 232.963 145.163C233.05 145.03 232.942 144.79 233.003 144.74C233.18 144.612 233.17 145.159 233.618 144.381C234.059 143.625 234.82 142.945 234.773 141.991C234.728 141.106 235.006 141.537 235.165 141.173C235.35 140.727 235.849 139.782 235.914 139.573C236.031 139.197 236.13 138.289 236.122 137.874C236.148 137.79 235.89 137.664 235.874 137.567C235.847 136.917 235.937 136.258 235.833 135.561C235.81 135.416 235.027 134.325 234.89 134.031C234.832 133.921 234.778 133.286 234.72 133.176C234.569 132.854 234.099 132.524 233.982 132.236C233.917 132.078 234.093 131.881 234.043 131.82C233.993 131.758 233.524 131.796 233.336 131.737C232.735 131.459 231.542 129.92 230.224 129.372C229.067 128.898 228.147 128.246 227.018 127.826C226.238 127.537 225.908 127.274 225.399 127.07C224.666 126.774 223.679 126.49 222.94 126.214C222.794 126.169 222.355 125.666 222.166 125.538C222.088 125.491 221.958 125.542 221.881 125.496C221.374 125.063 221.66 124.808 221.563 124.457C221.553 124.34 221.33 124.247 221.315 124.151C221.293 123.778 221.336 121.431 221.389 121.333C221.565 120.769 221.681 120.393 221.818 119.954C222.114 119.221 222.209 118.105 222.163 117.151C222.153 117.034 221.93 116.941 221.914 116.845C221.886 116.492 222.099 116.031 222.058 115.721C222.005 115.521 221.351 114.974 221.319 114.781C221.241 114.298 222.612 113.716 222.929 113.288C223.373 112.67 223.503 112.985 223.862 112.57C225.448 110.634 228.411 109.058 230.245 108.093C231.949 107.179 233.834 105.313 235.512 104.483C236.005 104.224 237.104 104.222 237.467 103.716C237.561 103.562 239.943 101.645 240.13 101.634C242.536 101.259 244.407 99.3662 246.172 98.4027C247.212 97.8554 246.954 97.7292 248.298 97.5286C248.926 97.4257 249.366 96.3025 249.428 96.2528C249.523 96.1679 250.517 96.4311 251.224 95.4824C251.554 95.012 254.654 94.0971 255.166 93.4084C255.705 92.7054 256.221 92.8885 256.739 92.179C257.157 91.6445 258.216 90.9653 259.317 90.3683C260.309 89.8289 261.288 89.3313 261.834 88.9741C263.753 87.7375 265.759 86.0701 267.364 85.4004C267.783 85.2327 267.739 84.7838 268.631 84.4195C270.709 83.5533 272.31 81.6451 274.495 80.5829C275.714 79.9766 275.244 80.0139 275.933 79.197C276.609 78.4219 277.698 78.2335 278.446 77.2286C278.56 77.0809 278.724 76.6277 278.837 76.4109C278.891 76.3129 279.111 76.2668 279.144 76.1624C279.359 75.5421 279.114 75.3741 278.996 75.0167C278.959 74.9136 279.067 74.7868 279.018 74.7256C278.981 74.6225 278.477 73.9616 278.414 73.9422C278.233 73.8629 278.027 73.9363 277.86 73.8844C277.762 73.831 277.716 73.6105 277.597 73.5507C277.13 73.3596 276.592 73.7651 276.125 73.9408C275.542 74.1949 273.94 75.0029 273.541 75.4747C272.777 76.3139 270.519 77.9035 269.342 78.5228C267.268 79.5965 265.084 81.3921 262.824 82.8433C262.272 83.2215 259.329 85.4686 259.109 85.5147C257.82 85.7557 258.882 85.5816 258.343 85.9871C258.078 86.1794 256.391 86.2279 256.302 86.292C256.18 86.3914 256.416 86.4419 256.205 86.6054C256.205 86.6054 256.007 86.7272 255.822 86.8071C255.039 87.1138 254.578 88.2305 253.9 88.5697C252.776 89.091 250.141 91.1589 249.885 91.171C248.969 91.3213 247.602 92.4774 246.528 93.06C244.584 94.0826 242.31 95.8731 240.4 96.8604C240.099 97.0188 239.236 97.0712 238.934 97.2296C238.223 97.6041 237.454 98.6025 236.728 98.9496C235.859 99.3896 235.35 99.1855 234.757 99.9866C234.212 100.711 233.137 100.926 232.453 101.286C231.05 102.042 229.64 103.116 228.517 103.34C227.367 103.578 225.743 104.677 224.611 105.15C223.802 105.471 223.293 106.665 222.031 106.525C221.718 107.091 220.318 108.352 219.365 108.766C218.549 109.108 219.048 109.125 218.864 109.275C218.803 109.324 217.684 109.091 217.367 109.817C217.315 109.985 217.375 110.232 217.303 110.393C217.223 110.575 216.449 110.93 216.369 111.111C216.29 111.293 216.363 111.499 216.284 111.68C216.231 111.778 216.01 111.824 215.978 111.929C215.906 112.159 215.809 112.839 215.841 113.032C215.842 113.101 216.461 113.912 216.537 114.256C216.635 114.677 217.222 118.387 217.129 118.611C216.737 119.726 216.634 121.161 216.669 122.523C216.649 122.586 217.14 123.289 216.834 123.537C216.779 123.566 215.788 123.441 215.579 123.376C214.869 123.155 213.471 122.423 212.879 122.193C211.414 121.6 210.123 121.336 208.543 120.524C207.481 119.965 205.179 118.31 204.308 118.016C203.911 117.893 203.312 117.981 202.915 117.858C202.455 117.715 201.61 116.604 200.964 116.106C200.844 115.977 200.731 115.896 200.606 115.857C200.522 115.831 199.66 115.953 198.907 115.65C198.321 115.399 198.842 114.828 197.863 114.958C197.697 114.976 195.533 113.982 195.162 113.775C193.664 112.851 192.838 112.044 191.46 111.616C189.143 110.896 186.071 109.139 183.97 107.867C182.513 106.956 182.044 107.36 180.943 106.926C180.776 106.874 180.471 106.16 180.225 105.992C179.727 105.608 178.056 105.089 177.241 104.767C174.975 103.879 173.322 102.494 171.435 101.197C170.888 100.821 168.013 99.5378 167.654 99.5867C165.807 99.9291 165.313 99.0881 164.007 99.1633C162.639 99.2191 161.757 98.6698 160.759 97.9014C159.705 97.0927 159.715 97.5769 158.882 97.0888C158.113 96.6894 157.405 95.8735 156.809 95.436C156.197 94.9711 156.463 94.7788 156.07 94.4962C155.607 94.1459 155.759 94.1704 155.296 93.8201C154.271 93.0661 154.74 91.9977 153.898 91.3922C153.302 90.9546 153.464 89.768 153.19 89.1785C152.625 87.903 152.971 88.2626 152.858 87.1508C152.833 86.9368 152.186 85.7045 152.206 85.6418C152.232 85.5582 152.479 85.4977 152.512 85.3933C152.733 84.6829 152.351 84.2894 152.364 84.2476C152.39 84.164 152.638 84.1036 152.67 83.9991C152.75 83.8175 152.676 83.6114 152.756 83.4299C152.808 83.2627 153.479 82.9445 153.689 82.7118C154.412 81.8596 154.566 80.9222 155.839 80.2871C155.949 80.2295 156.612 80.1605 156.721 80.1029C157.454 79.7349 157.49 79.4712 158.542 79.1797C158.645 79.143 158.752 78.9471 158.848 78.9312C159.297 78.8874 160.851 79.1185 161.365 79.2325C161.469 79.2649 161.509 79.5063 161.613 79.5388C161.947 79.6426 162.423 79.5844 162.73 79.7027C162.835 79.7351 163.392 80.298 163.518 80.337C165.094 81.0104 166.388 81.7105 167.789 82.5813C170.324 84.1485 172.75 87.1712 175.582 88.3724C175.883 88.5116 177.185 89.9934 177.607 90.3308C178.358 90.862 179.617 91.2306 180.271 91.7777C181.503 92.825 180.816 92.7491 182.623 93.494C183.292 93.7709 185.192 95.3926 185.786 95.3251C186.627 95.1971 186.642 95.5912 187.143 95.747C187.728 95.9288 191.056 96.3448 191.622 96.2917C191.705 96.3176 192.422 95.8531 192.519 95.8373C193.085 95.7841 193.616 96.0638 194.233 95.7744C194.801 95.4928 194.722 95.01 194.756 94.9747C194.845 94.9106 195.458 95.1472 195.748 95.0997C195.865 95.0904 195.951 94.8879 196.054 94.8512C196.171 94.8419 197.179 95.4301 197.98 95.3583C198.284 95.3382 199.086 94.6713 199.204 94.6619C199.804 94.5735 201.756 94.3327 202.007 93.7462C202.093 93.5438 202.029 93.0884 202.09 93.0387C202.784 92.4985 205.281 92.1289 206.014 91.0966C206.693 90.1623 207.607 90.5379 208.533 90.1383C208.979 89.9561 209.665 89.3677 210.084 89.1999C210.9 88.8579 210.387 88.8131 210.565 88.6849C210.959 88.3723 211.656 88.6348 212.404 87.6298C212.922 86.9203 214.16 86.9156 214.874 85.946C215.001 85.7565 217.115 83.8931 217.245 83.842C218.512 83.2277 219.715 82.1581 220.945 81.4408C221.259 81.2406 222.803 80.6207 222.919 80.5422C223.069 80.4284 222.7 79.9931 224.048 79.2664C225.807 78.3238 226.858 77.2988 228.382 76.3748C229.893 75.4926 230.748 75.392 231.919 74.1292C233.023 72.9371 233.421 72.4652 234.937 71.493C236.324 70.641 239.887 67.9451 240.439 67.2002C240.675 66.884 241.569 66.2912 242.49 65.6841C243.343 65.0784 244.202 64.4518 244.524 64.0022C244.679 63.7984 244.855 63.601 245.066 63.4375C246.797 61.7757 250.341 60.5404 251.706 58.6508C252.157 58.0118 254.308 56.6182 255.266 56.1141C255.923 55.7685 256.073 55.6547 256.362 55.2404C257.29 53.9481 257.863 54.2408 258.966 53.713C259.459 53.4537 259.199 53.2584 259.899 52.9949C260.873 52.5873 260.901 50.8775 263.088 50.2513C264.146 49.9389 264.065 48.6534 265.046 48.225C265.662 47.9355 266.121 47.7116 266.54 47.5438C267.905 46.9829 268.653 45.3137 269.776 44.4256C271.11 43.374 272.617 42.6511 273.59 41.1433C274.368 39.9647 274.291 38.52 273.74 37.2718C273.566 36.8741 273.329 36.4568 272.904 36.2787C272.618 36.1669 272.321 36.1661 272.031 36.2136C271.521 36.3071 271.021 36.5181 270.584 36.8177C269.759 37.409 269.14 37.9269 268.435 38.6472C267.514 39.6211 265.985 40.2684 264.932 41.2242C263.309 42.69 261.012 44.0382 259.189 45.1898C258.554 45.6111 258.034 45.8848 257.772 46.2846C257.546 46.7183 255.895 48.1985 255.373 48.403C253.796 49.0582 252.281 51.795 250.575 52.9373C248.82 54.0875 247.029 55.7989 245.265 56.8317C245.046 56.9469 242.135 59.3872 241.933 59.6681C241.564 60.1947 240.753 60.4467 240.062 60.8276C239.72 61.0423 239.372 61.2778 239.137 61.594C238.591 62.318 235.423 64.7013 234.268 65.3963C233.543 65.8125 233.038 65.816 232.54 66.4629C231.18 68.3315 228.524 70.0262 226.71 71.2952C225.754 71.9376 225.374 72.6444 224.483 73.0087C223.248 73.5185 221.744 74.3798 221.266 75.0332C220.896 75.5598 219.95 75.6553 219.429 76.2265C218.271 77.4475 215.533 79.1854 214.006 79.971C212.027 80.9597 210.289 83.6043 208.348 84.3984C207.744 84.6461 207.419 85.3241 207.081 85.3794C205.164 85.6541 203.957 86.5162 202.307 87.3321C201.437 87.7721 200.195 88.2336 199.326 88.376C198.451 88.5393 198.494 88.2547 197.989 88.9225C197.222 89.9901 195.696 89.4471 194.909 89.5463C194.792 89.5556 194.51 89.9489 194.276 90.0367C193.096 90.5177 191.693 90.5396 190.493 90.7165C189.672 90.851 189.671 90.7818 189.106 90.5374C188.541 90.293 188.273 90.7137 188.224 90.7216C188.141 90.6956 188.08 90.4477 187.962 90.3879C187.502 90.2451 187.033 90.2824 186.611 89.9451C186 89.4802 186.233 89.3923 185.297 88.941C184.033 88.2957 183.228 87.4957 182.15 86.8397C181.246 86.2839 180.692 86.2261 179.755 85.408C178.171 84.0219 177.268 83.0993 175.315 82.309C174.625 82.0257 173.066 79.1582 171.734 79.317C169.071 77.2057 166.268 75.7617 163.464 74.9128C163.004 74.7699 162.307 74.5075 162.099 74.4425C160.987 74.1886 158.568 73.9407 157.583 74.1616C157.405 74.2206 156.886 74.5635 156.659 74.6304C155.876 74.868 155.315 74.831 154.326 75.2112C151.69 76.1788 149.263 78.6092 147.784 81.0823C147.577 81.4533 147.523 81.8489 147.384 82.1493C147.345 82.2747 147.103 82.3142 147.05 82.4122C146.881 82.9554 146.777 84.3208 146.748 84.9304C146.757 85.0478 147.001 85.1466 147.011 85.2641C147.001 86.1777 146.834 87.1569 146.936 88.0821L147.616 89.5767C147.538 89.8274 146.788 89.6629 146.607 89.5836C146.21 89.4603 145.228 88.4217 144.781 88.2371C143.77 87.8081 142.819 87.6269 141.838 87.0242C140.15 85.9725 138.274 84.8623 136.722 84.7004C136.195 84.6282 132.118 81.7571 131.691 81.8074C130.27 82.0303 128.945 81.1372 127.597 80.4659C125.976 79.6412 124.043 78.7882 122.523 77.8575C121.43 77.1741 120.188 76.6045 119.062 76.0256C115.825 74.2859 112.426 72.7711 109.142 71.1085C105.977 69.5058 102.438 67.9246 99.2276 66.4682C98.4249 66.1041 97.0106 64.9083 96.5851 64.7301C95.943 64.4389 93.2346 63.2074 92.972 62.8737C92.9432 62.8189 93.107 62.3657 93.0574 62.3045C92.9725 62.2093 91.2316 61.6223 91.1531 61.5063C91.1244 61.4515 91.2608 61.0127 91.2111 60.9515C91.1262 60.8563 90.2418 60.9022 89.956 60.7904C89.3361 60.5748 86.4602 56.8624 85.7234 55.9918C85.6946 55.937 85.503 56.0378 85.439 55.9492C85.2195 55.6977 84.6957 55.0995 84.5662 54.853C84.5439 54.7773 84.6246 54.665 84.6089 54.5684C84.5578 54.438 84.3555 54.3522 84.3606 54.2621C84.3866 54.1785 85.5906 53.1781 85.6491 52.99C86.6921 50.5189 86.7858 49.3336 87.2781 46.6454C87.304 46.5619 87.5936 46.5144 87.5843 46.397C87.8422 45.1253 87.6705 43.468 88.3568 42.5128C88.121 38.7046 87.7822 34.9332 87.5032 31.043C87.351 29.323 86.7594 27.7643 86.1297 26.0334C85.559 24.4812 84.8407 22.8143 84.2008 21.2636L84.1591 21.2506C84.1591 21.2506 84.1721 21.2088 84.1577 21.1814C83.9981 20.811 83.8241 20.4132 83.7271 20.0623C83.1721 18.6066 82.9772 17.1712 81.4632 16.5173C81.1147 16.386 80.015 13.2946 79.1074 12.5313C78.8541 12.315 78.0528 12.0201 77.7994 11.8038C76.7155 10.8711 76.7201 10.4143 75.1996 9.78123C75.1017 9.72788 75.0558 9.50738 74.9514 9.47492C74.6382 9.37756 73.2578 9.17755 73.0166 9.21711C72.9474 9.21853 72.0417 9.92223 71.9206 10.0908C70.769 11.2909 70.0072 12.2684 69.1859 13.7316C69.0792 13.9275 68.6375 14.3172 68.5517 14.5197C68.4644 14.6529 68.5313 14.8799 68.4909 14.9361C68.4505 14.9923 68.2051 14.8243 68.0682 14.8963C67.7866 14.9921 67.4571 15.4625 67.1351 15.6144C66.7101 15.8031 63.1671 16.7409 62.7184 16.7847C62.1171 16.804 61.3993 16.535 60.7836 16.5269C60.6662 16.5362 60.5674 16.7805 60.45 16.7898C58.1463 16.761 56.0332 14.8668 54.7067 14.9356C53.3527 15.0187 52.962 14.5078 52.19 14.6343C51.4453 14.7465 50.3651 13.6546 50.0649 13.5154C49.6603 13.3438 48.9012 13.4286 48.3662 13.3081C48.2618 13.2757 48.208 13.0069 48.1179 13.0018C46.9788 12.7623 45.2621 12.6868 44.1508 12.7996C44.0817 12.801 43.3713 13.2447 43.2539 13.254C41.604 13.4055 39.7814 13.2284 38.717 13.2641C37.9292 13.2942 37.248 13.1282 36.4486 13.2692C36.2829 13.2865 35.9665 13.7151 35.8152 13.7597C35.5531 13.7928 35.2241 13.5989 34.9828 13.6384C34.8863 13.6542 33.3431 14.6409 33.2963 14.718C32.778 15.4276 32.8582 14.9484 32.681 15.0766C32.5924 15.1407 32.6481 15.8455 32.5803 15.916C32.5126 15.9866 32.3089 15.8317 32.1576 15.8763C30.9202 16.2477 29.4735 17.2186 28.2945 17.4019C28.0323 17.435 27.6969 17.262 27.4347 17.295C27.2691 17.3123 25.1853 18.9329 24.6378 19.2209C23.4751 19.8676 23.9288 19.7337 23.1995 20.6068C22.6459 21.2825 20.7083 22.9485 20.6225 23.151C19.7785 25.2028 18.8316 26.2603 17.7292 28.1859C17.3557 28.8718 17.1821 28.8408 17.2861 29.5375C17.3506 29.9929 16.6959 30.1102 16.6101 30.3126C16.4528 30.7449 16.5869 31.5656 16.4022 32.0123C16.3632 32.1377 14.6609 33.1207 14.2234 33.7179C13.8197 34.2798 13.3696 34.2544 13.2838 34.4569C12.7767 35.7198 12.8764 35.178 12.2227 36.0288C11.9805 36.3659 10.6183 39.1273 10.3478 39.7765C10.1631 40.2231 9.74924 40.9652 9.59195 41.3974C9.33584 42.074 9.01199 42.8211 9.0417 43.6093C9.0626 44.6469 9.18048 46.0354 9.2088 46.7545C9.24919 47.7294 8.98148 48.5169 9.13415 49.5725C9.22882 50.1519 9.83339 49.6066 9.23255 51.0237C8.93607 51.7564 11.6728 58.8625 12.0932 60.1617C12.2714 60.7671 13.0904 62.6256 13.4198 63.1862C13.714 63.713 15.5603 66.0971 15.5918 66.2903C15.6536 66.6073 15.4077 67.1037 15.455 67.3934C15.6128 68.3589 20.0426 72.3023 20.8666 73.0397L21.0114 73.0159ZM168.253 121.449C167.815 121.312 167.682 121.592 167.24 121.615C166.922 121.608 165.48 121.457 165.43 121.396C165.381 121.335 165.515 121.124 165.47 120.973C165.375 120.691 164.144 119.346 164.573 118.998C164.894 118.777 165.919 119.531 166.361 119.508C166.859 120.19 168.405 120.373 168.253 121.449ZM166.261 136.548C166.068 136.579 165.536 137.262 165.328 137.266C164.653 137.377 163.35 136.926 162.521 136.943C161.643 136.968 161.601 137.322 160.516 136.984C159.687 136.704 158.502 136.61 157.757 136.356C157.471 136.244 156.839 135.406 156.735 135.373C156.386 135.242 155.711 135.353 155.348 135.194C155.264 135.168 154.464 134.576 154.435 134.521C154.009 133.976 155.021 134.405 153.813 133.869C153.625 133.811 151.259 131.334 151.158 131.142C150.724 130.182 150.307 128.724 149.867 127.854C149.457 127.039 146.985 124.529 146.921 124.074C146.714 122.749 145.841 121.951 145.793 121.661C145.722 121.226 145.797 120.471 145.731 119.946C145.605 119.174 145.298 117.658 145.031 116.452C144.987 116.301 144.608 115.679 144.563 115.527C144.469 114.948 145.056 114.604 145.297 114.198C145.385 114.064 145.276 113.824 145.337 113.775C145.398 113.725 145.623 113.886 145.76 113.814C146.776 113.42 146.879 112.054 146.975 111.969C146.975 111.969 147.327 111.941 147.697 111.782C147.964 111.658 148.976 111.423 149.037 111.373C149.092 111.345 149.041 110.847 149.102 110.798C149.163 110.748 149.589 110.926 149.809 110.88C149.926 110.871 149.991 110.662 150.115 110.632C150.377 110.599 150.692 110.765 150.954 110.732C151.072 110.723 151.164 110.499 151.288 110.469C151.667 110.427 151.695 110.779 151.814 110.839C151.947 110.926 152.229 110.83 152.368 110.897C152.677 111.084 153.293 111.826 153.391 111.879C154.507 112.341 157.101 114.086 157.66 115.383C157.725 115.541 157.549 115.738 157.62 115.806C157.705 115.901 158.016 115.562 158.383 116.593C158.598 117.301 159.387 118.738 159.447 119.284C159.59 120.222 159.129 120.308 159.971 120.913C160.449 121.291 160.477 122.377 160.715 122.863C160.946 123.301 161.179 123.58 161.411 124.087C161.468 124.197 162.491 125.179 162.547 125.22C162.735 125.278 162.962 125.211 163.123 125.284C164.163 125.768 164.972 126.111 166.108 126.51C166.191 126.536 166.304 126.983 166.904 126.895C167.221 126.833 168.123 126.289 168.398 126.214C170.598 125.912 172.544 125.028 174.7 124.576C174.996 124.507 175.998 124.452 176.112 124.602C176.366 124.887 175.58 125.353 175.438 125.515C174.945 126.072 172.663 127.815 172.583 127.996C172.318 128.555 171.354 130.845 171.076 131.079C171.014 131.129 170.79 130.967 170.653 131.039C170.098 131.279 168.913 133.248 168.765 133.797C168.544 134.508 168.574 135.296 168.215 136.009C168.161 136.107 167.962 136.16 167.908 136.258C167.821 136.391 167.909 136.625 167.848 136.674C167.753 136.759 166.66 136.443 166.302 136.492L166.261 136.548ZM177.633 146.888C177.633 146.888 178.196 147.728 177.355 147.856C176.989 147.925 176.947 147.546 176.843 147.513C176.446 147.39 175.798 147.486 175.456 147.334C175.31 147.289 175.128 146.843 174.966 146.701C174.103 146.089 173.657 145.904 173.028 144.907C173.006 144.831 173.114 144.704 173.071 144.622C172.927 144.348 172.377 143.833 172.353 143.689C172.32 143.426 172.493 143.091 172.46 142.828C172.451 142.711 172.228 142.619 172.212 142.522C172.202 141.671 172.426 141.466 172.165 140.537C172.014 139.917 172.217 138.972 172.452 138.289C172.582 137.871 173.451 137.064 173.47 137.002C173.734 136.373 173.751 135.806 174.269 135.096C175.333 133.663 176.616 131.449 178.044 129.877C179.397 128.396 179.72 128.611 181.275 127.88C182.22 127.418 182.272 126.219 182.49 126.035C182.544 126.006 182.775 126.147 182.885 126.089C183.097 125.995 183.327 125.699 183.518 125.599C183.903 125.466 184.662 125.381 184.991 125.208C185.559 124.927 186.144 123.78 186.6 123.715C186.765 123.698 186.982 123.811 187.154 123.773C187.32 123.756 187.622 123.3 187.787 123.283C188.222 123.211 188.366 123.852 188.589 123.944C188.792 124.03 189.184 123.946 189.428 124.045C189.574 124.09 190.216 124.679 190.316 124.871C190.339 124.946 190.237 125.052 190.274 125.155C190.31 125.258 190.471 125.331 190.522 125.462C190.573 125.592 190.411 125.817 190.464 126.016C190.481 126.182 190.909 126.499 190.954 126.65C190.979 126.864 190.882 127.544 190.81 127.774C190.778 127.878 190.537 127.918 190.504 128.022C190.426 128.273 190.496 128.638 190.404 128.862C190.318 129.064 187.727 130.917 187.258 131.321C185.905 132.504 184.909 133.5 183.726 134.874C182.908 135.811 182.064 137.199 181.582 138.309C181.41 138.714 179.965 139.754 179.645 140.342C179.278 141.007 179.307 141.795 179.08 142.526C178.801 143.425 178.497 143.812 178.53 144.738C178.586 145.81 177.723 146.595 177.695 146.907L177.633 146.888ZM204.525 131.167C204.427 131.48 203.9 132.439 203.769 132.788C203.368 133.855 203.138 135.479 202.491 136.309C202.154 136.731 201.228 137.13 200.912 137.559C200.75 137.784 199.973 138.665 199.473 138.945C197.86 139.864 194.173 142.957 193.265 144.553C192.917 145.155 193.026 144.731 192.589 145.328C192.34 145.686 191.28 146.296 190.902 146.408C190.751 146.452 190.534 146.339 190.48 146.368C190.425 146.397 190.492 146.624 190.425 146.764C190.38 146.91 190.145 146.928 190.092 147.026C190.014 147.277 189.964 147.88 189.969 148.157C189.977 148.205 190.115 148.867 190.139 149.012C190.17 149.205 190.533 149.73 190.607 149.936C190.651 150.087 190.496 150.291 190.546 150.353C190.61 150.441 191.293 150.379 191.537 150.478C191.671 150.565 191.867 151.038 192.027 151.111C192.215 151.169 193.18 151.309 193.414 151.29C193.532 151.281 193.618 151.078 193.748 151.027C193.844 151.011 193.978 151.099 194.032 151.07C194.697 150.772 195.587 149.605 196.211 149.364C196.979 149.03 196.709 149.015 197.059 148.184C197.104 148.038 199.007 146.338 199.152 146.314C200.93 146.043 200.058 145.977 200.507 145.636C200.562 145.607 201 145.744 201.062 145.694C201.123 145.644 201.086 145.174 201.144 144.986C201.457 144.35 203 143.364 203.699 142.733C204.399 142.103 206.102 141.12 206.518 140.516C206.605 140.383 206.518 140.15 206.579 140.1C206.817 139.922 207.518 140.69 207.749 140.83C208.559 141.242 209.381 141.177 210.223 141.416C210.452 141.487 210.907 141.72 210.869 141.915C210.849 142.275 210.045 142.208 209.99 142.237C209.935 142.266 210.017 142.52 209.936 142.633C209.741 142.893 209.213 143.118 208.996 143.372C208.646 143.836 208.449 144.691 208.198 145.277C208.086 145.563 206.588 146.037 206.11 146.026C206.649 147.018 205.945 146.41 205.768 146.538C205.707 146.588 205.771 147.043 205.685 147.246C205.572 147.463 203.302 149.094 203.13 149.499C202.708 150.49 202.503 150.266 201.806 151.035C200.513 152.466 197.286 154.304 195.486 155.234C195.027 155.458 193.869 156.678 193.607 156.712C193.344 156.745 193.009 156.572 192.761 156.632C192.575 156.643 192.293 156.739 191.886 156.795C191.527 156.844 190.42 157.165 190.15 157.149C189.438 157.157 187.428 156.922 186.774 156.741C186.69 156.715 186.651 156.474 186.526 156.435C186.359 156.383 186.111 156.443 185.971 156.377C185.873 156.324 185.821 156.124 185.723 156.071C185.59 155.984 185.363 156.051 185.307 156.01C185.251 155.97 185.391 155.739 185.347 155.587C185.302 155.436 183.393 153.032 183.266 152.924C183.14 152.816 182.906 152.904 182.85 152.864C182.794 152.823 182.928 152.613 182.89 152.441C182.8 152.069 182.535 151.963 182.77 151.28C183.075 150.298 182.889 148.614 183.231 147.368C183.51 146.47 183.833 144.989 184.251 143.79C184.329 143.539 184.253 143.195 184.331 142.944C184.37 142.819 184.928 142.351 185.007 142.169C185.274 141.679 185.582 140.469 186.24 140.192C187.475 139.683 187.522 138.277 188.455 137.192C189.063 136.488 191.278 135.183 191.601 134.733C192.187 133.953 193.585 132.99 194.903 132.139C195.716 131.659 197.129 129.692 197.494 129.623C197.66 129.605 197.891 129.746 198.049 129.68C198.475 129.561 199.278 128.894 199.557 129.027C199.906 129.158 199.984 129.274 200.66 129.163C200.825 129.146 201.127 128.69 201.293 128.673C201.41 128.663 203.107 129.466 203.767 129.258C203.86 129.769 204.638 129.919 204.652 129.946C204.681 130.001 204.583 130.979 204.491 131.202L204.525 131.167ZM230.759 137.375C230.753 137.762 230.583 138.237 230.597 138.631C230.605 138.679 230.732 139.154 230.767 139.485C230.776 139.603 231.035 139.729 231.029 139.819C231.003 139.903 230.469 140.149 230.396 140.309C230.317 140.491 230.39 140.697 230.311 140.879C230.225 141.081 229.28 141.543 229.071 141.845C228.802 142.197 228.701 143.036 228.619 143.079C228.585 143.115 228.147 142.978 227.939 142.983C227.614 142.996 227.902 143.544 227.569 143.509C227.119 143.117 227.195 142.431 227.337 141.902C227.369 141.797 227.61 141.758 227.643 141.653C227.844 141.005 228.35 140.04 228.171 139.732C229.231 139.122 229.592 137.814 230.724 137.341L230.759 137.375ZM210.069 126.589C210.593 126.821 212.047 127.96 212.179 127.978C213.282 128.115 213.723 128.39 214.901 128.871C215.99 129.346 215.941 128.988 216.288 129.05C216.468 129.06 216.835 130.09 217.296 130.005C218.11 129.891 219.856 131.052 220.793 131.573C221.891 132.166 222.786 132.674 223.834 133.503C224.185 133.773 224.64 133.708 224.648 133.757C224.656 133.805 224.581 134.561 224.547 134.596C224.486 134.646 224.276 134.512 224.125 134.556C223.946 134.615 223.331 135.341 223.299 135.445C222.88 136.644 223.034 138.8 222.71 140.211C222.684 140.295 222.436 140.355 222.404 140.46C222.293 140.815 222.345 141.312 222.242 141.716C221.951 141.327 221.489 141.413 221.287 141.327C219.796 140.451 219.481 140.582 218.039 140.065C217.746 139.974 217.114 139.136 217.016 139.083C214.811 138.145 212.423 136.99 210.264 136.273C209.93 136.17 209.448 136.249 209.148 136.11C209.064 136.084 208.633 135.629 208.942 135.519C209.65 134.639 210.021 133.815 209.991 132.66C209.955 130.861 210.153 131.771 210.483 131.003C210.86 130.158 210.452 129.114 210.533 128.338C209.281 128.315 209.899 128.095 209.798 127.536C209.79 127.488 209.607 126.973 209.571 126.939C209.305 126.397 208.741 126.589 208.809 126.152C209.32 126.127 209.623 126.405 210.028 126.576L210.069 126.589ZM21.0343 37.0726C21.1462 36.7866 20.4316 34.9605 20.4548 34.7386C20.4808 34.655 20.7285 34.5946 20.761 34.4901C20.8389 34.2394 20.7693 33.8741 20.8682 33.6298C20.9591 33.3373 21.1336 33.0708 21.2686 32.5628C21.5609 31.6226 22.7477 30.4564 23.0855 29.37C23.6051 27.6985 23.3444 27.8007 24.5753 26.4191C24.927 26.0243 26.847 23.8258 27.0321 23.7459C27.5731 23.4787 28.225 23.2232 28.7187 22.6663C28.9493 22.4401 32.6273 19.9633 32.8959 19.9094C34.847 19.5994 36.8268 18.3131 38.7937 18.0997C39.1106 18.0378 39.5922 18.2563 39.9235 18.2218C40.8144 18.1551 41.2793 17.5435 42.7826 18.0108C44.9959 18.6989 47.5937 18.2234 50.02 19.1839C51.3029 19.6973 53.7477 19.8616 54.9889 20.362C55.7354 20.6858 55.7614 21.6333 57.6828 21.5661C59.0303 21.5038 61.0175 21.9613 62.7951 21.6203C62.9398 21.5965 63.1259 21.219 63.6493 21.4505C64.7796 21.9393 64.9025 21.1756 65.3851 21.0965C66.8745 20.8721 68.4274 20.3697 69.7744 19.9406C71.506 19.3791 72.072 18.2949 73.4037 17.105L74.1558 15.6432C74.6671 15.6189 75.5195 16.0442 75.7301 16.5451C75.9106 16.922 75.8396 17.5186 76.2758 17.8833C77.7671 19.1259 79.3076 22.1253 79.6245 24.1256C79.6482 24.2704 80.0974 24.5934 80.1145 24.7591C80.1762 25.0762 79.8682 25.9198 79.9531 26.0149C80.0811 26.1922 80.2227 25.6634 80.4677 26.4957C80.7953 27.6515 82.3891 29.5218 82.4963 30.7237C82.5492 31.2901 82.2059 32.0999 82.2588 32.6662C82.2681 32.7837 82.7112 33.4942 82.7061 33.5843C82.85 34.8893 82.3159 36.5334 82.509 37.5328C82.702 38.5322 82.5457 39.698 82.6761 40.678C82.6854 40.7955 83.135 41.4851 83.1443 41.6026C83.1707 41.8858 82.9991 43.3218 82.9002 43.566C82.8548 43.7122 82.3397 43.8958 82.2669 44.0565C82.1876 44.238 82.2609 44.4441 82.1815 44.6257C82.1361 44.7719 81.621 44.9555 81.5482 45.1162C81.2387 45.8907 81.9194 46.7209 81.9013 46.8528C81.8689 46.9572 81.5793 47.0047 81.5677 47.1157C81.5482 47.1784 81.957 47.5575 81.7153 48.2614C81.6828 48.3658 81.4415 48.4054 81.4091 48.5099C81.3051 48.8442 81.3984 49.3543 81.2592 49.6548C81.1799 49.8363 80.2491 50.326 79.9926 50.6358C79.6409 51.0305 78.8238 52.7012 78.5853 52.8791C78.5306 52.9079 78.0842 52.7233 78.0164 52.7939C77.7715 52.9927 78.3849 53.2292 77.4931 53.5935C76.5739 53.9723 75.3727 56.1422 74.5955 56.3588C73.3163 56.7172 71.5513 58.7119 70.2619 59.2505C69.6583 59.4981 69.333 60.1761 68.9952 60.2315C67.5202 60.4832 67.5759 61.1879 66.5681 61.6307C65.9306 61.9137 65.4346 61.6679 64.8541 61.6936C64.3154 61.7324 63.277 61.6845 62.8701 61.7413C62.7736 61.7571 61.7974 62.3931 61.3617 62.3951C60.7747 62.4418 59.9238 62.0856 59.4139 62.1791C59.3447 62.1805 58.0442 63.1968 57.9973 63.2739C57.9453 63.441 57.9913 63.6615 57.9393 63.8287C57.886 63.9266 57.6656 63.9727 57.6331 64.0772C57.5551 64.3279 57.4076 65.2444 57.4536 65.4649C57.4693 65.5614 58.4846 66.8623 58.5472 66.8818C58.8748 67.0065 62.3348 67.4406 62.7626 67.3903C62.88 67.381 63.5903 66.9373 63.6595 66.9359C64.5294 66.8627 64.9758 67.0473 65.9915 66.6527C67.3983 66.1048 67.1013 66.4708 68.2961 66.3839C68.4135 66.3746 70.2101 65.6041 70.3808 65.4968C70.9139 65.1814 71.3552 64.425 72.0428 64.57C72.0878 65.0881 71.5315 64.5944 71.4341 64.9078C71.1872 65.7017 70.9752 65.1317 70.8253 65.2455C70.7641 65.2952 70.8221 65.7715 70.7427 65.9531C70.6439 66.1973 70.0588 66.6799 69.7025 67.5314C69.5034 67.9507 68.8367 67.8122 68.8028 67.8475C68.7416 67.8972 68.7787 68.367 68.7448 68.4023C68.6836 68.452 68.459 68.2905 68.3221 68.3625C67.8762 68.5447 66.4425 69.4737 65.8677 69.7762C65.006 70.2645 62.3785 72.0139 61.6194 72.0987C61.2672 72.1267 60.8209 71.9421 60.4961 71.9557C59.93 72.0088 59.6451 72.6306 58.4694 72.2879C58.2397 72.2165 57.4695 71.748 57.1043 71.8177C56.2631 71.9457 55.0808 71.624 53.706 71.7007C51.8408 71.8082 50.4363 71.0966 48.9209 71.4046C47.901 71.5916 47.8509 71.1636 47.0013 70.8766C45.853 70.5195 45.0939 70.6043 43.9455 70.2473C42.7474 69.8291 41.6635 68.8964 40.485 68.4154C40.0804 68.2438 39.3171 68.1211 38.8564 67.9091C38.4727 67.744 37.8634 66.6839 37.3646 66.2997C36.6556 65.7814 36.1847 65.7496 35.9439 65.1248C35.5146 64.0748 33.873 63.6103 32.9033 63.1943C32.7154 63.1358 32.4105 62.4224 32.1651 62.2545C31.3438 61.6554 30.6714 60.2091 29.3597 59.6409C28.9134 59.4563 28.3988 57.9445 27.9051 57.4702C27.1933 56.8136 26.3641 56.1663 26.0667 55.1344C25.9108 54.6048 25.0811 53.5907 24.6547 52.6791C24.2649 51.8706 23.7452 49.4177 23.4186 48.9954C23.007 48.4779 23.1388 49.527 22.9467 48.23C22.7954 47.2435 22.5397 46.2246 22.1615 45.3051C21.6511 44.0008 21.6901 42.8443 21.4836 41.5199C21.3875 40.8714 20.9894 40.6789 20.9314 39.1715C20.8836 38.5151 20.5606 37.9335 20.891 37.1655L21.0343 37.0726ZM17.1665 59.3101C17.1335 59.0479 16.2339 58.3328 16.2009 58.0705C15.942 56.5465 14.4177 54.0105 14.2947 52.712C14.2483 52.1248 14.3091 51.7083 14.2325 50.9971C14.0334 49.3543 14.2626 48.0278 14.2241 46.4577C14.1999 45.9461 14.3405 45.7149 14.3312 45.5975C14.076 43.9142 14.6922 43.258 15.3608 41.7703L15.7857 40.5505C16.3453 40.5183 15.8767 41.2891 15.9695 41.4325C16.189 41.684 16.3695 41.0298 16.6896 42.5042C16.9797 43.8545 16.8637 44.9641 17.0832 46.2468C17.1082 46.4608 17.769 46.987 17.8005 47.1801C17.9862 48.498 17.6948 48.1095 18.3527 49.5285C18.974 50.8444 19.4729 52.2597 20.1113 53.7413C20.6974 55.0233 21.5261 56.3349 22.1827 57.6847C22.5933 58.4997 23.3687 58.8782 23.9009 59.8915C25.1523 62.274 27.559 63.2971 28.63 65.3027C29.4132 66.7606 30.6655 66.7833 31.6279 67.5178C33.0055 68.6106 32.5693 69.2769 34.6967 70.1674C34.9408 70.2662 35.46 71.3213 35.6767 71.4345C37.2951 72.1209 39.0333 73.6007 40.8424 74.4839L41.6994 74.4524C41.7444 74.9705 41.2247 74.5798 41.1087 74.6583C40.7269 74.9291 41.9063 75.1125 42.3276 75.0831C43.7024 75.0064 44.7794 75.5933 46.1667 76.1391C47.5397 76.6576 48.9771 76.6004 50.5877 77.2385C51.8497 77.7455 52.432 77.1245 53.4468 77.0276C54.2267 76.9493 55.067 77.1188 55.9996 77.0651C57.3601 76.961 59.0314 77.1827 60.5574 77.0614C60.8196 77.0283 61.7281 76.463 62.0515 76.3802C62.9187 76.1687 64.0355 76.3326 64.9532 75.8847C65.227 75.7406 65.6998 75.1773 65.8863 75.1666C67.3066 74.9436 68.3728 74.3127 69.7342 73.9111C70.4292 73.7377 70.2487 73.3608 71.0008 72.9301C71.5001 72.65 74.233 70.6354 74.6028 70.1088C75.1823 69.3496 75.6797 69.6646 75.8086 69.5443C75.8699 69.4946 75.7678 69.2337 75.8485 69.1214C75.8954 69.0443 75.9984 69.0076 76.0935 68.9226C76.2643 68.8153 76.4559 68.7144 76.4884 68.61C76.8851 67.7022 76.8623 67.2598 77.6994 66.9243C78.509 66.6032 78.277 65.7291 78.2923 65.4589C78.3206 65.1469 79.7116 63.4713 79.861 61.9597C79.887 61.8761 80.8066 60.8331 80.865 60.645C81.0223 60.2127 81.1722 59.0679 80.839 58.6664C81.0891 58.3775 81.1146 58.9583 81.5072 58.8741C81.6246 58.8648 81.7234 58.6206 81.8134 58.6256C81.8969 58.6516 82.1415 59.1171 82.3034 59.2591C82.3804 59.306 82.5382 59.2405 82.5878 59.3017C82.8555 59.5453 83.275 60.1111 83.4606 60.3979C83.9534 61.1698 85.3472 62.7258 85.6326 63.5019C86.0683 64.531 87.1749 64.875 88.0825 65.6383C88.3711 65.8885 88.8602 66.8196 89.0625 66.9054C89.907 67.2825 90.9417 67.4896 91.7848 67.7975C92.4125 68.0614 93.3939 69.3976 94.0936 69.7984C95.7997 70.7183 97.8552 71.4719 99.4945 72.1648C100.423 72.5679 101.233 72.9803 102.188 73.3689C102.335 73.4144 102.524 73.9087 102.678 74.0024C104.018 74.5562 105.436 75.2952 106.714 75.8987C107.644 76.3709 108.398 76.7429 109.408 77.1028C111.351 77.7756 113.727 78.9724 115.569 80.1179C116.647 80.7739 118.336 81.5281 119.292 82.2835C121.169 83.7605 122.421 83.7832 124.388 84.6009C125.001 84.8374 125.414 86.0884 127.272 86.6661C127.878 86.8543 128.66 87.5787 129.113 87.7424C129.718 87.9306 130.392 88.0483 131.039 88.2495C132.389 88.6923 133.892 88.793 135.175 89.3064C135.357 89.3857 135.993 90.4314 136.71 90.6312C138.505 91.1894 138.632 91.2975 140.206 92.1994C142.403 93.4552 144.165 94.0488 146.404 94.9508C146.55 94.9963 147.527 96.1249 147.938 96.2756C148.885 96.616 149.836 96.0636 150.491 96.3132C150.595 96.3456 150.627 96.5387 150.739 96.6195C150.872 96.7067 151.127 96.6253 151.162 96.6592C151.197 96.6931 151.054 97.1527 151.104 97.214C151.153 97.2753 151.387 97.1874 151.52 97.2747C152.102 97.6848 152.852 99.178 153.466 99.7813C155.286 101.585 157.384 101.687 159.641 102.824C162.498 104.239 164.028 104.325 167.019 105.163C168.417 105.529 169.855 107.237 170.97 107.629C171.304 107.733 171.814 107.639 172.1 107.751C172.427 107.876 173.791 109.308 174.16 109.446C174.557 109.569 175.157 109.48 175.574 109.61C175.658 109.636 176.209 110.22 176.334 110.259C176.823 110.457 177.766 110.589 178.261 110.766C178.847 111.017 179.387 112.079 180.043 112.397C180.61 112.711 180.89 112.546 181.16 112.561C181.996 112.523 183.895 113.411 184.699 113.845C185.014 114.011 185.645 114.78 185.701 114.821C188.386 115.907 190.997 116.788 193.518 118.328C194.478 118.924 195.274 119.309 196.155 119.789C197.644 120.596 198.986 121.288 200.39 122.297C200.881 122.633 200.934 123.199 202.01 123.053L202.659 123.69L200.807 123.756C200.435 124.213 199.867 123.83 199.356 123.855C199.239 123.864 198.286 124.278 198.175 124.266C197.408 124.303 196.774 124.06 196.441 123.361C196.354 123.127 196.332 122.387 196.276 122.347C196.22 122.307 195.756 122.323 195.721 122.289C195.43 121.901 196.04 121.632 194.582 121.019C194.457 120.98 193.37 119.542 193.09 119.409C192.874 119.296 192.495 119.408 192.251 119.309C192.126 119.27 191.575 118.686 191.477 118.633C191.143 118.529 189.888 118.368 189.515 118.389C188.693 118.455 188.131 118.348 187.261 118.422C186.404 118.453 185.197 118.284 184.444 118.348C184.327 118.357 183.644 118.787 183.527 118.796C183.285 118.836 182.95 118.662 182.688 118.696C182.115 118.77 181.616 119.416 181.157 119.64C180.397 120.023 180.038 119.705 179.471 120.72C179.237 121.105 179.477 121.363 178.433 121.039C177.911 120.877 176.791 120.208 175.996 119.892C175.912 119.866 175.301 119.034 174.973 118.909C174.326 118.708 173.761 118.464 173.21 118.247L173.189 118.24C172.268 117.816 171.449 117.356 170.453 116.656C169.324 115.87 169.201 115.969 168.037 115.516C167.57 115.325 165.638 113.51 165.444 113.472C165.36 113.446 165.234 113.705 165.138 113.721C163.769 113.777 163.531 112.923 162.701 112.574C162.45 112.496 162.085 112.565 161.862 112.473C161.632 112.402 161.156 111.429 160.882 111.206C160.264 110.762 160.452 110.454 159.611 109.918C159.001 109.522 155.461 106.84 155.177 106.798C155.06 106.807 154.933 107.066 154.843 107.061C154.511 107.026 152.914 106.048 152.455 105.906C150.619 105.404 148.3 106.012 146.81 105.503C146.482 105.378 145.639 104.703 144.955 104.399C144.767 104.34 144.391 103.559 144.237 103.465C142.975 102.959 142.108 102.803 141.004 101.933C139.845 101.023 137.843 100.538 136.427 99.9375C134.641 99.1992 132.566 97.7748 130.857 96.7165C128.938 95.5242 127.896 95.338 125.725 94.6629C124.43 94.2604 123.207 93.6281 121.937 93.0729C119.789 92.1759 117.593 90.9893 115.519 90.0008C114.66 89.5963 113.259 89.3898 112.492 89.0596C112.346 89.0141 112.141 88.4924 112.002 88.4261C110.99 87.9971 109.334 87.5052 108.505 86.8579C108.245 86.6625 107.948 85.9974 107.767 85.9181C107.133 85.675 106.492 85.8197 105.556 85.3683C103.72 84.4995 102.384 83.7865 100.44 83.0445C98.8294 82.4064 96.6708 80.6584 95.1243 80.1089C94.588 79.9192 93.6502 80.063 93.1621 79.8655C93.016 79.82 92.8327 79.3048 92.6721 79.232C90.6217 78.3883 88.9133 77.6968 86.7168 76.8077C86.1034 76.5712 85.0362 75.4375 84.3652 75.0914C83.7713 74.7922 83.0512 74.7516 82.4392 74.5843C82.3557 74.5583 82.2011 74.0979 81.643 74.1993C81.4982 74.223 80.8426 74.6379 80.7187 74.6681C80.2009 74.7133 79.7652 74.7154 79.2956 74.7527C78.7987 74.8044 78.337 74.89 77.8754 74.9756C77.1242 75.1087 76.3535 75.3044 75.5397 75.418C75.3466 75.4497 72.8583 76.8987 72.231 77.0015C70.5003 77.2654 69.4081 77.9799 67.7925 78.4629C67.2904 78.6047 66.9271 79.1104 65.9713 79.3861C64.7677 79.7222 63.6249 79.6419 62.5007 79.7964C62.3559 79.8202 62.033 80.2697 61.8673 80.2869C61.4265 80.379 59.8958 79.9261 59.7733 80.0255C59.7121 80.0752 59.7492 80.545 59.688 80.5947C59.5655 80.6941 59.3052 80.132 59.1762 80.2523C59.1149 80.302 59.1521 80.7718 59.1182 80.8071C59.0296 80.8712 58.167 80.6259 57.8631 80.646C57.3662 80.6977 57.027 80.6839 56.718 80.7941C54.56 81.4751 54.1145 80.9929 52.1449 81.068C51.6818 81.0844 50.9199 81.0308 50.197 80.8519C49.6333 80.6767 48.9322 80.2067 48.014 80.2878C47.8966 80.2971 47.1862 80.7408 47.0962 80.7357C46.1715 80.8378 45.9357 80.1229 45.4973 79.9866C44.6268 79.6931 43.1513 79.5781 42.1635 79.2939C41.8085 79.1835 40.9956 78.9995 40.5349 78.7876C40.3469 78.7291 40.2091 78.0677 39.7748 78.1389C38.9819 78.259 36.7746 77.1832 35.681 76.7974C34.6083 76.4181 33.6997 75.9524 32.6961 75.5716C31.4902 75.1051 30.8633 74.5436 29.7748 74.0677C29.489 73.9559 28.4018 72.5181 28.2557 72.4727C26.5955 71.7733 26.0484 70.3659 24.6388 69.7444C24.2968 69.5922 23.3633 67.8814 22.9206 67.5375C21.8395 66.7432 20.4465 63.8584 19.726 63.4511C18.8448 62.971 17.4287 60.3082 17.2356 59.3087L17.1665 59.3101Z"></path>
<path fill="#FBD535" d="M182.87 152.801C182.87 152.801 182.948 152.55 182.91 152.378C182.819 152.006 182.554 151.901 182.79 151.218C183.095 150.236 182.909 148.551 183.25 147.306C183.53 146.407 183.852 144.927 184.271 143.728C184.349 143.477 184.273 143.132 184.351 142.882C184.39 142.756 184.947 142.288 185.027 142.107C185.294 141.617 185.601 140.406 186.26 140.13C187.494 139.62 187.542 138.214 188.475 137.13C189.083 136.425 191.297 135.12 191.62 134.671C192.206 133.89 193.605 132.927 194.923 132.077C195.736 131.597 197.149 129.63 197.514 129.56C197.68 129.543 197.911 129.683 198.068 129.618C198.495 129.498 199.297 128.831 199.577 128.964C199.925 129.095 200.004 129.211 200.679 129.101C200.845 129.083 201.147 128.627 201.313 128.61C201.43 128.601 203.127 129.403 203.787 129.196C203.88 129.706 204.658 129.856 204.672 129.884C204.701 129.938 204.603 130.916 204.51 131.139C204.413 131.453 203.886 132.412 203.755 132.76C203.354 133.827 203.124 135.451 202.477 136.281C202.14 136.703 201.214 137.103 200.898 137.532C200.736 137.756 199.958 138.637 199.459 138.918C197.845 139.837 194.159 142.929 193.251 144.526C192.903 145.128 193.012 144.704 192.575 145.301C192.326 145.659 191.266 146.269 190.888 146.381C190.737 146.425 190.52 146.312 190.465 146.341C190.411 146.37 190.477 146.597 190.411 146.736C190.366 146.883 190.131 146.901 190.077 146.999C189.999 147.25 189.949 147.853 189.955 148.13C189.963 148.178 190.101 148.839 190.124 148.984C190.156 149.177 190.519 149.703 190.593 149.909C190.637 150.06 190.482 150.264 190.532 150.325C190.596 150.414 191.279 150.352 191.523 150.45C191.656 150.538 191.853 151.011 192.013 151.084C192.201 151.142 193.165 151.282 193.4 151.263C193.518 151.254 193.603 151.051 193.734 151C193.83 150.984 193.963 151.071 194.018 151.043C194.683 150.745 195.573 149.578 196.197 149.337C196.965 149.003 196.695 148.988 197.045 148.157C197.09 148.011 198.993 146.311 199.137 146.287C200.916 146.015 200.043 145.95 200.493 145.609C200.548 145.58 200.986 145.716 201.048 145.667C201.109 145.617 201.072 145.147 201.13 144.959C201.442 144.323 202.986 143.336 203.685 142.706C204.385 142.076 206.087 141.093 206.504 140.489C206.591 140.356 206.503 140.122 206.565 140.073C206.803 139.895 207.503 140.662 207.734 140.803C208.545 141.215 209.367 141.15 210.209 141.389C210.438 141.46 210.892 141.693 210.855 141.887C210.834 142.248 210.031 142.181 209.976 142.21C209.921 142.239 210.002 142.493 209.922 142.606C209.726 142.866 209.198 143.091 208.982 143.345C208.632 143.808 208.435 144.664 208.184 145.25C208.072 145.536 206.574 146.01 206.096 145.999C206.635 146.991 205.931 146.383 205.754 146.511C205.693 146.561 205.757 147.016 205.671 147.219C205.558 147.435 203.288 149.067 203.116 149.472C202.693 150.463 202.488 150.239 201.791 151.007C200.499 152.439 197.272 154.277 195.471 155.206C195.013 155.43 193.855 156.651 193.592 156.684C193.33 156.717 192.995 156.544 192.747 156.605C192.56 156.616 192.279 156.711 191.872 156.768C191.513 156.817 190.406 157.137 190.136 157.122C189.424 157.13 187.413 156.894 186.76 156.714C186.676 156.688 186.637 156.447 186.511 156.408C186.344 156.356 186.097 156.416 185.957 156.35C185.859 156.296 185.807 156.097 185.709 156.044C185.575 155.956 185.349 156.023 185.292 155.983C185.236 155.943 185.377 155.711 185.332 155.56C185.288 155.409 183.379 153.005 183.252 152.897C183.126 152.789 182.892 152.877 182.836 152.836L182.87 152.801Z"></path>
<path fill="#FBD535" d="M173.028 144.907C173.028 144.907 173.114 144.704 173.071 144.622C172.927 144.348 172.377 143.833 172.354 143.689C172.321 143.426 172.494 143.091 172.461 142.828C172.452 142.711 172.229 142.619 172.213 142.522C172.203 141.671 172.427 141.466 172.166 140.537C172.015 139.917 172.217 138.972 172.453 138.289C172.582 137.871 173.451 137.064 173.471 137.002C173.735 136.373 173.751 135.806 174.269 135.096C175.333 133.663 176.617 131.449 178.044 129.877C179.398 128.396 179.72 128.611 181.276 127.88C182.221 127.418 182.273 126.219 182.49 126.035C182.545 126.006 182.776 126.147 182.886 126.089C183.098 125.995 183.327 125.699 183.519 125.599C183.904 125.466 184.663 125.381 184.991 125.208C185.56 124.927 186.145 123.78 186.6 123.715C186.766 123.698 186.983 123.811 187.155 123.773C187.32 123.756 187.622 123.3 187.788 123.283C188.222 123.211 188.367 123.852 188.59 123.944C188.792 124.03 189.185 123.946 189.429 124.045C189.575 124.09 190.216 124.679 190.317 124.871C190.339 124.946 190.238 125.052 190.274 125.155C190.311 125.258 190.471 125.331 190.522 125.462C190.573 125.592 190.412 125.817 190.464 126.016C190.482 126.182 190.91 126.499 190.954 126.65C190.979 126.864 190.883 127.544 190.811 127.774C190.779 127.878 190.537 127.918 190.505 128.022C190.427 128.273 190.496 128.638 190.404 128.862C190.318 129.064 187.727 130.917 187.258 131.321C185.906 132.504 184.909 133.5 183.727 134.874C182.909 135.811 182.065 137.199 181.582 138.309C181.411 138.714 179.966 139.754 179.645 140.342C179.278 141.007 179.308 141.795 179.081 142.526C178.801 143.425 178.498 143.812 178.53 144.738C178.587 145.81 177.724 146.595 177.696 146.907C177.676 146.97 178.259 147.747 177.418 147.875C177.053 147.945 177.01 147.565 176.906 147.533C176.509 147.409 175.861 147.506 175.519 147.354C175.373 147.308 175.191 146.862 175.029 146.72C174.166 146.108 173.72 145.923 173.091 144.926L173.028 144.907Z"></path>
<path fill="#FBD535" d="M146.914 124.095C146.707 122.77 145.834 121.972 145.786 121.682C145.715 121.247 145.79 120.492 145.724 119.967C145.598 119.195 145.291 117.678 145.024 116.473C144.98 116.322 144.601 115.7 144.556 115.548C144.461 114.969 145.049 114.625 145.29 114.218C145.377 114.085 145.269 113.845 145.33 113.795C145.391 113.746 145.616 113.907 145.753 113.835C146.768 113.441 146.872 112.075 146.967 111.99C146.967 111.99 147.32 111.962 147.69 111.802C147.957 111.679 148.969 111.444 149.03 111.394C149.085 111.366 149.034 110.868 149.095 110.819C149.156 110.769 149.582 110.947 149.802 110.901C149.919 110.892 149.984 110.683 150.108 110.652C150.37 110.619 150.685 110.786 150.947 110.753C151.064 110.744 151.157 110.52 151.281 110.49C151.66 110.448 151.688 110.8 151.807 110.86C151.94 110.947 152.222 110.851 152.361 110.918C152.669 111.105 153.286 111.847 153.384 111.9C154.5 112.361 157.094 114.107 157.653 115.404C157.718 115.562 157.542 115.759 157.613 115.827C157.698 115.922 158.009 115.583 158.376 116.614C158.591 117.322 159.38 118.759 159.44 119.305C159.583 120.243 159.121 120.328 159.964 120.934C160.441 121.312 160.47 122.397 160.708 122.884C160.938 123.322 161.172 123.601 161.404 124.108C161.461 124.218 162.484 125.2 162.54 125.241C162.728 125.299 162.955 125.232 163.116 125.305C164.156 125.789 164.965 126.132 166.1 126.531C166.184 126.557 166.297 127.004 166.897 126.916C167.214 126.854 168.115 126.309 168.391 126.235C170.591 125.933 172.537 125.049 174.693 124.597C174.989 124.528 175.991 124.473 176.104 124.623C176.359 124.908 175.573 125.374 175.431 125.536C174.938 126.093 172.656 127.835 172.576 128.017C172.311 128.576 171.347 130.866 171.068 131.1C171.007 131.149 170.783 130.988 170.646 131.06C170.09 131.3 168.906 133.269 168.758 133.818C168.537 134.529 168.567 135.317 168.208 136.03C168.154 136.128 167.955 136.181 167.901 136.279C167.814 136.412 167.902 136.645 167.841 136.695C167.745 136.78 166.653 136.464 166.295 136.512C166.102 136.544 165.569 137.226 165.361 137.231C164.686 137.341 163.383 136.891 162.554 136.908C161.676 136.933 161.635 137.286 160.549 136.949C159.72 136.668 158.536 136.575 157.791 136.32C157.505 136.209 156.872 135.37 156.768 135.338C156.419 135.207 155.744 135.317 155.381 135.159C155.297 135.133 154.497 134.54 154.468 134.486C154.042 133.941 155.054 134.37 153.847 133.834C153.659 133.776 151.292 131.298 151.191 131.107C150.757 130.147 150.34 128.688 149.901 127.819C149.49 127.003 147.019 124.494 146.954 124.038L146.914 124.095Z"></path>
</g>
</g>
<defs>
<clipPath id="clip0_2359_17682">
<rect fill="white" height="181" width="269"></rect>
</clipPath>
<clipPath id="clip1_2359_17682">
<rect transform="translate(34.3438 -38) rotate(17.2695)" fill="white" height="146.005" width="267.677"></rect>
</clipPath>
</defs>
</svg>
